<?xml version="1.0" encoding="UTF-8"?>
<svg width="300px" height="250px" viewBox="0 0 300 250" version="1.1" xmlns="http://www.w3.org/2000/svg" xmlns:xlink="http://www.w3.org/1999/xlink">
    <title>Illustrations / Énseignant</title>
    <g id="Illustrations-/-Énseignant" stroke="none" stroke-width="1" fill="none" fill-rule="evenodd">
        <g id="Group-49" transform="translate(29.000000, 28.000000)">
            <path d="M7.1863,97.2849 C8.5863,102.2539 13.7503,105.1469 18.7193,103.7449 L13.6473,85.7509 C8.6773,87.1519 5.7853,92.3159 7.1863,97.2849 Z" id="Stroke-1" stroke="#E65025" stroke-width="3" stroke-linecap="round" stroke-linejoin="round"></path>
            <path d="M86.1726,97.6511 C84.3666,102.4871 78.9826,104.9441 74.1456,103.1391 L80.6846,85.6241 C85.5216,87.4301 87.9786,92.8151 86.1726,97.6511 Z" id="Stroke-3" stroke="#E65025" stroke-width="3" stroke-linecap="round" stroke-linejoin="round"></path>
            <path d="M46.739,108.4807 C20.926,108.4807 7.10542736e-15,129.4067 7.10542736e-15,155.2197 L7.10542736e-15,194.4207 C7.10542736e-15,204.8187 93.478,204.8187 93.478,194.4207 L93.478,155.2197 C93.478,129.4067 72.552,108.4807 46.739,108.4807" id="Fill-5" fill="#FEFEFE"></path>
            <path d="M46.739,108.4807 C20.926,108.4807 7.10542736e-15,129.4067 7.10542736e-15,155.2197 L7.10542736e-15,194.4207 C7.10542736e-15,204.8187 93.478,204.8187 93.478,194.4207 L93.478,155.2197 C93.478,129.4067 72.552,108.4807 46.739,108.4807 Z" id="Stroke-7" stroke="#E65025" stroke-width="3" stroke-linecap="round" stroke-linejoin="round"></path>
            <path d="M67.2566,111.0813 C67.2566,122.4123 58.0706,131.5993 46.7386,131.5993 C35.4076,131.5993 26.2216,122.4123 26.2216,111.0813 C26.2216,99.7493 35.4076,90.5633 46.7386,90.5633 C58.0706,90.5633 67.2566,99.7493 67.2566,111.0813 Z" id="Stroke-9" stroke="#E65025" stroke-width="3" stroke-linecap="round" stroke-linejoin="round"></path>
            <g id="Group-14" transform="translate(12.464000, 53.172100)">
                <path d="M34.275,0 C53.205,0 68.55,15.346 68.55,34.275 C68.55,53.205 53.205,68.551 34.275,68.551 C15.345,68.551 0,53.205 0,34.275 C0,15.346 15.345,0 34.275,0" id="Fill-11" fill="#FEFEFE"></path>
                <path d="M34.275,0 C53.205,0 68.55,15.346 68.55,34.275 C68.55,53.205 53.205,68.551 34.275,68.551 C15.345,68.551 0,53.205 0,34.275 C0,15.346 15.345,0 34.275,0" id="Stroke-13" stroke="#E65025" stroke-width="3" stroke-linecap="round" stroke-linejoin="round"></path>
            </g>
            <path d="M42.8445,95.2375 C42.8445,97.3885 44.5875,99.1325 46.7395,99.1325 C48.8905,99.1325 50.6345,97.3885 50.6345,95.2375" id="Stroke-15" stroke="#E65025" stroke-width="3" stroke-linecap="round" stroke-linejoin="round"></path>
            <path d="M46.739,112.7649 C51.902,112.7649 56.088,108.5789 56.088,103.4169 C50.134,106.1819 43.902,106.1819 37.391,103.4169 C37.391,108.5789 41.577,112.7649 46.739,112.7649 Z" id="Stroke-17" stroke="#E65025" stroke-width="3" stroke-linecap="round" stroke-linejoin="round"></path>
            <path d="M57.6062,135.5334 C54.4682,137.4804 50.7662,138.6054 46.8012,138.6054 C42.7512,138.6054 38.9752,137.4314 35.7942,135.4064" id="Stroke-19" stroke="#E65025" stroke-width="3" stroke-linecap="round" stroke-linejoin="round"></path>
            <path d="M63.8523,91.5271 L55.1203,91.5271 C52.6533,91.5271 50.6343,89.5081 50.6343,87.0411 L50.6343,83.6931 C50.6343,81.2261 52.6533,79.2071 55.1203,79.2071 L63.8523,79.2071 C66.3193,79.2071 68.3373,81.2261 68.3373,83.6931 L68.3373,87.0411 C68.3373,89.5081 66.3193,91.5271 63.8523,91.5271 Z" id="Stroke-21" stroke="#E65025" stroke-width="3" stroke-linecap="round" stroke-linejoin="round"></path>
            <path d="M38.3582,91.5271 L29.6262,91.5271 C27.1592,91.5271 25.1402,89.5081 25.1402,87.0411 L25.1402,83.6931 C25.1402,81.2261 27.1592,79.2071 29.6262,79.2071 L38.3582,79.2071 C40.8262,79.2071 42.8442,81.2261 42.8442,83.6931 L42.8442,87.0411 C42.8442,89.5081 40.8262,91.5271 38.3582,91.5271 Z" id="Stroke-23" stroke="#E65025" stroke-width="3" stroke-linecap="round" stroke-linejoin="round"></path>
            <path d="M50.6345,83.1023 C50.6345,80.9513 48.8905,79.2073 46.7385,79.2073 C44.5875,79.2073 42.8445,80.9513 42.8445,83.1023" id="Stroke-25" stroke="#E65025" stroke-width="3" stroke-linecap="round" stroke-linejoin="round"></path>
            <g id="Group-30" transform="translate(6.969600, 47.678200)">
                <path d="M63.62,22.679 C66.233,25.345 66.245,28.999 68.452,33.207 C70.596,37.295 74.924,43.849 79.54,43.849 L79.54,39.769 C79.54,17.805 61.733,0 39.769,0 C17.806,0 0,17.805 0,39.769 L0.352,44.094 C5.111,44.094 9.113,37.014 11.084,32.683 C12.88,28.737 13.06,25.306 15.552,22.76" id="Fill-27" fill="#FEFEFE"></path>
                <path d="M63.62,22.679 C66.233,25.345 66.245,28.999 68.452,33.207 C70.596,37.295 74.924,43.849 79.54,43.849 L79.54,39.769 C79.54,17.805 61.733,0 39.769,0 C17.806,0 0,17.805 0,39.769 L0.352,44.094 C5.111,44.094 9.113,37.014 11.084,32.683 C12.88,28.737 13.06,25.306 15.552,22.76" id="Stroke-29" stroke="#E65025" stroke-width="3" stroke-linecap="round" stroke-linejoin="round"></path>
            </g>
            <line x1="46.8015" y1="138.6057" x2="46.6765" y2="202.2177" id="Stroke-31" stroke="#E65025" stroke-width="3" stroke-linecap="round" stroke-linejoin="round"></line>
            <path d="M41.7898,154.9827 C41.7898,156.9587 40.1868,158.5597 38.2118,158.5597 C36.2358,158.5597 34.6348,156.9587 34.6348,154.9827 C34.6348,153.0067 36.2358,151.4047 38.2118,151.4047 C40.1868,151.4047 41.7898,153.0067 41.7898,154.9827" id="Fill-33" fill="#E65025"></path>
            <path d="M42.406,172.1819 C42.406,174.1579 40.804,175.7589 38.829,175.7589 C36.853,175.7589 35.251,174.1579 35.251,172.1819 C35.251,170.2059 36.853,168.6039 38.829,168.6039 C40.804,168.6039 42.406,170.2059 42.406,172.1819" id="Fill-35" fill="#E65025"></path>
            <path d="M41.7898,189.3811 C41.7898,191.3571 40.1868,192.9581 38.2118,192.9581 C36.2358,192.9581 34.6348,191.3571 34.6348,189.3811 C34.6348,187.4051 36.2358,185.8031 38.2118,185.8031 C40.1868,185.8031 41.7898,187.4051 41.7898,189.3811" id="Fill-37" fill="#E65025"></path>
            <path d="M47.8845,47.678 L47.8845,12 C47.8845,5.4 53.2845,0 59.8845,0 L230.8685,0 C237.4685,0 242.8685,5.4 242.8685,12 L242.8685,108.366 C242.8685,114.966 237.4685,120.366 230.8685,120.366 L77.8795,120.366" id="Stroke-39" stroke="#E65025" stroke-width="3" stroke-linecap="round" stroke-linejoin="round"></path>
            <path d="M65.1258,81.7795 C65.1258,80.3595 63.9738,79.2075 62.5538,79.2075 C61.1328,79.2075 59.9808,80.3595 59.9808,81.7795 C59.9808,83.2005 61.1328,84.3515 62.5538,84.3515 C63.9738,84.3515 65.1258,83.2005 65.1258,81.7795 Z" id="Stroke-41" stroke="#E65025" stroke-width="3" stroke-linecap="round" stroke-linejoin="round"></path>
            <path d="M39.1258,81.7795 C39.1258,80.3595 37.9738,79.2075 36.5538,79.2075 C35.1328,79.2075 33.9808,80.3595 33.9808,81.7795 C33.9808,83.2005 35.1328,84.3515 36.5538,84.3515 C37.9738,84.3515 39.1258,83.2005 39.1258,81.7795 Z" id="Stroke-43" stroke="#E65025" stroke-width="3" stroke-linecap="round" stroke-linejoin="round"></path>
            <path d="M193.2468,103.0871 L218.2298,103.0871 C220.2958,103.0871 221.9848,104.7761 221.9848,106.8421 L221.9848,120.3661 L189.4928,120.3661 L189.4928,106.8421 C189.4928,104.7761 191.1828,103.0871 193.2468,103.0871 Z" id="Stroke-45" stroke="#E65025" stroke-width="3" stroke-linecap="round" stroke-linejoin="round"></path>
            <path d="M22.5213,70.4377 C26.5253,70.4377 26.5253,74.4377 30.5293,74.4377 C34.5333,74.4377 34.5333,70.4377 38.5383,70.4377 C42.5433,70.4377 42.5433,74.4377 46.5503,74.4377 C50.5543,74.4377 50.5543,70.4377 54.5593,70.4377 C58.5673,70.4377 58.5673,74.4377 62.5753,74.4377 C66.5833,74.4377 66.5833,70.4377 70.5893,70.4377" id="Stroke-47" stroke="#E65025" stroke-width="3" stroke-linecap="round" stroke-linejoin="round"></path>
        </g>
    </g>
</svg>