<?xml version="1.0" encoding="UTF-8"?>
<svg width="300px" height="250px" viewBox="0 0 300 250" version="1.1" xmlns="http://www.w3.org/2000/svg" xmlns:xlink="http://www.w3.org/1999/xlink">
    <title>Illustrations / Enseignant-2</title>
    <g id="Illustrations-/-Enseignant-2" stroke="none" stroke-width="1" fill="none" fill-rule="evenodd">
        <g id="Group-51" transform="translate(23.000000, 39.000000)">
            <path d="M237.0378,9.1836 L69.7558,9.1836 C64.8948,9.1836 60.9558,13.1236 60.9558,17.9846 L60.9558,43.4756 C80.0148,43.6476 95.4448,59.1086 95.5108,78.2216 L95.5718,96.0596 L95.5618,96.0596 C95.5638,96.1256 95.5728,96.1896 95.5728,96.2556 C95.5908,101.5986 91.2738,105.9456 85.9318,105.9636 L85.6818,105.9646 L85.6818,105.9616 C84.3658,112.4856 80.5538,118.1036 75.2848,121.7866 L75.3168,131.2136 C75.3158,131.2166 75.3138,131.2196 75.3128,131.2226 L75.3358,131.2226 L79.0358,132.1806 L237.0378,132.1806 C241.8978,132.1806 245.8388,128.2406 245.8388,123.3796 L245.8388,17.9846 C245.8388,13.1236 241.8978,9.1836 237.0378,9.1836" id="Fill-1" fill="#E94E1B" opacity="0.5"></path>
            <path d="M46.318,131.3174 L26.067,136.7084 C16.841,139.1634 9.401,145.9784 6.148,154.9554 L-7.10542736e-15,171.9184 L60.956,171.7084 L121.911,171.4994 L115.646,154.5784 C112.332,145.6244 104.844,138.8604 95.602,136.4674 L75.336,131.2224" id="Stroke-3" stroke="#4F4F51" stroke-width="4" stroke-linecap="round" stroke-linejoin="round"></path>
            <path d="M46.2868,121.8945 L46.3188,131.3225 C48.9228,136.7195 54.4558,140.4355 60.8478,140.413597 C67.2428,140.3915 72.7528,136.6335 75.3168,131.2135 L75.2848,121.7565" id="Stroke-5" stroke="#4F4F51" stroke-width="4" stroke-linecap="round" stroke-linejoin="round"></path>
            <path d="M85.6198,82.7842 C85.9648,84.4402 86.1348,86.0212 86.1408,87.7802 L86.1849578,100.8092 C86.2338,114.8782 74.8678,126.3222 60.7998,126.370358 C46.7298,126.4192 35.2868,115.0542 35.2378,100.9842 L35.1926482,87.9562 C35.1868,86.1972 35.3588,84.4792 35.6928,82.8202" id="Stroke-7" stroke="#4F4F51" stroke-width="4" stroke-linecap="round" stroke-linejoin="round"></path>
            <path d="M25.819,96.2998 L25.7567908,78.4618 C25.691,59.1998 41.252,43.5318 60.513,43.4655908 L60.514,43.4655908 C79.776,43.3998 95.444,58.9598 95.51,78.2218 L95.572,96.0598" id="Stroke-9" stroke="#4F4F51" stroke-width="4" stroke-linecap="round" stroke-linejoin="round"></path>
            <path d="M86.1305,86.6172 C91.3515,86.7402 95.5545,91.0022 95.5725625,96.2562 C95.5915,101.5982 91.2755,105.9452 85.9315,105.9642 L85.6815,105.9652" id="Stroke-11" stroke="#4F4F51" stroke-width="4" stroke-linecap="round" stroke-linejoin="round"></path>
            <path d="M35.2184,86.792 C29.9884,86.938 25.8014,91.233 25.8193422,96.496 C25.8374,101.839 30.1844,106.155 35.5274,106.137056 L35.7774,106.137056" id="Stroke-13" stroke="#4F4F51" stroke-width="4" stroke-linecap="round" stroke-linejoin="round"></path>
            <path d="M61.2975,75.0322 C55.4765,81.5802 46.7735,84.1562 35.1875,82.7612" id="Stroke-15" stroke="#4F4F51" stroke-width="4" stroke-linecap="round" stroke-linejoin="round"></path>
            <path d="M61.2975,75.0322 C67.1625,81.5402 75.8835,84.0562 87.4595,82.5812" id="Stroke-17" stroke="#4F4F51" stroke-width="4" stroke-linecap="round" stroke-linejoin="round"></path>
            <path d="M77.2770131,92.8662 C77.281,93.9942 76.37,94.9112 75.242,94.9152131 C74.115,94.9192 73.197,94.0082 73.1929869,92.8802 C73.189,91.7532 74.1,90.8352 75.228,90.8311869 C76.356,90.8272 77.273,91.7382 77.2770131,92.8662" id="Fill-19" fill="#4F4F51"></path>
            <path d="M49.3971131,92.9473 C49.4011,94.0753 48.4901,94.9923 47.3621,94.9963131 C46.2351,95.0003 45.3171,94.0893 45.3130869,92.9613 C45.3091,91.8343 46.2201,90.9163 47.3481,90.9122926 C48.4761,90.9093 49.3931,91.8193 49.3971131,92.9473" id="Fill-21" fill="#4F4F51"></path>
            <path d="M51.9157,108.6973 C51.9327,113.5703 55.8957,117.5063 60.7697,117.489355 C65.6417,117.4723 69.5777,113.5093 69.5617486,108.6363" id="Stroke-23" stroke="#4F4F51" stroke-width="4" stroke-linecap="round" stroke-linejoin="round"></path>
            <path d="M114.8239,33.3857 C117.9679,33.3857 117.9679,35.3857 121.1109,35.3857 C124.2539,35.3857 124.2539,33.3857 127.3969,33.3857 C130.5409,33.3857 130.5409,35.3857 133.6839,35.3857 C136.8259,35.3857 136.8259,33.3857 139.9669,33.3857 C143.1089,33.3857 143.1089,35.3857 146.2519,35.3857 C149.3949,35.3857 149.3949,33.3857 152.5389,33.3857 C155.6819,33.3857 155.6819,35.3857 158.8259,35.3857 C161.9699,35.3857 161.9699,33.3857 165.1139,33.3857 C168.2589,33.3857 168.2589,35.3857 171.4029,35.3857 C174.5469,35.3857 174.5469,33.3857 177.6889,33.3857 C180.8349,33.3857 180.8349,35.3857 183.9799,35.3857 C187.1289,35.3857 187.1289,33.3857 190.2759,33.3857 C193.4239,33.3857 193.4239,35.3857 196.5719,35.3857" id="Stroke-25" stroke="#4F4F51" stroke-width="4" stroke-linecap="round" stroke-linejoin="round"></path>
            <path d="M158.8258,53.5342 C161.9708,53.5342 161.9708,51.5342 165.1138,51.5342 C168.2588,51.5342 168.2588,53.5342 171.4028,53.5342 C174.5468,53.5342 174.5468,51.5342 177.6888,51.5342 C180.8348,51.5342 180.8348,53.5342 183.9798,53.5342 C187.1288,53.5342 187.1288,51.5342 190.2758,51.5342 C193.4238,51.5342 193.4238,53.5342 196.5718,53.5342" id="Stroke-27" stroke="#4F4F51" stroke-width="4" stroke-linecap="round" stroke-linejoin="round"></path>
            <path d="M114.8239,51.5342 C117.9679,51.5342 117.9679,53.5342 121.1109,53.5342 C124.2539,53.5342 124.2539,51.5342 127.3969,51.5342 C130.5409,51.5342 130.5409,53.5342 133.6839,53.5342 C136.8259,53.5342 136.8259,51.5342 139.9669,51.5342 C143.1089,51.5342 143.1089,53.5342 146.2519,53.5342" id="Stroke-29" stroke="#4F4F51" stroke-width="4" stroke-linecap="round" stroke-linejoin="round"></path>
            <path d="M183.9801,71.6826 C187.1281,71.6826 187.1281,69.6826 190.2761,69.6826 C193.4231,69.6826 193.4231,71.6826 196.5721,71.6826" id="Stroke-31" stroke="#4F4F51" stroke-width="4" stroke-linecap="round" stroke-linejoin="round"></path>
            <path d="M139.9665,69.6826 C143.1095,69.6826 143.1095,71.6826 146.2515,71.6826 C149.3955,71.6826 149.3955,69.6826 152.5385,69.6826 C155.6825,69.6826 155.6825,71.6826 158.8255,71.6826 C161.9705,71.6826 161.9705,69.6826 165.1135,69.6826 C168.2585,69.6826 168.2585,71.6826 171.4035,71.6826" id="Stroke-33" stroke="#4F4F51" stroke-width="4" stroke-linecap="round" stroke-linejoin="round"></path>
            <path d="M114.8239,69.6826 C117.9679,69.6826 117.9679,71.6826 121.1109,71.6826 C124.2539,71.6826 124.2539,69.6826 127.3969,69.6826" id="Stroke-35" stroke="#4F4F51" stroke-width="4" stroke-linecap="round" stroke-linejoin="round"></path>
            <path d="M152.5387,87.8301 C155.6827,87.8301 155.6827,89.8301 158.8257,89.8301 C161.9707,89.8301 161.9707,87.8301 165.1137,87.8301 C168.2587,87.8301 168.2587,89.8301 171.4027,89.8301 C174.5467,89.8301 174.5467,87.8301 177.6887,87.8301 C180.8347,87.8301 180.8347,89.8301 183.9797,89.8301 C187.1287,89.8301 187.1287,87.8301 190.2757,87.8301 C193.4237,87.8301 193.4237,89.8301 196.5717,89.8301" id="Stroke-37" stroke="#4F4F51" stroke-width="4" stroke-linecap="round" stroke-linejoin="round"></path>
            <path d="M114.8239,87.8301 C117.9679,87.8301 117.9679,89.8301 121.1109,89.8301 C124.2539,89.8301 124.2539,87.8301 127.3969,87.8301 C130.5409,87.8301 130.5409,89.8301 133.6839,89.8301 C136.8259,89.8301 136.8259,87.8301 139.9669,87.8301" id="Stroke-39" stroke="#4F4F51" stroke-width="4" stroke-linecap="round" stroke-linejoin="round"></path>
            <path d="M114.8239,105.9785 C117.9679,105.9785 117.9679,107.9785 121.1109,107.9785 C124.2539,107.9785 124.2539,105.9785 127.3969,105.9785 C130.5409,105.9785 130.5409,107.9785 133.6839,107.9785 C136.8259,107.9785 136.8259,105.9785 139.9669,105.9785 C143.1089,105.9785 143.1089,107.9785 146.2519,107.9785 C149.3949,107.9785 149.3949,105.9785 152.5389,105.9785 C155.6819,105.9785 155.6819,107.9785 158.8259,107.9785 C161.9699,107.9785 161.9699,105.9785 165.1139,105.9785 C168.2589,105.9785 168.2589,107.9785 171.4029,107.9785 C174.5469,107.9785 174.5469,105.9785 177.6889,105.9785 C180.8349,105.9785 180.8349,107.9785 183.9799,107.9785 C187.1289,107.9785 187.1289,105.9785 190.2759,105.9785 C193.4239,105.9785 193.4239,107.9785 196.5719,107.9785" id="Stroke-41" stroke="#4F4F51" stroke-width="4" stroke-linecap="round" stroke-linejoin="round"></path>
            <line x1="188.0475" y1="142.5205" x2="107.2135" y2="142.5205" id="Stroke-43" stroke="#4F4F51" stroke-width="4" stroke-linecap="round" stroke-linejoin="round"></line>
            <path d="M52.7272,44.376 L52.7272,14.757 C52.7272,6.607 59.3342,0 67.4842,0 L239.4802,0 C247.6292,0 254.2362,6.607 254.2362,14.757 L254.2362,132.095 C254.2362,137.853 249.5682,142.521 243.8092,142.521 L232.3062,142.521" id="Stroke-45" stroke="#4F4F51" stroke-width="4" stroke-linecap="round" stroke-linejoin="round"></path>
            <path d="M188.2887,142.5215 L188.2887,136.3215 C188.2887,133.9815 190.1847,132.0845 192.5247,132.0845 L228.0697,132.0845 C230.4097,132.0845 232.3067,133.9815 232.3067,136.3215 L232.3067,148.3335 C232.3067,150.6735 230.4097,152.5705 228.0697,152.5705 L192.5247,152.5705 C190.1847,152.5705 188.2887,150.6735 188.2887,148.3335 L188.2887,142.5215" id="Stroke-47" stroke="#4F4F51" stroke-width="4" stroke-linecap="round" stroke-linejoin="round"></path>
            <line x1="196.5719" y1="142.3281" x2="224.6159" y2="142.3281" id="Stroke-49" stroke="#4F4F51" stroke-width="4" stroke-linecap="round" stroke-linejoin="round"></line>
        </g>
    </g>
</svg>