<?xml version="1.0" encoding="UTF-8"?>
<svg width="300px" height="250px" viewBox="0 0 300 250" version="1.1" xmlns="http://www.w3.org/2000/svg" xmlns:xlink="http://www.w3.org/1999/xlink">
    <title>Illustrations / Équipe</title>
    <g id="Illustrations-/-Équipe" stroke="none" stroke-width="1" fill="none" fill-rule="evenodd">
        <g id="Group-113" transform="translate(19.000000, 38.000000)">
            <path d="M7.1862,53.6897 C8.5862,58.6587 13.7502,61.5517 18.7192,60.1507 L13.6472,42.1557 C8.6782,43.5567 5.7862,48.7207 7.1862,53.6897 Z" id="Stroke-1" stroke="#E65025" stroke-width="3" stroke-linecap="round" stroke-linejoin="round"></path>
            <path d="M86.1726,54.0564 C84.3666,58.8924 78.9826,61.3494 74.1456,59.5444 L80.6846,42.0294 C85.5216,43.8354 87.9786,49.2194 86.1726,54.0564 Z" id="Stroke-3" stroke="#E65025" stroke-width="3" stroke-linecap="round" stroke-linejoin="round"></path>
            <path d="M46.739,64.8855 C20.926,64.8855 0,85.8115 0,111.6245 L0,150.8255 C0,161.2235 93.479,161.2235 93.479,150.8255 L93.479,111.6245 C93.479,85.8115 72.552,64.8855 46.739,64.8855 Z" id="Stroke-5" stroke="#E65025" stroke-width="3" stroke-linecap="round" stroke-linejoin="round"></path>
            <path d="M67.2565,67.4861 C67.2565,78.8181 58.0705,88.0041 46.7385,88.0041 C35.4075,88.0041 26.2225,78.8181 26.2225,67.4861 C26.2225,56.1541 35.4075,46.9681 46.7385,46.9681 C58.0705,46.9681 67.2565,56.1541 67.2565,67.4861 Z" id="Stroke-7" stroke="#E65025" stroke-width="3" stroke-linecap="round" stroke-linejoin="round"></path>
            <path d="M81.0153,43.8528 C81.0153,62.7828 65.6693,78.1278 46.7393,78.1278 C27.8093,78.1278 12.4633,62.7828 12.4633,43.8528 C12.4633,24.9228 27.8093,9.5778 46.7393,9.5778 C65.6693,9.5778 81.0153,24.9228 81.0153,43.8528" id="Fill-9" fill="#FEFEFE"></path>
            <path d="M81.0153,43.8528 C81.0153,62.7828 65.6693,78.1278 46.7393,78.1278 C27.8093,78.1278 12.4633,62.7828 12.4633,43.8528 C12.4633,24.9228 27.8093,9.5778 46.7393,9.5778 C65.6693,9.5778 81.0153,24.9228 81.0153,43.8528 Z" id="Stroke-11" stroke="#E65025" stroke-width="3" stroke-linecap="round" stroke-linejoin="round"></path>
            <path d="M42.8444,51.6424 C42.8444,53.7934 44.5884,55.5374 46.7394,55.5374 C48.8904,55.5374 50.6344,53.7934 50.6344,51.6424" id="Stroke-13" stroke="#E65025" stroke-width="3" stroke-linecap="round" stroke-linejoin="round"></path>
            <path d="M63.2927,47.7478 C63.2927,45.5968 61.5497,43.8528 59.3977,43.8528 C57.2467,43.8528 55.5027,45.5968 55.5027,47.7478" id="Stroke-15" stroke="#E65025" stroke-width="3" stroke-linecap="round" stroke-linejoin="round"></path>
            <path d="M38.8522,47.7478 C38.8522,45.5968 37.1082,43.8528 34.9562,43.8528 C32.8062,43.8528 31.0622,45.5968 31.0622,47.7478" id="Stroke-17" stroke="#E65025" stroke-width="3" stroke-linecap="round" stroke-linejoin="round"></path>
            <path d="M46.739,69.1697 C51.902,69.1697 56.088,64.9847 56.088,59.8217 L37.391,59.8217 C37.391,64.9847 41.577,69.1697 46.739,69.1697 Z" id="Stroke-19" stroke="#E65025" stroke-width="3" stroke-linecap="round" stroke-linejoin="round"></path>
            <path d="M27.2643,119.4148 C27.2643,109.0898 35.6353,100.7188 45.9603,100.7188 C56.2853,100.7188 64.6563,109.0898 64.6563,119.4148 C64.6563,129.7398 56.2853,138.1098 45.9603,138.1098 C35.6353,138.1098 27.2643,129.7398 27.2643,119.4148 Z" id="Stroke-21" stroke="#E65025" stroke-width="3" stroke-linecap="round" stroke-linejoin="round"></path>
            <path d="M175.6833,53.6897 C177.0843,58.6587 182.2473,61.5517 187.2173,60.1507 L182.1443,42.1557 C177.1753,43.5567 174.2833,48.7207 175.6833,53.6897 Z" id="Stroke-23" stroke="#E65025" stroke-width="3" stroke-linecap="round" stroke-linejoin="round"></path>
            <path d="M254.6696,54.0564 C252.8636,58.8924 247.4796,61.3494 242.6436,59.5444 L249.1826,42.0294 C254.0186,43.8354 256.4756,49.2194 254.6696,54.0564 Z" id="Stroke-25" stroke="#E65025" stroke-width="3" stroke-linecap="round" stroke-linejoin="round"></path>
            <path d="M215.237,64.8855 C189.424,64.8855 168.498,85.8115 168.498,111.6245 L168.498,150.8255 C168.498,161.2235 261.976,161.2235 261.976,150.8255 L261.976,111.6245 C261.976,85.8115 241.05,64.8855 215.237,64.8855" id="Fill-27" fill="#FEFEFE"></path>
            <path d="M215.237,64.8855 C189.424,64.8855 168.498,85.8115 168.498,111.6245 L168.498,150.8255 C168.498,161.2235 261.976,161.2235 261.976,150.8255 L261.976,111.6245 C261.976,85.8115 241.05,64.8855 215.237,64.8855 Z" id="Stroke-29" stroke="#E65025" stroke-width="3" stroke-linecap="round" stroke-linejoin="round"></path>
            <path d="M235.7546,67.4861 C235.7546,78.8181 226.5676,88.0041 215.2366,88.0041 C203.9046,88.0041 194.7196,78.8181 194.7196,67.4861 C194.7196,56.1541 203.9046,46.9681 215.2366,46.9681 C226.5676,46.9681 235.7546,56.1541 235.7546,67.4861 Z" id="Stroke-31" stroke="#E65025" stroke-width="3" stroke-linecap="round" stroke-linejoin="round"></path>
            <path d="M249.5124,43.8528 C249.5124,62.7828 234.1664,78.1278 215.2374,78.1278 C196.3074,78.1278 180.9614,62.7828 180.9614,43.8528 C180.9614,24.9228 196.3074,9.5778 215.2374,9.5778 C234.1664,9.5778 249.5124,24.9228 249.5124,43.8528" id="Fill-33" fill="#FEFEFE"></path>
            <path d="M249.5124,43.8528 C249.5124,62.7828 234.1664,78.1278 215.2374,78.1278 C196.3074,78.1278 180.9614,62.7828 180.9614,43.8528 C180.9614,24.9228 196.3074,9.5778 215.2374,9.5778 C234.1664,9.5778 249.5124,24.9228 249.5124,43.8528 Z" id="Stroke-35" stroke="#E65025" stroke-width="3" stroke-linecap="round" stroke-linejoin="round"></path>
            <path d="M211.3415,51.6424 C211.3415,53.7934 213.0855,55.5374 215.2375,55.5374 C217.3875,55.5374 219.1315,53.7934 219.1315,51.6424" id="Stroke-37" stroke="#E65025" stroke-width="3" stroke-linecap="round" stroke-linejoin="round"></path>
            <path d="M215.237,69.1697 C220.399,69.1697 224.585,64.9847 224.585,59.8217 L205.888,59.8217 C205.888,64.9847 210.074,69.1697 215.237,69.1697 Z" id="Stroke-39" stroke="#E65025" stroke-width="3" stroke-linecap="round" stroke-linejoin="round"></path>
            <path d="M250.0349,40.7015 C251.1339,35.3555 250.2999,29.7635 247.5519,25.0475 C241.0739,13.9325 229.0309,6.4615 215.2369,6.4615 C200.7779,6.4615 188.2419,14.6705 182.0239,26.6805 C179.9349,30.7165 179.3439,35.3635 180.2649,39.8125 L181.8509,51.6425 C181.8469,48.1815 183.0729,44.8335 184.2779,41.7435 C185.2889,39.1525 187.7209,37.3955 190.4859,37.0905 C190.7599,37.0605 191.0389,37.0315 191.3239,37.0025 C191.3199,36.9455 191.3139,36.8995 191.3109,36.8415 C193.6069,31.3125 194.4939,30.7225 198.1279,25.7415 C196.1689,33.6325 196.1799,36.6075 196.1799,36.6075 C209.4299,35.7445 229.3289,35.9095 240.0479,37.0985 C242.8049,37.4055 245.2199,39.1685 246.2269,41.7535 C247.4299,44.8405 248.5039,48.6985 248.4989,52.1565 L250.0349,40.7015 Z" id="Fill-41" fill="#FEFEFE"></path>
            <path d="M250.0349,40.7015 C251.1339,35.3555 250.2999,29.7635 247.5519,25.0475 C241.0739,13.9325 229.0309,6.4615 215.2369,6.4615 C200.7779,6.4615 188.2419,14.6705 182.0239,26.6805 C179.9349,30.7165 179.3439,35.3635 180.2649,39.8125 L181.8509,51.6425 C181.8469,48.1815 183.0729,44.8335 184.2779,41.7435 C185.2889,39.1525 187.7209,37.3955 190.4859,37.0905 C190.7599,37.0605 191.0389,37.0315 191.3239,37.0025 C191.3199,36.9455 191.3139,36.8995 191.3109,36.8415 C193.6069,31.3125 194.4939,30.7225 198.1279,25.7415 C196.1689,33.6325 196.1799,36.6075 196.1799,36.6075 C209.4299,35.7445 229.3289,35.9095 240.0479,37.0985 C242.8049,37.4055 245.2199,39.1685 246.2269,41.7535 C247.4299,44.8405 248.5039,48.6985 248.4989,52.1565 L250.0349,40.7015 Z" id="Stroke-43" stroke="#E65025" stroke-width="3" stroke-linecap="round" stroke-linejoin="round"></path>
            <path d="M228.0456,47.1517 C228.0456,48.4547 226.9896,49.5117 225.6866,49.5117 C224.3826,49.5117 223.3256,48.4547 223.3256,47.1517 C223.3256,45.8487 224.3826,44.7917 225.6866,44.7917 C226.9896,44.7917 228.0456,45.8487 228.0456,47.1517" id="Fill-45" fill="#E65025"></path>
            <path d="M207.5134,46.9685 C207.5134,48.2725 206.4564,49.3285 205.1534,49.3285 C203.8504,49.3285 202.7934,48.2725 202.7934,46.9685 C202.7934,45.6655 203.8504,44.6085 205.1534,44.6085 C206.4564,44.6085 207.5134,45.6655 207.5134,46.9685" id="Fill-47" fill="#E65025"></path>
            <path d="M226.1032,91.9383 C222.9652,93.8853 219.2632,95.0103 215.2982,95.0103 C211.2492,95.0103 207.4722,93.8363 204.2912,91.8113" id="Stroke-49" stroke="#E65025" stroke-width="3" stroke-linecap="round" stroke-linejoin="round"></path>
            <path d="M132.7692,15.1512 C111.3252,15.1512 93.9402,32.5352 93.9402,53.9802 L93.9402,133.6962 L171.5972,133.6962 L171.5972,53.9802 C171.5972,32.5352 154.2132,15.1512 132.7692,15.1512 Z" id="Stroke-51" stroke="#E65025" stroke-width="3" stroke-linecap="round" stroke-linejoin="round"></path>
            <path d="M93.2155,63.8167 C94.6165,68.7857 99.7795,71.6787 104.7495,70.2777 L99.6765,52.2827 C94.7075,53.6837 91.8155,58.8477 93.2155,63.8167" id="Fill-53" fill="#FEFEFE"></path>
            <path d="M93.2155,63.8167 C94.6165,68.7857 99.7795,71.6787 104.7495,70.2777 L99.6765,52.2827 C94.7075,53.6837 91.8155,58.8477 93.2155,63.8167 Z" id="Stroke-55" stroke="#E65025" stroke-width="3" stroke-linecap="round" stroke-linejoin="round"></path>
            <path d="M172.2018,64.1834 C170.3958,69.0194 165.0128,71.4764 160.1758,69.6714 L166.7148,52.1564 C171.5518,53.9624 174.0078,59.3464 172.2018,64.1834" id="Fill-57" fill="#FEFEFE"></path>
            <path d="M172.2018,64.1834 C170.3958,69.0194 165.0128,71.4764 160.1758,69.6714 L166.7148,52.1564 C171.5518,53.9624 174.0078,59.3464 172.2018,64.1834 Z" id="Stroke-59" stroke="#E65025" stroke-width="3" stroke-linecap="round" stroke-linejoin="round"></path>
            <path d="M132.7692,75.0125 C106.9562,75.0125 86.0302,95.9385 86.0302,121.7515 L86.0302,160.9525 C86.0302,171.3505 179.5082,171.3505 179.5082,160.9525 L179.5082,121.7515 C179.5082,95.9385 158.5822,75.0125 132.7692,75.0125" id="Fill-61" fill="#FEFEFE"></path>
            <path d="M132.7692,75.0125 C106.9562,75.0125 86.0302,95.9385 86.0302,121.7515 L86.0302,160.9525 C86.0302,171.3505 179.5082,171.3505 179.5082,160.9525 L179.5082,121.7515 C179.5082,95.9385 158.5822,75.0125 132.7692,75.0125 Z" id="Stroke-63" stroke="#E65025" stroke-width="3" stroke-linecap="round" stroke-linejoin="round"></path>
            <path d="M153.2868,77.6131 C153.2868,88.9451 132.7688,98.1311 132.7688,98.1311 C132.7688,98.1311 112.2518,88.9451 112.2518,77.6131 C112.2518,66.2811 121.4368,57.0951 132.7688,57.0951 C144.0998,57.0951 153.2868,66.2811 153.2868,77.6131" id="Fill-65" fill="#FEFEFE"></path>
            <path d="M153.2868,77.6131 C153.2868,88.9451 132.7688,98.1311 132.7688,98.1311 C132.7688,98.1311 112.2518,88.9451 112.2518,77.6131 C112.2518,66.2811 121.4368,57.0951 132.7688,57.0951 C144.0998,57.0951 153.2868,66.2811 153.2868,77.6131 Z" id="Stroke-67" stroke="#E65025" stroke-width="3" stroke-linecap="round" stroke-linejoin="round"></path>
            <path d="M167.0446,53.9798 C167.0446,72.9098 151.6986,88.2548 132.7696,88.2548 C113.8396,88.2548 98.4936,72.9098 98.4936,53.9798 C98.4936,35.0498 113.8396,19.7038 132.7696,19.7038 C151.6986,19.7038 167.0446,35.0498 167.0446,53.9798" id="Fill-69" fill="#FEFEFE"></path>
            <path d="M167.0446,53.9798 C167.0446,72.9098 151.6986,88.2548 132.7696,88.2548 C113.8396,88.2548 98.4936,72.9098 98.4936,53.9798 C98.4936,35.0498 113.8396,19.7038 132.7696,19.7038 C151.6986,19.7038 167.0446,35.0498 167.0446,53.9798 Z" id="Stroke-71" stroke="#E65025" stroke-width="3" stroke-linecap="round" stroke-linejoin="round"></path>
            <path d="M128.8737,61.7693 C128.8737,63.9203 130.6177,65.6643 132.7697,65.6643 C134.9207,65.6643 136.6637,63.9203 136.6637,61.7693" id="Stroke-73" stroke="#E65025" stroke-width="3" stroke-linecap="round" stroke-linejoin="round"></path>
            <path d="M126.4157,74.493 C130.7397,76.562 135.2537,76.406 139.9187,74.493" id="Stroke-75" stroke="#E65025" stroke-width="3" stroke-linecap="round" stroke-linejoin="round"></path>
            <path d="M93.9401,56.9412 C93.3231,40.0232 101.8131,25.8712 116.2571,18.8342 C121.8291,16.2122 128.1221,14.8682 134.7611,15.2012 C155.5561,16.2452 171.5971,34.0152 171.5971,54.8362 L171.5971,57.0572 C160.6641,56.6622 151.5121,50.9222 148.2841,43.0742 C146.0531,43.5692 143.7101,43.8532 141.2771,43.8532 C131.3301,43.8532 122.7131,39.4142 118.4191,32.9262 C114.1061,35.8792 110.7411,40.1162 108.8861,45.0922 C107.5271,48.7402 104.4571,51.4172 100.7471,52.1082 C99.2891,52.3792 97.8601,52.8442 96.6781,53.7392 C95.5581,54.5892 94.6241,55.5482 93.9401,56.9412" id="Fill-77" fill="#FEFEFE"></path>
            <path d="M93.9401,56.9412 C93.3231,40.0232 101.8131,25.8712 116.2571,18.8342 C121.8291,16.2122 128.1221,14.8682 134.7611,15.2012 C155.5561,16.2452 171.5971,34.0152 171.5971,54.8362 L171.5971,57.0572 C160.6641,56.6622 151.5121,50.9222 148.2841,43.0742 C146.0531,43.5692 143.7101,43.8532 141.2771,43.8532 C131.3301,43.8532 122.7131,39.4142 118.4191,32.9262 C114.1061,35.8792 110.7411,40.1162 108.8861,45.0922 C107.5271,48.7402 104.4571,51.4172 100.7471,52.1082 C99.2891,52.3792 97.8601,52.8442 96.6781,53.7392 C95.5581,54.5892 94.6241,55.5482 93.9401,56.9412 Z" id="Stroke-79" stroke="#E65025" stroke-width="3" stroke-linecap="round" stroke-linejoin="round"></path>
            <path d="M148.1052,55.927 C148.1052,53.776 146.3622,52.032 144.2102,52.032 C142.0592,52.032 140.3152,53.776 140.3152,55.927" id="Stroke-81" stroke="#E65025" stroke-width="3" stroke-linecap="round" stroke-linejoin="round"></path>
            <path d="M123.6647,55.927 C123.6647,53.776 121.9207,52.032 119.7687,52.032 C117.6187,52.032 115.8747,53.776 115.8747,55.927" id="Stroke-83" stroke="#E65025" stroke-width="3" stroke-linecap="round" stroke-linejoin="round"></path>
            <line x1="104.7497" y1="166.8152" x2="104.7497" y2="85.7912" id="Stroke-85" stroke="#E65025" stroke-width="3" stroke-linecap="round" stroke-linejoin="round"></line>
            <line x1="115.8747" y1="84.9559" x2="115.8747" y2="166.8149" id="Stroke-87" stroke="#E65025" stroke-width="3" stroke-linecap="round" stroke-linejoin="round"></line>
            <line x1="127.6052" y1="168.2664" x2="127.6052" y2="96.6364" id="Stroke-89" stroke="#E65025" stroke-width="3" stroke-linecap="round" stroke-linejoin="round"></line>
            <line x1="138.7302" y1="95.9324" x2="138.7302" y2="168.2664" id="Stroke-91" stroke="#E65025" stroke-width="3" stroke-linecap="round" stroke-linejoin="round"></line>
            <line x1="150.5016" y1="166.8152" x2="150.5016" y2="84.1392" id="Stroke-93" stroke="#E65025" stroke-width="3" stroke-linecap="round" stroke-linejoin="round"></line>
            <line x1="161.6266" y1="85.7913" x2="161.6266" y2="166.8153" id="Stroke-95" stroke="#E65025" stroke-width="3" stroke-linecap="round" stroke-linejoin="round"></line>
            <path d="M12.6472,42.156 L16.0662,35.568 C18.9802,29.952 25.5002,27.232 31.5412,29.113 L36.0012,30.501 C41.9322,32.346 48.2502,32.569 54.2952,31.144 L62.6492,29.176 C66.9382,28.165 71.3582,30.241 73.3182,34.187 L81.2932,44.524 L81.8082,42.045 C83.5452,33.691 82.0732,24.989 77.6832,17.672 L76.8262,16.242 C74.2142,11.889 70.4152,8.373 65.8732,6.108 L53.6282,0 L54.5392,6.157 L34.1022,1.289 L35.1582,6.283 L27.0012,9.079 C18.1462,12.836 9.4262,20.921 10.9842,32.261 C10.9942,32.33 12.6472,42.156 12.6472,42.156" id="Fill-97" fill="#FEFEFE"></path>
            <path d="M12.6472,42.156 L16.0662,35.568 C18.9802,29.952 25.5002,27.232 31.5412,29.113 L36.0012,30.501 C41.9322,32.346 48.2502,32.569 54.2952,31.144 L62.6492,29.176 C66.9382,28.165 71.3582,30.241 73.3182,34.187 L81.2932,44.524 L81.8082,42.045 C83.5452,33.691 82.0732,24.989 77.6832,17.672 L76.8262,16.242 C74.2142,11.889 70.4152,8.373 65.8732,6.108 L53.6282,0 L54.5392,6.157 L34.1022,1.289 L35.1582,6.283 L27.0012,9.079 C18.1462,12.836 9.4262,20.921 10.9842,32.261 C10.9942,32.33 12.6472,42.156 12.6472,42.156 Z" id="Stroke-99" stroke="#E65025" stroke-width="3" stroke-linecap="round" stroke-linejoin="round"></path>
            <path d="M245.57,59.8221 L248.953,70.6311 L236.632,70.6311 C239.548,78.7381 239.579,87.6521 234.017,98.1311 L220.278,87.3781" id="Stroke-101" stroke="#E65025" stroke-width="3" stroke-linecap="round" stroke-linejoin="round"></path>
            <path d="M184.6569,59.8221 L181.2739,70.6311 L193.5949,70.6311 C190.6789,78.7381 190.6479,87.6521 196.2099,98.1311 L209.9489,87.3781" id="Stroke-103" stroke="#E65025" stroke-width="3" stroke-linecap="round" stroke-linejoin="round"></path>
            <line x1="215.2985" y1="95.0105" x2="215.1735" y2="158.6225" id="Stroke-105" stroke="#E65025" stroke-width="3" stroke-linecap="round" stroke-linejoin="round"></line>
            <path d="M210.2868,111.3875 C210.2868,113.3635 208.6848,114.9655 206.7098,114.9655 C204.7328,114.9655 203.1318,113.3635 203.1318,111.3875 C203.1318,109.4115 204.7328,107.8105 206.7098,107.8105 C208.6848,107.8105 210.2868,109.4115 210.2868,111.3875" id="Fill-107" fill="#E65025"></path>
            <path d="M210.904,128.5867 C210.904,130.5627 209.302,132.1647 207.326,132.1647 C205.35,132.1647 203.749,130.5627 203.749,128.5867 C203.749,126.6107 205.35,125.0097 207.326,125.0097 C209.302,125.0097 210.904,126.6107 210.904,128.5867" id="Fill-109" fill="#E65025"></path>
            <path d="M210.2868,145.7859 C210.2868,147.7619 208.6848,149.3629 206.7098,149.3629 C204.7328,149.3629 203.1318,147.7619 203.1318,145.7859 C203.1318,143.8099 204.7328,142.2089 206.7098,142.2089 C208.6848,142.2089 210.2868,143.8099 210.2868,145.7859" id="Fill-111" fill="#E65025"></path>
        </g>
    </g>
</svg>