<?xml version="1.0" encoding="UTF-8"?>
<svg width="300px" height="250px" viewBox="0 0 300 250" version="1.1" xmlns="http://www.w3.org/2000/svg" xmlns:xlink="http://www.w3.org/1999/xlink">
    <title>Illustrations / France-2</title>
    <g id="Illustrations-/-France-2" stroke="none" stroke-width="1" fill="none" fill-rule="evenodd">
        <path d="M230.636253,89.8501436 C233.956253,98.8671436 235.770253,108.613144 235.770253,118.783144 C235.770253,137.338144 229.734253,154.483144 219.517253,168.362144" id="Stroke-1" stroke="#4F4F51" stroke-width="4" stroke-linecap="round" stroke-linejoin="round" stroke-dasharray="1,8"></path>
        <path d="M192.984853,191.826644 C183.628853,197.080644 173.160853,200.588644 162.020853,201.909644" id="Stroke-37" stroke="#4F4F51" stroke-width="4" stroke-linecap="round" stroke-linejoin="round" stroke-dasharray="1,8"></path>
        <path d="M151.710453,24.3169436 C166.030453,39.6309436 178.073453,50.0299436 187.840453,55.5119436 C197.080453,60.6989436 212.042453,65.8409436 232.727453,70.9419436 C234.871453,71.4709436 236.182453,73.6379436 235.652453,75.7839436 C235.620453,75.9159436 235.581453,76.0459436 235.534453,76.1749436 L225.741453,103.501944 C225.703453,103.607944 225.647453,103.707944 225.575453,103.795944 L205.358453,128.616944 C205.010453,129.044944 205.074453,129.673944 205.502453,130.022944 C205.780453,130.250944 206.159453,130.309944 206.494453,130.180944 L217.638453,125.875944 C218.152453,125.675944 218.731453,125.932944 218.931453,126.447944 C219.001453,126.629944 219.017453,126.829944 218.975453,127.020944 C215.812453,141.543944 214.685453,151.919944 215.592453,158.148944 C216.505453,164.415944 220.067453,170.540944 226.280453,176.524944 C226.653453,176.884944 226.690453,177.470944 226.363453,177.874944 L210.988453,196.882944 C210.724453,197.210944 210.281453,197.337944 209.883453,197.199944 C189.322453,190.069944 176.088453,187.189944 170.181453,188.559944 C164.382453,189.903944 161.439453,196.315944 161.351453,207.794944 C161.347453,208.345944 160.895453,208.790944 160.343453,208.78697 C160.330453,208.78697 160.316453,208.78697 160.304453,208.78697 C144.912453,208.059944 132.647453,206.808944 123.507453,205.032944 C115.003453,203.378944 103.096453,200.082944 87.7874534,195.142944 C86.2104534,194.633944 85.3454534,192.943944 85.8544534,191.366944 C85.9984534,190.916944 86.2484534,190.506944 86.5824534,190.170944 L91.8084534,184.921944 C91.9154534,184.814944 91.9974534,184.682944 92.0464534,184.538944 C97.7484534,167.711944 99.4044534,153.001944 97.0174534,140.408944 C94.6304534,127.821944 87.9544534,116.046944 76.9904534,105.086944 C76.8884534,104.982944 76.7644534,104.903944 76.6274534,104.853944 L50.3974534,95.2729436 C49.5644534,94.9679436 48.9074534,94.3109436 48.6064534,93.4759436 L45.1804534,84.0119436 C44.6154534,82.4549436 45.4214534,80.7339436 46.9804534,80.1709436 C47.0854534,80.1309436 47.1934534,80.0989436 47.3034534,80.0729436 L69.7534534,74.7039436 C70.2064534,74.5949436 70.6744534,74.8139436 70.8814534,75.2309436 L72.7284534,78.9399436 C72.9204534,79.3269436 73.3384534,79.5459436 73.7654534,79.4849436 L89.6294534,77.2089436 C90.1764534,77.1299436 90.5564534,76.6229436 90.4774534,76.0759436 C90.4734534,76.0469436 90.4684534,76.0189436 90.4614534,75.9899436 L85.9514534,56.7399436 C85.8254534,56.2029436 86.1594534,55.6649436 86.6974534,55.5389436 C86.7724534,55.5209436 86.8494534,55.5119436 86.9254534,55.5119436 L96.3974534,55.5119436 C96.7774534,55.5119436 97.1244534,55.7269436 97.2934534,56.0659436 L100.335453,62.1789436 C100.581453,62.6729436 101.182453,62.8749436 101.676453,62.6289436 C101.689453,62.6219436 101.702453,62.6149436 101.716453,62.6079436 L136.867453,43.1269436 C137.186453,42.9499436 137.383453,42.6149436 137.383453,42.2519436 L137.383453,29.6019436 C137.383453,29.1819436 137.646453,28.8059436 138.040453,28.6629436 L150.637453,24.0609436 C151.014453,23.9229436 151.436453,24.0239436 151.710453,24.3169436 Z" id="Stroke-3" stroke="#4F4F51" stroke-width="4" stroke-linecap="round" stroke-linejoin="round"></path>
        <path d="M249.258353,197.913544 L249.258353,197.913544 C248.327353,197.407544 247.175353,197.577544 246.431353,198.329544 L242.592353,202.209544 C241.969353,202.839544 241.606353,203.681544 241.574353,204.566544 L241.291353,212.737544 C241.266353,213.475544 241.503353,214.198544 241.967353,214.771544 C243.922353,217.183544 245.529353,219.615544 246.504353,222.088544 C246.713353,222.619544 247.095353,223.064544 247.581353,223.364544 L251.465353,225.767544 C252.425353,226.360544 253.680353,225.790544 253.864353,224.677544 L255.286353,216.107544 C255.314353,215.941544 255.323353,215.772544 255.315353,215.604544 L254.457353,198.757544 L254.677353,191.424544 L251.258353,191.340544 L250.947353,197.190544 C250.749353,197.921544 249.922353,198.274544 249.258353,197.913544 Z" id="Stroke-5" stroke="#4F4F51" stroke-width="4" stroke-linecap="round" stroke-linejoin="round"></path>
        <path d="M162.018053,82.7163436 C162.018053,88.2183436 157.558053,92.6773436 152.057053,92.6773436 C146.555053,92.6773436 142.096053,88.2183436 142.096053,82.7163436 C142.096053,77.2153436 146.555053,72.7553436 152.057053,72.7553436 C157.558053,72.7553436 162.018053,77.2153436 162.018053,82.7163436" id="Fill-7" class="-fillPrimary" fill-opacity="0.5" fill="#E65025"></path>
        <path d="M189.482953,136.603944 C189.482953,140.850944 186.040953,144.293944 181.793953,144.293944 C177.545953,144.293944 174.102953,140.850944 174.102953,136.603944 C174.102953,132.356944 177.545953,128.913944 181.793953,128.913944 C186.040953,128.913944 189.482953,132.356944 189.482953,136.603944" id="Fill-9" class="-fillPrimary" fill-opacity="0.5" fill="#E65025"></path>
        <path d="M159.746553,126.473144 C159.746553,130.720144 156.304553,134.162144 152.057553,134.162144 C147.809553,134.162144 144.366553,130.720144 144.366553,126.473144 C144.366553,122.226144 147.809553,118.783144 152.057553,118.783144 C156.304553,118.783144 159.746553,122.226144 159.746553,126.473144" id="Fill-11" class="-fillPrimary" fill-opacity="0.5" fill="#E65025"></path>
        <path d="M230.108853,90.0698436 C230.108853,94.3168436 226.665853,97.7588436 222.418853,97.7588436 C218.170853,97.7588436 214.727853,94.3168436 214.727853,90.0698436 C214.727853,85.8228436 218.170853,82.3798436 222.418853,82.3798436 C226.665853,82.3798436 230.108853,85.8228436 230.108853,90.0698436" id="Fill-13" class="-fillPrimary" fill-opacity="0.5" fill="#E65025"></path>
        <path d="M204.863753,188.096144 C204.863753,192.343144 201.420753,195.785144 197.173753,195.785144 C192.925753,195.785144 189.482753,192.343144 189.482753,188.096144 C189.482753,183.849144 192.925753,180.406144 197.173753,180.406144 C201.420753,180.406144 204.863753,183.849144 204.863753,188.096144" id="Fill-15" class="-fillPrimary" fill-opacity="0.5" fill="#E65025"></path>
        <path d="M142.096153,172.715344 C142.096153,176.962344 138.653153,180.405344 134.406153,180.405344 C130.158153,180.405344 126.715153,176.962344 126.715153,172.715344 C126.715153,168.468344 130.158153,165.026344 134.406153,165.026344 C138.653153,165.026344 142.096153,168.468344 142.096153,172.715344" id="Fill-17" class="-fillPrimary" fill-opacity="0.5" fill="#E65025"></path>
        <path d="M111.164553,160.660644 C111.164553,164.907644 107.722553,168.350644 103.475553,168.350644 C99.2275534,168.350644 95.7845534,164.907644 95.7845534,160.660644 C95.7845534,156.413644 99.2275534,152.970644 103.475553,152.970644 C107.722553,152.970644 111.164553,156.413644 111.164553,160.660644" id="Fill-19" class="-fillPrimary" fill-opacity="0.5" fill="#E65025"></path>
        <path d="M98.4526534,96.7592436 C98.4526534,101.006244 95.0096534,104.449244 90.7626534,104.449244 C86.5146534,104.449244 83.0726534,101.006244 83.0726534,96.7592436 C83.0726534,92.5122436 86.5146534,89.0702436 90.7626534,89.0702436 C95.0096534,89.0702436 98.4526534,92.5122436 98.4526534,96.7592436" id="Fill-21" class="-fillPrimary" fill-opacity="0.5" fill="#E65025"></path>
        <path d="M159.746553,53.2768436 C159.746553,57.5238436 156.304553,60.9668436 152.057553,60.9668436 C147.809553,60.9668436 144.366553,57.5238436 144.366553,53.2768436 C144.366553,49.0298436 147.809553,45.5878436 152.057553,45.5878436 C156.304553,45.5878436 159.746553,49.0298436 159.746553,53.2768436" id="Fill-23" class="-fillPrimary" fill-opacity="0.5" fill="#E65025"></path>
        <path d="M123.386253,63.7124436 C123.386253,67.9594436 119.944253,71.4014436 115.697253,71.4014436 C111.449253,71.4014436 108.006253,67.9594436 108.006253,63.7124436 C108.006253,59.4654436 111.449253,56.0224436 115.697253,56.0224436 C119.944253,56.0224436 123.386253,59.4654436 123.386253,63.7124436" id="Fill-25" class="-fillPrimary" fill-opacity="0.5" fill="#E65025"></path>
        <path d="M111.164553,115.393044 C111.164553,119.640044 107.722553,123.083044 103.475553,123.083044 C99.2275534,123.083044 95.7845534,119.640044 95.7845534,115.393044 C95.7845534,111.146044 99.2275534,107.704044 103.475553,107.704044 C107.722553,107.704044 111.164553,111.146044 111.164553,115.393044" id="Fill-27" class="-fillPrimary" fill-opacity="0.5" fill="#E65025"></path>
        <path d="M162.941853,35.7700436 C185.139853,38.6530436 204.608853,50.2310436 217.817853,66.9760436" id="Stroke-29" stroke="#4F4F51" stroke-width="4" stroke-linecap="round" stroke-linejoin="round" stroke-dasharray="1,8"></path>
        <path d="M96.9975534,55.7221436 C108.220553,45.9151436 122.084553,39.0561436 137.383553,36.3511436" id="Stroke-31" stroke="#4F4F51" stroke-width="4" stroke-linecap="round" stroke-linejoin="round" stroke-dasharray="1,8"></path>
        <path d="M78.4868534,78.8061436 C81.1468534,73.9211436 84.2798534,69.3301436 87.8238534,65.0951436" id="Stroke-33" stroke="#4F4F51" stroke-width="4" stroke-linecap="round" stroke-linejoin="round" stroke-dasharray="1,8"></path>
        <path d="M93.8237534,178.924344 C78.1107534,163.706344 68.3437534,142.385344 68.3437534,118.782344 C68.3437534,113.180344 68.8927534,107.706344 69.9427534,102.412344" id="Stroke-35" stroke="#4F4F51" stroke-width="4" stroke-linecap="round" stroke-linejoin="round" stroke-dasharray="1,8"></path>
    </g>
</svg>
