<?xml version="1.0" encoding="UTF-8"?>
<svg width="300px" height="250px" viewBox="0 0 300 250" version="1.1" xmlns="http://www.w3.org/2000/svg" xmlns:xlink="http://www.w3.org/1999/xlink">
    <title>Illustrations / France</title>
    <g id="Illustrations-/-France" stroke="none" stroke-width="1" fill="none" fill-rule="evenodd">
        <g id="Group-5" transform="translate(45.000000, 24.000000)" stroke="#E55024" stroke-width="3">
            <path d="M106.710453,0.316943564 C121.030453,15.6309436 133.073453,26.0289436 142.840453,31.5119436 C152.080453,36.6979436 167.042453,41.8409436 187.727453,46.9419436 C189.871453,47.4709436 191.182453,49.6379436 190.652453,51.7829436 C190.620453,51.9159436 190.581453,52.0459436 190.534453,52.1749436 L180.741453,79.5009436 C180.703453,79.6079436 180.647453,79.7069436 180.575453,79.7949436 L160.358453,104.615944 C160.010453,105.044944 160.074453,105.673944 160.502453,106.022944 C160.780453,106.249944 161.159453,106.309944 161.494453,106.179944 L172.638453,101.875944 C173.152453,101.675944 173.731453,101.932944 173.931453,102.447944 C174.001453,102.629944 174.017453,102.829944 173.975453,103.020944 C170.812453,117.542944 169.685453,127.918944 170.592453,134.148944 C171.505453,140.414944 175.067453,146.540944 181.280453,152.524944 C181.653453,152.884944 181.690453,153.469944 181.363453,153.873944 L165.988453,172.882944 C165.724453,173.210944 165.281453,173.336944 164.883453,173.198944 C144.322453,166.069944 131.088453,163.189944 125.181453,164.558944 C119.382453,165.903944 116.439453,172.314944 116.351453,183.794944 C116.347453,184.345944 115.895453,184.790944 115.343453,184.78697 C115.330453,184.78697 115.316453,184.78697 115.304453,184.78697 C99.9124534,184.059944 87.6474534,182.808944 78.5074534,181.031944 C70.0034534,179.378944 58.0964534,176.082944 42.7874534,171.142944 C41.2104534,170.633944 40.3454534,168.943944 40.8544534,167.366944 C40.9984534,166.916944 41.2484534,166.505944 41.5824534,166.170944 L46.8084534,160.921944 C46.9154534,160.813944 46.9974534,160.682944 47.0464534,160.537944 C52.7484534,143.711944 54.4044534,129.001944 52.0174534,116.408944 C49.6304534,103.820944 42.9544534,92.0469436 31.9904534,81.0859436 C31.8884534,80.9829436 31.7644534,80.9039436 31.6274534,80.8539436 L5.39745337,71.2729436 C4.56445337,70.9679436 3.90745337,70.3109436 3.60645337,69.4759436 L0.180453366,60.0119436 C-0.384546634,58.4539436 0.421453366,56.7339436 1.98045337,56.1699436 C2.08545337,56.1309436 2.19345337,56.0989436 2.30345337,56.0729436 L24.7534534,50.7039436 C25.2064534,50.5949436 25.6744534,50.8139436 25.8814534,51.2309436 L27.7284534,54.9399436 C27.9204534,55.3259436 28.3384534,55.5459436 28.7654534,55.4839436 L44.6294534,53.2079436 C45.1764534,53.1299436 45.5564534,52.6229436 45.4774534,52.0759436 C45.4734534,52.0469436 45.4684534,52.0179436 45.4614534,51.9899436 L40.9514534,32.7399436 C40.8254534,32.2019436 41.1594534,31.6639436 41.6974534,31.5379436 C41.7724534,31.5209436 41.8494534,31.5119436 41.9254534,31.5119436 L51.3974534,31.5119436 C51.7774534,31.5119436 52.1244534,31.7259436 52.2934534,32.0659436 L55.3354534,38.1789436 C55.5814534,38.6729436 56.1824534,38.8749436 56.6764534,38.6289436 C56.6894534,38.6219436 56.7024534,38.6149436 56.7164534,38.6079436 L91.8674534,19.1259436 C92.1864534,18.9499436 92.3834534,18.6149436 92.3834534,18.2519436 L92.3834534,5.60194356 C92.3834534,5.18094356 92.6464534,4.80594356 93.0404534,4.66194356 L105.637453,0.0609435642 C106.014453,-0.0770564358 106.436453,0.0239435642 106.710453,0.316943564 Z" id="Stroke-1"></path>
            <path d="M204.258353,173.913644 L204.258353,173.913644 C203.327353,173.407644 202.175353,173.576644 201.431353,174.329644 L197.592353,178.209644 C196.969353,178.839644 196.606353,179.681644 196.574353,180.566644 L196.291353,188.737644 C196.266353,189.474644 196.503353,190.198644 196.967353,190.770644 C198.922353,193.183644 200.529353,195.615644 201.504353,198.087644 C201.713353,198.619644 202.095353,199.063644 202.581353,199.364644 L206.465353,201.767644 C207.425353,202.359644 208.680353,201.790644 208.864353,200.677644 L210.286353,192.106644 C210.314353,191.940644 210.323353,191.772644 210.315353,191.604644 L209.457353,174.757644 L209.677353,167.424644 L206.258353,167.340644 L205.947353,173.190644 C205.749353,173.920644 204.922353,174.274644 204.258353,173.913644 Z" id="Stroke-3" stroke-linecap="round" stroke-linejoin="round"></path>
        </g>
    </g>
</svg>