<?xml version="1.0" encoding="UTF-8"?>
<svg width="300px" height="250px" viewBox="0 0 300 250" version="1.1" xmlns="http://www.w3.org/2000/svg" xmlns:xlink="http://www.w3.org/1999/xlink">
    <title>Illustrations / France-2</title>
    <g id="Illustrations-/-France-2" stroke="none" stroke-width="1" fill="none" fill-rule="evenodd">
        <g id="Group-37" transform="translate(45.000000, 24.000000)">
            <path d="M106.710453,0.316943564 C121.030453,15.6309436 133.073453,26.0299436 142.840453,31.5119436 C152.080453,36.6989436 167.042453,41.8409436 187.727453,46.9419436 C189.871453,47.4709436 191.182453,49.6379436 190.652453,51.7839436 C190.620453,51.9159436 190.581453,52.0459436 190.534453,52.1749436 L180.741453,79.5019436 C180.703453,79.6079436 180.647453,79.7079436 180.575453,79.7959436 L160.358453,104.616944 C160.010453,105.044944 160.074453,105.673944 160.502453,106.022944 C160.780453,106.250944 161.159453,106.309944 161.494453,106.180944 L172.638453,101.875944 C173.152453,101.675944 173.731453,101.932944 173.931453,102.447944 C174.001453,102.629944 174.017453,102.829944 173.975453,103.020944 C170.812453,117.543944 169.685453,127.919944 170.592453,134.148944 C171.505453,140.415944 175.067453,146.540944 181.280453,152.524944 C181.653453,152.884944 181.690453,153.470944 181.363453,153.874944 L165.988453,172.882944 C165.724453,173.210944 165.281453,173.337944 164.883453,173.199944 C144.322453,166.069944 131.088453,163.189944 125.181453,164.559944 C119.382453,165.903944 116.439453,172.315944 116.351453,183.794944 C116.347453,184.345944 115.895453,184.790944 115.343453,184.78697 C115.330453,184.78697 115.316453,184.78697 115.304453,184.78697 C99.9124534,184.059944 87.6474534,182.808944 78.5074534,181.032944 C70.0034534,179.378944 58.0964534,176.082944 42.7874534,171.142944 C41.2104534,170.633944 40.3454534,168.943944 40.8544534,167.366944 C40.9984534,166.916944 41.2484534,166.506944 41.5824534,166.170944 L46.8084534,160.921944 C46.9154534,160.814944 46.9974534,160.682944 47.0464534,160.538944 C52.7484534,143.711944 54.4044534,129.001944 52.0174534,116.408944 C49.6304534,103.821944 42.9544534,92.0469436 31.9904534,81.0869436 C31.8884534,80.9829436 31.7644534,80.9039436 31.6274534,80.8539436 L5.39745337,71.2729436 C4.56445337,70.9679436 3.90745337,70.3109436 3.60645337,69.4759436 L0.180453366,60.0119436 C-0.384546634,58.4549436 0.421453366,56.7339436 1.98045337,56.1709436 C2.08545337,56.1309436 2.19345337,56.0989436 2.30345337,56.0729436 L24.7534534,50.7039436 C25.2064534,50.5949436 25.6744534,50.8139436 25.8814534,51.2309436 L27.7284534,54.9399436 C27.9204534,55.3269436 28.3384534,55.5459436 28.7654534,55.4849436 L44.6294534,53.2089436 C45.1764534,53.1299436 45.5564534,52.6229436 45.4774534,52.0759436 C45.4734534,52.0469436 45.4684534,52.0189436 45.4614534,51.9899436 L40.9514534,32.7399436 C40.8254534,32.2029436 41.1594534,31.6649436 41.6974534,31.5389436 C41.7724534,31.5209436 41.8494534,31.5119436 41.9254534,31.5119436 L51.3974534,31.5119436 C51.7774534,31.5119436 52.1244534,31.7269436 52.2934534,32.0659436 L55.3354534,38.1789436 C55.5814534,38.6729436 56.1824534,38.8749436 56.6764534,38.6289436 C56.6894534,38.6219436 56.7024534,38.6149436 56.7164534,38.6079436 L91.8674534,19.1269436 C92.1864534,18.9499436 92.3834534,18.6149436 92.3834534,18.2519436 L92.3834534,5.60194356 C92.3834534,5.18194356 92.6464534,4.80594356 93.0404534,4.66294356 L105.637453,0.0609435642 C106.014453,-0.0770564358 106.436453,0.0239435642 106.710453,0.316943564 Z" id="Stroke-1" stroke="#4F4F51" stroke-width="4" stroke-linecap="round" stroke-linejoin="round"></path>
            <path d="M204.258353,173.913544 L204.258353,173.913544 C203.327353,173.407544 202.175353,173.577544 201.431353,174.329544 L197.592353,178.209544 C196.969353,178.839544 196.606353,179.681544 196.574353,180.566544 L196.291353,188.737544 C196.266353,189.475544 196.503353,190.198544 196.967353,190.771544 C198.922353,193.183544 200.529353,195.615544 201.504353,198.088544 C201.713353,198.619544 202.095353,199.064544 202.581353,199.364544 L206.465353,201.767544 C207.425353,202.360544 208.680353,201.790544 208.864353,200.677544 L210.286353,192.107544 C210.314353,191.941544 210.323353,191.772544 210.315353,191.604544 L209.457353,174.757544 L209.677353,167.424544 L206.258353,167.340544 L205.947353,173.190544 C205.749353,173.921544 204.922353,174.274544 204.258353,173.913544 Z" id="Stroke-3" stroke="#4F4F51" stroke-width="4" stroke-linecap="round" stroke-linejoin="round"></path>
            <path d="M117.018053,58.7163436 C117.018053,64.2183436 112.558053,68.6773436 107.057053,68.6773436 C101.555053,68.6773436 97.0960534,64.2183436 97.0960534,58.7163436 C97.0960534,53.2153436 101.555053,48.7553436 107.057053,48.7553436 C112.558053,48.7553436 117.018053,53.2153436 117.018053,58.7163436" id="Fill-5" fill="#E94E1B" opacity="0.5"></path>
            <path d="M144.482953,112.603944 C144.482953,116.850944 141.040953,120.293944 136.793953,120.293944 C132.545953,120.293944 129.102953,116.850944 129.102953,112.603944 C129.102953,108.356944 132.545953,104.913944 136.793953,104.913944 C141.040953,104.913944 144.482953,108.356944 144.482953,112.603944" id="Fill-7" fill="#E94E1B" opacity="0.5"></path>
            <path d="M114.746553,102.473144 C114.746553,106.720144 111.304553,110.162144 107.057553,110.162144 C102.809553,110.162144 99.3665534,106.720144 99.3665534,102.473144 C99.3665534,98.2261436 102.809553,94.7831436 107.057553,94.7831436 C111.304553,94.7831436 114.746553,98.2261436 114.746553,102.473144" id="Fill-9" fill="#E94E1B" opacity="0.5"></path>
            <path d="M185.108853,66.0698436 C185.108853,70.3168436 181.665853,73.7588436 177.418853,73.7588436 C173.170853,73.7588436 169.727853,70.3168436 169.727853,66.0698436 C169.727853,61.8228436 173.170853,58.3798436 177.418853,58.3798436 C181.665853,58.3798436 185.108853,61.8228436 185.108853,66.0698436" id="Fill-11" fill="#E94E1B" opacity="0.5"></path>
            <path d="M159.863753,164.096144 C159.863753,168.343144 156.420753,171.785144 152.173753,171.785144 C147.925753,171.785144 144.482753,168.343144 144.482753,164.096144 C144.482753,159.849144 147.925753,156.406144 152.173753,156.406144 C156.420753,156.406144 159.863753,159.849144 159.863753,164.096144" id="Fill-13" fill="#E94E1B" opacity="0.5"></path>
            <path d="M97.0961534,148.715344 C97.0961534,152.962344 93.6531534,156.405344 89.4061534,156.405344 C85.1581534,156.405344 81.7151534,152.962344 81.7151534,148.715344 C81.7151534,144.468344 85.1581534,141.026344 89.4061534,141.026344 C93.6531534,141.026344 97.0961534,144.468344 97.0961534,148.715344" id="Fill-15" fill="#E94E1B" opacity="0.5"></path>
            <path d="M66.1645534,136.660644 C66.1645534,140.907644 62.7225534,144.350644 58.4755534,144.350644 C54.2275534,144.350644 50.7845534,140.907644 50.7845534,136.660644 C50.7845534,132.413644 54.2275534,128.970644 58.4755534,128.970644 C62.7225534,128.970644 66.1645534,132.413644 66.1645534,136.660644" id="Fill-17" fill="#E94E1B" opacity="0.5"></path>
            <path d="M53.4526534,72.7592436 C53.4526534,77.0062436 50.0096534,80.4492436 45.7626534,80.4492436 C41.5146534,80.4492436 38.0726534,77.0062436 38.0726534,72.7592436 C38.0726534,68.5122436 41.5146534,65.0702436 45.7626534,65.0702436 C50.0096534,65.0702436 53.4526534,68.5122436 53.4526534,72.7592436" id="Fill-19" fill="#E94E1B" opacity="0.5"></path>
            <path d="M114.746553,29.2768436 C114.746553,33.5238436 111.304553,36.9668436 107.057553,36.9668436 C102.809553,36.9668436 99.3665534,33.5238436 99.3665534,29.2768436 C99.3665534,25.0298436 102.809553,21.5878436 107.057553,21.5878436 C111.304553,21.5878436 114.746553,25.0298436 114.746553,29.2768436" id="Fill-21" fill="#E94E1B" opacity="0.5"></path>
            <path d="M78.3862534,39.7124436 C78.3862534,43.9594436 74.9442534,47.4014436 70.6972534,47.4014436 C66.4492534,47.4014436 63.0062534,43.9594436 63.0062534,39.7124436 C63.0062534,35.4654436 66.4492534,32.0224436 70.6972534,32.0224436 C74.9442534,32.0224436 78.3862534,35.4654436 78.3862534,39.7124436" id="Fill-23" fill="#E94E1B" opacity="0.5"></path>
            <path d="M66.1645534,91.3930436 C66.1645534,95.6400436 62.7225534,99.0830436 58.4755534,99.0830436 C54.2275534,99.0830436 50.7845534,95.6400436 50.7845534,91.3930436 C50.7845534,87.1460436 54.2275534,83.7040436 58.4755534,83.7040436 C62.7225534,83.7040436 66.1645534,87.1460436 66.1645534,91.3930436" id="Fill-25" fill="#E94E1B" opacity="0.5"></path>
            <path d="M136.793453,112.603944 C138.969453,77.9289436 177.418453,66.0699436 177.418453,66.0699436 C151.765453,54.4719436 107.057453,29.2769436 107.057453,29.2769436" id="Stroke-27" stroke="#4F4F51" stroke-width="4" stroke-linecap="round" stroke-linejoin="round" stroke-dasharray="1,8"></path>
            <path d="M70.6967534,39.7124436 C81.1587534,37.0004436 92.8867534,41.1994436 107.056753,58.7164436 C78.4237534,59.3164436 57.2827534,63.6424436 45.7617534,72.7594436 C74.7577534,75.5224436 98.7307534,82.4724436 107.056753,102.473444" id="Stroke-29" stroke="#4F4F51" stroke-width="4" stroke-linecap="round" stroke-linejoin="round" stroke-dasharray="1,8"></path>
            <path d="M107.057153,58.7163436 C120.136153,70.9533436 130.990153,86.5373436 136.494153,110.162344" id="Stroke-31" stroke="#4F4F51" stroke-width="4" stroke-linecap="round" stroke-linejoin="round" stroke-dasharray="1,8"></path>
            <path d="M58.4751534,136.660644 C72.0781534,132.641644 82.3881534,136.660644 89.4061534,148.715644" id="Stroke-33" stroke="#4F4F51" stroke-width="4" stroke-linecap="round" stroke-linejoin="round" stroke-dasharray="1,8"></path>
            <path d="M58.4751534,91.3930436 C83.8121534,124.873044 113.654153,151.289044 152.173153,164.096044" id="Stroke-35" stroke="#4F4F51" stroke-width="4" stroke-linecap="round" stroke-linejoin="round" stroke-dasharray="1,8"></path>
        </g>
    </g>
</svg>