<?xml version="1.0" encoding="UTF-8"?>
<svg width="32px" height="32px" viewBox="0 0 32 32" version="1.1" xmlns="http://www.w3.org/2000/svg" xmlns:xlink="http://www.w3.org/1999/xlink">
    <title>medal</title>
    <g id="NSI---Home" stroke="none" stroke-width="1" fill="none" fill-rule="evenodd">
        <g id="NSI---Home-photo" transform="translate(-613.000000, -2316.000000)" fill="#FFFFFF" fill-rule="nonzero">
            <g id="Group-5" transform="translate(0.000000, 2063.000000)">
                <path d="M620.125,264.5 C622.083333,262.708333 624.375,261.604167 627,261.1875 L622.6875,254 C622.479167,253.666667 622.229167,253.416667 621.9375,253.25 C621.645833,253.083333 621.3125,253 620.9375,253 L614,253 C613.583333,253 613.28125,253.177083 613.09375,253.53125 C612.90625,253.885417 612.9375,254.229167 613.1875,254.5625 L620.125,264.5 Z M637.875,264.5 L644.8125,254.5625 C645.0625,254.229167 645.09375,253.885417 644.90625,253.53125 C644.71875,253.177083 644.416667,253 644,253 L637.0625,253 C636.6875,253 636.354167,253.083333 636.0625,253.25 C635.770833,253.416667 635.520833,253.666667 635.3125,254 L631,261.1875 C633.625,261.604167 635.916667,262.708333 637.875,264.5 Z M629,285 C631,285 632.84375,284.510417 634.53125,283.53125 C636.21875,282.552083 637.552083,281.21875 638.53125,279.53125 C639.510417,277.84375 640,276 640,274 C640,272 639.510417,270.15625 638.53125,268.46875 C637.552083,266.78125 636.21875,265.447917 634.53125,264.46875 C632.84375,263.489583 631,263 629,263 C627,263 625.15625,263.489583 623.46875,264.46875 C621.78125,265.447917 620.447917,266.78125 619.46875,268.46875 C618.489583,270.15625 618,272 618,274 C618,276 618.489583,277.84375 619.46875,279.53125 C620.447917,281.21875 621.78125,282.552083 623.46875,283.53125 C625.15625,284.510417 627,285 629,285 Z M631.9375,279.1875 L629,277.625 L626.0625,279.1875 C625.8125,279.3125 625.5625,279.28125 625.3125,279.09375 C625.0625,278.90625 624.958333,278.666667 625,278.375 L625.5625,275.125 L623.1875,272.8125 C622.979167,272.604167 622.927083,272.364583 623.03125,272.09375 C623.135417,271.822917 623.333333,271.666667 623.625,271.625 L626.875,271.125 L628.375,268.1875 C628.5,267.895833 628.708333,267.75 629,267.75 C629.291667,267.75 629.5,267.895833 629.625,268.1875 L631.125,271.125 L634.375,271.625 C634.666667,271.666667 634.864583,271.822917 634.96875,272.09375 C635.072917,272.364583 635.020833,272.604167 634.8125,272.8125 L632.4375,275.125 L633,278.375 C633.041667,278.666667 632.9375,278.90625 632.6875,279.09375 C632.4375,279.28125 632.1875,279.3125 631.9375,279.1875 Z" id="medal"></path>
            </g>
        </g>
    </g>
</svg>