<?xml version="1.0" encoding="UTF-8"?>
<svg width="26px" height="32px" viewBox="0 0 26 32" version="1.1" xmlns="http://www.w3.org/2000/svg" xmlns:xlink="http://www.w3.org/1999/xlink">
    <title>stopwatch</title>
    <g id="NSI---Home" stroke="none" stroke-width="1" fill="none" fill-rule="evenodd">
        <g id="NSI---Home-photo" transform="translate(-379.000000, -2316.000000)" fill="#FFFFFF" fill-rule="nonzero">
            <g id="Group-5" transform="translate(0.000000, 2063.000000)">
                <path d="M392,285 C394.375,285 396.552083,284.416667 398.53125,283.25 C400.510417,282.083333 402.083333,280.510417 403.25,278.53125 C404.416667,276.552083 405,274.375 405,272 C405,269.416667 404.3125,267.0625 402.9375,264.9375 L402.9375,264.9375 L404.8125,263.0625 C404.9375,262.895833 405,262.708333 405,262.5 C405,262.291667 404.9375,262.125 404.8125,262 L404.8125,262 L403,260.25 C402.875,260.083333 402.708333,260 402.5,260 C402.291667,260 402.104167,260.083333 401.9375,260.25 L401.9375,260.25 L400.25,261.9375 C398.416667,260.4375 396.333333,259.5 394,259.125 L394,259.125 L394,257 L395.75,257 C395.958333,257 396.135417,256.927083 396.28125,256.78125 C396.427083,256.635417 396.5,256.458333 396.5,256.25 L396.5,256.25 L396.5,253.75 C396.5,253.541667 396.427083,253.364583 396.28125,253.21875 C396.135417,253.072917 395.958333,253 395.75,253 L395.75,253 L388.25,253 C388.041667,253 387.864583,253.072917 387.71875,253.21875 C387.572917,253.364583 387.5,253.541667 387.5,253.75 L387.5,253.75 L387.5,256.25 C387.5,256.458333 387.572917,256.635417 387.71875,256.78125 C387.864583,256.927083 388.041667,257 388.25,257 L388.25,257 L390,257 L390,259.1875 C387.958333,259.479167 386.09375,260.229167 384.40625,261.4375 C382.71875,262.645833 381.395833,264.177083 380.4375,266.03125 C379.479167,267.885417 379,269.875 379,272 C379,274.375 379.583333,276.552083 380.75,278.53125 C381.916667,280.510417 383.489583,282.083333 385.46875,283.25 C387.447917,284.416667 389.625,285 392,285 Z M393.25,275 L390.75,275 C390.541667,275 390.364583,274.927083 390.21875,274.78125 C390.072917,274.635417 390,274.458333 390,274.25 L390,274.25 L390,264.75 C390,264.583333 390.072917,264.416667 390.21875,264.25 C390.364583,264.083333 390.541667,264 390.75,264 L390.75,264 L393.25,264 C393.458333,264 393.635417,264.083333 393.78125,264.25 C393.927083,264.416667 394,264.583333 394,264.75 L394,264.75 L394,274.25 C394,274.458333 393.927083,274.635417 393.78125,274.78125 C393.635417,274.927083 393.458333,275 393.25,275 L393.25,275 Z" id="stopwatch"></path>
            </g>
        </g>
    </g>
</svg>