<?xml version="1.0" encoding="UTF-8"?>
<svg width="32px" height="32px" viewBox="0 0 32 32" version="1.1" xmlns="http://www.w3.org/2000/svg" xmlns:xlink="http://www.w3.org/1999/xlink">
    <title>upload</title>
    <g id="NSI---Home" stroke="none" stroke-width="1" fill="none" fill-rule="evenodd">
        <g id="NSI---Home-photo" transform="translate(-134.000000, -2316.000000)" fill="#FFFFFF" fill-rule="nonzero">
            <g id="Group-5" transform="translate(0.000000, 2063.000000)">
                <path d="M152.5,277 C152.916667,277 153.270833,276.854167 153.5625,276.5625 C153.854167,276.270833 154,275.916667 154,275.5 L154,275.5 L154,265 L159.5,265 C160.041667,265 160.416667,264.739583 160.625,264.21875 C160.833333,263.697917 160.75,263.25 160.375,262.875 L160.375,262.875 L150.875,253.375 C150.625,253.125 150.333333,253 150,253 C149.666667,253 149.375,253.125 149.125,253.375 L149.125,253.375 L139.625,262.875 C139.25,263.25 139.166667,263.697917 139.375,264.21875 C139.583333,264.739583 139.958333,265 140.5,265 L140.5,265 L146,265 L146,275.5 C146,275.916667 146.145833,276.270833 146.4375,276.5625 C146.729167,276.854167 147.083333,277 147.5,277 L147.5,277 L152.5,277 Z M164.5,285 C164.916667,285 165.270833,284.854167 165.5625,284.5625 C165.854167,284.270833 166,283.916667 166,283.5 L166,283.5 L166,276.5 C166,276.083333 165.854167,275.729167 165.5625,275.4375 C165.270833,275.145833 164.916667,275 164.5,275 L164.5,275 L156,275 L156,275.5 C156,276.458333 155.65625,277.28125 154.96875,277.96875 C154.28125,278.65625 153.458333,279 152.5,279 L152.5,279 L147.5,279 C146.541667,279 145.71875,278.65625 145.03125,277.96875 C144.34375,277.28125 144,276.458333 144,275.5 L144,275.5 L144,275 L135.5,275 C135.083333,275 134.729167,275.145833 134.4375,275.4375 C134.145833,275.729167 134,276.083333 134,276.5 L134,276.5 L134,283.5 C134,283.916667 134.145833,284.270833 134.4375,284.5625 C134.729167,284.854167 135.083333,285 135.5,285 L135.5,285 L164.5,285 Z M157,283.25 C156.666667,283.25 156.375,283.125 156.125,282.875 C155.875,282.625 155.75,282.333333 155.75,282 C155.75,281.666667 155.875,281.375 156.125,281.125 C156.375,280.875 156.666667,280.75 157,280.75 C157.333333,280.75 157.625,280.875 157.875,281.125 C158.125,281.375 158.25,281.666667 158.25,282 C158.25,282.333333 158.125,282.625 157.875,282.875 C157.625,283.125 157.333333,283.25 157,283.25 Z M161,283.25 C160.666667,283.25 160.375,283.125 160.125,282.875 C159.875,282.625 159.75,282.333333 159.75,282 C159.75,281.666667 159.875,281.375 160.125,281.125 C160.375,280.875 160.666667,280.75 161,280.75 C161.333333,280.75 161.625,280.875 161.875,281.125 C162.125,281.375 162.25,281.666667 162.25,282 C162.25,282.333333 162.125,282.625 161.875,282.875 C161.625,283.125 161.333333,283.25 161,283.25 Z" id="upload"></path>
            </g>
        </g>
    </g>
</svg>