<?xml version="1.0" encoding="UTF-8"?>
<svg width="300px" height="250px" viewBox="0 0 300 250" version="1.1" xmlns="http://www.w3.org/2000/svg" xmlns:xlink="http://www.w3.org/1999/xlink">
    <title>Illustrations / Envoyer 2</title>
    <g id="Illustrations-/-Envoyer-2" stroke="none" stroke-width="1" fill="none" fill-rule="evenodd">
        <g id="Group-51" transform="translate(40.000000, 9.000000)">
            <path d="M176.0948,0.0004 L51.2948,0.0004 C51.2878,2.4064 49.3378,4.3544 46.9308,4.3544 C44.5238,4.3544 42.5728,2.4064 42.5668,0.0004 L41.1018,0.0004 C36.2748,0.0004 32.3618,3.9134 32.3618,8.7404 L33.2728,119.7804 L78.9768,153.0454 L100.7908,132.4164 C106.1448,127.3544 114.5638,127.5024 119.7348,132.7514 L141.8658,155.2124 L182.4298,123.3044 L184.8348,8.7404 C184.8348,3.9134 180.9218,0.0004 176.0948,0.0004" id="Fill-1" class="-fillPrimary" fill-opacity="0.5" fill="#E65025"></path>
            <path d="M88.6856,184.9848 L88.6856,214.0758 C88.6856,216.9868 91.0456,219.3458 93.9566,219.3458 L125.4696,219.3458 C128.3806,219.3458 130.7406,216.9868 130.7406,214.0758 L130.7406,184.9848 L137.8886,184.9848 C140.2926,184.9848 141.4976,182.0788 139.7966,180.3788 L115.5756,156.1578 C112.3376,152.9198 107.0886,152.9198 103.8506,156.1578 L79.6296,180.3788 C77.9296,182.0788 79.1336,184.9848 81.5386,184.9848 L88.6856,184.9848 Z" id="Fill-3" class="-fillPrimary" fill-opacity="0.5" fill="#E65025"></path>
            <polyline id="Stroke-5" stroke="#4F4F51" stroke-width="4" stroke-linecap="round" stroke-linejoin="round" points="31.625 95.4116 0.078 95.4116 31.733 72.3116"></polyline>
            <polyline id="Stroke-7" stroke="#4F4F51" stroke-width="4" stroke-linecap="round" stroke-linejoin="round" points="183.25 67.5209 219.349 95.4119 183.251 95.4119"></polyline>
            <path d="M31.628,118.435 L31.628,15.021 C31.628,6.731 35.068,0 39.309,0 L40.437,0 C41.466,0 42.395,0.619 42.791,1.569 C43.403,3.039 44.852,4.071 46.538,4.071 C48.232,4.071 49.683,3.039 50.296,1.569 C50.692,0.619 51.62,0 52.649,0 L178.128,0 C180.956,0 183.248,2.293 183.248,5.121 L183.248,123.304 L141.948,155.212 L122.768,135.941 C115.781,127.512 107.115,125.925 95.604,135.941 L79.06,153.045 L31.628,118.435 Z" id="Stroke-9" stroke="#4F4F51" stroke-width="4" stroke-linecap="round" stroke-linejoin="round"></path>
            <line x1="46.1407" y1="15.311" x2="46.1407" y2="129.025" id="Stroke-11" stroke="#4F4F51" stroke-width="4" stroke-linecap="round" stroke-linejoin="round"></line>
            <line x1="99.1192" y1="18.7797" x2="127.2892" y2="18.7797" id="Stroke-13" stroke="#4F4F51" stroke-width="4" stroke-linecap="round" stroke-linejoin="round"></line>
            <line x1="91.8008" y1="26.0327" x2="134.6088" y2="26.0327" id="Stroke-15" stroke="#4F4F51" stroke-width="4" stroke-linecap="round" stroke-linejoin="round"></line>
            <path d="M98.0977,134.4438 L79.0597,153.0458 L0.0777,95.4118 L0.0777,222.5858 C0.0777,227.6288 4.1647,231.7158 9.2077,231.7158 L210.2187,231.7158 C215.2617,231.7158 219.3497,227.6288 219.3497,222.5858 L219.3497,95.4118 L141.9487,155.2128 L121.4397,134.6068 C115.0217,128.1578 104.6057,128.0848 98.0977,134.4438 Z" id="Stroke-17" stroke="#4F4F51" stroke-width="4" stroke-linecap="round" stroke-linejoin="round"></path>
            <line x1="216.3028" y1="229.3803" x2="141.9488" y2="155.2123" id="Stroke-19" stroke="#4F4F51" stroke-width="4" stroke-linecap="round" stroke-linejoin="round"></line>
            <line x1="79.0596" y1="153.0454" x2="2.9966" y2="228.7944" id="Stroke-21" stroke="#4F4F51" stroke-width="4" stroke-linecap="round" stroke-linejoin="round"></line>
            <line x1="150.3213" y1="163.5639" x2="219.3483" y2="110.1989" id="Stroke-23" stroke="#4F4F51" stroke-width="4" stroke-linecap="round" stroke-linejoin="round"></line>
            <line x1="-3.10862447e-15" y1="110.8061" x2="68.42" y2="163.5641" id="Stroke-25" stroke="#4F4F51" stroke-width="4" stroke-linecap="round" stroke-linejoin="round"></line>
            <path d="M88.6856,184.9848 L88.6856,214.0758 C88.6856,216.9868 91.0456,219.3458 93.9566,219.3458 L125.4696,219.3458 C128.3806,219.3458 130.7406,216.9868 130.7406,214.0758 L130.7406,184.9848 L137.8886,184.9848 C140.2926,184.9848 141.4976,182.0788 139.7966,180.3788 L115.5756,156.1578 C112.3376,152.9198 107.0886,152.9198 103.8506,156.1578 L79.6296,180.3788 C77.9296,182.0788 79.1336,184.9848 81.5386,184.9848 L88.6856,184.9848 Z" id="Stroke-27" stroke="#4F4F51" stroke-width="4" stroke-linecap="round" stroke-linejoin="round"></path>
            <path d="M75.7325,85.5366 L80.8525,85.5366 C81.2635,85.5366 81.8875,85.4206 82.5225,84.8706 C82.9345,84.5156 83.2695,84.0576 83.5195,83.5086 C83.7625,82.9676 83.8855,82.3926 83.8855,81.8006 C83.8855,81.2066 83.7625,80.6326 83.5185,80.0896 C83.2685,79.5376 82.9295,79.0806 82.5095,78.7276 C81.8755,78.1966 81.2575,78.0856 80.8525,78.0856 L75.7325,78.0856 L75.7325,90.8566" id="Stroke-29" stroke="#4F4F51" stroke-width="3" stroke-linecap="round" stroke-linejoin="round"></path>
            <line x1="88.7666" y1="81.9204" x2="88.7666" y2="90.8574" id="Stroke-31" stroke="#4F4F51" stroke-width="3" stroke-linecap="round" stroke-linejoin="round"></line>
            <path d="M88.7666,86.475 C88.7666,84.298 90.5376,81.256 93.6486,81.588" id="Stroke-33" stroke="#4F4F51" stroke-width="3" stroke-linecap="round" stroke-linejoin="round"></path>
            <path d="M106.6299,86.2924 C106.6299,89.0034 104.5049,91.2004 101.8849,91.2004 C99.2639,91.2004 97.1399,89.0034 97.1399,86.2924 C97.1399,83.5824 99.2639,81.3854 101.8849,81.3854 C104.5049,81.3854 106.6299,83.5824 106.6299,86.2924 Z" id="Stroke-35" stroke="#4F4F51" stroke-width="3" stroke-linecap="round" stroke-linejoin="round"></path>
            <path d="M111.6094,81.9204 L111.6094,92.7294 C111.6094,94.2174 110.6194,95.2174 109.4224,95.2174" id="Stroke-37" stroke="#4F4F51" stroke-width="3" stroke-linecap="round" stroke-linejoin="round"></path>
            <path d="M124.8291,90.2446 C124.0131,91.3516 122.3771,91.3486 120.9941,91.3486 C118.5351,91.3486 116.5411,89.1186 116.5411,86.3666 C116.5411,83.6156 118.5351,81.3856 120.9941,81.3856 C123.4531,81.3856 125.4471,83.4476 125.4471,86.1996 L116.5411,86.1996" id="Stroke-39" stroke="#4F4F51" stroke-width="3" stroke-linecap="round" stroke-linejoin="round"></path>
            <path d="M131.2784,79.1645 L131.2784,89.4715 C131.2784,91.0525 132.9014,91.6245 134.3244,90.8565" id="Stroke-41" stroke="#4F4F51" stroke-width="3" stroke-linecap="round" stroke-linejoin="round"></path>
            <path d="M128.8047,81.9204 L134.0037,81.9204 L128.8047,81.9204 Z" id="Stroke-43" stroke="#4F4F51" stroke-width="3" stroke-linecap="round" stroke-linejoin="round"></path>
            <path d="M144.5059,78.4692 C145.3119,77.7672 146.1809,77.3772 147.4089,77.3252 C150.0269,77.2152 151.8599,78.7202 151.8599,81.2092 C151.8599,83.6142 149.7749,85.0932 147.3169,85.0932 L147.3169,87.1022" id="Stroke-45" stroke="#4F4F51" stroke-width="3" stroke-linecap="round" stroke-linejoin="round"></path>
            <line x1="111.6094" y1="76.7026" x2="111.6094" y2="76.6076" id="Stroke-47" stroke="#4F4F51" stroke-width="3" stroke-linecap="round" stroke-linejoin="round"></line>
            <line x1="147.3662" y1="91.3969" x2="147.3662" y2="91.3009" id="Stroke-49" stroke="#4F4F51" stroke-width="3" stroke-linecap="round" stroke-linejoin="round"></line>
        </g>
    </g>
</svg>
