<?xml version="1.0" encoding="UTF-8"?>
<svg width="44px" height="118px" viewBox="0 0 44 118" version="1.1" xmlns="http://www.w3.org/2000/svg" xmlns:xlink="http://www.w3.org/1999/xlink">
    <title>deco-slash</title>
    <g id="NSI---Mobile" stroke="none" stroke-width="1" fill="none" fill-rule="evenodd">
        <g id="NSI---Mobile---Home" transform="translate(-27.000000, -589.000000)" fill="#003947">
            <g id="Group-3" transform="translate(0.000000, 568.000000)">
                <path d="M70.89,24.8847668 C71.01,23.4721244 70.77,22.5303627 70.17,21.9417617 C69.45,21.3531606 68.37,21 66.93,21 L47.25,21 C45.81,21 44.85,21.3531606 44.37,21.9417617 C43.77,22.5303627 43.41,23.5898446 43.29,25.002487 L27.09,134.953161 C26.85,136.365803 27.09,137.307565 27.81,137.896166 C28.41,138.484767 29.61,138.837927 31.05,138.837927 L50.61,138.837927 C52.05,138.837927 53.13,138.484767 53.61,138.013886 C54.09,137.307565 54.45,136.248083 54.69,134.83544 L70.89,24.8847668 Z" id="deco-slash"></path>
            </g>
        </g>
    </g>
</svg>