<?xml version="1.0" encoding="UTF-8"?>
<svg id="Calque_1" xmlns="http://www.w3.org/2000/svg" version="1.1" viewBox="0 0 112 129">
  <!-- Generator: Adobe Illustrator 29.0.0, SVG Export Plug-In . SVG Version: 2.1.0 Build 186)  -->
  <defs>
    <style>
      .st0 {
        fill: #2e69ff;
      }

      .st1 {
        fill: none;
        stroke: #2e69ff;
        stroke-miterlimit: 10;
        stroke-width: 1.8px;
      }

      .st2 {
        fill: #fff;
      }
    </style>
  </defs>
  <path class="st0" d="M-13.3,128.2l70.4-22.3c7.4-2.5,13.2-5.4,16.8-9.5,3.6-3.7,5.4-10,5.2-18.9l-.5-13.3c-.3-8.9-2.4-15-6.1-18.6-4.1-3.6-9.6-6.5-17.4-8.6L-16.3,18.8c-.6-.2-1.4,0-1.8,0-.8,0-1.6.2-2.3.6-.8.8-1.1,2.2-1,4.2l.7,24.4c0,2,.5,3.6,1.5,4.4.9.8,2.3,1.5,4.5,1.8l53.9,12.8c1.4.3,2.4.6,3.2,1.4.8.8,1.1,1.7.9,3.3,0,1.4-.5,2.6-.9,3.3-.5.8-1.5,1.4-3.1,1.7l-52.9,16c-2.3.5-3.5,1.1-4.3,2s-1.3,2.6-1,4.3l.7,24.4c0,2,.7,3.4,1.3,4.1.2,1.2,1.8,1.3,3.6.9"/>
  <path class="st0" d="M-13.1,128.1l70.4-22.3c7.4-2.5,13.2-5.4,16.8-9.5,3.6-3.7,5.4-10,5.2-18.9l-.5-13.3c-.3-8.9-2.4-15-6.1-18.6-4.1-3.6-9.6-6.5-17.4-8.6L-16.1,18.5c-.6-.2-1.4,0-1.8,0-.8,0-1.6.2-2.3.6-.8.8-1.1,2.2-1,4.2l.7,24.4c0,2,.5,3.6,1.5,4.4.9.8,2.3,1.5,4.5,1.8l53.9,12.8c1.4.3,2.4.6,3.2,1.4.8.8,1.1,1.7.9,3.3,0,1.4-.5,2.6-.9,3.3-.5.8-1.5,1.4-3.1,1.7l-52.9,16c-2.3.5-3.5,1.1-4.3,2s-1.3,2.6-1,4.3l.7,24.4c0,2,.7,3.4,1.3,4.1.2,1.2,1.8,1.3,3.6.9"/>
  <path class="st0" d="M-12.9,127.9l70.4-22.3c7.4-2.5,13.2-5.4,16.8-9.5,3.6-3.7,5.4-10,5.2-18.9l-.5-13.3c-.3-8.9-2.4-15-6.1-18.6-4.1-3.6-9.6-6.5-17.4-8.6L-15.9,18.4c-.6-.2-1.4,0-1.8,0-.8,0-1.6.2-2.3.6-.8.8-1.1,2.2-1,4.2l.7,24.4c0,2,.5,3.6,1.5,4.4.9.8,2.3,1.5,4.5,1.8l53.9,12.8c1.4.3,2.4.6,3.2,1.4.8.8,1.1,1.7.9,3.3,0,1.4-.5,2.6-.9,3.3-.5.8-1.5,1.4-3.1,1.7l-52.9,16c-2.3.5-3.5,1.1-4.3,2s-1.3,2.6-1,4.3l.7,24.4c0,2,.7,3.4,1.3,4.1.2,1.2,1.8,1.3,3.6.9"/>
  <path class="st0" d="M-12.8,127.6l70.4-22.3c7.4-2.5,13.2-5.4,16.8-9.5,3.6-3.7,5.4-10,5.2-18.9l-.5-13.3c-.3-8.9-2.4-15-6.1-18.6-4.1-3.6-9.6-6.5-17.4-8.6L-15.7,18.2c-.6-.2-1.4,0-1.8,0-.8,0-1.6.2-2.3.6-.8.8-1.1,2.2-1,4.2l.7,24.4c0,2,.5,3.6,1.5,4.4.9.8,2.3,1.5,4.5,1.8l53.9,12.8c1.4.3,2.4.6,3.2,1.4.8.8,1.1,1.7.9,3.3,0,1.4-.5,2.6-.9,3.3-.5.8-1.5,1.4-3.1,1.7l-52.9,16c-2.3.5-3.5,1.1-4.3,2s-1.3,2.6-1,4.3l.7,24.4c0,2,.7,3.4,1.3,4.1.2,1.2,1.8,1.3,3.6.9"/>
  <path class="st0" d="M-12.6,127.5l70.4-22.3c7.4-2.5,13.2-5.4,16.8-9.5,3.6-3.7,5.4-10,5.2-18.9l-.5-13.3c-.3-8.9-2.4-15-6.1-18.6-4.1-3.6-9.6-6.5-17.4-8.6L-15.5,18c-.6-.2-1.4,0-1.8,0-.8,0-1.6.2-2.3.6-.8.8-1.1,2.2-1,4.2l.7,24.4c0,2,.5,3.6,1.5,4.4.9.8,2.3,1.5,4.5,1.8l53.9,12.8c1.4.3,2.4.6,3.2,1.4.8.8,1.1,1.7.9,3.3,0,1.4-.5,2.6-.9,3.3-.5.8-1.5,1.4-3.1,1.7l-53,16c-2.3.5-3.5,1.1-4.3,2s-1.3,2.6-1,4.3l.7,24.4c0,2,.7,3.4,1.3,4.1.2,1.2,1.8,1.3,3.6.9"/>
  <path class="st0" d="M-12.4,127.3l70.4-22.3c7.4-2.5,13.2-5.4,16.8-9.5,3.6-3.7,5.4-10,5.2-18.9l-.5-13.3c-.3-8.9-2.4-15-6.1-18.6-4.1-3.6-9.6-6.5-17.4-8.6L-15.4,17.8c-.6-.2-1.4,0-1.8,0-.8,0-1.6.2-2.3.6-.8.8-1.1,2.2-1,4.2l.7,24.4c0,2,.5,3.6,1.5,4.4.9.8,2.3,1.5,4.5,1.8l53.9,12.8c1.4.3,2.4.6,3.2,1.4.8.8,1.1,1.7.9,3.3,0,1.4-.5,2.6-.9,3.3-.5.8-1.5,1.4-3.1,1.7l-53,16c-2.3.5-3.5,1.1-4.3,2s-1.3,2.6-1,4.3l.7,24.4c0,2,.7,3.4,1.3,4.1.2,1.2,1.8,1.3,3.6.9"/>
  <path class="st0" d="M-12.2,127.1l70.4-22.3c7.4-2.5,13.2-5.4,16.8-9.5,3.6-3.7,5.4-10,5.2-18.9l-.5-13.3c-.3-8.9-2.4-15-6.1-18.6-4.1-3.6-9.6-6.5-17.4-8.6L-15.2,17.6c-.6-.2-1.4,0-1.8,0-.8,0-1.6.2-2.3.6-.8.8-1.1,2.2-1,4.2l.7,24.4c0,2,.5,3.6,1.5,4.4.9.8,2.3,1.5,4.5,1.8l53.9,12.8c1.4.3,2.4.6,3.2,1.4.8.8,1.1,1.7.9,3.3,0,1.4-.5,2.6-.9,3.3-.5.8-1.5,1.4-3.1,1.7l-53,16c-2.3.5-3.5,1.1-4.3,2s-1.3,2.6-1,4.3l.7,24.4c0,2,.7,3.4,1.3,4.1.2,1.2,1.8,1.3,3.6.9"/>
  <path class="st0" d="M-12.1,127l70.4-22.3c7.4-2.5,13.2-5.4,16.8-9.5,3.6-3.7,5.4-10,5.2-18.9l-.5-13.3c-.3-8.9-2.4-15-6.1-18.6-4.1-3.6-9.6-6.5-17.4-8.6L-15,17.4c-.6-.2-1.4,0-1.8,0-.8,0-1.6.2-2.3.6-.8.8-1.1,2.2-1,4.2l.7,24.4c0,2,.5,3.6,1.5,4.4.9.8,2.3,1.5,4.5,1.8l53.9,12.8c1.4.3,2.4.6,3.2,1.4.8.8,1.1,1.7.9,3.3,0,1.4-.5,2.6-.9,3.3-.5.8-1.5,1.4-3.1,1.7l-52.9,16c-2.3.5-3.5,1.1-4.3,2s-1.3,2.6-1,4.3l.7,24.4c0,2,.7,3.4,1.3,4.1.2,1.2,1.8,1.3,3.6.9"/>
  <path class="st0" d="M-11.9,126.7l70.4-22.3c7.4-2.5,13.2-5.4,16.8-9.5,3.6-3.7,5.4-10,5.2-18.9l-.5-13.3c-.3-8.9-2.4-15-6.1-18.6-4.1-3.6-9.6-6.5-17.4-8.6L-14.9,17.3c-.6-.2-1.4,0-1.8,0-.8,0-1.6.2-2.3.6-.8.8-1.1,2.2-1,4.2l.7,24.4c0,2,.5,3.6,1.5,4.4.9.8,2.3,1.5,4.5,1.8l53.9,12.8c1.4.3,2.4.6,3.2,1.4.8.8,1.1,1.7.9,3.3,0,1.4-.5,2.6-.9,3.3-.5.8-1.5,1.4-3.1,1.7l-52.9,16c-2.3.5-3.5,1.1-4.3,2s-1.3,2.6-1,4.3l.7,24.4c0,2,.7,3.4,1.3,4.1.2,1.2,1.8,1.3,3.6.9"/>
  <path class="st0" d="M-11.8,126.6l70.4-22.3c7.4-2.5,13.2-5.4,16.8-9.5,3.6-3.7,5.4-10,5.2-18.9l-.5-13.3c-.3-8.9-2.4-15-6.1-18.6-4.1-3.6-9.6-6.5-17.4-8.6L-14.7,17.1c-.6-.2-1.4,0-1.8,0-.8,0-1.6.2-2.3.6-.8.8-1.1,2.2-1,4.2l.7,24.4c0,2,.5,3.6,1.5,4.4.9.8,2.3,1.5,4.5,1.8l53.9,12.8c1.4.3,2.4.6,3.2,1.4.8.8,1.1,1.7.9,3.3,0,1.4-.5,2.6-.9,3.3-.5.8-1.5,1.4-3.1,1.7l-52.9,16c-2.3.5-3.5,1.1-4.3,2s-1.3,2.6-1,4.3l.7,24.4c0,2,.7,3.4,1.3,4.1.2,1.2,1.8,1.3,3.6.9"/>
  <path class="st0" d="M-11.5,126.4l70.4-22.3c7.4-2.5,13.2-5.4,16.8-9.5,3.6-3.7,5.4-10,5.2-18.9l-.5-13.3c-.3-8.9-2.4-15-6.1-18.6-4.1-3.6-9.6-6.5-17.4-8.6L-14.5,16.9c-.6-.2-1.4,0-1.8,0-.8,0-1.6.2-2.3.6-.8.8-1.1,2.2-1,4.2l.7,24.4c0,2,.5,3.6,1.5,4.4.9.8,2.3,1.5,4.5,1.8l53.9,12.8c1.4.3,2.4.6,3.2,1.4.8.8,1.1,1.7.9,3.3,0,1.4-.5,2.6-.9,3.3-.5.8-1.5,1.4-3.1,1.7l-52.9,16c-2.3.5-3.5,1.1-4.3,2s-1.3,2.6-1,4.3l.7,24.4c0,2,.7,3.4,1.3,4.1.2,1.2,1.8,1.3,3.6.9"/>
  <path class="st0" d="M-11.4,126.2l70.4-22.3c7.4-2.5,13.2-5.4,16.8-9.5,3.6-3.7,5.4-10,5.2-18.9l-.5-13.3c-.3-8.9-2.4-15-6.1-18.6-4.1-3.6-9.6-6.5-17.4-8.6L-14.4,16.7c-.6-.2-1.4,0-1.8,0-.8,0-1.6.2-2.3.6-.8.8-1.1,2.2-1,4.2l.7,24.4c0,2,.5,3.6,1.5,4.4.9.8,2.3,1.5,4.5,1.8l53.9,12.8c1.4.3,2.4.6,3.2,1.4.8.8,1.1,1.7.9,3.3,0,1.4-.5,2.6-.9,3.3-.5.8-1.5,1.4-3.1,1.7l-52.9,16c-2.3.5-3.5,1.1-4.3,2s-1.3,2.6-1,4.3l.7,24.4c0,2,.7,3.4,1.3,4.1.2,1.2,1.8,1.3,3.6.9"/>
  <path class="st0" d="M-11.2,126.1l70.4-22.3c7.4-2.5,13.2-5.4,16.8-9.5,3.6-3.7,5.4-10,5.2-18.9l-.5-13.3c-.3-8.9-2.4-15-6.1-18.6-4.1-3.6-9.6-6.5-17.4-8.6L-14.1,16.5c-.6-.2-1.4,0-1.8,0-.8,0-1.6.2-2.3.6-.8.8-1.1,2.2-1,4.2l.7,24.4c0,2,.5,3.6,1.5,4.4.9.8,2.3,1.5,4.5,1.8l53.9,12.8c1.4.3,2.4.6,3.2,1.4.8.8,1.1,1.7.9,3.3,0,1.4-.5,2.6-.9,3.3-.5.8-1.5,1.4-3.1,1.7l-53,16c-2.3.5-3.5,1.1-4.3,2s-1.3,2.6-1,4.3l.7,24.4c0,2,.7,3.4,1.3,4.1.2,1.2,1.8,1.3,3.6.9"/>
  <path class="st0" d="M-11,125.8l70.4-22.3c7.4-2.5,13.2-5.4,16.8-9.5,3.6-3.7,5.4-10,5.2-18.9l-.5-13.3c-.3-8.9-2.4-15-6.1-18.6-4.1-3.6-9.6-6.5-17.4-8.6L-13.9,16.4c-.6-.2-1.4,0-1.8,0-.8,0-1.6.2-2.3.6-.8.8-1.1,2.2-1,4.2l.7,24.4c0,2,.5,3.6,1.5,4.4.9.8,2.3,1.5,4.5,1.8l53.9,12.8c1.4.3,2.4.6,3.2,1.4.8.8,1.1,1.7.9,3.3,0,1.4-.5,2.6-.9,3.3-.5.8-1.5,1.4-3.1,1.7l-53,16c-2.3.5-3.5,1.1-4.3,2s-1.3,2.6-1,4.3l.7,24.4c0,2,.7,3.4,1.3,4.1.2,1.2,1.8,1.3,3.6.9"/>
  <path class="st0" d="M-10.8,125.6l70.4-22.3c7.4-2.5,13.2-5.4,16.8-9.5,3.6-3.7,5.4-10,5.2-18.9l-.5-13.3c-.3-8.9-2.4-15-6.1-18.6-4.1-3.6-9.6-6.5-17.4-8.6L-13.9,16.1c-.6-.2-1.4,0-1.8,0-.8,0-1.6.2-2.3.6-.8.8-1.1,2.2-1,4.2l.7,24.4c0,2,.5,3.6,1.5,4.4.9.8,2.3,1.5,4.5,1.8l53.9,12.8c1.4.3,2.4.6,3.2,1.4.8.8,1.1,1.7.9,3.3,0,1.4-.5,2.6-.9,3.3-.5.8-1.5,1.4-3.1,1.7l-52.9,16c-2.3.5-3.5,1.1-4.3,2s-1.3,2.6-1,4.3l.7,24.4c0,2,.7,3.4,1.3,4.1.2,1.2,1.8,1.3,3.6.9"/>
  <path class="st0" d="M-10.7,125.5l70.4-22.3c7.4-2.5,13.2-5.4,16.8-9.5,3.6-3.7,5.4-10,5.2-18.9l-.5-13.3c-.3-8.9-2.4-15-6.1-18.6-4.1-3.6-9.6-6.5-17.4-8.6L-13.7,15.9c-.6-.2-1.4,0-1.8,0-.8,0-1.6.2-2.3.6-.8.8-1.1,2.2-1,4.2l.7,24.4c0,2,.5,3.6,1.5,4.4.9.8,2.3,1.5,4.5,1.8l53.9,12.8c1.4.3,2.4.6,3.2,1.4.8.8,1.1,1.7.9,3.3,0,1.4-.5,2.6-.9,3.3-.5.8-1.5,1.4-3.1,1.7l-52.9,16c-2.3.5-3.5,1.1-4.3,2s-1.3,2.6-1,4.3l.7,24.4c0,2,.7,3.4,1.3,4.1.2,1.2,1.8,1.3,3.6.9"/>
  <path class="st0" d="M-10.5,125.3l70.4-22.3c7.4-2.5,13.2-5.4,16.8-9.5,3.6-3.7,5.4-10,5.2-18.9l-.5-13.3c-.3-8.9-2.4-15-6.1-18.6-4.1-3.6-9.6-6.5-17.4-8.6L-13.5,15.8c-.6-.2-1.4,0-1.8,0-.8,0-1.6.2-2.3.6-.8.8-1.1,2.2-1,4.2l.7,24.4c0,2,.5,3.6,1.5,4.4.9.8,2.3,1.5,4.5,1.8l53.9,12.8c1.4.3,2.4.6,3.2,1.4.8.8,1.1,1.7.9,3.3,0,1.4-.5,2.6-.9,3.3-.5.8-1.5,1.4-3.1,1.7l-52.9,16c-2.3.5-3.5,1.1-4.3,2s-1.3,2.6-1,4.3l.7,24.4c0,2,.7,3.4,1.3,4.1.2,1.2,1.8,1.3,3.6.9"/>
  <path class="st0" d="M-10.4,125.1l70.4-22.3c7.4-2.5,13.2-5.4,16.8-9.5,3.6-3.7,5.4-10,5.2-18.9l-.5-13.3c-.3-8.9-2.4-15-6.1-18.6-4.1-3.6-9.6-6.5-17.4-8.6L-13.3,15.6c-.6-.2-1.4,0-1.8,0-.8,0-1.6.2-2.3.6-.8.8-1.1,2.2-1,4.2l.7,24.4c0,2,.5,3.6,1.5,4.4.9.8,2.3,1.5,4.5,1.8l53.9,12.8c1.4.3,2.4.6,3.2,1.4.8.8,1.1,1.7.9,3.3,0,1.4-.5,2.6-.9,3.3-.5.8-1.5,1.4-3.1,1.7l-52.9,16c-2.3.5-3.5,1.1-4.3,2s-1.3,2.6-1,4.3l.7,24.4c0,2,.7,3.4,1.3,4.1.2,1.2,1.8,1.3,3.6.9"/>
  <path class="st0" d="M-10.2,124.9l70.4-22.3c7.4-2.5,13.2-5.4,16.8-9.5,3.6-3.7,5.4-10,5.2-18.9l-.5-13.3c-.3-8.9-2.4-15-6.1-18.6-4.1-3.6-9.6-6.5-17.4-8.6L-13.1,15.4c-.6-.2-1.4,0-1.8,0-.8,0-1.6.2-2.3.6-.8.8-1.1,2.2-1,4.2l.7,24.4c0,2,.5,3.6,1.5,4.4.9.8,2.3,1.5,4.5,1.8l53.9,12.8c1.4.3,2.4.6,3.2,1.4.8.8,1.1,1.7.9,3.3,0,1.4-.5,2.6-.9,3.3-.5.8-1.5,1.4-3.1,1.7l-52.9,16c-2.3.5-3.5,1.1-4.3,2s-1.3,2.6-1,4.3l.7,24.4c0,2,.7,3.4,1.3,4.1.2,1.2,1.8,1.3,3.6.9"/>
  <path class="st0" d="M-9.9,124.7l70.4-22.3c7.4-2.5,13.2-5.4,16.8-9.5,3.6-3.7,5.4-10,5.2-18.9l-.5-13.3c-.3-8.9-2.4-15-6.1-18.6-4.1-3.6-9.6-6.5-17.4-8.6L-12.9,15.2c-.6-.2-1.4,0-1.8,0-.8,0-1.6.2-2.3.6-.8.8-1.1,2.2-1,4.2l.7,24.4c0,2,.5,3.6,1.5,4.4.9.8,2.3,1.5,4.5,1.8l53.9,12.8c1.4.3,2.4.6,3.2,1.4.8.8,1.1,1.7.9,3.3,0,1.4-.5,2.6-.9,3.3-.5.8-1.5,1.4-3.1,1.7l-53,16c-2.3.5-3.5,1.1-4.3,2s-1.3,2.6-1,4.3l.7,24.4c0,2,.7,3.4,1.3,4.1.2,1.2,1.8,1.3,3.6.9"/>
  <path class="st0" d="M-9.8,124.6l70.4-22.3c7.4-2.5,13.2-5.4,16.8-9.5,3.6-3.7,5.4-10,5.2-18.9l-.5-13.3c-.3-8.9-2.4-15-6.1-18.6-4.1-3.6-9.6-6.5-17.4-8.6L-12.8,15c-.6-.2-1.4,0-1.8,0-.8,0-1.6.2-2.3.6-.8.8-1.1,2.2-1,4.2l.7,24.4c0,2,.5,3.6,1.5,4.4.9.8,2.3,1.5,4.5,1.8l53.9,12.8c1.4.3,2.4.6,3.2,1.4.8.8,1.1,1.7.9,3.3,0,1.4-.5,2.6-.9,3.3-.5.8-1.5,1.4-3.1,1.7l-53,16c-2.3.5-3.5,1.1-4.3,2s-1.3,2.6-1,4.3l.7,24.4c0,2,.7,3.4,1.3,4.1.2,1.2,1.8,1.3,3.6.9"/>
  <path class="st0" d="M-9.6,124.4l70.4-22.3c7.4-2.5,13.2-5.4,16.8-9.5,3.6-3.7,5.4-10,5.2-18.9l-.5-13.3c-.3-8.9-2.4-15-6.1-18.6-4.1-3.6-9.6-6.5-17.4-8.6L-12.7,14.9c-.6-.2-1.4,0-1.8,0-.8,0-1.6.2-2.3.6-.8.8-1.1,2.2-1,4.2l.7,24.4c0,2,.5,3.6,1.5,4.4.9.8,2.3,1.5,4.5,1.8l53.9,12.8c1.4.3,2.4.6,3.2,1.4.8.8,1.1,1.7.9,3.3,0,1.4-.5,2.6-.9,3.3-.5.8-1.5,1.4-3.1,1.7l-52.9,16c-2.3.5-3.5,1.1-4.3,2s-1.3,2.6-1,4.3l.7,24.4c0,2,.7,3.4,1.3,4.1.2,1.2,1.8,1.3,3.6.9"/>
  <path class="st0" d="M-9.5,124.1l70.4-22.3c7.4-2.5,13.2-5.4,16.8-9.5,3.6-3.7,5.4-10,5.2-18.9l-.5-13.3c-.3-8.9-2.4-15-6.1-18.6-4.1-3.6-9.6-6.5-17.4-8.6L-12.4,14.7c-.6-.2-1.4,0-1.8,0-.8,0-1.6.2-2.3.6-.8.8-1.1,2.2-1,4.2l.7,24.4c0,2,.5,3.6,1.5,4.4.9.8,2.3,1.5,4.5,1.8l53.9,12.8c1.4.3,2.4.6,3.2,1.4.8.8,1.1,1.7.9,3.3,0,1.4-.5,2.6-.9,3.3-.5.8-1.5,1.4-3.1,1.7l-52.9,16c-2.3.5-3.5,1.1-4.3,2s-1.3,2.6-1,4.3l.7,24.4c0,2,.7,3.4,1.3,4.1.2,1.2,1.8,1.3,3.6.9"/>
  <path class="st0" d="M-9.4,124l70.4-22.3c7.4-2.5,13.2-5.4,16.8-9.5,3.6-3.7,5.4-10,5.2-18.9l-.5-13.3c-.3-8.9-2.4-15-6.1-18.6-4.1-3.6-9.6-6.5-17.4-8.6L-12.3,14.5c-.6-.2-1.4,0-1.8,0-.8,0-1.6.2-2.3.6-.8.8-1.1,2.2-1,4.2l.7,24.4c0,2,.5,3.6,1.5,4.4.9.8,2.3,1.5,4.5,1.8l53.9,12.8c1.4.3,2.4.6,3.2,1.4.8.8,1.1,1.7.9,3.3,0,1.4-.5,2.6-.9,3.3-.5.8-1.5,1.4-3.1,1.7l-52.9,16c-2.3.5-3.5,1.1-4.3,2s-1.3,2.6-1,4.3l.7,24.4c0,2,.7,3.4,1.3,4.1.2,1.2,1.8,1.3,3.6.9"/>
  <path class="st0" d="M-9.1,123.8l70.4-22.3c7.4-2.5,13.2-5.4,16.8-9.5,3.6-3.7,5.4-10,5.2-18.9l-.5-13.3c-.3-8.9-2.4-15-6.1-18.6-4.1-3.6-9.6-6.5-17.4-8.6L-12.1,14.3c-.6-.2-1.4,0-1.8,0-.8,0-1.6.2-2.3.6-.8.8-1.1,2.2-1,4.2l.7,24.4c0,2,.5,3.6,1.5,4.4.9.8,2.3,1.5,4.5,1.8l53.9,12.8c1.4.3,2.4.6,3.2,1.4.8.8,1.1,1.7.9,3.3,0,1.4-.5,2.6-.9,3.3-.5.8-1.5,1.4-3.1,1.7l-52.9,16c-2.3.5-3.5,1.1-4.3,2s-1.3,2.6-1,4.3l.7,24.4c0,2,.7,3.4,1.3,4.1.2,1.2,1.8,1.3,3.6.9"/>
  <path class="st0" d="M-8.9,123.6l70.4-22.3c7.4-2.5,13.2-5.4,16.8-9.5,3.6-3.7,5.4-10,5.2-18.9l-.5-13.3c-.3-8.9-2.4-15-6.1-18.6-4.1-3.6-9.6-6.5-17.4-8.6L-11.9,14.1c-.6-.2-1.4,0-1.8,0-.8,0-1.6.2-2.3.6-.8.8-1.1,2.2-1,4.2l.7,24.4c0,2,.5,3.6,1.5,4.4.9.8,2.3,1.5,4.5,1.8l53.9,12.8c1.4.3,2.4.6,3.2,1.4.8.8,1.1,1.7.9,3.3,0,1.4-.5,2.6-.9,3.3-.5.8-1.5,1.4-3.1,1.7l-52.9,16c-2.3.5-3.5,1.1-4.3,2s-1.3,2.6-1,4.3l.7,24.4c0,2,.7,3.4,1.3,4.1.2,1.2,1.8,1.3,3.6.9"/>
  <path class="st0" d="M-8.8,123.4l70.4-22.3c7.4-2.5,13.2-5.4,16.8-9.5,3.6-3.7,5.4-10,5.2-18.9l-.5-13.3c-.3-8.9-2.4-15-6.1-18.6-4.1-3.6-9.6-6.5-17.4-8.6L-11.8,13.9c-.6-.2-1.4,0-1.8,0-.8,0-1.6.2-2.3.6-.8.8-1.1,2.2-1,4.2l.7,24.4c0,2,.5,3.6,1.5,4.4.9.8,2.3,1.5,4.5,1.8l53.9,12.8c1.4.3,2.4.6,3.2,1.4.8.8,1.1,1.7.9,3.3,0,1.4-.5,2.6-.9,3.3-.5.8-1.5,1.4-3.1,1.7l-53,16c-2.3.5-3.5,1.1-4.3,2s-1.3,2.6-1,4.3l.7,24.4c0,2,.7,3.4,1.3,4.1.2,1.2,1.8,1.3,3.6.9"/>
  <path class="st0" d="M-8.6,123.2l70.4-22.3c7.4-2.5,13.2-5.4,16.8-9.5,3.6-3.7,5.4-10,5.2-18.9l-.5-13.3c-.3-8.9-2.4-15-6.1-18.6-4.1-3.6-9.6-6.5-17.4-8.6L-11.5,13.8c-.6-.2-1.4,0-1.8,0-.8,0-1.6.2-2.3.6-.8.8-1.1,2.2-1,4.2l.7,24.4c0,2,.5,3.6,1.5,4.4.9.8,2.3,1.5,4.5,1.8l53.9,12.8c1.4.3,2.4.6,3.2,1.4.8.8,1.1,1.7.9,3.3,0,1.4-.5,2.6-.9,3.3-.5.8-1.5,1.4-3.1,1.7l-53,16c-2.3.5-3.5,1.1-4.3,2s-1.3,2.6-1,4.3l.7,24.4c0,2,.7,3.4,1.3,4.1.2,1.2,1.8,1.3,3.6.9"/>
  <path class="st0" d="M-8.4,123.1l70.4-22.3c7.4-2.5,13.2-5.4,16.8-9.5,3.6-3.7,5.4-10,5.2-18.9l-.5-13.3c-.3-8.9-2.4-15-6.1-18.6-4.1-3.6-9.6-6.5-17.4-8.6L-11.4,13.5c-.6-.2-1.4,0-1.8,0-.8,0-1.6.2-2.3.6-.8.8-1.1,2.2-1,4.2l.7,24.4c0,2,.5,3.6,1.5,4.4.9.8,2.3,1.5,4.5,1.8l53.9,12.8c1.4.3,2.4.6,3.2,1.4.8.8,1.1,1.7.9,3.3,0,1.4-.5,2.6-.9,3.3-.5.8-1.5,1.4-3.1,1.7l-53,16c-2.3.5-3.5,1.1-4.3,2s-1.3,2.6-1,4.3l.7,24.4c0,2,.7,3.4,1.3,4.1.2,1.2,1.8,1.3,3.6.9"/>
  <path class="st0" d="M-8.3,122.9l70.4-22.3c7.4-2.5,13.2-5.4,16.8-9.5,3.6-3.7,5.4-10,5.2-18.9l-.5-13.3c-.3-8.9-2.4-15-6.1-18.6-4.1-3.6-9.6-6.5-17.4-8.6L-11.3,13.4c-.6-.2-1.4,0-1.8,0-.8,0-1.6.2-2.3.6-.8.8-1.1,2.2-1,4.2l.7,24.4c0,2,.5,3.6,1.5,4.4.9.8,2.3,1.5,4.5,1.8l53.9,12.8c1.4.3,2.4.6,3.2,1.4.8.8,1.1,1.7.9,3.3,0,1.4-.5,2.6-.9,3.3-.5.8-1.5,1.4-3.1,1.7l-52.9,16c-2.3.5-3.5,1.1-4.3,2s-1.3,2.6-1,4.3l.7,24.4c0,2,.7,3.4,1.3,4.1.2,1.2,1.8,1.3,3.6.9"/>
  <path class="st0" d="M-8.1,122.7l70.4-22.3c7.4-2.5,13.2-5.4,16.8-9.5,3.6-3.7,5.4-10,5.2-18.9l-.5-13.3c-.3-8.9-2.4-15-6.1-18.6-4.1-3.6-9.6-6.5-17.4-8.6L-11.1,13.2c-.6-.2-1.4,0-1.8,0-.8,0-1.6.2-2.3.6-.8.8-1.1,2.2-1,4.2l.7,24.4c0,2,.5,3.6,1.5,4.4.9.8,2.3,1.5,4.5,1.8l53.9,12.8c1.4.3,2.4.6,3.2,1.4.8.8,1.1,1.7.9,3.3,0,1.4-.5,2.6-.9,3.3-.5.8-1.5,1.4-3.1,1.7l-52.9,16c-2.3.5-3.5,1.1-4.3,2s-1.3,2.6-1,4.3l.7,24.4c0,2,.7,3.4,1.3,4.1.2,1.2,1.8,1.3,3.6.9"/>
  <path class="st0" d="M-7.9,122.5l70.4-22.3c7.4-2.5,13.2-5.4,16.8-9.5,3.6-3.7,5.4-10,5.2-18.9l-.5-13.3c-.3-8.9-2.4-15-6.1-18.6-4.1-3.6-9.6-6.5-17.4-8.6L-10.9,13c-.6-.2-1.4,0-1.8,0-.8,0-1.6.2-2.3.6-.8.8-1.1,2.2-1,4.2l.7,24.4c0,2,.5,3.6,1.5,4.4.9.8,2.3,1.5,4.5,1.8l53.9,12.8c1.4.3,2.4.6,3.2,1.4.8.8,1.1,1.7.9,3.3,0,1.4-.5,2.6-.9,3.3-.5.8-1.5,1.4-3.1,1.7l-52.9,16c-2.3.5-3.5,1.1-4.3,2s-1.3,2.6-1,4.3l.7,24.4c0,2,.7,3.4,1.3,4.1.2,1.2,1.8,1.3,3.6.9"/>
  <path class="st0" d="M-7.8,122.4l70.4-22.3c7.4-2.5,13.2-5.4,16.8-9.5,3.6-3.7,5.4-10,5.2-18.9l-.5-13.3c-.3-8.9-2.4-15-6.1-18.6-4.1-3.6-9.6-6.5-17.4-8.6L-10.7,12.9c-.6-.2-1.4,0-1.8,0-.8,0-1.6.2-2.3.6-.8.8-1.1,2.2-1,4.2l.7,24.4c0,2,.5,3.6,1.5,4.4.9.8,2.3,1.5,4.5,1.8l53.9,12.8c1.4.3,2.4.6,3.2,1.4.8.8,1.1,1.7.9,3.3,0,1.4-.5,2.6-.9,3.3-.5.8-1.5,1.4-3.1,1.7L-7.9,86.7c-2.3.5-3.5,1.1-4.3,2s-1.3,2.6-1,4.3l.7,24.4c0,2,.7,3.4,1.3,4.1.2,1.2,1.8,1.3,3.6.9"/>
  <path class="st0" d="M-7.6,122.2l70.4-22.3c7.4-2.5,13.2-5.4,16.8-9.5,3.6-3.7,5.4-10,5.2-18.9l-.5-13.3c-.3-8.9-2.4-15-6.1-18.6-4.1-3.6-9.6-6.5-17.4-8.6L-10.5,12.6c-.6-.2-1.4,0-1.8,0-.8,0-1.6.2-2.3.6-.8.8-1.1,2.2-1,4.2l.7,24.4c0,2,.5,3.6,1.5,4.4.9.8,2.3,1.5,4.5,1.8l53.9,12.8c1.4.3,2.4.6,3.2,1.4.8.8,1.1,1.7.9,3.3,0,1.4-.5,2.6-.9,3.3-.5.8-1.5,1.4-3.1,1.7L-7.9,86.4c-2.3.5-3.5,1.1-4.3,2s-1.3,2.6-1,4.3l.7,24.4c0,2,.7,3.4,1.3,4.1.2,1.2,1.8,1.3,3.6.9"/>
  <path class="st0" d="M-7.4,122.1l70.4-22.3c7.4-2.5,13.2-5.4,16.8-9.5,3.6-3.7,5.4-10,5.2-18.9l-.5-13.3c-.3-8.9-2.4-15-6.1-18.6-4.1-3.6-9.6-6.5-17.4-8.6L-10.4,12.4c-.6-.2-1.4,0-1.8,0-.8,0-1.6.2-2.3.6-.8.8-1.1,2.2-1,4.2l.7,24.4c0,2,.5,3.6,1.5,4.4.9.8,2.3,1.5,4.5,1.8l53.9,12.8c1.4.3,2.4.6,3.2,1.4.8.8,1.1,1.7.9,3.3,0,1.4-.5,2.6-.9,3.3-.5.8-1.5,1.4-3.1,1.7L-7.7,86.3c-2.3.5-3.5,1.1-4.3,2s-1.3,2.6-1,4.3l.7,24.4c0,2,.7,3.4,1.3,4.1.2,1.2,1.8,1.3,3.6.9"/>
  <path class="st0" d="M-7.2,121.9l70.4-22.3c7.4-2.5,13.2-5.4,16.8-9.5,3.6-3.7,5.4-10,5.2-18.9l-.5-13.3c-.3-8.9-2.4-15-6.1-18.6-4.1-3.6-9.6-6.5-17.4-8.6L-10.2,12.3c-.6-.2-1.4,0-1.8,0-.8,0-1.6.2-2.3.6-.8.8-1.1,2.2-1,4.2l.7,24.4c0,2,.5,3.6,1.5,4.4.9.8,2.3,1.5,4.5,1.8l53.9,12.8c1.4.3,2.4.6,3.2,1.4.8.8,1.1,1.7.9,3.3,0,1.4-.5,2.6-.9,3.3-.5.8-1.5,1.4-3.1,1.7L-7.5,86.1c-2.3.5-3.5,1.1-4.3,2s-1.3,2.6-1,4.3l.7,24.4c0,2,.7,3.4,1.3,4.1.2,1.2,1.8,1.3,3.6.9"/>
  <path class="st0" d="M-7.1,121.6l70.4-22.3c7.4-2.5,13.2-5.4,16.8-9.5,3.6-3.7,5.4-10,5.2-18.9l-.5-13.3c-.3-8.9-2.4-15-6.1-18.6-4.1-3.6-9.6-6.5-17.4-8.6L-10.1,12.1c-.6-.2-1.4,0-1.8,0-.8,0-1.6.2-2.3.6-.8.8-1.1,2.2-1,4.2l.7,24.4c0,2,.5,3.6,1.5,4.4.9.8,2.3,1.5,4.5,1.8l53.9,12.8c1.4.3,2.4.6,3.2,1.4.8.8,1.1,1.7.9,3.3,0,1.4-.5,2.6-.9,3.3-.5.8-1.5,1.4-3.1,1.7L-7.4,85.9c-2.3.5-3.5,1.1-4.3,2s-1.3,2.6-1,4.3l.7,24.4c0,2,.7,3.4,1.3,4.1.2,1.2,1.8,1.3,3.6.9"/>
  <path class="st0" d="M-6.9,121.4l70.4-22.3c7.4-2.5,13.2-5.4,16.8-9.5,3.6-3.7,5.4-10,5.2-18.9l-.5-13.3c-.3-8.9-2.4-15-6.1-18.6-4.1-3.6-9.6-6.5-17.4-8.6L-9.9,11.9c-.6-.2-1.4,0-1.8,0-.8,0-1.6.2-2.3.6-.8.8-1.1,2.2-1,4.2l.7,24.4c0,2,.5,3.6,1.5,4.4.9.8,2.3,1.5,4.5,1.8l53.9,12.8c1.4.3,2.4.6,3.2,1.4.8.8,1.1,1.7.9,3.3,0,1.4-.5,2.6-.9,3.3-.5.8-1.5,1.4-3.1,1.7L-7.1,85.7c-2.3.5-3.5,1.1-4.3,2s-1.3,2.6-1,4.3l.7,24.4c0,2,.7,3.4,1.3,4.1.2,1.2,1.8,1.3,3.6.9"/>
  <path class="st0" d="M-6.8,121.2l70.4-22.3c7.4-2.5,13.2-5.4,16.8-9.5,3.6-3.7,5.4-10,5.2-18.9l-.5-13.3c-.3-8.9-2.4-15-6.1-18.6-4.1-3.6-9.6-6.5-17.4-8.6L-9.7,11.7c-.6-.2-1.4,0-1.8,0-.8,0-1.6.2-2.3.6-.8.8-1.1,2.2-1,4.2l.7,24.4c0,2,.5,3.6,1.5,4.4.9.8,2.3,1.5,4.5,1.8l53.9,12.8c1.4.3,2.4.6,3.2,1.4.8.8,1.1,1.7.9,3.3,0,1.4-.5,2.6-.9,3.3-.5.8-1.5,1.4-3.1,1.7L-6.9,85.5c-2.3.5-3.5,1.1-4.3,2s-1.3,2.6-1,4.3l.7,24.4c0,2,.7,3.4,1.3,4.1.2,1.2,1.8,1.3,3.6.9"/>
  <path class="st0" d="M-6.5,121l70.4-22.3c7.4-2.5,13.2-5.4,16.8-9.5,3.6-3.7,5.4-10,5.2-18.9l-.5-13.3c-.3-8.9-2.4-15-6.1-18.6-4.1-3.6-9.6-6.5-17.4-8.6L-9.5,11.5c-.6-.2-1.4,0-1.8,0-.8,0-1.6.2-2.3.6-.8.8-1.1,2.2-1,4.2l.7,24.4c0,2,.5,3.6,1.5,4.4.9.8,2.3,1.5,4.5,1.8l53.9,12.8c1.4.3,2.4.6,3.2,1.4.8.8,1.1,1.7.9,3.3,0,1.4-.5,2.6-.9,3.3-.5.8-1.5,1.4-3.1,1.7L-6.8,85.3c-2.3.5-3.5,1.1-4.3,2s-1.3,2.6-1,4.3l.7,24.4c0,2,.7,3.4,1.3,4.1.2,1.2,1.8,1.3,3.6.9"/>
  <path class="st0" d="M-6.4,120.8l70.4-22.3c7.4-2.5,13.2-5.4,16.8-9.5,3.6-3.7,5.4-10,5.2-18.9l-.5-13.3c-.3-8.9-2.4-15-6.1-18.6-4.1-3.6-9.6-6.5-17.4-8.6L-9.4,11.4c-.6-.2-1.4,0-1.8,0-.8,0-1.6.2-2.3.6-.8.8-1.1,2.2-1,4.2l.7,24.4c0,2,.5,3.6,1.5,4.4.9.8,2.3,1.5,4.5,1.8l53.9,12.8c1.4.3,2.4.6,3.2,1.4.8.8,1.1,1.7.9,3.3,0,1.4-.5,2.6-.9,3.3-.5.8-1.5,1.4-3.1,1.7L-6.6,85.2c-2.3.5-3.5,1.1-4.3,2s-1.3,2.6-1,4.3l.7,24.4c0,2,.7,3.4,1.3,4.1.2,1.2,1.8,1.3,3.6.9"/>
  <path class="st0" d="M-6.2,120.6l70.4-22.3c7.4-2.5,13.2-5.4,16.8-9.5,3.6-3.7,5.4-10,5.2-18.9l-.5-13.3c-.3-8.9-2.4-15-6.1-18.6-4.1-3.6-9.6-6.5-17.4-8.6L-9.1,11.2c-.6-.2-1.4,0-1.8,0-.8,0-1.6.2-2.3.6-.8.8-1.1,2.2-1,4.2l.7,24.4c0,2,.5,3.6,1.5,4.4.9.8,2.3,1.5,4.5,1.8l53.9,12.8c1.4.3,2.4.6,3.2,1.4.8.8,1.1,1.7.9,3.3,0,1.4-.5,2.6-.9,3.3-.5.8-1.5,1.4-3.1,1.7L-6.4,85c-2.3.5-3.5,1.1-4.3,2s-1.3,2.6-1,4.3l.7,24.4c0,2,.7,3.4,1.3,4.1.2,1.2,1.8,1.3,3.6.9"/>
  <path class="st0" d="M-6,120.5l70.4-22.3c7.4-2.5,13.2-5.4,16.8-9.5,3.6-3.7,5.4-10,5.2-18.9l-.5-13.3c-.3-8.9-2.4-15-6.1-18.6-4.1-3.6-9.6-6.5-17.4-8.6L-8.9,10.9c-.6-.2-1.4,0-1.8,0-.8,0-1.6.2-2.3.6-.8.8-1.1,2.2-1,4.2l.7,24.4c0,2,.5,3.6,1.5,4.4.9.8,2.3,1.5,4.5,1.8l53.9,12.8c1.4.3,2.4.6,3.2,1.4.8.8,1.1,1.7.9,3.3,0,1.4-.5,2.6-.9,3.3-.5.8-1.5,1.4-3.1,1.7L-6.3,84.8c-2.3.5-3.5,1.1-4.3,2s-1.3,2.6-1,4.3l.7,24.4c0,2,.7,3.4,1.3,4.1.2,1.2,1.8,1.3,3.6.9"/>
  <path class="st0" d="M-5.9,120.3l70.4-22.3c7.4-2.5,13.2-5.4,16.8-9.5,3.6-3.7,5.4-10,5.2-18.9l-.5-13.3c-.3-8.9-2.4-15-6.1-18.6-4.1-3.6-9.6-6.5-17.4-8.6L-8.9,10.8c-.6-.2-1.4,0-1.8,0-.8,0-1.6.2-2.3.6-.8.8-1.1,2.2-1,4.2l.7,24.4c0,2,.5,3.6,1.5,4.4.9.8,2.3,1.5,4.5,1.8l53.9,12.8c1.4.3,2.4.6,3.2,1.4.8.8,1.1,1.7.9,3.3,0,1.4-.5,2.6-.9,3.3-.5.8-1.5,1.4-3.1,1.7L-6.1,84.6c-2.3.5-3.5,1.1-4.3,2s-1.3,2.6-1,4.3l.7,24.4c0,2,.7,3.4,1.3,4.1.2,1.2,1.8,1.3,3.6.9"/>
  <path class="st0" d="M-5.7,120l70.4-22.3c7.4-2.5,13.2-5.4,16.8-9.5,3.6-3.7,5.4-10,5.2-18.9l-.5-13.3c-.3-8.9-2.4-15-6.1-18.6-4.1-3.6-9.6-6.5-17.4-8.6L-8.7,10.6c-.6-.2-1.4,0-1.8,0-.8,0-1.6.2-2.3.6-.8.8-1.1,2.2-1,4.2l.7,24.4c0,2,.5,3.6,1.5,4.4.9.8,2.3,1.5,4.5,1.8l53.9,12.8c1.4.3,2.4.6,3.2,1.4.8.8,1.1,1.7.9,3.3,0,1.4-.5,2.6-.9,3.3-.5.8-1.5,1.4-3.1,1.7L-5.9,84.4c-2.3.5-3.5,1.1-4.3,2-.8.9-1.3,2.6-1,4.3l.7,24.4c0,2,.7,3.4,1.3,4.1.2,1.2,1.8,1.3,3.6.9"/>
  <path class="st0" d="M-5.5,119.9l70.4-22.3c7.4-2.5,13.2-5.4,16.8-9.5,3.6-3.7,5.4-10,5.2-18.9l-.5-13.3c-.3-8.9-2.4-15-6.1-18.6-4.1-3.6-9.6-6.5-17.4-8.6L-8.5,10.4c-.6-.2-1.4,0-1.8,0-.8,0-1.6.2-2.3.6-.8.8-1.1,2.2-1,4.2l.7,24.4c0,2,.5,3.6,1.5,4.4.9.8,2.3,1.5,4.5,1.8l53.9,12.8c1.4.3,2.4.6,3.2,1.4.8.8,1.1,1.7.9,3.3,0,1.4-.5,2.6-.9,3.3-.5.8-1.5,1.4-3.1,1.7L-5.8,84.3c-2.3.5-3.5,1.1-4.3,2-.8.9-1.3,2.6-1,4.3l.7,24.4c0,2,.7,3.4,1.3,4.1.2,1.2,1.8,1.3,3.6.9"/>
  <path class="st0" d="M-5.4,119.8l70.4-22.3c7.4-2.5,13.2-5.4,16.8-9.5,3.6-3.7,5.4-10,5.2-18.9l-.5-13.3c-.3-8.9-2.4-15-6.1-18.6-4.1-3.6-9.6-6.5-17.4-8.6L-8.3,10.2c-.6-.2-1.4,0-1.8,0-.8,0-1.6.2-2.3.6-.8.8-1.1,2.2-1,4.2l.7,24.4c0,2,.5,3.6,1.5,4.4.9.8,2.3,1.5,4.5,1.8l53.9,12.8c1.4.3,2.4.6,3.2,1.4.8.8,1.1,1.7.9,3.3,0,1.4-.5,2.6-.9,3.3-.5.8-1.5,1.4-3.1,1.7L-5.5,84c-2.3.5-3.5,1.1-4.3,2-.8.9-1.3,2.6-1,4.3l.7,24.4c0,2,.7,3.4,1.3,4.1.2,1.2,1.8,1.3,3.6.9"/>
  <path class="st0" d="M-5.2,119.6l70.4-22.3c7.4-2.5,13.2-5.4,16.8-9.5,3.6-3.7,5.4-10,5.2-18.9l-.5-13.3c-.3-8.9-2.4-15-6.1-18.6-4.1-3.6-9.6-6.5-17.4-8.6L-8.1,10c-.6-.2-1.4,0-1.8,0-.8,0-1.6.2-2.3.6-.8.8-1.1,2.2-1,4.2l.7,24.4c0,2,.5,3.6,1.5,4.4.9.8,2.3,1.5,4.5,1.8l53.9,12.8c1.4.3,2.4.6,3.2,1.4.8.8,1.1,1.7.9,3.3,0,1.4-.5,2.6-.9,3.3-.5.8-1.5,1.4-3.1,1.7L-5.4,83.8c-2.3.5-3.5,1.1-4.3,2-.8.9-1.3,2.6-1,4.3l.7,24.4c0,2,.7,3.4,1.3,4.1.2,1.2,1.8,1.3,3.6.9"/>
  <path class="st0" d="M-5,119.5l70.4-22.3c7.4-2.5,13.2-5.4,16.8-9.5,3.6-3.7,5.4-10,5.2-18.9l-.5-13.3c-.3-8.9-2.4-15-6.1-18.6-4.1-3.6-9.6-6.5-17.4-8.6L-7.9,9.9c-.6-.2-1.4,0-1.8,0-.8,0-1.6.2-2.3.6-.8.8-1.1,2.2-1,4.2l.7,24.4c0,2,.5,3.6,1.5,4.4.9.8,2.3,1.5,4.5,1.8l53.9,12.8c1.4.3,2.4.6,3.2,1.4.8.8,1.1,1.7.9,3.3,0,1.4-.5,2.6-.9,3.3-.5.8-1.5,1.4-3.1,1.7L-5.3,83.7c-2.3.5-3.5,1.1-4.3,2-.8.9-1.3,2.6-1,4.3l.7,24.4c0,2,.7,3.4,1.3,4.1.2,1.2,1.8,1.3,3.6.9"/>
  <path class="st0" d="M-4.8,119.3l70.4-22.3c7.4-2.5,13.2-5.4,16.8-9.5,3.6-3.7,5.4-10,5.2-18.9l-.5-13.3c-.3-8.9-2.4-15-6.1-18.6-4.1-3.6-9.6-6.5-17.4-8.6L-7.8,9.7c-.6-.2-1.4,0-1.8,0-.8,0-1.6.2-2.3.6-.8.8-1.1,2.2-1,4.2l.7,24.4c0,2,.5,3.6,1.5,4.4.9.8,2.3,1.5,4.5,1.8l53.9,12.8c1.4.3,2.4.6,3.2,1.4.8.8,1.1,1.7.9,3.3,0,1.4-.5,2.6-.9,3.3-.5.8-1.5,1.4-3.1,1.7L-5.1,83.5c-2.3.5-3.5,1.1-4.3,2-.8.9-1.3,2.6-1,4.3l.7,24.4c0,2,.7,3.4,1.3,4.1.2,1.2,1.8,1.3,3.6.9"/>
  <path class="st0" d="M-4.6,119l70.4-22.3c7.4-2.5,13.2-5.4,16.8-9.5,3.6-3.7,5.4-10,5.2-18.9l-.5-13.3c-.3-8.9-2.4-15-6.1-18.6-4.1-3.6-9.6-6.5-17.4-8.6L-7.7,9.5c-.6-.2-1.4,0-1.8,0-.8,0-1.6.2-2.3.6-.8.8-1.1,2.2-1,4.2l.7,24.4c0,2,.5,3.6,1.5,4.4.9.8,2.3,1.5,4.5,1.8l53.9,12.8c1.4.3,2.4.6,3.2,1.4.8.8,1.1,1.7.9,3.3,0,1.4-.5,2.6-.9,3.3-.5.8-1.5,1.4-3.1,1.7L-4.9,83.3c-2.3.5-3.5,1.1-4.3,2-.8.9-1.3,2.6-1,4.3l.7,24.4c0,2,.7,3.4,1.3,4.1.2,1.2,1.8,1.3,3.6.9"/>
  <path class="st0" d="M-4.5,118.9l70.4-22.3c7.4-2.5,13.2-5.4,16.8-9.5,3.6-3.7,5.4-10,5.2-18.9l-.5-13.3c-.3-8.9-2.4-15-6.1-18.6-4.1-3.6-9.6-6.5-17.4-8.6L-7.4,9.3c-.6-.2-1.4,0-1.8,0-.8,0-1.6.2-2.3.6-.8.8-1.1,2.2-1,4.2l.7,24.4c0,2,.5,3.6,1.5,4.4.9.8,2.3,1.5,4.5,1.8l53.9,12.8c1.4.3,2.4.6,3.2,1.4.8.8,1.1,1.7.9,3.3,0,1.4-.5,2.6-.9,3.3-.5.8-1.5,1.4-3.1,1.7L-4.7,83.1c-2.3.5-3.5,1.1-4.3,2-.8.9-1.3,2.6-1,4.3l.7,24.4c0,2,.7,3.4,1.3,4.1.2,1.2,1.8,1.3,3.6.9"/>
  <path class="st0" d="M-4.4,118.7l70.4-22.3c7.4-2.5,13.2-5.4,16.8-9.5,3.6-3.7,5.4-10,5.2-18.9l-.5-13.3c-.3-8.9-2.4-15-6.1-18.6-4.1-3.6-9.6-6.5-17.4-8.6L-7.3,9.1c-.6-.2-1.4,0-1.8,0-.8,0-1.6.2-2.3.6-.8.8-1.1,2.2-1,4.2l.7,24.4c0,2,.5,3.6,1.5,4.4.9.8,2.3,1.5,4.5,1.8l53.9,12.8c1.4.3,2.4.6,3.2,1.4.8.8,1.1,1.7.9,3.3,0,1.4-.5,2.6-.9,3.3-.5.8-1.5,1.4-3.1,1.7L-4.5,82.9c-2.3.5-3.5,1.1-4.3,2-.8.9-1.3,2.6-1,4.3l.7,24.4c0,2,.7,3.4,1.3,4.1.2,1.2,1.8,1.3,3.6.9"/>
  <path class="st0" d="M-4.2,118.5l70.4-22.3c7.4-2.5,13.2-5.4,16.8-9.5,3.6-3.7,5.4-10,5.2-18.9l-.5-13.3c-.3-8.9-2.4-15-6.1-18.6-4.1-3.6-9.6-6.5-17.4-8.6L-7.1,8.9c-.6-.2-1.4,0-1.8,0-.8,0-1.6.2-2.3.6-.8.8-1.1,2.2-1,4.2l.7,24.4c0,2,.5,3.6,1.5,4.4.9.8,2.3,1.5,4.5,1.8l53.9,12.8c1.4.3,2.4.6,3.2,1.4.8.8,1.1,1.7.9,3.3,0,1.4-.5,2.6-.9,3.3-.5.8-1.5,1.4-3.1,1.7L-4.4,82.8c-2.3.5-3.5,1.1-4.3,2s-1.3,2.6-1,4.3l.7,24.4c0,2,.7,3.4,1.3,4.1.2,1.2,1.8,1.3,3.6.9"/>
  <path class="st0" d="M-3.9,118.3l70.4-22.3c7.4-2.5,13.2-5.4,16.8-9.5,3.6-3.7,5.4-10,5.2-18.9l-.5-13.3c-.3-8.9-2.4-15-6.1-18.6-4.1-3.6-9.6-6.5-17.4-8.6L-6.9,8.8c-.6-.2-1.4,0-1.8,0-.8,0-1.6.2-2.3.6-.8.8-1.1,2.2-1,4.2l.7,24.4c0,2,.5,3.6,1.5,4.4.9.8,2.3,1.5,4.5,1.8l53.9,12.8c1.4.3,2.4.6,3.2,1.4.8.8,1.1,1.7.9,3.3,0,1.4-.5,2.6-.9,3.3-.5.8-1.5,1.4-3.1,1.7L-4.2,82.6c-2.3.5-3.5,1.1-4.3,2s-1.3,2.6-1,4.3l.7,24.4c0,2,.7,3.4,1.3,4.1.2,1.2,1.8,1.3,3.6.9"/>
  <path class="st0" d="M-3.8,118.1l70.4-22.3c7.4-2.5,13.2-5.4,16.8-9.5,3.6-3.7,5.4-10,5.2-18.9l-.5-13.3c-.3-8.9-2.4-15-6.1-18.6-4.1-3.6-9.6-6.5-17.4-8.6L-6.8,8.5c-.6-.2-1.4,0-1.8,0-.8,0-1.6.2-2.3.6-.8.8-1.1,2.2-1,4.2l.7,24.4c0,2,.5,3.6,1.5,4.4.9.8,2.3,1.5,4.5,1.8l53.9,12.8c1.4.3,2.4.6,3.2,1.4.8.8,1.1,1.7.9,3.3,0,1.4-.5,2.6-.9,3.3-.5.8-1.5,1.4-3.1,1.7L-4.1,82.3c-2.3.5-3.5,1.1-4.3,2s-1.3,2.6-1,4.3l.7,24.4c0,2,.7,3.4,1.3,4.1.2,1.2,1.8,1.3,3.6.9"/>
  <path class="st0" d="M-3.6,118l70.4-22.3c7.4-2.5,13.2-5.4,16.8-9.5,3.6-3.7,5.4-10,5.2-18.9l-.5-13.3c-.3-8.9-2.4-15-6.1-18.6-4.1-3.6-9.6-6.5-17.4-8.6L-6.5,8.4c-.6-.2-1.4,0-1.8,0-.8,0-1.6.2-2.3.6-.8.8-1.1,2.2-1,4.2l.7,24.4c0,2,.5,3.6,1.5,4.4.9.8,2.3,1.5,4.5,1.8l53.9,12.8c1.4.3,2.4.6,3.2,1.4s1.1,1.7.9,3.3c0,1.4-.5,2.6-.9,3.3-.5.8-1.5,1.4-3.1,1.7L-3.9,82.2c-2.3.5-3.5,1.1-4.3,2s-1.3,2.6-1,4.3l.7,24.4c0,2,.7,3.4,1.3,4.1.2,1.2,1.8,1.3,3.6.9"/>
  <path class="st0" d="M-3.4,117.7l70.4-22.3c7.4-2.5,13.2-5.4,16.8-9.5,3.6-3.7,5.4-10,5.2-18.9l-.5-13.3c-.3-8.9-2.4-15-6.1-18.6-4.1-3.6-9.6-6.5-17.4-8.6L-6.4,8.2c-.6-.2-1.4,0-1.8,0-.8,0-1.6.2-2.3.6-.8.8-1.1,2.2-1,4.2l.7,24.4c0,2,.5,3.6,1.5,4.4.9.8,2.3,1.5,4.5,1.8l53.9,12.8c1.4.3,2.4.6,3.2,1.4.8.8,1.1,1.7.9,3.3,0,1.4-.5,2.6-.9,3.3-.5.8-1.5,1.4-3.1,1.7L-3.7,82c-2.3.5-3.5,1.1-4.3,2s-1.3,2.6-1,4.3l.7,24.4c0,2,.7,3.4,1.3,4.1.2,1.2,1.8,1.3,3.6.9"/>
  <path class="st0" d="M-3.4,117.5l70.4-22.3c7.4-2.5,13.2-5.4,16.8-9.5,3.6-3.7,5.4-10,5.2-18.9l-.5-13.3c-.3-8.9-2.4-15-6.1-18.6-4.1-3.6-9.6-6.5-17.4-8.6L-6.3,8c-.6-.2-1.4,0-1.8,0-.8,0-1.6.2-2.3.6-.8.8-1.1,2.2-1,4.2l.7,24.4c0,2,.5,3.6,1.5,4.4.9.8,2.3,1.5,4.5,1.8l53.9,12.8c1.4.3,2.4.6,3.2,1.4.8.8,1.1,1.7.9,3.3,0,1.4-.5,2.6-.9,3.3-.5.8-1.5,1.4-3.1,1.7L-3.5,81.8c-2.3.5-3.5,1.1-4.3,2s-1.3,2.6-1,4.3l.7,24.4c0,2,.7,3.4,1.3,4.1.2,1.2,1.8,1.3,3.6.9"/>
  <path class="st0" d="M-3.1,117.3l70.4-22.3c7.4-2.5,13.2-5.4,16.8-9.5,3.6-3.7,5.4-10,5.2-18.9l-.5-13.3c-.3-8.9-2.4-15-6.1-18.6-4.1-3.6-9.6-6.5-17.4-8.6L-6.1,7.9c-.6-.2-1.4,0-1.8,0-.8,0-1.6.2-2.3.6-.8.8-1.1,2.2-1,4.2l.7,24.4c0,2,.5,3.6,1.5,4.4.9.8,2.3,1.5,4.5,1.8l53.9,12.8c1.4.3,2.4.6,3.2,1.4s1.1,1.7.9,3.3c0,1.4-.5,2.6-.9,3.3-.5.8-1.5,1.4-3.1,1.7L-3.4,81.7c-2.3.5-3.5,1.1-4.3,2s-1.3,2.6-1,4.3l.7,24.4c0,2,.7,3.4,1.3,4.1.2,1.2,1.8,1.3,3.6.9"/>
  <path class="st0" d="M-2.9,117.2l70.4-22.3c7.4-2.5,13.2-5.4,16.8-9.5,3.6-3.7,5.4-10,5.2-18.9l-.5-13.3c-.3-8.9-2.4-15-6.1-18.6-4.1-3.6-9.6-6.5-17.4-8.6L-5.9,7.6c-.6-.2-1.4,0-1.8,0-.8,0-1.6.2-2.3.6-.8.8-1.1,2.2-1,4.2l.7,24.4c0,2,.5,3.6,1.5,4.4.9.8,2.3,1.5,4.5,1.8l53.9,12.8c1.4.3,2.4.6,3.2,1.4.8.8,1.1,1.7.9,3.3,0,1.4-.5,2.6-.9,3.3-.5.8-1.5,1.4-3.1,1.7L-3.2,81.4c-2.3.5-3.5,1.1-4.3,2s-1.3,2.6-1,4.3l.7,24.4c0,2,.7,3.4,1.3,4.1.2,1.2,1.8,1.3,3.6.9"/>
  <path class="st0" d="M-2.8,117l70.4-22.3c7.4-2.5,13.2-5.4,16.8-9.5,3.6-3.7,5.4-10,5.2-18.9l-.5-13.3c-.3-8.9-2.4-15-6.1-18.6-4.1-3.6-9.6-6.5-17.4-8.6L-5.7,7.4c-.6-.2-1.4,0-1.8,0-.8,0-1.6.2-2.3.6-.8.8-1.1,2.2-1,4.2l.7,24.4c0,2,.5,3.6,1.5,4.4.9.8,2.3,1.5,4.5,1.8l53.9,12.8c1.4.3,2.4.6,3.2,1.4s1.1,1.7.9,3.3c0,1.4-.5,2.6-.9,3.3-.5.8-1.5,1.4-3.1,1.7L-2.9,81.3c-2.3.5-3.5,1.1-4.3,2s-1.3,2.6-1,4.3l.7,24.4c0,2,.7,3.4,1.3,4.1.2,1.2,1.8,1.3,3.6.9"/>
  <path class="st0" d="M-2.6,116.9l70.4-22.3c7.4-2.5,13.2-5.4,16.8-9.5,3.6-3.7,5.4-10,5.2-18.9l-.5-13.3c-.3-8.9-2.4-15-6.1-18.6-4.1-3.6-9.6-6.5-17.4-8.6L-5.5,7.3c-.6-.2-1.4,0-1.8,0-.8,0-1.6.2-2.3.6-.8.8-1.1,2.2-1,4.2l.7,24.4c0,2,.5,3.6,1.5,4.4.9.8,2.3,1.5,4.5,1.8l53.9,12.8c1.4.3,2.4.6,3.2,1.4.8.8,1.1,1.7.9,3.3,0,1.4-.5,2.6-.9,3.3-.5.8-1.5,1.4-3.1,1.7L-2.8,81c-2.3.5-3.5,1.1-4.3,2s-1.3,2.6-1,4.3l.7,24.4c0,2,.7,3.4,1.3,4.1.2,1.2,1.8,1.3,3.6.9"/>
  <path class="st0" d="M-2.4,116.6l70.4-22.3c7.4-2.5,13.2-5.4,16.8-9.5,3.6-3.7,5.4-10,5.2-18.9l-.5-13.3c-.3-8.9-2.4-15-6.1-18.6-4.1-3.6-9.6-6.5-17.4-8.6L-5.4,7.1c-.6-.2-1.4,0-1.8,0-.8,0-1.6.2-2.3.6-.8.8-1.1,2.2-1,4.2l.7,24.4c0,2,.5,3.6,1.5,4.4.9.8,2.3,1.5,4.5,1.8l53.9,12.8c1.4.3,2.4.6,3.2,1.4s1.1,1.7.9,3.3c0,1.4-.5,2.6-.9,3.3-.5.8-1.5,1.4-3.1,1.7L-2.7,80.8c-2.3.5-3.5,1.1-4.3,2s-1.3,2.6-1,4.3l.7,24.4c0,2,.7,3.4,1.3,4.1.2,1.2,1.8,1.3,3.6.9"/>
  <path class="st0" d="M-2.2,116.5l70.4-22.3c7.4-2.5,13.2-5.4,16.8-9.5,3.6-3.7,5.4-10,5.2-18.9l-.5-13.3c-.3-8.9-2.4-15-6.1-18.6-4.1-3.6-9.6-6.5-17.4-8.6L-5.2,6.9c-.6-.2-1.4,0-1.8,0-.8,0-1.6.2-2.3.6-.8.8-1.1,2.2-1,4.2l.7,24.4c0,2,.5,3.6,1.5,4.4.9.8,2.3,1.5,4.5,1.8l53.9,12.8c1.4.3,2.4.6,3.2,1.4s1.1,1.7.9,3.3c0,1.4-.5,2.6-.9,3.3-.5.8-1.5,1.4-3.1,1.7L-2.5,80.7c-2.3.5-3.5,1.1-4.3,2s-1.3,2.6-1,4.3l.7,24.4c0,2,.7,3.4,1.3,4.1.2,1.2,1.8,1.3,3.6.9"/>
  <path class="st0" d="M-2.1,116.3l70.4-22.3c7.4-2.5,13.2-5.4,16.8-9.5,3.6-3.7,5.4-10,5.2-18.9l-.5-13.3c-.3-8.9-2.4-15-6.1-18.6-4.1-3.6-9.6-6.5-17.4-8.6L-5.1,6.7c-.6-.2-1.4,0-1.8,0-.8,0-1.6.2-2.3.6-.8.8-1.1,2.2-1,4.2l.7,24.4c0,2,.5,3.6,1.5,4.4.9.8,2.3,1.5,4.5,1.8l53.9,12.8c1.4.3,2.4.6,3.2,1.4.8.8,1.1,1.7.9,3.3,0,1.4-.5,2.6-.9,3.3-.5.8-1.5,1.4-3.1,1.7L-2.3,80.5c-2.3.5-3.5,1.1-4.3,2s-1.3,2.6-1,4.3l.7,24.4c0,2,.7,3.4,1.3,4.1.2,1.2,1.8,1.3,3.6.9"/>
  <path class="st0" d="M-1.9,116.1l70.4-22.3c7.4-2.5,13.2-5.4,16.8-9.5,3.6-3.7,5.4-10,5.2-18.9l-.5-13.3c-.3-8.9-2.4-15-6.1-18.6-4.1-3.6-9.6-6.5-17.4-8.6L-4.9,6.5c-.6-.2-1.4,0-1.8,0-.8,0-1.6.2-2.3.6-.8.8-1.1,2.2-1,4.2l.7,24.4c0,2,.5,3.6,1.5,4.4.9.8,2.3,1.5,4.5,1.8l53.9,12.8c1.4.3,2.4.6,3.2,1.4s1.1,1.7.9,3.3c0,1.4-.5,2.6-.9,3.3-.5.8-1.5,1.4-3.1,1.7L-2.1,80.3c-2.3.5-3.5,1.1-4.3,2s-1.3,2.6-1,4.3l.7,24.4c0,2,.7,3.4,1.3,4.1.2,1.2,1.8,1.3,3.6.9"/>
  <path class="st0" d="M-1.8,116l70.4-22.3c7.4-2.5,13.2-5.4,16.8-9.5,3.6-3.7,5.4-10,5.2-18.9l-.5-13.3c-.3-8.9-2.4-15-6.1-18.6-4.1-3.6-9.6-6.5-17.4-8.6L-4.7,6.4c-.6-.2-1.4,0-1.8,0-.8,0-1.6.2-2.3.6-.8.8-1.1,2.2-1,4.2l.7,24.4c0,2,.5,3.6,1.5,4.4.9.8,2.3,1.5,4.5,1.8l53.9,12.8c1.4.3,2.4.6,3.2,1.4s1.1,1.7.9,3.3c0,1.4-.5,2.6-.9,3.3-.5.8-1.5,1.4-3.1,1.7L-1.9,80.1c-2.3.5-3.5,1.1-4.3,2s-1.3,2.6-1,4.3l.7,24.4c0,2,.7,3.4,1.3,4.1.2,1.2,1.8,1.3,3.6.9"/>
  <path class="st0" d="M-1.5,115.7l70.4-22.3c7.4-2.5,13.2-5.4,16.8-9.5,3.6-3.7,5.4-10,5.2-18.9l-.5-13.3c-.3-8.9-2.4-15-6.1-18.6-4.1-3.6-9.6-6.5-17.4-8.6L-4.5,6.2c-.6-.2-1.4,0-1.8,0-.8,0-1.6.2-2.3.6-.8.8-1.1,2.2-1,4.2l.7,24.4c0,2,.5,3.6,1.5,4.4.9.8,2.3,1.5,4.5,1.8l53.9,12.8c1.4.3,2.4.6,3.2,1.4.8.8,1.1,1.7.9,3.3,0,1.4-.5,2.6-.9,3.3-.5.8-1.5,1.4-3.1,1.7L-1.8,79.9c-2.3.5-3.5,1.1-4.3,2s-1.3,2.6-1,4.3l.6,24.4c0,2,.7,3.4,1.3,4.1.2,1.2,1.8,1.3,3.6.9"/>
  <path class="st0" d="M-1.3,115.5l70.4-22.3c7.4-2.5,13.2-5.4,16.8-9.5,3.6-3.7,5.4-10,5.2-18.9l-.5-13.3c-.3-8.9-2.4-15-6.1-18.6-4.1-3.6-9.6-6.5-17.4-8.6L-4.4,5.9c-.6-.2-1.4,0-1.8,0-.8,0-1.6.2-2.3.6-.8.8-1.1,2.2-1,4.2l.7,24.4c0,2,.5,3.6,1.5,4.4.9.8,2.3,1.5,4.5,1.8l53.9,12.8c1.4.3,2.4.6,3.2,1.4s1.1,1.7.9,3.3c0,1.4-.5,2.6-.9,3.3-.5.8-1.5,1.4-3.1,1.7L-1.5,79.8c-2.3.5-3.5,1.1-4.3,2s-1.3,2.6-1,4.3l.7,24.4c0,2,.7,3.4,1.3,4.1.2,1.2,1.8,1.3,3.6.9"/>
  <path class="st0" d="M-1.2,115.4l70.4-22.3c7.4-2.5,13.2-5.4,16.8-9.5,3.6-3.7,5.4-10,5.2-18.9l-.5-13.3c-.3-8.9-2.4-15-6.1-18.6-4.1-3.6-9.6-6.5-17.4-8.6L-4.2,5.8c-.6-.2-1.4,0-1.8,0-.8,0-1.6.2-2.3.6-.8.8-1.1,2.2-1,4.2l.7,24.4c0,2,.5,3.6,1.5,4.4.9.8,2.3,1.5,4.5,1.8l53.9,12.8c1.4.3,2.4.6,3.2,1.4.8.8,1.1,1.7.9,3.3,0,1.4-.5,2.6-.9,3.3-.5.8-1.5,1.4-3.1,1.7L-1.4,79.6c-2.3.5-3.5,1.1-4.3,2s-1.3,2.6-1,4.3l.7,24.4c0,2,.7,3.4,1.3,4.1.2,1.2,1.8,1.3,3.6.9"/>
  <path class="st0" d="M-1,115.2l70.4-22.3c7.4-2.5,13.2-5.4,16.8-9.5,3.6-3.7,5.4-10,5.2-18.9l-.5-13.3c-.3-8.9-2.4-15-6.1-18.6-4.1-3.6-9.6-6.5-17.4-8.6L-3.9,5.6c-.6-.2-1.4,0-1.8,0-.8,0-1.6.2-2.3.6-.8.8-1.1,2.2-1,4.2l.7,24.4c0,2,.5,3.6,1.5,4.4.9.8,2.3,1.5,4.5,1.8l53.9,12.8c1.4.3,2.4.6,3.2,1.4.8.8,1.1,1.7.9,3.3,0,1.4-.5,2.6-.9,3.3-.5.8-1.5,1.4-3.1,1.7L-1.3,79.3c-2.3.5-3.5,1.1-4.3,2s-1.3,2.6-1,4.3l.7,24.4c0,2,.7,3.4,1.3,4.1.2,1.2,1.8,1.3,3.6.9"/>
  <path class="st0" d="M-.8,115l70.4-22.3c7.4-2.5,13.2-5.4,16.8-9.5,3.6-3.7,5.4-10,5.2-18.9l-.5-13.3c-.3-8.9-2.4-15-6.1-18.6-4.1-3.6-9.6-6.5-17.4-8.6L-3.9,5.4c-.6-.2-1.4,0-1.8,0-.8,0-1.6.2-2.3.6-.8.8-1.1,2.2-1,4.2l.7,24.4c0,2,.5,3.6,1.5,4.4.9.8,2.3,1.5,4.5,1.8l53.9,12.8c1.4.3,2.4.6,3.2,1.4s1.1,1.7.9,3.3c0,1.4-.5,2.6-.9,3.3-.5.8-1.5,1.4-3.1,1.7L-1.1,79.2c-2.3.5-3.5,1.1-4.3,2s-1.3,2.6-1,4.3l.7,24.4c0,2,.7,3.4,1.3,4.1.2,1.2,1.8,1.3,3.6.9"/>
  <path class="st0" d="M-.7,114.8l70.4-22.3c7.4-2.5,13.2-5.4,16.8-9.5,3.6-3.7,5.4-10,5.2-18.9l-.5-13.3c-.3-8.9-2.4-15-6.1-18.6-4.1-3.6-9.6-6.5-17.4-8.6L-3.7,5.3c-.6-.2-1.4,0-1.8,0-.8,0-1.6.2-2.3.6-.8.8-1.1,2.2-1,4.2l.7,24.4c0,2,.5,3.6,1.5,4.4.9.8,2.3,1.5,4.5,1.8l53.9,12.8c1.4.3,2.4.6,3.2,1.4.8.8,1.1,1.7.9,3.3,0,1.4-.5,2.6-.9,3.3-.5.8-1.5,1.4-3.1,1.7L-.9,79c-2.3.5-3.5,1.1-4.3,2s-1.3,2.6-1,4.3l.7,24.4c0,2,.7,3.4,1.3,4.1.2,1.2,1.8,1.3,3.6.9"/>
  <path class="st0" d="M-.5,114.6l70.4-22.3c7.4-2.5,13.2-5.4,16.8-9.5,3.6-3.7,5.4-10,5.2-18.9l-.5-13.3c-.3-8.9-2.4-15-6.1-18.6-4.1-3.6-9.6-6.5-17.4-8.6L-3.5,5c-.6-.2-1.4,0-1.8,0-.8,0-1.6.2-2.3.6-.8.8-1.1,2.2-1,4.2l.7,24.4c0,2,.5,3.6,1.5,4.4.9.8,2.3,1.5,4.5,1.8l53.9,12.8c1.4.3,2.4.6,3.2,1.4.8.8,1.1,1.7.9,3.3,0,1.4-.5,2.6-.9,3.3-.5.8-1.5,1.4-3.1,1.7L-.7,78.8c-2.3.5-3.5,1.1-4.3,2s-1.3,2.6-1,4.3l.7,24.4c0,2,.7,3.4,1.3,4.1.2,1.2,1.8,1.3,3.6.9"/>
  <path class="st0" d="M-.3,114.5l70.4-22.3c7.4-2.5,13.2-5.4,16.8-9.5,3.6-3.7,5.4-10,5.2-18.9l-.5-13.3c-.3-8.9-2.4-15-6.1-18.6-4.1-3.6-9.6-6.5-17.4-8.6L-3.4,4.9c-.6-.2-1.4,0-1.8,0-.8,0-1.6.2-2.3.6-.8.8-1.1,2.2-1,4.2l.7,24.4c0,2,.5,3.6,1.5,4.4.9.8,2.3,1.5,4.5,1.8l53.9,12.8c1.4.3,2.4.6,3.2,1.4s1.1,1.7.9,3.3c0,1.4-.5,2.6-.9,3.3-.4.8-1.5,1.4-3.1,1.7L-.5,78.6c-2.3.5-3.5,1.1-4.3,2s-1.3,2.6-1,4.3l.7,24.4c0,2,.7,3.4,1.3,4.1.2,1.2,1.8,1.3,3.6.9"/>
  <path class="st0" d="M-.2,114.3l70.4-22.3c7.4-2.5,13.2-5.4,16.8-9.5,3.6-3.7,5.4-10,5.2-18.9l-.5-13.3c-.3-8.9-2.4-15-6.1-18.6-4.1-3.6-9.6-6.5-17.4-8.6L-3.1,4.7c-.6-.2-1.4,0-1.8,0-.8,0-1.6.2-2.3.6-.8.8-1.1,2.2-1,4.2l.7,24.4c0,2,.5,3.6,1.5,4.4.9.8,2.3,1.5,4.5,1.8l53.9,12.8c1.4.3,2.4.6,3.2,1.4.8.8,1.1,1.7.9,3.3,0,1.4-.5,2.6-.9,3.3-.4.8-1.5,1.4-3.1,1.7L-.3,78.4c-2.3.5-3.5,1.1-4.3,2s-1.3,2.6-1,4.3l.7,24.4c0,2,.7,3.4,1.3,4.1.2,1.2,1.8,1.3,3.6.9"/>
  <path class="st0" d="M0,114l70.4-22.3c7.4-2.5,13.2-5.4,16.8-9.5,3.6-3.7,5.4-10,5.2-18.9l-.5-13.3c-.3-8.9-2.4-15-6.1-18.6-4.1-3.6-9.6-6.5-17.4-8.6L-2.9,4.5c-.6-.2-1.4,0-1.8,0-.8,0-1.6.2-2.3.6-.8.8-1.1,2.2-1,4.2l.7,24.4c0,2,.5,3.6,1.5,4.4.9.8,2.3,1.5,4.5,1.8l53.9,12.8c1.4.3,2.4.6,3.2,1.4s1.1,1.7.9,3.3c0,1.4-.5,2.6-.9,3.3-.4.8-1.5,1.4-3.1,1.7L-.3,78.3c-2.3.5-3.5,1.1-4.3,2s-1.3,2.6-1,4.3l.7,24.4c0,2,.7,3.4,1.3,4.1.2,1.2,1.8,1.3,3.6.9"/>
  <path class="st0" d="M.2,113.9l70.4-22.3c7.4-2.5,13.2-5.4,16.8-9.5,3.6-3.7,5.4-10,5.2-18.9l-.5-13.3c-.3-8.9-2.4-15-6.1-18.6-4.1-3.6-9.6-6.5-17.4-8.6L-2.8,4.3c-.6-.2-1.4,0-1.8,0-.8,0-1.6.2-2.3.6-.8.8-1.1,2.2-1,4.2l.7,24.4c0,2,.5,3.6,1.5,4.4.9.8,2.3,1.5,4.5,1.8l53.9,12.8c1.4.3,2.4.6,3.2,1.4s1.1,1.7.9,3.3c0,1.4-.5,2.6-.9,3.3s-1.5,1.4-3.1,1.7L0,78.1c-2.3.5-3.5,1.1-4.3,2s-1.3,2.6-1,4.3l.7,24.4c0,2,.7,3.4,1.3,4.1.2,1.2,1.8,1.3,3.6.9"/>
  <path class="st0" d="M.4,113.7l70.4-22.3c7.4-2.5,13.2-5.4,16.8-9.5,3.6-3.7,5.4-10,5.2-18.9l-.5-13.3c-.3-8.9-2.4-15-6.1-18.6-4.1-3.6-9.6-6.5-17.4-8.6L-2.7,4.1c-.6-.2-1.4,0-1.8,0-.8,0-1.6.2-2.3.6-.8.8-1.1,2.2-1,4.2l.7,24.4c0,2,.5,3.6,1.5,4.4.9.8,2.3,1.5,4.5,1.8l53.9,12.8c1.4.3,2.4.6,3.2,1.4s1.1,1.7.9,3.3c0,1.4-.5,2.6-.9,3.3s-1.5,1.4-3.1,1.7L0,77.9c-2.3.5-3.5,1.1-4.3,2s-1.3,2.6-1,4.3l.7,24.4c0,2,.7,3.4,1.3,4.1.2,1.2,1.8,1.3,3.6.9"/>
  <path class="st0" d="M.5,113.5l70.4-22.3c7.4-2.5,13.2-5.4,16.8-9.5,3.6-3.7,5.4-10,5.2-18.9l-.5-13.3c-.3-8.9-2.4-15-6.1-18.6-4.1-3.6-9.6-6.5-17.4-8.6L-2.5,3.9c-.6-.2-1.4,0-1.8,0-.8,0-1.6.2-2.3.6-.8.8-1.1,2.2-1,4.2l.8,24.5c0,2,.5,3.6,1.5,4.4.9.8,2.3,1.5,4.5,1.8l53.9,12.8c1.4.3,2.4.6,3.2,1.4s1.1,1.7.9,3.3c0,1.4-.5,2.6-.9,3.3s-1.5,1.4-3.1,1.7L.3,77.7c-2.3.5-3.5,1.1-4.3,2s-1.3,2.6-1,4.3l.7,24.4c0,2,.7,3.4,1.3,4.1.2,1.2,1.8,1.3,3.6.9"/>
  <path class="st0" d="M.7,113.3l70.4-22.3c7.4-2.5,13.2-5.4,16.8-9.5,3.6-3.7,5.4-10,5.2-18.9l-.5-13.3c-.3-8.9-2.4-15-6.1-18.6-4.1-3.6-9.6-6.5-17.4-8.6L-2.3,3.8c-.6-.2-1.4,0-1.8,0-.8,0-1.6.2-2.3.6-.8.8-1.1,2.2-1,4.2l.8,24.5c0,2,.5,3.6,1.5,4.4.9.8,2.3,1.5,4.5,1.8l53.9,12.8c1.4.3,2.4.6,3.2,1.4s1.1,1.7.9,3.3c0,1.4-.5,2.6-.9,3.3s-1.5,1.4-3.1,1.7L.5,77.5c-2.3.5-3.5,1.1-4.3,2s-1.3,2.6-1,4.3l.7,24.4c0,2,.7,3.4,1.3,4.1.2,1.2,1.8,1.3,3.6.9"/>
  <path class="st0" d="M.8,113.1l70.4-22.3c7.4-2.5,13.2-5.4,16.8-9.5,3.6-3.7,5.4-10,5.2-18.9l-.5-13.3c-.3-8.9-2.4-15-6.1-18.6-4.1-3.6-9.6-6.5-17.4-8.6L-2.1,3.6c-.6-.2-1.4,0-1.8,0-.8,0-1.6.2-2.3.6-.8.8-1,2.2-1,4.2l.8,24.5c0,2,.5,3.6,1.5,4.4.9.8,2.3,1.5,4.5,1.8l53.9,12.8c1.4.3,2.4.6,3.2,1.4s1.1,1.7.9,3.3c0,1.4-.5,2.6-.9,3.3s-1.5,1.4-3.1,1.7L.7,77.3c-2.3.5-3.5,1.1-4.3,2s-1.3,2.6-1,4.3l.7,24.4c0,2,.7,3.4,1.3,4.1.2,1.2,1.8,1.3,3.6.9"/>
  <path class="st0" d="M1.1,113l70.4-22.3c7.4-2.5,13.2-5.4,16.8-9.5,3.6-3.7,5.4-10,5.2-18.9l-.5-13.3c-.3-8.9-2.4-15-6.1-18.6-4.1-3.6-9.6-6.5-17.4-8.6L-1.9,3.3c-.6-.2-1.4,0-1.8,0-.8,0-1.6.2-2.3.6-.8.8-1.1,2.2-1,4.2l.7,24.4c0,2,.5,3.6,1.5,4.4.9.8,2.3,1.5,4.5,1.8l53.9,12.8c1.4.3,2.4.6,3.2,1.4.8.8,1.1,1.7.9,3.3,0,1.4-.5,2.6-.9,3.3s-1.5,1.4-3.1,1.7L.8,77.2c-2.3.5-3.5,1.1-4.3,2s-1.3,2.6-1,4.3l.7,24.4c0,2,.7,3.4,1.3,4.1.2,1.2,1.8,1.3,3.6.9"/>
  <path class="st0" d="M1.2,112.8l70.4-22.3c7.4-2.5,13.2-5.4,16.8-9.5,3.6-3.7,5.4-10,5.2-18.9l-.5-13.3c-.3-8.9-2.4-15-6.1-18.6-4.1-3.6-9.6-6.5-17.4-8.6L-1.8,3.2c-.6-.2-1.4,0-1.8,0-.8,0-1.6.2-2.3.6-.8.8-1.1,2.2-1,4.2l.7,24.4c0,2,.5,3.6,1.5,4.4.9.8,2.3,1.5,4.5,1.8l53.9,12.8c1.4.3,2.4.6,3.2,1.4s1.1,1.7.9,3.3c0,1.4-.5,2.6-.9,3.3s-1.5,1.4-3.1,1.7L.8,77.1c-2.3.5-3.5,1.1-4.3,2s-1.3,2.6-1,4.3l.7,24.4c0,2,.7,3.4,1.3,4.1.2,1.2,1.8,1.3,3.6.9"/>
  <path class="st0" d="M1.4,112.6l70.4-22.3c7.4-2.5,13.2-5.4,16.8-9.5,3.6-3.7,5.4-10,5.2-18.9l-.5-13.3c-.3-8.9-2.4-15-6.1-18.6-4.1-3.6-9.6-6.5-17.4-8.6L-1.5,3c-.6-.2-1.4,0-1.8,0-.8,0-1.6.2-2.3.6-.8.8-1,2.2-1,4.2l.7,24.4c0,2,.5,3.6,1.5,4.4.9.8,2.3,1.5,4.5,1.8l53.9,12.8c1.4.3,2.4.6,3.2,1.4.8.8,1.1,1.7.9,3.3,0,1.4-.5,2.6-.9,3.3s-1.5,1.4-3.1,1.7L1.1,76.8c-2.3.5-3.5,1.1-4.3,2s-1.3,2.6-1,4.3l.7,24.4c0,2,.7,3.4,1.3,4.1.2,1.2,1.8,1.3,3.6.9"/>
  <path class="st0" d="M1.6,112.4l70.4-22.3c7.4-2.5,13.2-5.4,16.8-9.5,3.6-3.7,5.4-10,5.2-18.9l-.5-13.3c-.3-8.9-2.4-15-6.1-18.6-4.1-3.6-9.6-6.5-17.4-8.6L-1.3,2.8c-.6-.2-1.4,0-1.8,0-.8,0-1.6.2-2.3.6-.8.8-1.2,2.2-1,4.2l.7,24.4c0,2,.5,3.6,1.5,4.4.9.8,2.3,1.5,4.5,1.8l53.9,12.8c1.4.3,2.4.6,3.2,1.4s1.1,1.7.9,3.3c0,1.4-.5,2.6-.9,3.3s-1.5,1.4-3.1,1.7L1.2,76.7c-2.3.5-3.5,1.1-4.3,2s-1.3,2.6-1,4.3l.7,24.4c0,2,.7,3.4,1.3,4.1.2,1.2,1.8,1.3,3.6.9"/>
  <path class="st0" d="M1.7,112.2l70.4-22.3c7.4-2.5,13.2-5.4,16.8-9.5,3.6-3.7,5.4-10,5.2-18.9l-.5-13.3c-.3-8.9-2.4-15-6.1-18.6-4.1-3.6-9.6-6.5-17.4-8.6L-1.3,2.6c-.5,0-1.3,0-1.7,0-.8,0-1.6.2-2.3.6-.8.8-1.1,2.2-1,4.2l.7,24.4c0,2,.5,3.6,1.5,4.4.9.8,2.3,1.5,4.5,1.8l53.9,12.8c1.4.3,2.4.6,3.2,1.4.8.8,1.1,1.7.9,3.3,0,1.4-.5,2.6-.9,3.3s-1.5,1.4-3.1,1.7L1.4,76.5c-2.3.5-3.5,1.1-4.3,2s-1.3,2.6-1,4.3l.7,24.4c0,2,.7,3.4,1.3,4.1.2,1.2,1.8,1.3,3.6.9"/>
  <path class="st0" d="M1.9,112l70.4-22.3c7.4-2.5,13.2-5.4,16.8-9.5,3.6-3.7,5.4-10,5.2-18.9l-.5-13.3c-.3-8.9-2.4-15-6.1-18.6-4.1-3.6-9.6-6.5-17.4-8.6L-1.1,2.5c-.6-.2-1.4,0-1.8,0-.8,0-1.6.2-2.3.6-.8.7-1,2-1,4.1l.7,24.4c0,2,.5,3.6,1.5,4.4.9.8,2.3,1.5,4.5,1.8l53.9,12.8c1.4.3,2.4.6,3.2,1.4.8.8,1.1,1.7.9,3.3,0,1.4-.5,2.6-.9,3.3s-1.5,1.4-3.1,1.7L1.5,76.3c-2.3.5-3.5,1.1-4.3,2s-1.3,2.6-1,4.3l.7,24.4c0,2,.7,3.4,1.3,4.1.2,1.2,1.8,1.3,3.6.9"/>
  <path class="st0" d="M2.1,111.9l70.4-22.3c7.4-2.5,13.2-5.4,16.8-9.5,3.6-3.7,5.4-10,5.2-18.9l-.5-13.3c-.3-8.9-2.4-15-6.1-18.6-4.1-3.6-9.6-6.5-17.4-8.6L-.9,2.3c-.6-.2-1.4,0-1.8,0-.8,0-1.6.2-2.3.6-.8.8-1,2.2-1,4.2l.7,24.4c0,2,.5,3.6,1.5,4.4.9.8,2.3,1.5,4.5,1.8l53.9,12.8c1.4.3,2.4.6,3.2,1.4s1.1,1.7.9,3.3c0,1.4-.5,2.6-.9,3.3s-1.5,1.4-3.1,1.7L1.7,76.1c-2.3.5-3.5,1.1-4.3,2s-1.3,2.6-1,4.3l.7,24.4c0,2,.7,3.4,1.3,4.1.2,1.2,1.8,1.3,3.6.9"/>
  <path class="st0" d="M2.2,111.7l70.4-22.3c7.4-2.5,13.2-5.4,16.8-9.5,3.6-3.7,5.4-10,5.2-18.9l-.5-13.3c-.3-8.9-2.4-15-6.1-18.6-4.1-3.6-9.6-6.5-17.4-8.6L-.7,2.1c-.6-.2-1.4,0-1.8,0-.8,0-1.6.2-2.3.6-.8.8-1.1,2.2-1,4.2l.7,24.4c0,2,.5,3.6,1.5,4.4.9.8,2.3,1.5,4.5,1.8l53.9,12.8c1.4.3,2.4.6,3.2,1.4s1.1,1.7.9,3.3c0,1.4-.5,2.6-.9,3.3s-1.5,1.4-3.1,1.7L1.9,75.9c-2.3.5-3.5,1.1-4.3,2s-1.3,2.6-1,4.3l.7,24.4c0,2,.7,3.4,1.3,4.1.2,1.2,1.8,1.3,3.6.9"/>
  <path class="st0" d="M2.4,111.5l70.4-22.3c7.4-2.5,13.2-5.4,16.8-9.5,3.6-3.7,5.4-10,5.2-18.9l-.5-13.3c-.3-8.9-2.4-15-6.1-18.6-4.1-3.6-9.6-6.5-17.4-8.6L-.5,1.9c-.6-.2-1.4,0-1.8,0-.8,0-1.6.2-2.3.6-.8.8-1.1,2.2-1,4.2l.7,24.4c0,2,.5,3.6,1.5,4.4.9.8,2.3,1.5,4.5,1.8l53.9,12.8c1.4.3,2.4.6,3.2,1.4s1.1,1.7.9,3.3c0,1.4-.5,2.6-.9,3.3s-1.5,1.4-3.1,1.7L2.1,75.8c-2.3.5-3.5,1.1-4.3,2s-1.3,2.6-1,4.3l.7,24.4c0,2,.7,3.4,1.3,4.1.2,1.2,1.8,1.3,3.6.9"/>
  <path class="st0" d="M2.6,111.3l70.4-22.3c7.4-2.5,13.2-5.4,16.8-9.5,3.6-3.7,5.4-10,5.2-18.9l-.5-13.3c-.3-8.9-2.4-15-6.1-18.6-4.1-3.6-9.6-6.5-17.4-8.6L-.3,1.7c-.6-.2-1.4,0-1.8,0-.8,0-1.6.2-2.3.6-.8.8-1.1,2.2-1,4.2l.7,24.4c0,2,.5,3.6,1.5,4.4.9.8,2.3,1.5,4.5,1.8l53.9,12.8c1.4.3,2.4.6,3.2,1.4s1.1,1.7.9,3.3c0,1.4-.5,2.6-.9,3.3s-1.5,1.4-3.1,1.7L2.2,75.6c-2.3.5-3.5,1.1-4.3,2s-1.3,2.6-1,4.3l.7,24.4c0,2,.7,3.4,1.3,4.1.2,1.2,1.8,1.3,3.6.9"/>
  <path class="st0" d="M2.8,111.1l70.4-22.3c7.4-2.5,13.2-5.4,16.8-9.5,3.6-3.7,5.4-10,5.2-18.9l-.5-13.3c-.3-8.9-2.4-15-6.1-18.6-4.1-3.6-9.6-6.5-17.4-8.6L-.2,1.5c-.6-.2-1.4,0-1.8,0-.8,0-1.6.2-2.3.6-.8.8-1.1,2.2-1,4.2l.7,24.4c0,2,.5,3.6,1.5,4.4.9.8,2.3,1.5,4.5,1.8l53.9,12.8c1.4.3,2.4.6,3.2,1.4s1.1,1.7.9,3.3c0,1.4-.5,2.6-.9,3.3s-1.5,1.4-3.1,1.7L2.4,75.4c-2.3.5-3.5,1.1-4.3,2s-1.3,2.6-1,4.3l.7,24.4c0,2,.7,3.4,1.3,4.1.2,1.2,1.8,1.3,3.6.9"/>
  <path class="st0" d="M2.9,111l70.4-22.3c7.4-2.5,13.2-5.4,16.8-9.5,3.6-3.7,5.4-10,5.2-18.9l-.5-13.3c-.3-8.9-2.4-15-6.1-18.6-4.1-3.6-9.6-6.5-17.4-8.6L0,1.3c-.6-.2-1.4,0-1.8,0-.8,0-1.6.2-2.3.6-.8.8-1,2.2-.9,4.2l.7,24.4c0,2,.5,3.6,1.5,4.4.9.8,2.3,1.5,4.5,1.8l53.9,12.8c1.4.3,2.4.6,3.2,1.4s1.1,1.7.9,3.3c0,1.4-.5,2.6-.9,3.3s-1.5,1.4-3.1,1.7L2.6,75.2c-2.3.5-3.5,1.1-4.3,2s-1.3,2.6-1,4.3l.7,24.4c0,2,.7,3.4,1.3,4.1.2,1.2,1.8,1.3,3.6.9"/>
  <path class="st0" d="M3.1,110.7l70.4-22.3c7.4-2.5,13.2-5.4,16.8-9.5,3.6-3.7,5.4-10,5.2-18.9l-.5-13.3c-.3-8.9-2.4-15-6.1-18.6-4.1-3.6-9.6-6.5-17.4-8.6L0,1.2c-.6-.2-1.4,0-1.8,0-.8,0-1.6.2-2.3.6-.8.8-1,2.2-.9,4.2l.7,24.4c0,2,.5,3.6,1.5,4.4.9.8,2.3,1.5,4.5,1.8l53.9,12.8c1.4.3,2.4.6,3.2,1.4s1.1,1.7.9,3.3c0,1.4-.5,2.6-.9,3.3s-1.5,1.4-3.1,1.7L2.8,75c-2.3.5-3.5,1.1-4.3,2s-1.3,2.6-1,4.3l.7,24.4c0,2,.7,3.4,1.3,4.1.2,1.2,1.8,1.3,3.6.9"/>
  <path class="st0" d="M3.2,110.5l70.4-22.3c7.4-2.5,13.2-5.4,16.8-9.5,3.6-3.7,5.4-10,5.2-18.9l-.5-13.3c-.3-8.9-2.4-15-6.1-18.6-4.1-3.6-9.6-6.5-17.4-8.6L.3,1c-.6-.2-1.4,0-1.8,0-.8,0-1.6.2-2.3.6-.8.8-1.1,2.2-1,4.2l.7,24.4c0,2,.5,3.6,1.5,4.4.9.8,2.3,1.5,4.5,1.8l53.9,12.8c1.4.3,2.4.6,3.2,1.4s1.1,1.7.9,3.3c0,1.4-.5,2.6-.9,3.3s-1.5,1.4-3.1,1.7L2.9,74.8c-2.3.5-3.5,1.1-4.3,2s-1.3,2.6-1,4.3l.7,24.4c0,2,.7,3.4,1.3,4.1.2,1.2,1.8,1.3,3.6.9"/>
  <path class="st0" d="M3.4,110.4l70.4-22.3c7.4-2.5,13.2-5.4,16.8-9.5,3.6-3.7,5.4-10,5.2-18.9l-.5-13.3c-.3-8.9-2.4-15-6.1-18.6-4.1-3.6-9.6-6.5-17.4-8.6L.5.8c-.6-.2-1.4,0-1.8,0-.8,0-1.6.2-2.3.6-.8.8-1.1,2.2-1,4.2l.7,24.4c0,2,.5,3.6,1.5,4.4.9.8,2.3,1.5,4.5,1.8l53.9,12.8c1.4.3,2.4.6,3.2,1.4s1.1,1.7.9,3.3c0,1.4-.5,2.6-.9,3.3s-1.5,1.4-3.1,1.7L3.1,74.7c-2.3.5-3.5,1.1-4.3,2s-1.3,2.6-1,4.3l.7,24.4c0,2,.7,3.4,1.3,4.1.2,1.2,1.8,1.3,3.6.9"/>
  <path class="st0" d="M3.7,110.2l70.4-22.3c7.4-2.5,13.2-5.4,16.8-9.5,3.6-3.7,5.4-10,5.2-18.9l-.5-13.3c-.3-8.9-2.4-15-6.1-18.6-4.1-3.6-9.6-6.5-17.4-8.6L.7.6c-.6-.2-1.4,0-1.8,0-.8,0-1.6.2-2.3.6-.8.8-1.1,2.2-1,4.2l.7,24.4c0,2,.5,3.6,1.5,4.4.9.8,2.3,1.5,4.5,1.8l53.9,12.8c1.4.3,2.4.6,3.2,1.4s1.1,1.7.9,3.3c0,1.4-.5,2.6-.9,3.3s-1.5,1.4-3.1,1.7L3.2,74.4c-2.3.5-3.5,1.1-4.3,2s-1.3,2.6-1,4.3l.7,24.4c0,2,.7,3.4,1.3,4.1.2,1.2,1.8,1.3,3.6.9"/>
  <path class="st0" d="M3.7,110l70.4-22.3c7.4-2.5,13.2-5.4,16.8-9.5,3.6-3.7,5.4-10,5.2-18.9l-.5-13.3c-.3-8.9-2.4-15-6.1-18.6-4.1-3.6-9.6-6.5-17.4-8.6L.8.4c-.6-.2-1.4,0-1.8,0-.8,0-1.6.2-2.3.6-.8.8-1.1,2.2-1,4.2l.7,24.4c0,2,.5,3.6,1.5,4.4.9.8,2.3,1.5,4.5,1.8l53.9,12.8c1.4.3,2.4.6,3.2,1.4s1.1,1.7.9,3.3c0,1.4-.5,2.6-.9,3.3s-1.5,1.4-3.1,1.7L3.4,74.3c-2.3.5-3.5,1.1-4.3,2s-1.3,2.6-1,4.3l.7,24.4c0,2,.7,3.4,1.3,4.1.2,1.2,1.8,1.3,3.6.9"/>
  <path class="st0" d="M4,109.8l70.4-22.3c7.4-2.5,13.2-5.4,16.8-9.5,3.6-3.7,5.4-10,5.2-18.9l-.5-13.3c-.3-8.9-2.4-15-6.1-18.6-4.1-3.6-9.6-6.5-17.4-8.6L1.1.3C.5,0-.3.2-.7.2c-.8,0-1.6.2-2.3.6-.8.8-1.1,2.2-1,4.2l.7,24.4c0,2,.5,3.6,1.5,4.4.9.8,2.3,1.5,4.5,1.8l53.9,12.8c1.4.3,2.4.6,3.2,1.4s1.1,1.7.9,3.3c0,1.4-.5,2.6-.9,3.3s-1.5,1.4-3.1,1.7L3.7,74.1c-2.3.5-3.5,1.1-4.3,2s-1.3,2.6-1,4.3l.7,24.4c0,2,.7,3.4,1.3,4.1.2,1.2,1.8,1.3,3.6.9"/>
  <path class="st0" d="M4.2,109.6l70.4-22.3c7.4-2.5,13.2-5.4,16.8-9.5,3.6-3.7,5.4-10,5.2-18.9l-.5-13.3c-.3-8.9-2.4-15-6.1-18.6-4.1-3.6-9.6-6.5-17.4-8.6L1.2.2C.6,0-.3,0-.6,0c-.8,0-1.6.2-2.3.6-.8.8-1.1,2.2-1,4.2l.7,24.4c0,2,.5,3.6,1.5,4.4.9.8,2.3,1.5,4.5,1.8l53.9,12.8c1.4.3,2.4.6,3.2,1.4s1.1,1.7.9,3.3c0,1.4-.5,2.6-.9,3.3s-1.5,1.4-3.1,1.7L3.7,74c-2.3.5-3.5,1.1-4.3,2s-1.3,2.6-1,4.3l.7,24.4c0,2,.7,3.4,1.3,4.1.2,1.2,1.8,1.3,3.6.9"/>
  <path class="st2" d="M4.2,109.6l70.4-22.3c7.4-2.5,13.2-5.4,16.8-9.5,3.6-3.7,5.4-10,5.2-18.9l-.5-13.3c-.3-8.9-2.4-15-6.1-18.6-4.1-3.6-9.6-6.5-17.4-8.6L1.2.2C.6,0-.3,0-.6,0c-.8,0-1.6.2-2.3.6-.8.8-1.1,2.2-1,4.2l.7,24.4c0,2,.5,3.6,1.5,4.4.9.8,2.3,1.5,4.5,1.8l53.9,12.8c1.4.3,2.4.6,3.2,1.4s1.1,1.7.9,3.3c0,1.4-.5,2.6-.9,3.3s-1.5,1.4-3.1,1.7L3.7,74c-2.3.5-3.5,1.1-4.3,2s-1.3,2.6-1,4.3l.7,24.4c0,2,.7,3.4,1.3,4.1.2,1.2,1.8,1.3,3.6.9"/>
  <path class="st1" d="M4.2,109.6l70.4-22.3c7.4-2.5,13.2-5.4,16.8-9.5,3.6-3.7,5.4-10,5.2-18.9l-.5-13.3c-.3-8.9-2.4-15-6.1-18.6-4.1-3.6-9.6-6.5-17.4-8.6L1.2.2C.6,0-.3,0-.6,0c-.8,0-1.6.2-2.3.6-.8.8-1.1,2.2-1,4.2l.7,24.4c0,2,.5,3.6,1.5,4.4.9.8,2.3,1.5,4.5,1.8l53.9,12.8c1.4.3,2.4.6,3.2,1.4s1.1,1.7.9,3.3c0,1.4-.5,2.6-.9,3.3s-1.5,1.4-3.1,1.7L3.7,74c-2.3.5-3.5,1.1-4.3,2s-1.3,2.6-1,4.3l.7,24.4c0,2,.7,3.4,1.3,4.1.2,1.2,1.8,1.3,3.6.9l.3-.2h0Z"/>
</svg>