<?xml version="1.0" encoding="UTF-8"?>
<svg width="44px" height="118px" viewBox="0 0 44 118" version="1.1" xmlns="http://www.w3.org/2000/svg" xmlns:xlink="http://www.w3.org/1999/xlink">
    <title>Fill 1</title>
    <g id="NSI---Mobile" stroke="none" stroke-width="1" fill="none" fill-rule="evenodd">
        <g id="NSI---Mobile---Participer" transform="translate(-246.000000, -508.000000)" fill="#FFFFFF">
            <path d="M289.89,511.884767 C290.01,510.472124 289.77,509.530363 289.17,508.941762 C288.45,508.353161 287.37,508 285.93,508 L266.25,508 C264.81,508 263.85,508.353161 263.37,508.941762 C262.77,509.530363 262.41,510.589845 262.29,512.002487 L246.09,621.953161 C245.85,623.365803 246.09,624.307565 246.81,624.896166 C247.41,625.484767 248.61,625.837927 250.05,625.837927 L269.61,625.837927 C271.05,625.837927 272.13,625.484767 272.61,625.013886 C273.09,624.307565 273.45,623.248083 273.69,621.83544 L289.89,511.884767 Z" id="Fill-1"></path>
        </g>
    </g>
</svg>