<?xml version="1.0" encoding="UTF-8"?>
<svg width="112px" height="129px" viewBox="0 0 112 129" version="1.1" xmlns="http://www.w3.org/2000/svg" xmlns:xlink="http://www.w3.org/1999/xlink">
    <title>Deco 2</title>
    <g id="NSI---Desktop" stroke="none" stroke-width="1" fill="none" fill-rule="evenodd">
        <g id="NSI---Home" transform="translate(0.000000, -1280.000000)" fill="#FFFFFF">
            <path d="M2.42942776,1314.49299 C-2.03394236,1318.95636 -4.36265721,1326.33062 -4.36265721,1336.61578 L-4.36265721,1352.33461 C-4.36265721,1362.81382 -2.03394236,1370.18809 2.42942776,1374.4574 C6.89279789,1378.92077 13.6848829,1382.41384 22.4175636,1384.93661 L105.669119,1408.80594 C107.997834,1409.19406 109.550311,1409 110.520609,1408.22376 C111.296847,1407.44752 111.879026,1405.70099 111.879026,1403.37227 L111.879026,1374.4574 C111.879026,1372.12868 111.296847,1370.38215 110.326549,1369.21779 C109.356251,1368.05343 107.609715,1367.27719 105.281,1366.88907 L105.086941,1366.88907 L42.2116398,1350.00589 C40.4651036,1349.81183 39.3007462,1349.22965 38.5245079,1348.25935 C37.7482697,1347.48312 37.3601505,1346.1247 37.3601505,1344.57222 C37.3601505,1342.82569 37.7482697,1341.66133 38.5245079,1340.69103 C39.3007462,1339.91479 40.4651036,1339.33261 42.4056994,1338.94449 L105.281,1322.06131 C107.609715,1321.67319 109.356251,1320.89695 110.326549,1319.7326 C111.296847,1318.7623 111.879026,1317.01576 111.879026,1314.49299 L111.879026,1285.57811 C111.879026,1283.2494 111.296847,1281.69692 110.520609,1280.72662 C109.550311,1279.95039 107.997834,1279.75633 105.669119,1280.3385 L22.4175636,1304.01377 C13.6848829,1306.73061 6.89279789,1310.22368 2.42942776,1314.49299" id="Deco-2" transform="translate(53.758184, 1344.500000) scale(-1, 1) translate(-53.758184, -1344.500000) "></path>
        </g>
    </g>
</svg>