<?xml version="1.0" encoding="UTF-8"?>
<svg width="18px" height="14px" viewBox="0 0 18 14" version="1.1" xmlns="http://www.w3.org/2000/svg" xmlns:xlink="http://www.w3.org/1999/xlink">
    <title></title>
    <g id="NSI---Mobile" stroke="none" stroke-width="1" fill="none" fill-rule="evenodd">
        <g id="NSI---Mobile---Home" transform="translate(-21.000000, -20.000000)" fill="#FFFFFF" fill-rule="nonzero">
            <path d="M37.875,28.5 C37.9791667,28.5 38.0625,28.4583333 38.125,28.375 L38.125,28.375 L38.90625,27.40625 C38.96875,27.3229167 38.9947917,27.2291667 38.984375,27.125 C38.9739583,27.0208333 38.9375,26.9375 38.875,26.875 L38.875,26.875 L36.25,24.71875 L36.25,20.375 C36.25,20.2708333 36.2135417,20.1822917 36.140625,20.109375 C36.0677083,20.0364583 35.9791667,20 35.875,20 L35.875,20 L34.125,20 C34.0208333,20 33.9322917,20.0364583 33.859375,20.109375 C33.7864583,20.1822917 33.75,20.2708333 33.75,20.375 L33.75,20.375 L33.75,22.65625 L30.96875,20.34375 C30.6770833,20.1145833 30.3541667,20 30,20 C29.6458333,20 29.3333333,20.1145833 29.0625,20.34375 L29.0625,20.34375 L21.125,26.875 C21.0625,26.9375 21.0260417,27.0208333 21.015625,27.125 C21.0052083,27.2291667 21.03125,27.3229167 21.09375,27.40625 L21.09375,27.40625 L21.875,28.375 C21.9375,28.4583333 22.0208333,28.5 22.125,28.5 C22.2291667,28.5 22.3229167,28.46875 22.40625,28.40625 L22.40625,28.40625 L29.75,22.375 C29.8333333,22.3125 29.9166667,22.28125 30,22.28125 C30.0833333,22.28125 30.1666667,22.3125 30.25,22.375 L30.25,22.375 L37.59375,28.40625 C37.6770833,28.46875 37.7708333,28.5 37.875,28.5 Z M28.125,34 C28.2291667,34 28.3177083,33.9635417 28.390625,33.890625 C28.4635417,33.8177083 28.5,33.7291667 28.5,33.625 L28.5,33.625 L28.5,30.125 C28.5,30.0208333 28.5364583,29.9322917 28.609375,29.859375 C28.6822917,29.7864583 28.7708333,29.75 28.875,29.75 L28.875,29.75 L31.125,29.75 C31.2291667,29.75 31.3177083,29.7864583 31.390625,29.859375 C31.4635417,29.9322917 31.5,30.0208333 31.5,30.125 L31.5,30.125 L31.5,33.625 C31.5,33.7291667 31.5364583,33.8177083 31.609375,33.890625 C31.6822917,33.9635417 31.7708333,34 31.875,34 L31.875,34 L35.5,34 C35.7083333,34 35.8854167,33.9270833 36.03125,33.78125 C36.1770833,33.6354167 36.25,33.4583333 36.25,33.25 L36.25,33.25 L36.25,28.78125 C36.25,28.65625 36.2083333,28.5520833 36.125,28.46875 L36.125,28.46875 L30.25,23.65625 C30.1666667,23.59375 30.0833333,23.5625 30,23.5625 C29.9166667,23.5625 29.8333333,23.59375 29.75,23.65625 L29.75,23.65625 L23.875,28.46875 C23.7916667,28.5520833 23.75,28.65625 23.75,28.78125 L23.75,28.78125 L23.75,33.25 C23.75,33.4583333 23.8229167,33.6354167 23.96875,33.78125 C24.1145833,33.9270833 24.2916667,34 24.5,34 L24.5,34 L28.125,34 Z" id=""></path>
        </g>
    </g>
</svg>