<?xml version="1.0" encoding="UTF-8"?>
<svg width="12px" height="16px" viewBox="0 0 12 16" version="1.1" xmlns="http://www.w3.org/2000/svg" xmlns:xlink="http://www.w3.org/1999/xlink">
    <title>icon-doc</title>
    <g id="Symbols" stroke="none" stroke-width="1" fill="none" fill-rule="evenodd">
        <g id="Blocs-/-Lauréat-régional" transform="translate(-730.000000, -4.000000)" fill="#003947" fill-rule="nonzero">
            <g id="icon-doc" transform="translate(730.000000, 4.000000)">
                <path d="M7,4.25 L7,0 L0.75,0 C0.541666667,0 0.364583333,0.0729166667 0.21875,0.21875 C0.0729166667,0.364583333 0,0.541666667 0,0.75 L0,15.25 C0,15.4583333 0.0729166667,15.6354167 0.21875,15.78125 C0.364583333,15.9270833 0.541666667,16 0.75,16 L11.25,16 C11.4583333,16 11.6354167,15.9270833 11.78125,15.78125 C11.9270833,15.6354167 12,15.4583333 12,15.25 L12,5 L7.75,5 C7.54166667,5 7.36458333,4.92708333 7.21875,4.78125 C7.07291667,4.63541667 7,4.45833333 7,4.25 Z M9,11.625 C9,11.7291667 8.96354167,11.8177083 8.890625,11.890625 C8.81770833,11.9635417 8.72916667,12 8.625,12 L3.375,12 C3.27083333,12 3.18229167,11.9635417 3.109375,11.890625 C3.03645833,11.8177083 3,11.7291667 3,11.625 L3,11.375 C3,11.2708333 3.03645833,11.1822917 3.109375,11.109375 C3.18229167,11.0364583 3.27083333,11 3.375,11 L8.625,11 C8.72916667,11 8.81770833,11.0364583 8.890625,11.109375 C8.96354167,11.1822917 9,11.2708333 9,11.375 L9,11.625 Z M9,9.625 C9,9.72916667 8.96354167,9.81770833 8.890625,9.890625 C8.81770833,9.96354167 8.72916667,10 8.625,10 L3.375,10 C3.27083333,10 3.18229167,9.96354167 3.109375,9.890625 C3.03645833,9.81770833 3,9.72916667 3,9.625 L3,9.375 C3,9.27083333 3.03645833,9.18229167 3.109375,9.109375 C3.18229167,9.03645833 3.27083333,9 3.375,9 L8.625,9 C8.72916667,9 8.81770833,9.03645833 8.890625,9.109375 C8.96354167,9.18229167 9,9.27083333 9,9.375 L9,9.625 Z M9,7.375 L9,7.625 C9,7.72916667 8.96354167,7.81770833 8.890625,7.890625 C8.81770833,7.96354167 8.72916667,8 8.625,8 L3.375,8 C3.27083333,8 3.18229167,7.96354167 3.109375,7.890625 C3.03645833,7.81770833 3,7.72916667 3,7.625 L3,7.375 C3,7.27083333 3.03645833,7.18229167 3.109375,7.109375 C3.18229167,7.03645833 3.27083333,7 3.375,7 L8.625,7 C8.72916667,7 8.81770833,7.03645833 8.890625,7.109375 C8.96354167,7.18229167 9,7.27083333 9,7.375 Z M12,3.8125 L12,4 L8,4 L8,0 L8.1875,0 C8.39583333,0 8.57291667,0.0729166667 8.71875,0.21875 L11.78125,3.28125 C11.9270833,3.42708333 12,3.60416667 12,3.8125 Z" id="Shape"></path>
            </g>
        </g>
    </g>
</svg>