<?xml version="1.0" encoding="UTF-8"?>
<svg width="265px" height="168px" viewBox="0 0 265 168" version="1.1" xmlns="http://www.w3.org/2000/svg" xmlns:xlink="http://www.w3.org/1999/xlink">
    <title>Logo</title>
    <g id="Page-1" stroke="none" stroke-width="1" fill="none" fill-rule="evenodd">
        <g id="Logo" fill="#FFFFFF" fill-rule="nonzero">
            <path d="M3.62270451,34.9148635 C1.24207012,37.233035 0,41.0630576 0,46.4049312 L0,54.5689268 C0,60.0115905 1.24207012,63.8416131 3.62270451,66.0589946 C6.0033389,68.3771661 9.62604341,70.1913874 14.2838063,71.5016582 L58.687813,83.8988366 C59.9298831,84.1012567 60.7579299,84.000083 61.2754591,83.5964664 C61.6894825,83.1933062 62,82.2861955 62,81.0767147 L62,66.0589946 C62,64.8495137 61.6894825,63.9424031 61.1719533,63.3376627 C60.654424,62.7329223 59.7228715,62.329762 58.4808013,62.1281819 L58.3772955,62.1281819 L24.8414023,53.359446 C23.9098497,53.2586559 23.2888147,52.9562857 22.8747913,52.4523353 C22.4607679,52.0491751 22.2537563,51.3436446 22.2537563,50.537324 C22.2537563,49.6302134 22.4607679,49.025473 22.8747913,48.5215227 C23.2888147,48.1183624 23.9098497,47.8159922 24.9449082,47.6144121 L58.4808013,38.8456761 C59.7228715,38.644096 60.654424,38.2409357 61.1719533,37.6361953 C61.6894825,37.132245 62,36.2251344 62,34.9148635 L62,19.8971433 C62,18.6876625 61.6894825,17.8813419 61.2754591,17.3773916 C60.7579299,16.9742313 59.9298831,16.8734413 58.687813,17.1758115 L14.2838063,29.4721998 C9.62604341,30.8832607 6.0033389,32.697482 3.62270451,34.9148635" id="Fill-1"></path>
            <path d="M111.974044,3.36263736 C112.077869,2.13986014 111.870219,1.32467532 111.351093,0.815184815 C110.728142,0.305694306 109.793716,0 108.547814,0 L91.5204918,0 C90.2745902,0 89.4439891,0.305694306 89.0286885,0.815184815 C88.5095628,1.32467532 88.1980874,2.24175824 88.0942623,3.46453546 L74.0778689,98.6373626 C73.8702186,99.8601399 74.0778689,100.675325 74.7008197,101.184815 C75.2199454,101.694306 76.2581967,102 77.5040984,102 L94.4275956,102 C95.6734973,102 96.6079235,101.694306 97.023224,101.285864 C97.4385246,100.675325 97.75,99.7582418 97.9576503,98.5354645 L111.974044,3.36263736 Z" id="Fill-3"></path>
            <path d="M126.312187,83.8992481 L170.716194,71.5067669 C175.373957,70.1969925 178.996661,68.3834586 181.377295,66.0661654 C183.758792,63.8496241 185,60.0210526 185,54.5804511 L185,46.4195489 C185,41.0796992 183.758792,37.2511278 181.377295,34.9338346 C178.996661,32.7172932 175.373957,30.9037594 170.716194,29.4932331 L126.208681,17.1007519 C125.794658,17.1007519 125.48414,17 125.070117,17 C124.552588,17 124.035058,17.2015038 123.724541,17.4030075 C123.207012,17.9067669 123,18.712782 123,19.9218045 L123,34.9338346 C123,36.243609 123.310518,37.1503759 123.828047,37.6541353 C124.345576,38.2586466 125.277129,38.6616541 126.519199,38.8631579 L126.622705,38.8631579 L160.158598,47.6285714 C161.09015,47.8300752 161.711185,48.1323308 162.126071,48.5353383 C162.539232,49.0390977 162.642738,49.643609 162.642738,50.5503759 C162.642738,51.356391 162.539232,52.0616541 162.126071,52.4646617 C161.711185,52.9684211 161.09015,53.2706767 160.055092,53.3714286 L126.519199,62.1368421 C125.277129,62.3383459 124.345576,62.7413534 123.828047,63.3458647 C123.310518,63.9503759 123,64.8571429 123,66.0661654 L123,81.0781955 C123,82.287218 123.207012,83.193985 123.724541,83.5969925 C124.24207,84 125.070117,84.1007519 126.312187,83.8992481" id="Fill-5"></path>
            <polygon id="Fill-7" points="202.349206 167 189.447619 123.343214 189.244444 123.343214 189.244444 167 180 167 180 101 190.971429 101 202.552381 140.332293 202.754709 140.332293 202.754709 101 212 101 212 167"></polygon>
            <path d="M249.584748,115.92269 L249.584748,117.749958 L239.805951,118.663592 L239.805951,116.633294 C239.805951,112.167484 238.141475,110.136341 234.604463,110.136341 C231.690763,110.136341 229.611035,111.760579 229.611035,115.415115 L229.611035,116.836324 C229.611035,120.49086 231.483571,123.434792 238.037445,129.322656 C246.984004,137.342332 250,142.722622 250,150.23557 L250,153.381686 C250,162.924932 243.862245,168.000677 234.604463,168.000677 C225.241785,168.000677 219,162.619541 219,153.077141 L219,148.813516 L228.674767,147.899882 L228.674767,152.366537 C228.674767,156.731677 230.754495,158.86349 234.395537,158.86349 C237.517296,158.86349 239.909981,157.239252 239.909981,152.569567 L239.909981,150.539269 C239.909981,146.478673 238.037445,143.535587 231.483571,137.646877 C222.537012,129.525685 219.519282,124.246911 219.519282,117.243229 L219.519282,115.618991 C219.519282,106.075745 225.137756,101 234.500433,101 C243.862245,101 249.584748,106.380289 249.584748,115.92269" id="Fill-9"></path>
            <polygon id="Fill-12" points="255 168 265 168 265 102 255 102"></polygon>
            <path d="M136.206,131 L136.206,126.8 L128.772,126.8 L128.772,101.6 L124.32,101.6 L124.32,131 L136.206,131 Z M151.578,131 L151.578,126.884 L143.514,126.884 L143.514,118.148 L150.024,118.148 L150.024,114.032 L143.514,114.032 L143.514,105.716 L151.578,105.716 L151.578,101.6 L139.062,101.6 L139.062,131 L151.578,131 Z M160.818,131.42 C165.228,131.42 167.706,129.026 167.706,124.826 L167.706,123.356 C167.706,119.828 166.194,117.392 162.12,113.948 C159.138,111.428 158.382,109.958 158.382,108.236 L158.382,107.858 C158.382,106.178 159.18,105.296 160.65,105.296 C162.12,105.296 162.918,106.178 162.918,107.858 L162.918,108.95 L167.202,108.53 L167.202,107.774 C167.202,103.574 164.808,101.18 160.566,101.18 C156.324,101.18 153.93,103.574 153.93,107.774 L153.93,108.404 C153.93,111.848 155.316,114.284 159.39,117.728 C162.372,120.248 163.254,121.718 163.254,123.566 L163.254,124.532 C163.254,126.38 162.414,127.304 160.734,127.304 C159.054,127.304 158.214,126.38 158.214,124.532 L158.214,122.432 L153.93,122.852 L153.93,124.826 C153.93,129.026 156.408,131.42 160.818,131.42 Z M42.882,166 L42.882,140.8 L47.628,140.8 L47.628,136.6 L33.684,136.6 L33.684,140.8 L38.43,140.8 L38.43,166 L42.882,166 Z M54.936,166 L54.936,153.568 L56.994,153.568 L60.522,166 L65.226,166 L61.152,152.602 C63.21,151.426 64.302,149.242 64.302,146.134 L64.302,144.034 C64.302,139.204 61.698,136.6 56.91,136.6 L50.484,136.6 L50.484,166 L54.936,166 Z M56.742,149.452 L54.936,149.452 L54.936,140.716 L56.742,140.716 C58.884,140.716 59.85,141.85 59.85,144.328 L59.85,145.84 C59.85,148.318 58.884,149.452 56.742,149.452 Z M75.18,166.42 C79.632,166.42 82.362,163.606 82.362,158.986 L82.362,143.614 C82.362,138.994 79.632,136.18 75.18,136.18 C70.728,136.18 67.998,138.994 67.998,143.614 L67.998,158.986 C67.998,163.606 70.728,166.42 75.18,166.42 Z M75.18,162.304 C73.416,162.304 72.45,161.128 72.45,158.944 L72.45,143.656 C72.45,141.472 73.416,140.296 75.18,140.296 C76.944,140.296 77.91,141.472 77.91,143.656 L77.91,158.944 C77.91,161.128 76.944,162.304 75.18,162.304 Z M91.14,166 L91.14,153.82 L93.114,153.82 C97.902,153.82 100.506,151.216 100.506,146.386 L100.506,144.034 C100.506,139.204 97.902,136.6 93.114,136.6 L86.688,136.6 L86.688,166 L91.14,166 Z M92.946,149.704 L91.14,149.704 L91.14,140.716 L92.946,140.716 C95.088,140.716 96.054,141.85 96.054,144.328 L96.054,146.092 C96.054,148.57 95.088,149.704 92.946,149.704 Z M108.234,166 L108.234,153.19 L113.526,153.19 L113.526,166 L117.978,166 L117.978,136.6 L113.526,136.6 L113.526,148.99 L108.234,148.99 L108.234,136.6 L103.782,136.6 L103.782,166 L108.234,166 Z M130.116,134.92 L133.77,130.3 L129.276,130.3 L126.84,134.92 L130.116,134.92 Z M135.282,166 L135.282,161.884 L127.218,161.884 L127.218,153.148 L133.728,153.148 L133.728,149.032 L127.218,149.032 L127.218,140.716 L135.282,140.716 L135.282,136.6 L122.766,136.6 L122.766,166 L135.282,166 Z M151.578,166 L151.578,161.884 L143.514,161.884 L143.514,153.148 L150.024,153.148 L150.024,149.032 L143.514,149.032 L143.514,140.716 L151.578,140.716 L151.578,136.6 L139.062,136.6 L139.062,166 L151.578,166 Z M160.818,166.42 C165.228,166.42 167.706,164.026 167.706,159.826 L167.706,158.356 C167.706,154.828 166.194,152.392 162.12,148.948 C159.138,146.428 158.382,144.958 158.382,143.236 L158.382,142.858 C158.382,141.178 159.18,140.296 160.65,140.296 C162.12,140.296 162.918,141.178 162.918,142.858 L162.918,143.95 L167.202,143.53 L167.202,142.774 C167.202,138.574 164.808,136.18 160.566,136.18 C156.324,136.18 153.93,138.574 153.93,142.774 L153.93,143.404 C153.93,146.848 155.316,149.284 159.39,152.728 C162.372,155.248 163.254,156.718 163.254,158.566 L163.254,159.532 C163.254,161.38 162.414,162.304 160.734,162.304 C159.054,162.304 158.214,161.38 158.214,159.532 L158.214,157.432 L153.93,157.852 L153.93,159.826 C153.93,164.026 156.408,166.42 160.818,166.42 Z" id="Lestrophées"></path>
        </g>
    </g>
</svg>