<?xml version="1.0" encoding="UTF-8"?>
<svg width="265px" height="168px" viewBox="0 0 265 168" version="1.1" xmlns="http://www.w3.org/2000/svg" xmlns:xlink="http://www.w3.org/1999/xlink">
    <title>Logo</title>
    <defs>
        <polygon id="path-1" points="0 0 31 0 31 67 0 67"></polygon>
        <polygon id="path-3" points="0 168 265 168 265 0 0 0"></polygon>
    </defs>
    <g id="NSI---Home" stroke="none" stroke-width="1" fill="none" fill-rule="evenodd">
        <g id="NSI---Home-photo" transform="translate(-138.000000, -300.000000)">
            <g id="Logo" transform="translate(138.000000, 300.000000)">
                <path d="M3.62270451,34.9148635 C1.24207012,37.233035 0,41.0630576 0,46.4049312 L0,54.5689268 C0,60.0115905 1.24207012,63.8416131 3.62270451,66.0589946 C6.0033389,68.3771661 9.62604341,70.1913874 14.2838063,71.5016582 L58.687813,83.8988366 C59.9298831,84.1012567 60.7579299,84 61.2754591,83.5964664 C61.6894825,83.1933062 62,82.2861955 62,81.0767147 L62,66.0589946 C62,64.8495137 61.6894825,63.9424031 61.1719533,63.3376627 C60.654424,62.7329223 59.7228715,62.329762 58.4808013,62.1281819 L58.3772955,62.1281819 L24.8414023,53.359446 C23.9098497,53.2586559 23.2888147,52.9562857 22.8747913,52.4523353 C22.4607679,52.0491751 22.2537563,51.3436446 22.2537563,50.537324 C22.2537563,49.6302134 22.4607679,49.025473 22.8747913,48.5215227 C23.2888147,48.1183624 23.9098497,47.8159922 24.9449082,47.6144121 L58.4808013,38.8456761 C59.7228715,38.644096 60.654424,38.2409357 61.1719533,37.6361953 C61.6894825,37.132245 62,36.2251344 62,34.9148635 L62,19.8971433 C62,18.6876625 61.6894825,17.8813419 61.2754591,17.3773916 C60.7579299,16.9742313 59.9298831,16.8734413 58.687813,17.1758115 L14.2838063,29.4721998 C9.62604341,30.8832607 6.0033389,32.697482 3.62270451,34.9148635" id="Fill-1" fill="#FFFFFF"></path>
                <path d="M111.974044,3.36263736 C112.077869,2.13986014 111.870219,1.32467532 111.351093,0.815184815 C110.728142,0.305694306 109.793716,0 108.547814,0 L91.5204918,0 C90.2745902,0 89.4439891,0.305694306 89.0286885,0.815184815 C88.5095628,1.32467532 88.1980874,2.24175824 88.0942623,3.46453546 L74.0778689,98.6373626 C73.8702186,99.8601399 74.0778689,100.675325 74.7008197,101.184815 C75.2199454,101.694306 76.2581967,102 77.5040984,102 L94.4275956,102 C95.6734973,102 96.6079235,101.694306 97.023224,101.285864 C97.4385246,100.675325 97.75,99.7582418 97.9576503,98.5354645 L111.974044,3.36263736 Z" id="Fill-3" fill="#FFFFFF"></path>
                <path d="M126.312187,83.8992481 L170.716194,71.5067669 C175.373957,70.1969925 178.996661,68.3834586 181.377295,66.0661654 C183.758792,63.8496241 185,60.0210526 185,54.5804511 L185,46.4195489 C185,41.0796992 183.758792,37.2511278 181.377295,34.9338346 C178.996661,32.7172932 175.373957,30.9037594 170.716194,29.4932331 L126.208681,17.1007519 C125.794658,17.1007519 125.48414,17 125.070117,17 C124.552588,17 124.035058,17.2015038 123.724541,17.4030075 C123.207012,17.9067669 123,18.712782 123,19.9218045 L123,34.9338346 C123,36.243609 123.310518,37.1503759 123.828047,37.6541353 C124.345576,38.2586466 125.277129,38.6616541 126.519199,38.8631579 L126.622705,38.8631579 L160.158598,47.6285714 C161.09015,47.8300752 161.711185,48.1323308 162.126071,48.5353383 C162.539232,49.0390977 162.642738,49.643609 162.642738,50.5503759 C162.642738,51.356391 162.539232,52.0616541 162.126071,52.4646617 C161.711185,52.9684211 161.09015,53.2706767 160.055092,53.3714286 L126.519199,62.1368421 C125.277129,62.3383459 124.345576,62.7413534 123.828047,63.3458647 C123.310518,63.9503759 123,64.8571429 123,66.0661654 L123,81.0781955 C123,82.287218 123.207012,83.193985 123.724541,83.5969925 C124.24207,84 125.070117,84.1007519 126.312187,83.8992481" id="Fill-5" fill="#FFFFFF"></path>
                <polygon id="Fill-7" fill="#FFFFFF" points="202.349206 167 189.447619 123.343214 189.244444 123.343214 189.244444 167 180 167 180 101 190.971429 101 202.552381 140.332293 202.754709 140.332293 202.754709 101 212 101 212 167"></polygon>
                <g id="Group-11" transform="translate(219.000000, 101.000000)">
                    <mask id="mask-2" fill="white">
                        <use xlink:href="#path-1"></use>
                    </mask>
                    <g id="Clip-10"></g>
                    <path d="M30.5847479,14.9226896 L30.5847479,16.7499577 L20.8059509,17.6635918 L20.8059509,15.6332939 C20.8059509,11.1674844 19.1414749,9.13634056 15.6044632,9.13634056 C12.6907632,9.13634056 10.611035,10.7605789 10.611035,14.4151151 L10.611035,15.8363236 C10.611035,19.4908599 12.4835706,22.4347918 19.0374451,28.3226558 C27.984004,36.3423325 31,41.7226219 31,49.2355701 L31,52.3816859 C31,61.924932 24.8622445,67.0006768 15.6044632,67.0006768 C6.24178528,67.0006768 0,61.6195414 0,52.0771412 L0,47.8135156 L9.67476719,46.8998816 L9.67476719,51.366537 C9.67476719,55.7316774 11.7544954,57.8634902 15.3955368,57.8634902 C18.5172963,57.8634902 20.9099807,56.2392519 20.9099807,51.5695667 L20.9099807,49.5392688 C20.9099807,45.478673 19.0374451,42.535587 12.4835706,36.6468772 C3.53701166,28.5256855 0.519281859,23.246911 0.519281859,16.2432292 L0.519281859,14.6189909 C0.519281859,5.07574476 6.13775553,0 15.5004335,0 C24.8622445,0 30.5847479,5.38028944 30.5847479,14.9226896" id="Fill-9" fill="#FFFFFF" mask="url(#mask-2)"></path>
                </g>
                <mask id="mask-4" fill="white">
                    <use xlink:href="#path-3"></use>
                </mask>
                <g id="Clip-13"></g>
                <polygon id="Fill-12" fill="#FFFFFF" mask="url(#mask-4)" points="255 168 265 168 265 102 255 102"></polygon>
                <polygon id="Fill-14" fill="#FFFFFF" mask="url(#mask-4)" points="136 126.885813 136 131 123 131 123 102 127.888889 102 127.888889 126.885813"></polygon>
                <polygon id="Fill-15" fill="#FFFFFF" mask="url(#mask-4)" points="143.649841 106.114187 143.649841 114.242215 150.415408 114.242215 150.415408 118.356401 143.649841 118.356401 143.649841 126.986159 152 126.986159 152 131 139 131 139 102 152 102 152 106.114187"></polygon>
                <path d="M166.792593,107.888696 L166.792593,108.723689 L162.437037,109.141186 L162.437037,108.201818 C162.437037,106.218709 161.607407,105.174967 160.051852,105.174967 C158.704568,105.174967 157.771235,106.00996 157.771235,107.680817 L157.771235,108.306192 C157.771235,109.976179 158.600864,111.333043 161.607407,114.046772 C165.652716,117.804242 167,120.309223 167,123.75357 L167,125.214809 C167,129.702898 164.2,132 160.051852,132 C155.903704,132 153,129.598524 153,125.110435 L153,123.128195 L157.459259,122.709829 L157.459259,124.797312 C157.459259,126.781291 158.392593,127.824163 159.948148,127.824163 C161.29716,127.824163 162.437037,127.093544 162.437037,124.902556 L162.437037,123.962319 C162.437037,122.083584 161.607407,120.727589 158.600864,118.01386 C154.659259,114.25552 153.311111,111.75054 153.311111,108.51581 L153.311111,107.784321 C153.311111,103.297102 155.8,101 160.051852,101 C164.2,101 166.792593,103.50498 166.792593,107.888696" id="Fill-16" fill="#FFFFFF" mask="url(#mask-4)"></path>
                <polygon id="Fill-17" fill="#FFFFFF" mask="url(#mask-4)" points="43.1970803 141.214411 43.1970803 166 38.7007299 166 38.7007299 141.214411 34 141.214411 34 137 48 137 48 141.214411"></polygon>
                <path d="M55.5517241,149.743945 L57.4137931,149.743945 C59.5862069,149.743945 60.5172414,148.540629 60.5172414,146.132324 L60.5172414,144.626298 C60.5172414,142.217993 59.5862069,141.115023 57.4137931,141.115023 L55.5517241,141.115023 L55.5517241,149.743945 Z M57.6206897,153.757785 L55.5517241,153.757785 L55.5517241,166 L51,166 L51,137 L57.5172414,137 C62.4827586,137 65.0689655,139.608997 65.0689655,144.326096 L65.0689655,146.432526 C65.0689655,149.543253 63.9310345,151.650519 61.862069,152.855507 L66,166 L61.2413793,166 L57.6206897,153.757785 Z" id="Fill-18" fill="#FFFFFF" mask="url(#mask-4)"></path>
                <path d="M71.3687943,144.723906 L71.3687943,160.380471 C71.3687943,162.57326 72.2624113,163.824916 74.0496454,163.824916 C75.7375887,163.824916 76.6312057,162.57326 76.6312057,160.380471 L76.6312057,144.723906 C76.6312057,142.427609 75.7375887,141.279461 74.0496454,141.279461 C72.2624113,141.279461 71.3687943,142.427609 71.3687943,144.723906 M81,144.619529 L81,160.380471 C81,165.182688 78.3191489,168 74.0496454,168 C69.6808511,168 67,165.182688 67,160.380471 L67,144.619529 C67,139.922559 69.6808511,137 74.0496454,137 C78.3191489,137 81,139.922559 81,144.619529" id="Fill-19" fill="#FFFFFF" mask="url(#mask-4)"></path>
                <path d="M91.4592593,149.944637 L93.3259259,149.944637 C95.5037037,149.944637 96.5407407,148.84083 96.5407407,146.432526 L96.5407407,144.626298 C96.5407407,142.217993 95.5037037,141.114187 93.3259259,141.114187 L91.4592593,141.114187 L91.4592593,149.944637 Z M93.5333333,137 C98.4074074,137 101,139.608997 101,144.32526 L101,146.733564 C101,151.449827 98.4074074,154.058824 93.5333333,154.058824 L91.4592593,154.058824 L91.4592593,166 L87,166 L87,137 L93.5333333,137 Z" id="Fill-20" fill="#FFFFFF" mask="url(#mask-4)"></path>
                <polygon id="Fill-21" fill="#FFFFFF" mask="url(#mask-4)" points="113.568345 166 113.568345 153.356766 108.330935 153.356766 108.330935 166 104 166 104 137 108.330935 137 108.330935 149.242698 113.568345 149.242698 113.568345 137 118 137 118 166"></polygon>
                <path d="M125.910569,136.208211 L128.235772,132 L132.885298,132 L129.292683,136.208211 L125.910569,136.208211 Z M126.650407,141.545455 L126.650407,149.961877 L133.414634,149.961877 L133.414634,154.067449 L126.650407,154.067449 L126.650407,162.894428 L135,162.894428 L135,167 L122,167 L122,137.336388 L135,137.336388 L135,141.545455 L126.650407,141.545455 Z" id="Fill-22" fill="#FFFFFF" mask="url(#mask-4)"></path>
                <polygon id="Fill-23" fill="#FFFFFF" mask="url(#mask-4)" points="143.649841 141.114904 143.649841 149.343041 150.415408 149.343041 150.415408 153.356766 143.649841 153.356766 143.649841 161.986275 152 161.986275 152 166 139 166 139 137 152 137 152 141.114904"></polygon>
                <path d="M166.792593,143.888889 L166.792593,144.828283 L162.437037,145.245791 L162.437037,144.306397 C162.437037,142.218855 161.607407,141.279461 160.051852,141.279461 C158.704568,141.279461 157.771235,142.010101 157.771235,143.680135 L157.771235,144.306397 C157.771235,145.976431 158.600864,147.43771 161.607407,150.151515 C165.652716,153.909961 167,156.309764 167,159.858586 L167,161.319865 C167,165.703704 164.2,168 160.051852,168 C155.903704,168 153,165.599327 153,161.111111 L153,159.128816 L157.459259,158.710438 L157.459259,160.79798 C157.459259,162.781145 158.392593,163.824916 159.948148,163.824916 C161.29716,163.824916 162.437037,163.094276 162.437037,160.902357 L162.437037,159.962963 C162.437037,158.084175 161.607407,156.727273 158.600864,154.013468 C154.659259,150.255892 153.311111,147.750842 153.311111,144.515152 L153.311111,143.784512 C153.311111,139.400673 155.8,137 160.051852,137 C164.2,137 166.792593,139.505051 166.792593,143.888889" id="Fill-24" fill="#FFFFFF" mask="url(#mask-4)"></path>
            </g>
        </g>
    </g>
</svg>