<?xml version="1.0" encoding="UTF-8"?>
<svg width="19px" height="11px" viewBox="0 0 19 11" version="1.1" xmlns="http://www.w3.org/2000/svg" xmlns:xlink="http://www.w3.org/1999/xlink">
    <title>logo_small</title>
    <g id="NSI---Mobile" stroke="none" stroke-width="1" fill="none" fill-rule="evenodd">
        <g id="NSI---Mobile---Participer" transform="translate(-85.000000, -188.000000)" fill="#E94E1B" fill-rule="nonzero">
            <g id="LOGO-réseaux-sociaux-TROPHÉES-&amp;-JOURNÉE-NSI" transform="translate(78.000000, 177.000000)">
                <g id="logo_small" transform="translate(7.000000, 11.000000)">
                    <path d="M0.359944444,3.81643974 C0.121388889,4.05940494 -1.50003466e-15,4.4809884 -1.50003466e-15,5.06676752 L-1.50003466e-15,5.9598588 C-1.50003466e-15,6.54563792 0.121388889,6.96722138 0.359944444,7.21018659 C0.604833333,7.45980837 0.969,7.66061523 1.44294444,7.80484115 L5.93644444,9.15612708 C6.05783333,9.1827534 6.14227778,9.17276853 6.18977778,9.12617247 C6.24044444,9.07624811 6.26577778,8.98305598 6.26577778,8.85103379 L6.26577778,7.21351488 C6.26577778,7.0781644 6.23833333,6.97720625 6.1845,6.91396873 C6.12961111,6.85073122 6.03672222,6.80635401 5.90583333,6.78527484 L5.89738889,6.78305598 L2.51011111,5.82783661 C2.41827778,5.8089763 2.35177778,5.77569339 2.31272222,5.7279879 C2.27261111,5.6802824 2.25255556,5.60927887 2.25255556,5.51275845 C2.25255556,5.41734745 2.27261111,5.34745335 2.31272222,5.297529 C2.35283333,5.2498235 2.41827778,5.21765003 2.51538889,5.19657085 L5.90583333,4.24024206 C6.03672222,4.21805345 6.13066667,4.17478568 6.1845,4.11154816 C6.23833333,4.04831064 6.26472222,3.94846193 6.26472222,3.81200202 L6.26472222,2.17448311 C6.26472222,2.04135149 6.23938889,1.94815935 6.18872222,1.898235 C6.14227778,1.85163893 6.05572222,1.84276349 5.93327778,1.86938981 L1.44188889,3.21956631 C0.970055556,3.36601109 0.604833333,3.56570852 0.359944444,3.81643974 Z" id="Path"></path>
                    <path d="M11.4358889,0.35279879 C11.4485556,0.227433182 11.4274444,0.135350479 11.3725556,0.0843166919 C11.3123889,0.0277357539 11.2163333,-3.15319015e-15 11.0875556,-3.15319015e-15 L9.3765,-3.15319015e-15 C9.25088889,-3.15319015e-15 9.16538889,0.0266263238 9.12211111,0.0776601109 C9.07461111,0.134241049 9.04294444,0.234089763 9.02922222,0.372768533 L7.61266667,10.6449823 C7.6,10.7725668 7.62111111,10.8635401 7.676,10.9156833 C7.73616667,10.9722642 7.83116667,11 7.961,11 L9.67205556,11 C9.79766667,11 9.88316667,10.9733737 9.92644444,10.9223399 C9.97394444,10.865759 10.0056111,10.7659102 10.0193333,10.626122 L11.4358889,0.35279879 Z" id="Path"></path>
                    <path d="M13.0656667,9.15501765 L17.5570556,7.80373172 C18.0299444,7.6595058 18.3951667,7.45980837 18.6400556,7.20907716 C18.8786111,6.96500252 19,6.54452849 19,5.95874937 L19,5.06565809 C19,4.47987897 18.8786111,4.05940494 18.6400556,3.81533031 C18.3951667,3.56570852 18.0299444,3.36601109 17.5570556,3.22067574 L13.0603889,1.86828038 C13.0181667,1.85940494 12.9801667,1.85385779 12.9463889,1.85385779 C12.8862222,1.85385779 12.8397778,1.86828038 12.8102222,1.898235 C12.7595556,1.94815935 12.7342222,2.04135149 12.7342222,2.17448311 L12.7342222,3.81200202 C12.7342222,3.9473525 12.7616667,4.04831064 12.8144444,4.11154816 C12.8682778,4.17589511 12.9622222,4.21916288 13.0931111,4.24024206 L13.1015556,4.24246092 L16.4888333,5.19768028 C16.5806667,5.2165406 16.6461111,5.2498235 16.6862222,5.29641957 C16.7273889,5.34634392 16.7474444,5.41623802 16.7474444,5.51164902 C16.7474444,5.60816944 16.7273889,5.67806354 16.6862222,5.72687847 C16.6471667,5.77458396 16.5806667,5.80675744 16.4846111,5.82783661 L13.0941667,6.78416541 C12.9632778,6.80524458 12.8693333,6.84962179 12.8155,6.9128593 C12.7616667,6.97609682 12.7352778,7.07705497 12.7352778,7.21240545 L12.7352778,8.84992436 C12.7352778,8.98305598 12.7606111,9.07624811 12.8112778,9.12506304 C12.8566667,9.1716591 12.9432222,9.18164397 13.0656667,9.15501765 Z" id="Path"></path>
                </g>
            </g>
        </g>
    </g>
</svg>