<?xml version="1.0" encoding="UTF-8"?>
<svg width="14px" height="16px" viewBox="0 0 14 16" version="1.1" xmlns="http://www.w3.org/2000/svg" xmlns:xlink="http://www.w3.org/1999/xlink">
    <title>Path</title>
    <g id="Symbols" stroke="none" stroke-width="1" fill="none" fill-rule="evenodd">
        <g id="Blocs-/-Lauréat-régional" transform="translate(-757.000000, -4.000000)" fill="#003947" fill-rule="nonzero">
            <g id="icon-play" transform="translate(757.000000, 3.998641)">
                <path d="M13.25,6.7201087 L2.25,0.220108696 C1.95833333,0.0326086957 1.63541667,-0.0350996377 1.28125,0.0169836957 C0.927083333,0.069067029 0.625,0.225317029 0.375,0.485733696 C0.125,0.746150362 0,1.08469203 0,1.5013587 L0,14.5013587 C0,14.8763587 0.119791667,15.1992754 0.359375,15.4701087 C0.598958333,15.740942 0.895833333,15.9076087 1.25,15.9701087 C1.60416667,16.0326087 1.9375,15.9701087 2.25,15.7826087 L13.25,9.2826087 C13.5833333,9.0951087 13.8072917,8.83469203 13.921875,8.5013587 C14.0364583,8.16802536 14.0364583,7.83469203 13.921875,7.5013587 C13.8072917,7.16802536 13.5833333,6.9076087 13.25,6.7201087 Z" id="Path"></path>
            </g>
        </g>
    </g>
</svg>