<?xml version="1.0" encoding="UTF-8"?>
<svg width="22px" height="24px" viewBox="0 0 22 24" version="1.1" xmlns="http://www.w3.org/2000/svg" xmlns:xlink="http://www.w3.org/1999/xlink">
    <title></title>
    <g id="Symbols" stroke="none" stroke-width="1" fill="none" fill-rule="evenodd">
        <g id="Blocs-/-Lauréat" transform="translate(-65.000000, -313.000000)" fill="#FFFFFF" fill-rule="nonzero">
            <g id="" transform="translate(65.000000, 312.997962)">
                <path d="M19.875,10.080163 L3.375,0.330163043 C2.9375,0.0489130435 2.453125,-0.0526494565 1.921875,0.0254755435 C1.390625,0.103600543 0.9375,0.337975543 0.5625,0.728600543 C0.1875,1.11922554 0,1.62703804 0,2.25203804 L0,21.752038 C0,22.314538 0.1796875,22.798913 0.5390625,23.205163 C0.8984375,23.611413 1.34375,23.861413 1.875,23.955163 C2.40625,24.048913 2.90625,23.955163 3.375,23.673913 L19.875,13.923913 C20.375,13.642663 20.7109375,13.252038 20.8828125,12.752038 C21.0546875,12.252038 21.0546875,11.752038 20.8828125,11.252038 C20.7109375,10.752038 20.375,10.361413 19.875,10.080163 Z" id="Path"></path>
            </g>
        </g>
    </g>
</svg>