<?xml version="1.0" encoding="UTF-8"?>
<svg width="43px" height="16px" viewBox="0 0 43 16" version="1.1" xmlns="http://www.w3.org/2000/svg" xmlns:xlink="http://www.w3.org/1999/xlink">
    <title>slash</title>
    <g id="NSI---Mobile" stroke="none" stroke-width="1" fill="none" fill-rule="evenodd">
        <g id="NSI---Mobile---Home" transform="translate(-33.000000, -3003.000000)" fill="#FFFFFF">
            <path d="M62.6278322,2991.44462 C62.6697902,2990.94112 62.5858741,2990.60545 62.3760839,2990.39566 C62.1243357,2990.18587 61.7467133,2990.06 61.2432168,2990.06 L54.3620979,2990.06 C53.8586014,2990.06 53.5229371,2990.18587 53.3551049,2990.39566 C53.1453147,2990.60545 53.0194406,2990.98308 52.9774825,2991.48657 L47.3131469,3030.67538 C47.2292308,3031.17888 47.3131469,3031.51455 47.5648951,3031.72434 C47.7746853,3031.93413 48.1942657,3032.06 48.6977622,3032.06 L55.5369231,3032.06 C56.0404196,3032.06 56.418042,3031.93413 56.5858741,3031.76629 C56.7537063,3031.51455 56.8795804,3031.13692 56.9634965,3030.63343 L62.6278322,2991.44462 Z" id="slash" transform="translate(54.960000, 3011.060000) rotate(90.000000) translate(-54.960000, -3011.060000) "></path>
        </g>
    </g>
</svg>