<?xml version="1.0" encoding="UTF-8"?>
<svg width="300px" height="250px" viewBox="0 0 300 250" version="1.1" xmlns="http://www.w3.org/2000/svg" xmlns:xlink="http://www.w3.org/1999/xlink">
    <title>Illustrations / Documentation</title>
    <g id="Illustrations-/-Documentation" stroke="none" stroke-width="1" fill="none" fill-rule="evenodd" stroke-linecap="round" stroke-linejoin="round">
        <g id="Group-49" transform="translate(44.000000, 23.000000)" stroke="#E65025" stroke-width="3">
            <path d="M137.3394,139.4483 L137.3394,186.9823 C137.3394,192.3373 132.9994,196.6773 127.6464,196.6773 L17.2884,196.6773 C11.9354,196.6773 7.5954,192.3373 7.5954,186.9823 L7.5954,9.6943 C7.5954,4.3403 11.9354,0.0003 17.2884,0.0003 L108.5794,0.0003 L137.3394,28.2383 L137.3394,64.1493" id="Stroke-1"></path>
            <path d="M108.5796,0 L108.5796,24.847 C108.5796,26.999 110.3236,28.743 112.4746,28.743 L137.3396,28.743" id="Stroke-3"></path>
            <path d="M127.646,196.6768 L17.289,196.6768 C11.935,196.6768 7.595,192.3368 7.595,186.9828 L7.595,9.6938 C7.595,9.0398 7.662,8.4028 7.785,7.7848 C3.346,8.6718 0,12.5888 0,17.2888 L0,194.5768 C0,199.9308 4.34,204.2718 9.695,204.2718 L120.051,204.2718 C124.751,204.2718 128.667,200.9258 129.555,196.4868 C128.937,196.6098 128.299,196.6768 127.646,196.6768 Z" id="Stroke-5"></path>
            <line x1="33.9751" y1="44.0298" x2="110.9591" y2="44.0298" id="Stroke-7"></line>
            <line x1="33.9751" y1="53.5186" x2="110.9591" y2="53.5186" id="Stroke-9"></line>
            <line x1="33.9751" y1="63.0079" x2="110.9591" y2="63.0079" id="Stroke-11"></line>
            <line x1="33.9751" y1="72.4966" x2="110.9591" y2="72.4966" id="Stroke-13"></line>
            <line x1="33.9751" y1="81.9859" x2="106.2371" y2="81.9859" id="Stroke-15"></line>
            <line x1="33.9751" y1="91.4747" x2="102.1391" y2="91.4747" id="Stroke-17"></line>
            <line x1="33.9751" y1="100.9639" x2="99.8331" y2="100.9639" id="Stroke-19"></line>
            <line x1="33.9751" y1="110.4532" x2="101.3711" y2="110.2512" id="Stroke-21"></line>
            <line x1="33.9751" y1="119.9414" x2="104.4441" y2="119.9834" id="Stroke-23"></line>
            <line x1="33.9751" y1="129.4307" x2="110.9591" y2="129.4307" id="Stroke-25"></line>
            <line x1="33.9751" y1="138.92" x2="110.9591" y2="138.92" id="Stroke-27"></line>
            <line x1="33.9751" y1="148.4092" x2="110.9591" y2="148.4092" id="Stroke-29"></line>
            <line x1="33.9751" y1="158.5801" x2="73.9171" y2="158.5801" id="Stroke-31"></line>
            <line x1="166.9898" y1="141.1397" x2="158.8098" y2="132.9597" id="Stroke-33"></line>
            <path d="M164.3199,75.5728 C178.9429,90.1958 178.9429,113.9038 164.3199,128.5258 C149.6979,143.1478 125.9909,143.1478 111.3679,128.5258 C96.7459,113.9038 96.7459,90.1958 111.3679,75.5728 C125.9909,60.9508 149.6979,60.9508 164.3199,75.5728 Z" id="Stroke-35"></path>
            <path d="M156.7212,83.1714 C167.1472,93.5974 167.1472,110.5014 156.7212,120.9264 C146.2952,131.3524 129.3922,131.3524 118.9662,120.9264 C108.5402,110.5014 108.5402,93.5974 118.9662,83.1714 C129.3922,72.7454 146.2952,72.7454 156.7212,83.1714 Z" id="Stroke-37"></path>
            <line x1="139.813" y1="92.1578" x2="134.922" y2="112.0208" id="Stroke-39"></line>
            <polyline id="Stroke-41" points="130.9087 95.9424 124.7357 102.1144 130.6957 108.0744"></polyline>
            <polyline id="Stroke-43" points="144.8443 95.9424 151.0163 102.1144 145.0563 108.0744"></polyline>
            <line x1="169.2925" y1="122.4776" x2="177.4725" y2="130.6566" id="Stroke-45"></line>
            <path d="M208.6373,167.5342 L204.1363,172.0352 C200.7773,175.3942 195.3303,175.3942 191.9723,172.0352 L169.4613,149.5252 C166.1023,146.1662 166.1023,140.7212 169.4613,137.3612 L173.9623,132.8602 C177.3223,129.5012 182.7683,129.5012 186.1263,132.8602 L208.6373,155.3702 C211.9953,158.7292 211.9953,164.1762 208.6373,167.5342 Z" id="Stroke-47"></path>
        </g>
    </g>
</svg>