<?xml version="1.0" encoding="UTF-8"?>
<svg width="300px" height="250px" viewBox="0 0 300 250" version="1.1" xmlns="http://www.w3.org/2000/svg" xmlns:xlink="http://www.w3.org/1999/xlink">
    <title>Illustrations / Envoyer</title>
    <g id="Illustrations-/-Envoyer" stroke="none" stroke-width="1" fill="none" fill-rule="evenodd">
        <g id="Group-25" transform="translate(40.000000, 9.000000)">
            <g id="Group-13" transform="translate(0.078000, 0.000000)" stroke="#E65025" stroke-linecap="round" stroke-linejoin="round" stroke-width="3">
                <polyline id="Stroke-1" points="31.547 95.4115 -3.55271368e-15 95.4115 31.655 72.3115"></polyline>
                <polyline id="Stroke-3" points="183.172 67.5209 219.271 95.4119 183.173 95.4119"></polyline>
                <path d="M31.55,118.434 L31.55,15.02 C31.55,6.73 34.99,0 39.231,0 L40.359,0 C41.388,0 42.317,0.618 42.713,1.569 C43.325,3.039 44.774,4.07 46.46,4.07 C48.154,4.07 49.605,3.038 50.218,1.568 C50.614,0.618 51.542,0 52.571,0 L178.05,0 C180.878,0 183.17,2.293 183.17,5.121 L183.17,123.304" id="Stroke-5"></path>
                <line x1="46.0627" y1="15.3104" x2="46.0627" y2="129.0234" id="Stroke-7"></line>
                <line x1="99.0412" y1="18.7792" x2="127.2112" y2="18.7792" id="Stroke-9"></line>
                <line x1="91.7228" y1="26.0321" x2="134.5308" y2="26.0321" id="Stroke-11"></line>
            </g>
            <text id="Projet" font-family="Quicksand-Bold, Quicksand" font-size="24" font-weight="bold" fill="#E65025">
                <tspan x="81.4877" y="78.1861">P</tspan>
                <tspan x="95.9597" y="78.1861" letter-spacing="-0.528">r</tspan>
                <tspan x="105.3197" y="78.1861">ojet</tspan>
            </text>
            <g id="Group-24" transform="translate(0.000000, 95.411700)" stroke="#E65025" stroke-linecap="round" stroke-linejoin="round" stroke-width="3">
                <path d="M98.0977,39.032 L79.0597,57.634 L0.0777,0 L0.0777,127.174 C0.0777,132.216 4.1647,136.303 9.2077,136.303 L210.2187,136.303 C215.2617,136.303 219.3497,132.216 219.3497,127.174 L219.3497,0 L141.9487,59.801 L121.4397,39.194 C115.0217,32.745 104.6057,32.673 98.0977,39.032 Z" id="Stroke-14"></path>
                <line x1="216.3028" y1="133.9676" x2="141.9488" y2="59.8006" id="Stroke-16"></line>
                <line x1="79.0596" y1="57.6336" x2="2.9966" y2="133.3826" id="Stroke-18"></line>
                <line x1="150.3213" y1="68.1521" x2="219.3483" y2="14.7861" id="Stroke-20"></line>
                <line x1="-3.33066907e-15" y1="15.3938" x2="68.42" y2="68.1518" id="Stroke-22"></line>
            </g>
        </g>
    </g>
</svg>