<?xml version="1.0" encoding="UTF-8"?>
<svg width="300px" height="250px" viewBox="0 0 300 250" version="1.1" xmlns="http://www.w3.org/2000/svg" xmlns:xlink="http://www.w3.org/1999/xlink">
    <title>Illustrations / Équipe-2</title>
    <g id="Illustrations-/-Équipe-2" stroke="none" stroke-width="1" fill="none" fill-rule="evenodd">
        <path d="M196.4824,147.1643 L205.0134,157.0353 L193.6004,157.0353 L196.4824,147.1643 Z M150.9274,36.0003 C113.5054,36.0003 81.7534,60.1883 70.3924,93.7753 C71.4294,93.5503 72.4864,93.3753 73.5594,93.2573 C73.5904,93.2533 73.6224,93.2483 73.6534,93.2443 C74.1314,93.1933 74.6134,93.1553 75.0984,93.1263 C75.1734,93.1213 75.2484,93.1123 75.3244,93.1083 C75.8744,93.0793 76.4274,93.0633 76.9844,93.0633 C94.0444,93.0633 107.8734,106.8933 107.8734,123.9513 L107.8734,139.7493 L107.8644,139.7493 C107.8654,139.8083 107.8734,139.8643 107.8734,139.9233 C107.8734,144.6553 104.0374,148.4913 99.3044,148.4913 L99.0844,148.4913 L99.0844,148.4883 C97.8974,154.2663 94.5004,159.2343 89.8174,162.4793 L89.8244,162.4793 L89.8244,170.8243 L89.8254,170.8243 L107.7764,175.5363 C109.8184,176.0723 111.7614,176.8503 113.5744,177.8383 C114.1784,178.1683 114.7684,178.5203 115.3424,178.8953 C115.3534,178.8933 115.3654,178.8893 115.3774,178.8863 L115.3774,138.4443 L115.3774,120.6063 C115.3774,101.3453 130.9924,85.7303 150.2534,85.7303 C169.5154,85.7303 185.1304,101.3453 185.1304,120.6063 L185.1304,138.4443 L185.1214,138.4443 C185.1224,138.5113 185.1304,138.5743 185.1304,138.6413 C185.1304,138.7063 185.1224,138.7693 185.1214,138.8343 L185.1214,178.8323 C187.3894,177.3653 189.8994,176.2403 192.5814,175.5363 L210.5324,170.8243 L210.5334,170.8243 L210.5334,162.4793 L210.5414,162.4793 C205.8574,159.2343 202.4614,154.2673 201.2734,148.4893 L201.2744,148.4913 L201.0524,148.4913 C196.3204,148.4913 192.4844,144.6553 192.4844,139.9233 C192.4844,139.8643 192.4924,139.8083 192.4934,139.7493 L192.4844,139.7493 L192.4844,123.9513 C192.4844,106.8933 206.3134,93.0633 223.3734,93.0633 C224.0234,93.0633 224.6684,93.0903 225.3084,93.1303 C225.4644,93.1403 225.6194,93.1533 225.7744,93.1653 C226.3154,93.2073 226.8524,93.2623 227.3854,93.3313 C227.4814,93.3443 227.5774,93.3543 227.6724,93.3673 C229.0114,93.5543 230.3224,93.8273 231.5994,94.1803 C220.3594,60.3823 188.5014,36.0003 150.9274,36.0003 L150.9274,36.0003 Z" id="Fill-1" class="-fillPrimary" fill-opacity="0.5" fill="#E65025"></path>
        <path d="M231.5996,94.18 C220.3596,60.382 188.5006,36 150.9276,36 C113.5056,36 81.7526,60.189 70.3926,93.776" id="Stroke-3" stroke="#4F4F51" stroke-width="4" stroke-linecap="round" stroke-linejoin="round"></path>
        <path d="M135.7549,173.5325 L115.4859,178.8525 C106.2519,181.2775 98.7879,188.0665 95.5039,197.0315 L89.2979,213.9735 L150.2529,213.9735 L211.2099,213.9735 L205.0029,197.0315 C201.7189,188.0665 194.2559,181.2775 185.0219,178.8525 L164.7729,173.5385" id="Stroke-5" stroke="#4F4F51" stroke-width="4" stroke-linecap="round" stroke-linejoin="round"></path>
        <path d="M135.7559,164.1097 L135.7559,173.5377 C138.3409,178.9447 143.8609,182.6787 150.2539,182.6787 C156.6499,182.6787 162.1719,178.9407 164.7549,173.5297 L164.7549,164.0717" id="Stroke-7" stroke="#4F4F51" stroke-width="4" stroke-linecap="round" stroke-linejoin="round"></path>
        <path d="M175.2236,125.135 C175.5626,126.793 175.7276,128.374 175.7276,130.133 L175.7276,143.162 C175.7276,157.231 164.3226,168.636 150.2536,168.636 C136.1846,168.636 124.7796,157.231 124.7796,143.162 L124.7796,130.133 C124.7796,128.374 124.9576,126.657 125.2966,124.999" id="Stroke-9" stroke="#4F4F51" stroke-width="4" stroke-linecap="round" stroke-linejoin="round"></path>
        <path d="M115.377,138.4446 L115.377,120.6076 C115.377,101.3446 130.991,85.7306 150.254,85.7306 C169.516,85.7306 185.131,101.3446 185.131,120.6076 L185.131,138.4446" id="Stroke-11" stroke="#4F4F51" stroke-width="4" stroke-linecap="round" stroke-linejoin="round"></path>
        <path d="M175.7217,128.97 C180.9417,129.111 185.1307,133.387 185.1307,138.641 C185.1307,143.984 180.7987,148.316 175.4557,148.316 L175.2057,148.316" id="Stroke-13" stroke="#4F4F51" stroke-width="4" stroke-linecap="round" stroke-linejoin="round"></path>
        <path d="M124.8096,128.97 C119.5786,129.098 115.3766,133.379 115.3766,138.641 C115.3766,143.984 119.7076,148.316 125.0506,148.316 L125.3016,148.316" id="Stroke-15" stroke="#4F4F51" stroke-width="4" stroke-linecap="round" stroke-linejoin="round"></path>
        <path d="M140.3369,116.4065 C134.4939,122.9345 136.3719,126.3735 124.7909,124.9375" id="Stroke-17" stroke="#4F4F51" stroke-width="4" stroke-linecap="round" stroke-linejoin="round"></path>
        <path d="M140.3369,116.4065 C146.1799,122.9345 165.4829,126.3735 177.0649,124.9375" id="Stroke-19" stroke="#4F4F51" stroke-width="4" stroke-linecap="round" stroke-linejoin="round"></path>
        <path d="M166.8467,135.1888 C166.8467,136.3158 165.9327,137.2298 164.8047,137.2298 C163.6767,137.2298 162.7627,136.3158 162.7627,135.1888 C162.7627,134.0608 163.6767,133.1468 164.8047,133.1468 C165.9327,133.1468 166.8467,134.0608 166.8467,135.1888" id="Fill-21" fill="#4F4F51"></path>
        <path d="M138.9668,135.1731 C138.9668,136.3011 138.0528,137.2151 136.9248,137.2151 C135.7968,137.2151 134.8828,136.3011 134.8828,135.1731 C134.8828,134.0461 135.7968,133.1321 136.9248,133.1321 C138.0528,133.1321 138.9668,134.0461 138.9668,135.1731" id="Fill-23" fill="#4F4F51"></path>
        <path d="M141.4307,150.9319 C141.4307,155.8049 145.3807,159.7549 150.2537,159.7549 C155.1257,159.7549 159.0767,155.8049 159.0767,150.9319" id="Stroke-25" stroke="#4F4F51" stroke-width="4" stroke-linecap="round" stroke-linejoin="round"></path>
        <path d="M208.5225,206.6409 L223.3735,206.6409 L277.3585,206.6409 L271.8615,191.6359 C268.9525,183.6969 262.3425,177.6839 254.1645,175.5359 L236.2315,170.8289" id="Stroke-27" stroke="#4F4F51" stroke-width="4" stroke-linecap="round" stroke-linejoin="round"></path>
        <path d="M210.5322,170.8245 L192.5812,175.5365 C189.8452,176.2555 187.2862,177.4055 184.9802,178.9165" id="Stroke-29" stroke="#4F4F51" stroke-width="4" stroke-linecap="round" stroke-linejoin="round"></path>
        <path d="M210.5332,162.4798 L210.5332,170.8298 C212.8222,175.6178 217.7122,178.9248 223.3732,178.9248 C229.0372,178.9248 233.9282,175.6138 236.2162,170.8218 L236.2162,162.4458" id="Stroke-31" stroke="#4F4F51" stroke-width="4" stroke-linecap="round" stroke-linejoin="round"></path>
        <path d="M245.4873,127.9612 C245.7883,129.4302 245.9333,130.8312 245.9333,132.3882 L245.9333,143.9272 C245.9333,156.3872 235.8333,166.4872 223.3733,166.4872 C210.9133,166.4872 200.8123,156.3872 200.8123,143.9272 L200.8123,132.3882 C200.8123,130.8312 200.9693,129.3102 201.2703,127.8422" id="Stroke-33" stroke="#4F4F51" stroke-width="4" stroke-linecap="round" stroke-linejoin="round"></path>
        <path d="M192.4844,139.7493 L192.4844,123.9513 C192.4844,106.8933 206.3134,93.0633 223.3734,93.0633 C240.4314,93.0633 254.2604,106.8933 254.2604,123.9513 L254.2604,139.7493" id="Stroke-35" stroke="#4F4F51" stroke-width="4" stroke-linecap="round" stroke-linejoin="round"></path>
        <path d="M245.9277,131.3587 C250.5517,131.4827 254.2607,135.2697 254.2607,139.9227 C254.2607,144.6557 250.4247,148.4917 245.6937,148.4917 L245.4717,148.4917" id="Stroke-37" stroke="#4F4F51" stroke-width="4" stroke-linecap="round" stroke-linejoin="round"></path>
        <path d="M200.8379,131.3577 C196.2049,131.4707 192.4839,135.2627 192.4839,139.9227 C192.4839,144.6557 196.3199,148.4917 201.0529,148.4917 L201.2749,148.4917" id="Stroke-39" stroke="#4F4F51" stroke-width="4" stroke-linecap="round" stroke-linejoin="round"></path>
        <path d="M238.0684,136.8655 C238.0684,137.8635 237.2584,138.6745 236.2594,138.6745 C235.2604,138.6745 234.4514,137.8635 234.4514,136.8655 C234.4514,135.8665 235.2604,135.0565 236.2594,135.0565 C237.2584,135.0565 238.0684,135.8665 238.0684,136.8655" id="Fill-41" fill="#4F4F51"></path>
        <path d="M213.377,136.8518 C213.377,137.8508 212.567,138.6608 211.568,138.6608 C210.569,138.6608 209.76,137.8508 209.76,136.8518 C209.76,135.8538 210.569,135.0438 211.568,135.0438 C212.567,135.0438 213.377,135.8538 213.377,136.8518" id="Fill-43" fill="#4F4F51"></path>
        <path d="M215.5596,150.8089 C215.5596,155.1239 219.0576,158.6219 223.3726,158.6219 C227.6886,158.6219 231.1866,155.1239 231.1866,150.8089" id="Stroke-45" stroke="#4F4F51" stroke-width="4" stroke-linecap="round" stroke-linejoin="round"></path>
        <path d="M91.835,206.6409 L76.985,206.6409 L23,206.6409 L28.496,191.6359 C31.405,183.6969 38.015,177.6839 46.193,175.5359 L64.126,170.8289" id="Stroke-47" stroke="#4F4F51" stroke-width="4" stroke-linecap="round" stroke-linejoin="round"></path>
        <path d="M89.8252,170.8245 L107.7762,175.5365 C110.5122,176.2555 113.0722,177.4055 115.3772,178.9165" id="Stroke-49" stroke="#4F4F51" stroke-width="4" stroke-linecap="round" stroke-linejoin="round"></path>
        <path d="M89.8242,162.4798 L89.8242,170.8298 C87.5352,175.6178 82.6462,178.9248 76.9842,178.9248 C71.3202,178.9248 66.4292,175.6138 64.1412,170.8218 L64.1412,162.4458" id="Stroke-51" stroke="#4F4F51" stroke-width="4" stroke-linecap="round" stroke-linejoin="round"></path>
        <path d="M54.8701,127.9612 C54.5701,129.4302 54.4241,130.8312 54.4241,132.3882 L54.4241,143.9272 C54.4241,156.3872 64.5241,166.4872 76.9841,166.4872 C89.4441,166.4872 99.5461,156.3872 99.5461,143.9272 L99.5461,132.3882 C99.5461,130.8312 99.3881,129.3102 99.0871,127.8422" id="Stroke-53" stroke="#4F4F51" stroke-width="4" stroke-linecap="round" stroke-linejoin="round"></path>
        <path d="M107.8731,139.7493 L107.8731,123.9513 C107.8731,106.8933 94.0441,93.0633 76.9841,93.0633 C59.9261,93.0633 46.0971,106.8933 46.0971,123.9513 L46.0971,139.7493" id="Stroke-55" stroke="#4F4F51" stroke-width="4" stroke-linecap="round" stroke-linejoin="round"></path>
        <path d="M54.4297,131.3587 C49.8067,131.4827 46.0967,135.2697 46.0967,139.9227 C46.0967,144.6557 49.9327,148.4917 54.6637,148.4917 L54.8857,148.4917" id="Stroke-57" stroke="#4F4F51" stroke-width="4" stroke-linecap="round" stroke-linejoin="round"></path>
        <path d="M99.5195,131.3577 C104.1525,131.4707 107.8735,135.2627 107.8735,139.9227 C107.8735,144.6557 104.0375,148.4917 99.3045,148.4917 L99.0825,148.4917" id="Stroke-59" stroke="#4F4F51" stroke-width="4" stroke-linecap="round" stroke-linejoin="round"></path>
        <path d="M76.3877,121.0218 C81.5627,126.8038 89.2787,129.0588 99.5347,127.7878" id="Stroke-61" stroke="#4F4F51" stroke-width="4" stroke-linecap="round" stroke-linejoin="round"></path>
        <path d="M76.3877,121.0218 C71.2127,126.8038 63.4957,129.0588 53.2397,127.7878" id="Stroke-63" stroke="#4F4F51" stroke-width="4" stroke-linecap="round" stroke-linejoin="round"></path>
        <path d="M62.2891,136.8655 C62.2891,137.8635 63.0991,138.6745 64.0981,138.6745 C65.0971,138.6745 65.9061,137.8635 65.9061,136.8655 C65.9061,135.8665 65.0971,135.0565 64.0981,135.0565 C63.0991,135.0565 62.2891,135.8665 62.2891,136.8655" id="Fill-65" fill="#4F4F51"></path>
        <path d="M86.9815,136.8518 C86.9815,137.8508 87.7915,138.6608 88.7895,138.6608 C89.7885,138.6608 90.5975,137.8508 90.5975,136.8518 C90.5975,135.8538 89.7885,135.0438 88.7895,135.0438 C87.7915,135.0438 86.9815,135.8538 86.9815,136.8518" id="Fill-67" fill="#4F4F51"></path>
        <path d="M84.7979,150.8089 C84.7979,155.1239 81.2999,158.6219 76.9849,158.6219 C72.6699,158.6219 69.1709,155.1239 69.1709,150.8089" id="Stroke-69" stroke="#4F4F51" stroke-width="4" stroke-linecap="round" stroke-linejoin="round"></path>
        <path d="M201.2744,89.7659 C201.2104,89.6129 201.1444,89.4589 201.0794,89.3069" id="Stroke-71" stroke="#4F4F51" stroke-width="4" stroke-linecap="round" stroke-linejoin="round"></path>
        <path d="M197.2774,82.5325 C188.2144,69.5765 170.8714,60.8125 150.9544,60.8125 C129.4864,60.8125 111.0104,70.9935 102.6694,85.6305" id="Stroke-73" stroke="#4F4F51" stroke-width="4" stroke-linecap="round" stroke-linejoin="round" stroke-dasharray="0.972,7.779"></path>
        <path d="M100.917,89.1067 C100.85,89.2587 100.783,89.4117 100.719,89.5647" id="Stroke-75" stroke="#4F4F51" stroke-width="4" stroke-linecap="round" stroke-linejoin="round"></path>
        <line x1="115.377" y1="138.4446" x2="115.377" y2="178.8956" id="Stroke-77" stroke="#4F4F51" stroke-width="4" stroke-linecap="round" stroke-linejoin="round"></line>
        <line x1="185.1211" y1="138.4446" x2="185.1211" y2="178.8666" id="Stroke-79" stroke="#4F4F51" stroke-width="4" stroke-linecap="round" stroke-linejoin="round"></line>
        <path d="M216.5352,120.8343 L238.7322,120.8343 C242.5632,120.8343 245.4872,124.1303 245.4872,127.9613" id="Stroke-81" stroke="#4F4F51" stroke-width="4" stroke-linecap="round" stroke-linejoin="round"></path>
        <path d="M201.2705,127.8421 C201.2705,124.0111 204.3795,120.8341 208.2105,120.8341 L210.5295,120.8341" id="Stroke-83" stroke="#4F4F51" stroke-width="4" stroke-linecap="round" stroke-linejoin="round"></path>
        <polyline id="Stroke-85" stroke="#4F4F51" stroke-width="4" stroke-linecap="round" stroke-linejoin="round" points="216.5352 120.8343 214.6112 112.0883 210.5332 120.8343"></polyline>
        <polyline id="Stroke-87" stroke="#4F4F51" stroke-width="4" stroke-linecap="round" stroke-linejoin="round" points="196.4824 147.1643 193.6004 157.0353 205.0134 157.0353"></polyline>
        <polyline id="Stroke-89" stroke="#4F4F51" stroke-width="4" stroke-linecap="round" stroke-linejoin="round" points="250.3233 147.1643 253.2053 157.0353 241.7923 157.0353"></polyline>
    </g>
</svg>
