<?xml version="1.0" encoding="UTF-8"?>
<svg width="300px" height="250px" viewBox="0 0 300 250" version="1.1" xmlns="http://www.w3.org/2000/svg" xmlns:xlink="http://www.w3.org/1999/xlink">
    <title>Illustrations / Équipe-2</title>
    <g id="Illustrations-/-Équipe-2" stroke="none" stroke-width="1" fill="none" fill-rule="evenodd">
        <g id="Group-81" transform="translate(23.000000, 36.000000)">
            <path d="M53.9844,57.0638 C71.0444,57.0638 84.8734,70.8928 84.8734,87.9518 L84.8734,103.7498 L84.8644,103.7498 C84.8654,103.8078 84.8734,103.8648 84.8734,103.9228 C84.8734,108.6558 81.0374,112.4918 76.3044,112.4918 L76.0844,112.4918 L76.0844,112.4888 C74.8974,118.2658 71.5004,123.2348 66.8174,126.4798 L66.8244,126.4798 L66.8244,134.8248 L66.8254,134.8248 L84.7764,139.5368 C87.4994,140.2518 90.0474,141.3958 92.3424,142.8958 C92.3904,142.8828 92.4374,142.8658 92.4864,142.8528 L112.7554,137.5328 L112.7554,137.5328 L112.7554,128.1098 L112.7634,128.1098 C107.4764,124.4458 103.6404,118.8358 102.3004,112.3138 L102.3004,112.3158 L102.0504,112.3158 C96.7084,112.3158 92.3774,107.9838 92.3774,102.6408 C92.3774,102.5748 92.3844,102.5108 92.3864,102.4448 L92.3774,102.4448 L92.3774,84.6068 C92.3774,65.3448 107.9924,49.7308 127.2544,49.7308 C146.5154,49.7308 162.1304,65.3448 162.1304,84.6068 L162.1304,102.4448 L162.1214,102.4448 C162.1224,102.5108 162.1304,102.5748 162.1304,102.6408 C162.1304,107.9838 157.7984,112.3158 152.4564,112.3158 L152.2064,112.3158 L152.2064,112.3138 C150.8674,118.8318 147.0354,124.4368 141.7554,128.1018 L141.7554,137.5298 C141.7544,137.5328 141.7524,137.5358 141.7504,137.5388 L141.7724,137.5388 L162.0214,142.8528 C162.0354,142.8568 162.0494,142.8628 162.0644,142.8668 C164.3474,141.3808 166.8784,140.2468 169.5814,139.5368 L187.5324,134.8248 L187.5334,134.8248 L187.5334,126.4798 L187.5414,126.4798 C182.8574,123.2348 179.4614,118.2668 178.2734,112.4898 L178.2744,112.4918 L178.0524,112.4918 C173.3204,112.4918 169.4844,108.6558 169.4844,103.9228 C169.4844,103.8648 169.4924,103.8078 169.4934,103.7498 L169.4844,103.7498 L169.4844,87.9518 C169.4844,70.8928 183.3134,57.0638 200.3734,57.0638 C203.2224,57.0638 205.9794,57.4578 208.5994,58.1798 C197.3594,24.3818 165.5014,0.0008 127.9274,0.0008 C90.5054,0.0008 58.7534,24.1888 47.3924,57.7758 C49.5174,57.3138 51.7214,57.0638 53.9844,57.0638" id="Fill-1" fill="#E94E1B" opacity="0.5"></path>
            <path d="M208.5996,58.18 C197.3596,24.382 165.5006,0 127.9276,0 C90.5056,0 58.7526,24.189 47.3926,57.776" id="Stroke-3" stroke="#4F4F51" stroke-width="4" stroke-linecap="round" stroke-linejoin="round"></path>
            <path d="M112.7549,137.5325 L92.4859,142.8525 C83.2519,145.2775 75.7879,152.0665 72.5039,161.0315 L66.2979,177.9735 L127.2529,177.9735 L188.2099,177.9735 L182.0029,161.0315 C178.7189,152.0665 171.2559,145.2775 162.0219,142.8525 L141.7729,137.5385" id="Stroke-5" stroke="#4F4F51" stroke-width="4" stroke-linecap="round" stroke-linejoin="round"></path>
            <path d="M112.7559,128.1097 L112.7559,137.5377 C115.3409,142.9447 120.8609,146.6787 127.2539,146.6787 C133.6499,146.6787 139.1719,142.9407 141.7549,137.5297 L141.7549,128.0717" id="Stroke-7" stroke="#4F4F51" stroke-width="4" stroke-linecap="round" stroke-linejoin="round"></path>
            <path d="M152.2236,89.135 C152.5626,90.793 152.7276,92.374 152.7276,94.133 L152.7276,107.162 C152.7276,121.231 141.3226,132.636 127.2536,132.636 C113.1846,132.636 101.7796,121.231 101.7796,107.162 L101.7796,94.133 C101.7796,92.374 101.9576,90.657 102.2966,88.999" id="Stroke-9" stroke="#4F4F51" stroke-width="4" stroke-linecap="round" stroke-linejoin="round"></path>
            <path d="M92.377,102.4446 L92.377,84.6076 C92.377,65.3446 107.991,49.7306 127.254,49.7306 C146.516,49.7306 162.131,65.3446 162.131,84.6076 L162.131,102.4446" id="Stroke-11" stroke="#4F4F51" stroke-width="4" stroke-linecap="round" stroke-linejoin="round"></path>
            <path d="M152.7217,92.97 C157.9417,93.111 162.1307,97.387 162.1307,102.641 C162.1307,107.984 157.7987,112.316 152.4557,112.316 L152.2057,112.316" id="Stroke-13" stroke="#4F4F51" stroke-width="4" stroke-linecap="round" stroke-linejoin="round"></path>
            <path d="M101.8096,92.97 C96.5786,93.098 92.3766,97.379 92.3766,102.641 C92.3766,107.984 96.7076,112.316 102.0506,112.316 L102.3016,112.316" id="Stroke-15" stroke="#4F4F51" stroke-width="4" stroke-linecap="round" stroke-linejoin="round"></path>
            <path d="M127.9277,81.2991 C122.0847,87.8271 113.3717,90.3731 101.7907,88.9381" id="Stroke-17" stroke="#4F4F51" stroke-width="4" stroke-linecap="round" stroke-linejoin="round"></path>
            <path d="M127.9277,81.2991 C133.7717,87.8271 142.4837,90.3731 154.0647,88.9381" id="Stroke-19" stroke="#4F4F51" stroke-width="4" stroke-linecap="round" stroke-linejoin="round"></path>
            <path d="M143.8467,99.1888 C143.8467,100.3158 142.9327,101.2298 141.8047,101.2298 C140.6767,101.2298 139.7627,100.3158 139.7627,99.1888 C139.7627,98.0608 140.6767,97.1468 141.8047,97.1468 C142.9327,97.1468 143.8467,98.0608 143.8467,99.1888" id="Fill-21" fill="#4F4F51"></path>
            <path d="M115.9668,99.1731 C115.9668,100.3011 115.0528,101.2151 113.9248,101.2151 C112.7968,101.2151 111.8828,100.3011 111.8828,99.1731 C111.8828,98.0461 112.7968,97.1321 113.9248,97.1321 C115.0528,97.1321 115.9668,98.0461 115.9668,99.1731" id="Fill-23" fill="#4F4F51"></path>
            <path d="M118.4307,114.9319 C118.4307,119.8049 122.3807,123.7549 127.2537,123.7549 C132.1257,123.7549 136.0767,119.8049 136.0767,114.9319" id="Stroke-25" stroke="#4F4F51" stroke-width="4" stroke-linecap="round" stroke-linejoin="round"></path>
            <path d="M185.5225,170.6409 L200.3735,170.6409 L254.3585,170.6409 L248.8615,155.6359 C245.9525,147.6969 239.3425,141.6839 231.1645,139.5359 L213.2315,134.8289" id="Stroke-27" stroke="#4F4F51" stroke-width="4" stroke-linecap="round" stroke-linejoin="round"></path>
            <path d="M187.5322,134.8245 L169.5812,139.5365 C166.8452,140.2555 164.2862,141.4055 161.9802,142.9165" id="Stroke-29" stroke="#4F4F51" stroke-width="4" stroke-linecap="round" stroke-linejoin="round"></path>
            <path d="M187.5332,126.4798 L187.5332,134.8298 C189.8222,139.6178 194.7122,142.9248 200.3732,142.9248 C206.0372,142.9248 210.9282,139.6138 213.2162,134.8218 L213.2162,126.4458" id="Stroke-31" stroke="#4F4F51" stroke-width="4" stroke-linecap="round" stroke-linejoin="round"></path>
            <path d="M222.4873,91.9612 C222.7883,93.4302 222.9333,94.8312 222.9333,96.3882 L222.9333,107.9272 C222.9333,120.3872 212.8333,130.4872 200.3733,130.4872 C187.9133,130.4872 177.8123,120.3872 177.8123,107.9272 L177.8123,96.3882 C177.8123,94.8312 177.9693,93.3102 178.2703,91.8422" id="Stroke-33" stroke="#4F4F51" stroke-width="4" stroke-linecap="round" stroke-linejoin="round"></path>
            <path d="M169.4844,103.7493 L169.4844,87.9513 C169.4844,70.8933 183.3134,57.0633 200.3734,57.0633 C217.4314,57.0633 231.2604,70.8933 231.2604,87.9513 L231.2604,103.7493" id="Stroke-35" stroke="#4F4F51" stroke-width="4" stroke-linecap="round" stroke-linejoin="round"></path>
            <path d="M222.9277,95.3587 C227.5517,95.4827 231.2607,99.2697 231.2607,103.9227 C231.2607,108.6557 227.4247,112.4917 222.6937,112.4917 L222.4717,112.4917" id="Stroke-37" stroke="#4F4F51" stroke-width="4" stroke-linecap="round" stroke-linejoin="round"></path>
            <path d="M177.8379,95.3577 C173.2049,95.4707 169.4839,99.2627 169.4839,103.9227 C169.4839,108.6557 173.3199,112.4917 178.0529,112.4917 L178.2749,112.4917" id="Stroke-39" stroke="#4F4F51" stroke-width="4" stroke-linecap="round" stroke-linejoin="round"></path>
            <path d="M200.9697,85.0218 C195.7947,90.8038 188.0787,93.0588 177.8227,91.7878" id="Stroke-41" stroke="#4F4F51" stroke-width="4" stroke-linecap="round" stroke-linejoin="round"></path>
            <path d="M200.9697,85.0218 C206.1457,90.8038 213.8617,93.0588 224.1177,91.7878" id="Stroke-43" stroke="#4F4F51" stroke-width="4" stroke-linecap="round" stroke-linejoin="round"></path>
            <path d="M215.0684,100.8655 C215.0684,101.8635 214.2584,102.6745 213.2594,102.6745 C212.2604,102.6745 211.4514,101.8635 211.4514,100.8655 C211.4514,99.8665 212.2604,99.0565 213.2594,99.0565 C214.2584,99.0565 215.0684,99.8665 215.0684,100.8655" id="Fill-45" fill="#4F4F51"></path>
            <path d="M190.377,100.8518 C190.377,101.8508 189.567,102.6608 188.568,102.6608 C187.569,102.6608 186.76,101.8508 186.76,100.8518 C186.76,99.8538 187.569,99.0438 188.568,99.0438 C189.567,99.0438 190.377,99.8538 190.377,100.8518" id="Fill-47" fill="#4F4F51"></path>
            <path d="M192.5596,114.8089 C192.5596,119.1239 196.0576,122.6219 200.3726,122.6219 C204.6886,122.6219 208.1866,119.1239 208.1866,114.8089" id="Stroke-49" stroke="#4F4F51" stroke-width="4" stroke-linecap="round" stroke-linejoin="round"></path>
            <path d="M68.835,170.6409 L53.985,170.6409 L0,170.6409 L5.496,155.6359 C8.405,147.6969 15.015,141.6839 23.193,139.5359 L41.126,134.8289" id="Stroke-51" stroke="#4F4F51" stroke-width="4" stroke-linecap="round" stroke-linejoin="round"></path>
            <path d="M66.8252,134.8245 L84.7762,139.5365 C87.5122,140.2555 90.0722,141.4055 92.3772,142.9165" id="Stroke-53" stroke="#4F4F51" stroke-width="4" stroke-linecap="round" stroke-linejoin="round"></path>
            <path d="M66.8242,126.4798 L66.8242,134.8298 C64.5352,139.6178 59.6462,142.9248 53.9842,142.9248 C48.3202,142.9248 43.4292,139.6138 41.1412,134.8218 L41.1412,126.4458" id="Stroke-55" stroke="#4F4F51" stroke-width="4" stroke-linecap="round" stroke-linejoin="round"></path>
            <path d="M31.8701,91.9612 C31.5701,93.4302 31.4241,94.8312 31.4241,96.3882 L31.4241,107.9272 C31.4241,120.3872 41.5241,130.4872 53.9841,130.4872 C66.4441,130.4872 76.5461,120.3872 76.5461,107.9272 L76.5461,96.3882 C76.5461,94.8312 76.3881,93.3102 76.0871,91.8422" id="Stroke-57" stroke="#4F4F51" stroke-width="4" stroke-linecap="round" stroke-linejoin="round"></path>
            <path d="M84.8731,103.7493 L84.8731,87.9513 C84.8731,70.8933 71.0441,57.0633 53.9841,57.0633 C36.9261,57.0633 23.0971,70.8933 23.0971,87.9513 L23.0971,103.7493" id="Stroke-59" stroke="#4F4F51" stroke-width="4" stroke-linecap="round" stroke-linejoin="round"></path>
            <path d="M31.4297,95.3587 C26.8067,95.4827 23.0967,99.2697 23.0967,103.9227 C23.0967,108.6557 26.9327,112.4917 31.6637,112.4917 L31.8857,112.4917" id="Stroke-61" stroke="#4F4F51" stroke-width="4" stroke-linecap="round" stroke-linejoin="round"></path>
            <path d="M76.5195,95.3577 C81.1525,95.4707 84.8735,99.2627 84.8735,103.9227 C84.8735,108.6557 81.0375,112.4917 76.3045,112.4917 L76.0825,112.4917" id="Stroke-63" stroke="#4F4F51" stroke-width="4" stroke-linecap="round" stroke-linejoin="round"></path>
            <path d="M53.3877,85.0218 C58.5627,90.8038 66.2787,93.0588 76.5347,91.7878" id="Stroke-65" stroke="#4F4F51" stroke-width="4" stroke-linecap="round" stroke-linejoin="round"></path>
            <path d="M53.3877,85.0218 C48.2127,90.8038 40.4957,93.0588 30.2397,91.7878" id="Stroke-67" stroke="#4F4F51" stroke-width="4" stroke-linecap="round" stroke-linejoin="round"></path>
            <path d="M39.2891,100.8655 C39.2891,101.8635 40.0991,102.6745 41.0981,102.6745 C42.0971,102.6745 42.9061,101.8635 42.9061,100.8655 C42.9061,99.8665 42.0971,99.0565 41.0981,99.0565 C40.0991,99.0565 39.2891,99.8665 39.2891,100.8655" id="Fill-69" fill="#4F4F51"></path>
            <path d="M63.9815,100.8518 C63.9815,101.8508 64.7915,102.6608 65.7895,102.6608 C66.7885,102.6608 67.5975,101.8508 67.5975,100.8518 C67.5975,99.8538 66.7885,99.0438 65.7895,99.0438 C64.7915,99.0438 63.9815,99.8538 63.9815,100.8518" id="Fill-71" fill="#4F4F51"></path>
            <path d="M61.7979,114.8089 C61.7979,119.1239 58.2999,122.6219 53.9849,122.6219 C49.6699,122.6219 46.1709,119.1239 46.1709,114.8089" id="Stroke-73" stroke="#4F4F51" stroke-width="4" stroke-linecap="round" stroke-linejoin="round"></path>
            <path d="M178.2744,53.7659 C178.2104,53.6129 178.1444,53.4589 178.0794,53.3069" id="Stroke-75" stroke="#4F4F51" stroke-width="4" stroke-linecap="round" stroke-linejoin="round"></path>
            <path d="M174.2774,46.5325 C165.2144,33.5765 147.8714,24.8125 127.9544,24.8125 C106.4864,24.8125 88.0104,34.9935 79.6694,49.6305" id="Stroke-77" stroke="#4F4F51" stroke-width="4" stroke-linecap="round" stroke-linejoin="round" stroke-dasharray="0.972,7.779"></path>
            <path d="M77.917,53.1067 C77.85,53.2587 77.783,53.4117 77.719,53.5647" id="Stroke-79" stroke="#4F4F51" stroke-width="4" stroke-linecap="round" stroke-linejoin="round"></path>
        </g>
    </g>
</svg>