<?xml version="1.0" encoding="UTF-8"?>
<svg width="300px" height="250px" viewBox="0 0 300 250" version="1.1" xmlns="http://www.w3.org/2000/svg" xmlns:xlink="http://www.w3.org/1999/xlink">
    <title>Illustrations / Idée</title>
    <g id="Illustrations-/-Idée" stroke="none" stroke-width="1" fill="none" fill-rule="evenodd" stroke-linecap="round" stroke-linejoin="round">
        <g id="Group-51" transform="translate(51.000000, 27.000000)" stroke="#E65025" stroke-width="3">
            <path d="M151.2207,97.8105 C151.2207,119.0485 138.8767,137.3935 120.9747,146.0585 L120.9747,160.8385 C120.9747,168.8825 116.6577,175.9125 110.1997,179.7225 L110.1997,184.0875 C110.1997,187.1285 107.7147,189.5975 104.6737,189.5975 L90.6287,189.5975 C87.5727,189.5975 85.1037,187.1285 85.1037,184.0875 L85.1037,179.7385 C78.6607,175.9125 74.3287,168.8825 74.3287,160.8385 L74.3287,146.0585 C56.4257,137.3935 44.0817,119.0485 44.0817,97.8105 C44.0817,68.2175 68.0667,44.2325 97.6437,44.2325 C127.2367,44.2325 151.2207,68.2175 151.2207,97.8105 Z" id="Stroke-1"></path>
            <line x1="82.1924" y1="154.226" x2="113.7084" y2="154.226" id="Stroke-3"></line>
            <line x1="83.9805" y1="162.4135" x2="111.9185" y2="162.4135" id="Stroke-5"></line>
            <line x1="85.7695" y1="170.602" x2="110.1305" y2="170.602" id="Stroke-7"></line>
            <line x1="81.6836" y1="137.9682" x2="81.6836" y2="102.9692" id="Stroke-9"></line>
            <line x1="113.8984" y1="102.9692" x2="113.8984" y2="137.9682" id="Stroke-11"></line>
            <path d="M81.6836,102.7622 C84.3676,102.7622 84.3676,108.7622 87.0496,108.7622 C89.7346,108.7622 89.7346,102.7622 92.4176,102.7622 C95.1006,102.7622 95.1006,108.7622 97.7826,108.7622 C100.4676,108.7622 100.4676,102.7622 103.1526,102.7622 C105.8386,102.7622 105.8386,108.7622 108.5256,108.7622 C111.2116,108.7622 111.2116,102.7622 113.8986,102.7622" id="Stroke-13"></path>
            <line x1="74.3291" y1="146.0581" x2="120.9751" y2="146.0581" id="Stroke-15"></line>
            <path d="M-6.66133815e-15,96.0908 C2.789,96.0908 2.789,100.0908 5.579,100.0908 C8.369,100.0908 8.369,96.0908 11.159,96.0908 C13.947,96.0908 13.947,100.0908 16.736,100.0908 C19.527,100.0908 19.527,96.0908 22.318,96.0908 C25.111,96.0908 25.111,100.0908 27.904,100.0908 C30.697,100.0908 30.697,96.0908 33.49,96.0908" id="Stroke-17"></path>
            <path d="M8.3818,58.6738 C10.9598,59.7388 9.4328,63.4358 12.0108,64.5008 C14.5898,65.5658 16.1168,61.8688 18.6948,62.9338 C21.2738,63.9978 19.7458,67.6948 22.3228,68.7598 C24.9028,69.8248 26.4308,66.1278 29.0098,67.1938 C31.5918,68.2598 30.0648,71.9568 32.6458,73.0228 C35.2278,74.0888 36.7538,70.3918 39.3358,71.4578" id="Stroke-19"></path>
            <path d="M30.4121,27.2895 C32.3891,29.2585 29.5651,32.0925 31.5421,34.0605 C33.5181,36.0285 36.3411,33.1945 38.3161,35.1625 C40.2931,37.1295 37.4711,39.9645 39.4461,41.9325 C41.4231,43.9005 44.2461,41.0665 46.2231,43.0355 C48.2021,45.0065 45.3801,47.8415 47.3591,49.8125 C49.3401,51.7845 52.1621,48.9505 54.1411,50.9225" id="Stroke-21"></path>
            <path d="M62.7539,6.6919 C63.8299,9.2659 60.1389,10.8079 61.2149,13.3819 C62.2899,15.9559 65.9809,14.4139 67.0569,16.9879 C68.1319,19.5619 64.4409,21.1039 65.5159,23.6769 C66.5919,26.2519 70.2829,24.7099 71.3579,27.2849 C72.4359,29.8619 68.7449,31.4039 69.8209,33.9819 C70.8989,36.5589 74.5889,35.0159 75.6659,37.5929" id="Stroke-23"></path>
            <path d="M100.5107,0 C100.5217,2.79 96.5217,2.806 96.5326774,5.596 C96.5447,8.386 100.5447,8.369 100.5567,11.159 C100.5677,13.948 96.5677,13.964 96.5787,16.753 C96.5907,19.544 100.5907,19.527 100.6027,22.318 C100.6137,25.111 96.6137,25.128 96.6247,27.921 C96.6367,30.714 100.6367,30.697 100.6487,33.49" id="Stroke-25"></path>
            <path d="M137.9619,8.228 C136.9069,10.811 133.2039,9.299 132.1499,11.881 C131.0959,14.464 134.7989,15.976 133.7439,18.559 C132.6909,21.141 128.9869,19.629 127.9339,22.211 C126.8789,24.795 130.5819,26.307 129.5269,28.891 C128.4719,31.477 124.7689,29.965 123.7129,32.551 C122.6569,35.137 126.3599,36.648 125.3049,39.234" id="Stroke-27"></path>
            <path d="M169.4365,30.1289 C167.4755,32.1129 164.6295,29.3019 162.6695,31.2869 C160.7095,33.2709 163.5565,36.0819 161.5965,38.0659 C159.6365,40.0499 156.7905,37.2389 154.8315,39.2239 C152.8705,41.2079 155.7165,44.0189 153.7555,46.0039 C151.7915,47.9919 148.9465,45.1809 146.9835,47.1689 C145.0195,49.1569 147.8655,51.9679 145.9015,53.9559" id="Stroke-29"></path>
            <path d="M190.167,62.3862 C187.598,63.4722 186.04,59.7872 183.471,60.8732 C180.901,61.9602 182.458,65.6442 179.889,66.7302 C177.319,67.8162 175.763,64.1322 173.193,65.2182 C170.623,66.3042 172.181,69.9892 169.609,71.0752 C167.037,72.1622 165.48,68.4782 162.907,69.5652 C160.334,70.6532 161.892,74.3372 159.319,75.4252" id="Stroke-31"></path>
            <path d="M197.0146,100.1137 C194.2246,100.1367 194.1926,96.1367 191.4026,96.1597 C188.6126,96.1827 188.6456,100.1827 185.8556,100.2057 C183.0676,100.2287 183.0346,96.2287 180.2446,96.2517 C177.4536,96.2747 177.4876,100.2747 174.6966,100.2987 C171.9036,100.3207 171.8706,96.3217 169.0776,96.3437 C166.2856,96.3667 166.3186,100.3667 163.5256,100.3897" id="Stroke-33"></path>
            <path d="M188.9404,137.5991 C186.3544,136.5551 187.8504,132.8461 185.2634,131.8021 C182.6754,130.7581 181.1794,134.4681 178.5914,133.4241 C176.0054,132.3811 177.5024,128.6711 174.9164,127.6281 C172.3284,126.5841 170.8314,130.2931 168.2434,129.2491 C165.6534,128.2041 167.1494,124.4951 164.5594,123.4511 C161.9684,122.4061 160.4724,126.1151 157.8824,125.0701" id="Stroke-35"></path>
            <path d="M167.1699,169.1636 C165.1769,167.2116 167.9769,164.3536 165.9829,162.4016 C163.9909,160.4506 161.1919,163.3086 159.1999,161.3566 C157.2079,159.4046 160.0079,156.5476 158.0149,154.5966 C156.0229,152.6436 153.2229,155.5016 151.2309,153.5486 C149.2339,151.5936 152.0329,148.7356 150.0369,146.7806 C148.0409,144.8256 145.2419,147.6836 143.2459,145.7266" id="Stroke-37"></path>
            <path d="M28.127,167.4702 C30.07,165.4692 32.939,168.2562 34.884,166.2562 C36.826,164.2552 33.958,161.4682 35.901,159.4682 C37.845,157.4682 40.713,160.2552 42.657,158.2552 C44.601,156.2542 41.731,153.4672 43.676,151.4662 C45.623,149.4622 48.492,152.2492 50.439,150.2452 C52.386,148.2402 49.518,145.4532 51.464,143.4492" id="Stroke-39"></path>
            <path d="M7.1309,135.3842 C9.6919,134.2772 11.2789,137.9482 13.8389,136.8412 C16.4009,135.7342 14.8129,132.0632 17.3739,130.9552 C19.9339,129.8482 21.5209,133.5202 24.0799,132.4122 C26.6429,131.3052 25.0549,127.6342 27.6159,126.5262 C30.1799,125.4172 31.7679,129.0892 34.3309,127.9802 C36.8949,126.8712 35.3069,123.2002 37.8699,122.0922" id="Stroke-41"></path>
            <path d="M105.2539,189.5971 C105.2539,193.5351 102.0629,196.7261 98.1249,196.7261 C94.1879,196.7261 90.9959,193.5351 90.9959,189.5971" id="Stroke-43"></path>
            <line x1="97.6514" y1="74.2505" x2="97.6514" y2="88.9115" id="Stroke-45"></line>
            <line x1="111.1875" y1="77.3764" x2="105.6465" y2="90.9504" id="Stroke-47"></line>
            <line x1="84.3662" y1="77.3764" x2="89.9072" y2="90.9504" id="Stroke-49"></line>
        </g>
    </g>
</svg>