<?xml version="1.0" encoding="UTF-8"?>
<svg width="300px" height="250px" viewBox="0 0 300 250" version="1.1" xmlns="http://www.w3.org/2000/svg" xmlns:xlink="http://www.w3.org/1999/xlink">
    <title>Illustrations / Idée 2</title>
    <g id="Illustrations-/-Idée-2" stroke="none" stroke-width="1" fill="none" fill-rule="evenodd">
        <path d="M156.499,215.791 C156.499,219.773 153.27,223.002 149.288,223.002 C145.306,223.002 142.077,219.773 142.077,215.791 C142.077,211.809 145.306,208.58 149.288,208.58 C153.27,208.58 156.499,211.809 156.499,215.791" id="Fill-1" class="-fillPrimary"  fill-opacity="0.5" fill="#E65025"></path>
        <path d="M105.7734,128.6944 C105.7734,104.9364 125.0334,85.6764 148.7914,85.6764 C172.5484,85.6764 191.8084,104.9364 191.8084,128.6944 C191.8084,152.4534 172.5484,171.7124 148.7914,171.7124 C125.0334,171.7124 105.7734,152.4534 105.7734,128.6944" id="Fill-3" class="-fillPrimary" fill-opacity="0.5" fill="#E65025"></path>
        <path d="M202.2207,123.8106 C202.2207,145.0486 189.8767,163.3926 171.9747,172.0586 L171.9747,186.8376 C171.9747,194.8826 167.6577,201.9136 161.1997,205.7226 L161.1997,210.0876 C161.1997,213.1286 158.7147,215.5976 155.6737,215.5976 L141.6287,215.5976 C138.5727,215.5976 136.1037,213.1286 136.1037,210.0876 L136.1037,205.7386 C129.6607,201.9136 125.3287,194.8826 125.3287,186.8376 L125.3287,172.0586 C107.4257,163.3926 95.0817,145.0486 95.0817,123.8106 C95.0817,94.2176 119.0667,70.2326 148.6437,70.2326 C178.2367,70.2326 202.2207,94.2176 202.2207,123.8106 Z" id="Stroke-5" stroke="#4F4F51" stroke-width="4" stroke-linecap="round" stroke-linejoin="round"></path>
        <line x1="133.1924" y1="180.2256" x2="164.7084" y2="180.2256" id="Stroke-7" stroke="#4F4F51" stroke-width="4" stroke-linecap="round" stroke-linejoin="round"></line>
        <line x1="134.9805" y1="188.4141" x2="162.9185" y2="188.4141" id="Stroke-9" stroke="#4F4F51" stroke-width="4" stroke-linecap="round" stroke-linejoin="round"></line>
        <line x1="136.7695" y1="196.6016" x2="161.1305" y2="196.6016" id="Stroke-11" stroke="#4F4F51" stroke-width="4" stroke-linecap="round" stroke-linejoin="round"></line>
        <line x1="132.6836" y1="163.9688" x2="132.6836" y2="128.9688" id="Stroke-13" stroke="#4F4F51" stroke-width="4" stroke-linecap="round" stroke-linejoin="round"></line>
        <line x1="164.8984" y1="128.9688" x2="164.8984" y2="163.9688" id="Stroke-15" stroke="#4F4F51" stroke-width="4" stroke-linecap="round" stroke-linejoin="round"></line>
        <path d="M132.6836,128.7618 C135.3676,128.7618 135.3676,134.7618 138.0496,134.7618 C140.7346,134.7618 140.7346,128.7618 143.4176,128.7618 C146.1006,128.7618 146.1006,134.7618 148.7826,134.7618 C151.4676,134.7618 151.4676,128.7618 154.1526,128.7618 C156.8386,128.7618 156.8386,134.7618 159.5256,134.7618 C162.2116,134.7618 162.2116,128.7618 164.8986,128.7618" id="Stroke-17" stroke="#4F4F51" stroke-width="4" stroke-linecap="round" stroke-linejoin="round"></path>
        <line x1="125.3291" y1="172.0586" x2="171.9751" y2="172.0586" id="Stroke-19" stroke="#4F4F51" stroke-width="4" stroke-linecap="round" stroke-linejoin="round"></line>
        <path d="M51,122.0909 C53.789,122.0909 53.789,126.0909 56.579,126.0909 C59.369,126.0909 59.369,122.0909 62.159,122.0909 C64.947,122.0909 64.947,126.0909 67.736,126.0909 C70.527,126.0909 70.527,122.0909 73.318,122.0909 C76.111,122.0909 76.111,126.0909 78.904,126.0909 C81.697,126.0909 81.697,122.0909 84.49,122.0909" id="Stroke-21" stroke="#4F4F51" stroke-width="4" stroke-linecap="round" stroke-linejoin="round"></path>
        <path d="M59.3818,84.6739 C61.9598,85.7379 60.4328,89.4359 63.0108,90.4999 C65.5898,91.5659 67.1168,87.8679 69.6948,88.9339 C72.2738,89.9979 70.7458,93.6949 73.3228,94.7599 C75.9028,95.8249 77.4308,92.1279 80.0098,93.1939 C82.5918,94.2599 81.0648,97.9569 83.6458,99.0229 C86.2278,100.0889 87.7538,96.3919 90.3358,97.4579" id="Stroke-23" stroke="#4F4F51" stroke-width="4" stroke-linecap="round" stroke-linejoin="round"></path>
        <path d="M81.4121,53.2901 C83.3891,55.2581 80.5651,58.0921 82.5421,60.0611 C84.5181,62.0281 87.3411,59.1941 89.3161,61.1621 C91.2931,63.1301 88.4711,65.9641 90.4461,67.9331 C92.4231,69.9001 95.2461,67.0661 97.2231,69.0351 C99.2021,71.0071 96.3801,73.8411 98.3591,75.8121 C100.3401,77.7841 103.1621,74.9501 105.1411,76.9221" id="Stroke-25" stroke="#4F4F51" stroke-width="4" stroke-linecap="round" stroke-linejoin="round"></path>
        <path d="M113.7539,32.6924 C114.8299,35.2654 111.1389,36.8074 112.2149,39.3814 C113.2899,41.9564 116.9809,40.4144 118.0569,42.9884 C119.1319,45.5614 115.4409,47.1034 116.5159,49.6764 C117.5919,52.2524 121.2829,50.7104 122.3579,53.2854 C123.4359,55.8624 119.7449,57.4044 120.8209,59.9814 C121.8989,62.5584 125.5889,61.0154 126.6659,63.5924" id="Stroke-27" stroke="#4F4F51" stroke-width="4" stroke-linecap="round" stroke-linejoin="round"></path>
        <path d="M151.5107,26 C151.5217,28.789 147.5217,28.806 147.532677,31.596 C147.5447,34.386 151.5447,34.369 151.5567,37.159 C151.5677,39.947 147.5677,39.964 147.5787,42.753 C147.5907,45.544 151.5907,45.527 151.6027,48.318 C151.6137,51.111 147.6137,51.128 147.6247,53.921 C147.6367,56.714 151.6367,56.697 151.6487,59.49" id="Stroke-29" stroke="#4F4F51" stroke-width="4" stroke-linecap="round" stroke-linejoin="round"></path>
        <path d="M188.9619,34.2276 C187.9069,36.8106 184.2039,35.2986 183.1499,37.8806 C182.0959,40.4636 185.7989,41.9756 184.7439,44.5596 C183.6909,47.1406 179.9869,45.6286 178.9339,48.2106 C177.8789,50.7946 181.5819,52.3066 180.5269,54.8906 C179.4719,57.4766 175.7689,55.9646 174.7129,58.5506 C173.6569,61.1366 177.3599,62.6486 176.3049,65.2346" id="Stroke-31" stroke="#4F4F51" stroke-width="4" stroke-linecap="round" stroke-linejoin="round"></path>
        <path d="M220.4365,56.1289 C218.4755,58.1129 215.6295,55.3029 213.6695,57.2869 C211.7095,59.2709 214.5565,62.0819 212.5965,64.0659 C210.6365,66.0499 207.7905,63.2389 205.8315,65.2239 C203.8705,67.2079 206.7165,70.0189 204.7555,72.0039 C202.7915,73.9919 199.9465,71.1809 197.9835,73.1689 C196.0195,75.1569 198.8655,77.9679 196.9015,79.9559" id="Stroke-33" stroke="#4F4F51" stroke-width="4" stroke-linecap="round" stroke-linejoin="round"></path>
        <path d="M241.167,88.3858 C238.598,89.4718 237.04,85.7868 234.471,86.8728 C231.901,87.9598 233.458,91.6448 230.889,92.7308 C228.319,93.8168 226.763,90.1318 224.193,91.2178 C221.623,92.3038 223.181,95.9888 220.609,97.0748 C218.037,98.1618 216.48,94.4788 213.907,95.5658 C211.334,96.6538 212.892,100.3368 210.319,101.4248" id="Stroke-35" stroke="#4F4F51" stroke-width="4" stroke-linecap="round" stroke-linejoin="round"></path>
        <path d="M248.0146,126.1143 C245.2246,126.1363 245.1926,122.1363 242.4026,122.1603 C239.6126,122.1823 239.6456,126.1823 236.8556,126.2063 C234.0676,126.2283 234.0346,122.2283 231.2446,122.2523 C228.4536,122.2753 228.4876,126.2743 225.6966,126.2983 C222.9036,126.3213 222.8706,122.3213 220.0776,122.3433 C217.2856,122.3673 217.3186,126.3673 214.5256,126.3893" id="Stroke-37" stroke="#4F4F51" stroke-width="4" stroke-linecap="round" stroke-linejoin="round"></path>
        <path d="M239.9404,163.5987 C237.3544,162.5557 238.8504,158.8457 236.2634,157.8027 C233.6754,156.7587 232.1794,160.4677 229.5914,159.4237 C227.0054,158.3807 228.5024,154.6717 225.9164,153.6277 C223.3284,152.5837 221.8314,156.2937 219.2434,155.2487 C216.6534,154.2037 218.1494,150.4947 215.5594,149.4507 C212.9684,148.4057 211.4724,152.1157 208.8824,151.0707" id="Stroke-39" stroke="#4F4F51" stroke-width="4" stroke-linecap="round" stroke-linejoin="round"></path>
        <path d="M218.1699,195.1631 C216.1769,193.2111 218.9769,190.3531 216.9829,188.4021 C214.9909,186.4501 212.1919,189.3081 210.1999,187.3561 C208.2079,185.4041 211.0079,182.5471 209.0149,180.5961 C207.0229,178.6431 204.2229,181.5011 202.2309,179.5491 C200.2339,177.5941 203.0329,174.7361 201.0369,172.7801 C199.0409,170.8251 196.2419,173.6831 194.2459,171.7271" id="Stroke-41" stroke="#4F4F51" stroke-width="4" stroke-linecap="round" stroke-linejoin="round"></path>
        <path d="M79.127,193.4698 C81.07,191.4688 83.939,194.2558 85.884,192.2558 C87.826,190.2558 84.958,187.4688 86.901,185.4678 C88.845,183.4678 91.713,186.2548 93.657,184.2548 C95.601,182.2538 92.731,179.4668 94.676,177.4658 C96.623,175.4618 99.492,178.2488 101.439,176.2448 C103.386,174.2408 100.518,171.4538 102.464,169.4488" id="Stroke-43" stroke="#4F4F51" stroke-width="4" stroke-linecap="round" stroke-linejoin="round"></path>
        <path d="M58.1309,161.3838 C60.6919,160.2778 62.2789,163.9478 64.8389,162.8418 C67.4009,161.7348 65.8129,158.0628 68.3739,156.9548 C70.9339,155.8488 72.5209,159.5198 75.0799,158.4128 C77.6429,157.3048 76.0549,153.6338 78.6159,152.5268 C81.1799,151.4168 82.7679,155.0888 85.3309,153.9808 C87.8949,152.8718 86.3069,149.1998 88.8699,148.0918" id="Stroke-45" stroke="#4F4F51" stroke-width="4" stroke-linecap="round" stroke-linejoin="round"></path>
        <path d="M156.2539,215.5977 C156.2539,219.5347 153.0629,222.7267 149.1249,222.7267 C145.1879,222.7267 141.9959,219.5347 141.9959,215.5977" id="Stroke-47" stroke="#4F4F51" stroke-width="4" stroke-linecap="round" stroke-linejoin="round"></path>
        <path d="M156.2539,215.5977 C156.2539,219.5347 153.0629,222.7267 149.1249,222.7267" id="Stroke-49" stroke="#4F4F51" stroke-width="4" stroke-linecap="round" stroke-linejoin="round"></path>
        <line x1="148.6514" y1="100.25" x2="148.6514" y2="114.912" id="Stroke-51" stroke="#4F4F51" stroke-width="4" stroke-linecap="round" stroke-linejoin="round"></line>
        <line x1="162.1875" y1="103.376" x2="156.6465" y2="116.95" id="Stroke-53" stroke="#4F4F51" stroke-width="4" stroke-linecap="round" stroke-linejoin="round"></line>
        <line x1="135.3662" y1="103.376" x2="140.9072" y2="116.95" id="Stroke-55" stroke="#4F4F51" stroke-width="4" stroke-linecap="round" stroke-linejoin="round"></line>
    </g>
</svg>
