<?xml version="1.0" encoding="UTF-8"?>
<svg width="300px" height="250px" viewBox="0 0 300 250" version="1.1" xmlns="http://www.w3.org/2000/svg" xmlns:xlink="http://www.w3.org/1999/xlink">
    <title>Illustrations / Présentation 2</title>
    <g id="Illustrations-/-Présentation-2" stroke="none" stroke-width="1" fill="none" fill-rule="evenodd">
        <g id="Group-71" transform="translate(28.000000, 12.000000)">
            <path d="M118.306,27.5766 L134.662,11.2206 C136.133,9.7506 138.517,9.7506 139.988,11.2206 L158.437,29.6706 C159.908,31.1406 162.291,31.1406 163.762,29.6706 L173.251,20.1816 C174.721,18.7116 177.106,18.7116 178.577,20.1816 L203.429,45.0356 L203.429,50.2406 C203.429,52.6956 201.44,54.6846 198.986,54.6846 L122.75,54.6846 C120.296,54.6846 118.306,52.6956 118.306,50.2406 L118.306,27.5766 Z" id="Fill-1" class="-fillPrimary" fill-opacity="0.5" fill="#E65025"></path>
            <path d="M231.8626,72.3413 L172.5916,72.3413 C165.9926,72.3413 160.5916,77.7413 160.5916,84.3413 L160.5916,101.8803 L148.2526,114.2203 L160.5916,126.5603 L160.5916,139.5453 C160.5916,146.1463 165.9926,151.5453 172.5916,151.5453 L231.8626,151.5453 C238.4636,151.5453 243.8626,146.1463 243.8626,139.5453 L243.8626,84.3413 C243.8626,77.7413 238.4636,72.3413 231.8626,72.3413" id="Fill-3" class="-fillPrimary" fill-opacity="0.5" fill="#E65025"></path>
            <path d="M138.681,54.6841 L138.681,194.0471 C138.681,196.6011 136.627,198.6841 134.074,198.7301 C134.025,198.7301 133.998,198.7311 133.998,198.7311 C130.12,198.7311 126.974,204.8771 126.974,212.4691 C126.974,220.0511 130.12,226.2071 133.998,226.2071 C136.584,226.2071 138.681,224.1111 138.681,221.5241 L138.681,194.8611" id="Stroke-5" stroke="#4F4F51" stroke-width="4" stroke-linecap="round" stroke-linejoin="round"></path>
            <path d="M7.0247,198.7309 C3.1467,198.7309 0.0007,204.8769 0.0007,212.4689 L0.0007,30.6429 C0.0007,23.0599 3.1467,16.9049 7.0247,16.9049 L8.0567,16.9049 C8.9987,16.9049 9.8467,17.4699 10.2097,18.3389 C10.7697,19.6839 12.0947,20.6269 13.6377,20.6269 C15.1867,20.6269 16.5137,19.6829 17.0747,18.3379 C17.4367,17.4689 18.2867,16.9049 19.2277,16.9049 L118.0647,16.9049" id="Stroke-7" stroke="#4F4F51" stroke-width="4" stroke-linecap="round" stroke-linejoin="round"></path>
            <line x1="13.2747" y1="30.9087" x2="13.2747" y2="187.6267" id="Stroke-9" stroke="#4F4F51" stroke-width="4" stroke-linecap="round" stroke-linejoin="round"></line>
            <path d="M126.974,212.4692 C126.974,204.8772 130.12,198.7312 133.998,198.7312 L19.228,198.7312 C18.286,198.7312 17.437,199.2952 17.075,200.1642 C16.514,201.5092 15.187,202.4532 13.638,202.4532 C12.095,202.4532 10.77,201.5102 10.209,200.1652 C9.847,199.2962 8.998,198.7312 8.057,198.7312 L7.025,198.7312 C3.147,198.7312 0,204.8772 0,212.4692 C0,220.0512 3.147,226.2072 7.025,226.2072 L9.142,226.2072 C9.921,226.2072 10.682,225.8022 11.011,225.0952 C11.486,224.0732 12.516,223.3652 13.719,223.3652 C14.921,223.3652 15.952,224.0732 16.427,225.0952 C16.755,225.8022 17.516,226.2072 18.295,226.2072 L133.998,226.2072 C130.12,226.2072 126.974,220.0512 126.974,212.4692 Z" id="Stroke-11" stroke="#4F4F51" stroke-width="4" stroke-linecap="round" stroke-linejoin="round"></path>
            <line x1="127.6634" y1="205.6831" x2="20.9064" y2="205.5611" id="Stroke-13" stroke="#4F4F51" stroke-width="4" stroke-linecap="round" stroke-linejoin="round"></line>
            <line x1="128.0228" y1="219.352" x2="20.9068" y2="219.352" id="Stroke-15" stroke="#4F4F51" stroke-width="4" stroke-linecap="round" stroke-linejoin="round"></line>
            <line x1="126.974" y1="212.4692" x2="18.519" y2="212.4872" id="Stroke-17" stroke="#4F4F51" stroke-width="4" stroke-linecap="round" stroke-linejoin="round"></line>
            <line x1="61.7318" y1="34.0806" x2="87.4978" y2="34.0806" id="Stroke-19" stroke="#4F4F51" stroke-width="4" stroke-linecap="round" stroke-linejoin="round"></line>
            <line x1="55.0374" y1="40.7153" x2="94.1914" y2="40.7153" id="Stroke-21" stroke="#4F4F51" stroke-width="4" stroke-linecap="round" stroke-linejoin="round"></line>
            <line x1="61.7318" y1="179.438" x2="87.4978" y2="179.438" id="Stroke-23" stroke="#4F4F51" stroke-width="4" stroke-linecap="round" stroke-linejoin="round"></line>
            <path d="M199.4827,54.685 L122.1077,54.685 C119.8747,54.685 118.0637,52.874 118.0637,50.641 L118.0637,4.043 C118.0637,1.81 119.8747,0 122.1077,0 L199.4827,0 C201.7157,0 203.5267,1.81 203.5267,4.043 L203.5267,50.641 C203.5267,52.874 201.7157,54.685 199.4827,54.685 Z" id="Stroke-25" stroke="#4F4F51" stroke-width="4" stroke-linecap="round" stroke-linejoin="round"></path>
            <path d="M203.429,45.0356 L178.576,20.1816 C177.106,18.7116 174.721,18.7116 173.251,20.1816 L163.762,29.6706 C162.291,31.1406 159.908,31.1406 158.437,29.6706 L139.988,11.2206 C138.517,9.7506 136.133,9.7506 134.662,11.2206 L118.306,27.5766" id="Stroke-27" stroke="#4F4F51" stroke-width="4" stroke-linecap="round" stroke-linejoin="round"></path>
            <path d="M182.387,12.9419 C182.387,9.6449 185.06,6.9719 188.357,6.9719 C191.654,6.9719 194.326,9.6449 194.326,12.9419 C194.326,16.2389 191.654,18.9119 188.357,18.9119 C185.06,18.9119 182.387,16.2389 182.387,12.9419 Z" id="Stroke-29" stroke="#4F4F51" stroke-width="4" stroke-linecap="round" stroke-linejoin="round"></path>
            <line x1="196.2533" y1="86.6411" x2="229.7933" y2="86.6411" id="Stroke-31" stroke="#4F4F51" stroke-width="4" stroke-linecap="round" stroke-linejoin="round"></line>
            <line x1="196.2533" y1="95.0659" x2="229.7933" y2="95.0659" id="Stroke-33" stroke="#4F4F51" stroke-width="4" stroke-linecap="round" stroke-linejoin="round"></line>
            <line x1="196.2533" y1="103.4917" x2="229.7933" y2="103.4917" id="Stroke-35" stroke="#4F4F51" stroke-width="4" stroke-linecap="round" stroke-linejoin="round"></line>
            <line x1="173.6165" y1="111.9165" x2="229.7935" y2="111.9165" id="Stroke-37" stroke="#4F4F51" stroke-width="4" stroke-linecap="round" stroke-linejoin="round"></line>
            <line x1="173.6165" y1="120.3413" x2="229.7935" y2="120.3413" id="Stroke-39" stroke="#4F4F51" stroke-width="4" stroke-linecap="round" stroke-linejoin="round"></line>
            <line x1="173.6165" y1="128.7671" x2="229.7935" y2="128.7671" id="Stroke-41" stroke="#4F4F51" stroke-width="4" stroke-linecap="round" stroke-linejoin="round"></line>
            <line x1="173.6165" y1="137.1919" x2="229.7935" y2="137.1919" id="Stroke-43" stroke="#4F4F51" stroke-width="4" stroke-linecap="round" stroke-linejoin="round"></line>
            <path d="M39.6185,110.4136 L44.7385,110.4136 C45.1495,110.4136 45.7735,110.2976 46.4085,109.7476 C46.8205,109.3926 47.1555,108.9346 47.4055,108.3856 C47.6485,107.8446 47.7715,107.2696 47.7715,106.6776 C47.7715,106.0836 47.6485,105.5096 47.4045,104.9666 C47.1545,104.4146 46.8155,103.9576 46.3955,103.6046 C45.7615,103.0736 45.1435,102.9626 44.7385,102.9626 L39.6185,102.9626 L39.6185,115.7336" id="Stroke-45" stroke="#4F4F51" stroke-width="3" stroke-linecap="round" stroke-linejoin="round"></path>
            <line x1="52.6527" y1="106.7974" x2="52.6527" y2="115.7344" id="Stroke-47" stroke="#4F4F51" stroke-width="3" stroke-linecap="round" stroke-linejoin="round"></line>
            <path d="M52.6527,111.352 C52.6527,109.175 54.4237,106.133 57.5347,106.465" id="Stroke-49" stroke="#4F4F51" stroke-width="3" stroke-linecap="round" stroke-linejoin="round"></path>
            <path d="M70.5159,111.1694 C70.5159,113.8804 68.3919,116.0774 65.7709,116.0774 C63.1499,116.0774 61.0259,113.8804 61.0259,111.1694 C61.0259,108.4594 63.1499,106.2624 65.7709,106.2624 C68.3919,106.2624 70.5159,108.4594 70.5159,111.1694 Z" id="Stroke-51" stroke="#4F4F51" stroke-width="3" stroke-linecap="round" stroke-linejoin="round"></path>
            <path d="M75.4954,106.7974 L75.4954,117.6064 C75.4954,119.0944 74.5054,120.0944 73.3084,120.0944" id="Stroke-53" stroke="#4F4F51" stroke-width="3" stroke-linecap="round" stroke-linejoin="round"></path>
            <path d="M88.7152,115.1216 C87.8992,116.2286 86.2642,116.2256 84.8802,116.2256 C82.4212,116.2256 80.4272,113.9956 80.4272,111.2436 C80.4272,108.4926 82.4212,106.2626 84.8802,106.2626 C87.3392,106.2626 89.3332,108.3246 89.3332,111.0766 L80.4272,111.0766" id="Stroke-55" stroke="#4F4F51" stroke-width="3" stroke-linecap="round" stroke-linejoin="round"></path>
            <path d="M95.1644,104.0415 L95.1644,114.3485 C95.1644,115.9295 96.7874,116.5015 98.2104,115.7335" id="Stroke-57" stroke="#4F4F51" stroke-width="3" stroke-linecap="round" stroke-linejoin="round"></path>
            <path d="M92.6908,106.7974 L97.8898,106.7974 L92.6908,106.7974 Z" id="Stroke-59" stroke="#4F4F51" stroke-width="3" stroke-linecap="round" stroke-linejoin="round"></path>
            <path d="M108.3919,103.3462 C109.1979,102.6442 110.0669,102.2542 111.2949,102.2022 C113.9129,102.0922 115.7459,103.5972 115.7459,106.0862 C115.7459,108.4912 113.6609,109.9702 111.2029,109.9702 L111.2029,111.9792" id="Stroke-61" stroke="#4F4F51" stroke-width="3" stroke-linecap="round" stroke-linejoin="round"></path>
            <line x1="75.4954" y1="101.5806" x2="75.4954" y2="101.4846" id="Stroke-63" stroke="#4F4F51" stroke-width="3" stroke-linecap="round" stroke-linejoin="round"></line>
            <line x1="111.2523" y1="116.2739" x2="111.2523" y2="116.1779" id="Stroke-65" stroke="#4F4F51" stroke-width="3" stroke-linecap="round" stroke-linejoin="round"></line>
            <polyline id="Stroke-67" stroke="#4F4F51" stroke-width="3" stroke-linecap="round" stroke-linejoin="round" points="174.3695 103.4917 181.5305 86.6407 188.6605 103.1927"></polyline>
            <line x1="176.4447" y1="98.6089" x2="186.7467" y2="98.6089" id="Stroke-69" stroke="#4F4F51" stroke-width="3" stroke-linecap="round" stroke-linejoin="round"></line>
        </g>
    </g>
</svg>
