<?xml version="1.0" encoding="UTF-8"?>
<svg width="300px" height="250px" viewBox="0 0 300 250" version="1.1" xmlns="http://www.w3.org/2000/svg" xmlns:xlink="http://www.w3.org/1999/xlink">
    <title>Illustrations / Présentation</title>
    <g id="Illustrations-/-Présentation" stroke="none" stroke-width="1" fill="none" fill-rule="evenodd">
        <g id="Group-45" transform="translate(28.000000, 12.000000)">
            <g id="Group-21" transform="translate(0.000000, 16.904400)" stroke="#E65025" stroke-linecap="round" stroke-linejoin="round" stroke-width="3">
                <path d="M138.681,37.7801 L138.681,177.1421 C138.681,179.6971 136.627,181.7801 134.074,181.8251 C134.025,181.8261 133.998,181.8271 133.998,181.8271 C130.12,181.8271 126.974,187.9731 126.974,195.5651 C126.974,203.1471 130.12,209.3031 133.998,209.3031 C136.584,209.3031 138.681,207.2071 138.681,204.6201 L138.681,177.9561" id="Stroke-1"></path>
                <path d="M7.0247,181.827 C3.1467,181.827 0.0007,187.973 0.0007,195.565 L0.0007,13.739 C0.0007,6.156 3.1467,0 7.0247,0 L8.0567,0 C8.9987,0 9.8467,0.566 10.2097,1.435 C10.7697,2.78 12.0947,3.723 13.6377,3.723 C15.1867,3.723 16.5137,2.779 17.0747,1.434 C17.4367,0.565 18.2867,0 19.2277,0 L118.0647,0" id="Stroke-3"></path>
                <line x1="13.2747" y1="14.0037" x2="13.2747" y2="170.7227" id="Stroke-5"></line>
                <path d="M126.974,195.5653 C126.974,187.9733 130.12,181.8273 133.998,181.8273 L19.228,181.8273 C18.286,181.8273 17.437,182.3913 17.075,183.2603 C16.514,184.6053 15.187,185.5493 13.638,185.5493 C12.095,185.5493 10.77,184.6053 10.209,183.2603 C9.847,182.3913 8.998,181.8273 8.057,181.8273 L7.025,181.8273 C3.147,181.8273 0,187.9733 0,195.5653 C0,203.1473 3.147,209.3033 7.025,209.3033 L9.142,209.3033 C9.921,209.3033 10.682,208.8983 11.011,208.1913 C11.486,207.1693 12.516,206.4603 13.719,206.4603 C14.921,206.4603 15.952,207.1693 16.427,208.1913 C16.755,208.8983 17.516,209.3033 18.295,209.3033 L133.998,209.3033 C130.12,209.3033 126.974,203.1473 126.974,195.5653 Z" id="Stroke-7"></path>
                <line x1="127.6634" y1="188.7791" x2="20.9064" y2="188.6571" id="Stroke-9"></line>
                <line x1="128.0228" y1="202.4471" x2="20.9068" y2="202.4471" id="Stroke-11"></line>
                <line x1="126.974" y1="195.5653" x2="18.519" y2="195.5833" id="Stroke-13"></line>
                <line x1="61.7318" y1="17.1766" x2="87.4978" y2="17.1766" id="Stroke-15"></line>
                <line x1="55.0374" y1="23.8109" x2="94.1914" y2="23.8109" id="Stroke-17"></line>
                <line x1="61.7318" y1="162.534" x2="87.4978" y2="162.534" id="Stroke-19"></line>
            </g>
            <text id="Projet-?" font-family="Quicksand-Bold, Quicksand" font-size="21.9519" font-weight="bold" fill="#E65025">
                <tspan x="36.7471" y="111.664125">P</tspan>
                <tspan x="49.9840957" y="111.664125" letter-spacing="-0.4829418">r</tspan>
                <tspan x="58.5453367" y="111.664125">ojet ?</tspan>
            </text>
            <text id="A" font-family="Quicksand-Bold, Quicksand" font-size="28" font-weight="bold" fill="#E65025">
                <tspan x="172.5845" y="97.8403">A</tspan>
            </text>
            <g id="Group-44" transform="translate(118.063700, 0.000000)" stroke="#E65025" stroke-linecap="round" stroke-linejoin="round" stroke-width="3">
                <path d="M81.419,54.685 L4.044,54.685 C1.811,54.685 1.42108547e-14,52.874 1.42108547e-14,50.642 L1.42108547e-14,4.043 C1.42108547e-14,1.81 1.811,0 4.044,0 L81.419,0 C83.652,0 85.463,1.81 85.463,4.043 L85.463,50.642 C85.463,52.874 83.652,54.685 81.419,54.685 Z" id="Stroke-22"></path>
                <path d="M0.2423,27.5766 L16.5983,11.2206 C18.0693,9.7506 20.4533,9.7506 21.9243,11.2206 L40.3733,29.6706 C41.8443,31.1406 44.2273,31.1406 45.6983,29.6706 L55.1873,20.1816 C56.6573,18.7116 59.0423,18.7116 60.5133,20.1816 L85.3653,45.0346" id="Stroke-24"></path>
                <path d="M64.3233,12.9418 C64.3233,9.6448 66.9963,6.9728 70.2933,6.9728 C73.5903,6.9728 76.2623,9.6448 76.2623,12.9418 C76.2623,16.2388 73.5903,18.9118 70.2933,18.9118 C66.9963,18.9118 64.3233,16.2388 64.3233,12.9418 Z" id="Stroke-26"></path>
                <line x1="78.1896" y1="86.641" x2="111.7296" y2="86.641" id="Stroke-28"></line>
                <line x1="78.1896" y1="95.0663" x2="111.7296" y2="95.0663" id="Stroke-30"></line>
                <line x1="78.1896" y1="103.4916" x2="111.7296" y2="103.4916" id="Stroke-32"></line>
                <line x1="55.5528" y1="111.9164" x2="111.7298" y2="111.9164" id="Stroke-34"></line>
                <line x1="55.5528" y1="120.3417" x2="111.7298" y2="120.3417" id="Stroke-36"></line>
                <line x1="55.5528" y1="128.7675" x2="111.7298" y2="128.7675" id="Stroke-38"></line>
                <line x1="55.5528" y1="137.1923" x2="111.7298" y2="137.1923" id="Stroke-40"></line>
                <path d="M113.7989,72.3417 L54.5279,72.3417 C47.9289,72.3417 42.5279,77.7417 42.5279,84.3417 L42.5279,101.8807 L30.1889,114.2197 L42.5279,126.5607 L42.5279,139.5457 C42.5279,146.1457 47.9289,151.5457 54.5279,151.5457 L113.7989,151.5457 C120.3999,151.5457 125.7989,146.1457 125.7989,139.5457 L125.7989,84.3417 C125.7989,77.7417 120.3999,72.3417 113.7989,72.3417 Z" id="Stroke-42"></path>
            </g>
        </g>
    </g>
</svg>