<?xml version="1.0" encoding="UTF-8"?>
<svg width="300px" height="250px" viewBox="0 0 300 250" version="1.1" xmlns="http://www.w3.org/2000/svg" xmlns:xlink="http://www.w3.org/1999/xlink">
    <title>Illustrations / Projet</title>
    <g id="Illustrations-/-Projet" stroke="none" stroke-width="1" fill="none" fill-rule="evenodd">
        <g id="Group-36" transform="translate(55.000000, 2.000000)">
            <g id="Group-35" stroke="#E65025" stroke-linecap="round" stroke-linejoin="round" stroke-width="3">
                <path d="M127.3297,25.336 C133.6267,10.446 148.3667,0 165.5417,0 C188.4547,0 207.0247,18.571 207.0247,41.484 C207.0247,57.929 197.4677,72.132 183.6057,78.841 L183.6057,90.285 C183.6057,96.513 180.2647,101.956 175.2647,104.906 L175.2647,108.286 C175.2647,110.641 173.3397,112.552 170.9847,112.552 L160.1107,112.552 C157.7437,112.552 155.8317,110.641 155.8317,108.286 L155.8317,104.919 C150.8447,101.956 147.4897,96.513 147.4897,90.285 L147.4897,78.841 C144.5217,77.404 141.7517,75.624 139.2287,73.553" id="Stroke-1"></path>
                <line x1="153.5787" y1="85.1651" x2="177.9797" y2="85.1651" id="Stroke-3"></line>
                <line x1="154.9635" y1="91.505" x2="176.5955" y2="91.505" id="Stroke-5"></line>
                <line x1="156.3482" y1="97.8448" x2="175.2102" y2="97.8448" id="Stroke-7"></line>
                <line x1="153.1842" y1="72.5773" x2="153.1842" y2="45.4783" id="Stroke-9"></line>
                <line x1="178.1275" y1="45.4786" x2="178.1275" y2="72.5776" id="Stroke-11"></line>
                <path d="M153.1842,45.8663 C156.2992,45.8663 156.2992,47.8663 159.4132,47.8663 C162.5322,47.8663 162.5322,45.8663 165.6492,45.8663 C168.7692,45.8663 168.7692,47.8663 171.8882,47.8663 C175.0082,47.8663 175.0082,45.8663 178.1272,45.8663" id="Stroke-13"></path>
                <line x1="147.4898" y1="78.8409" x2="183.6058" y2="78.8409" id="Stroke-15"></line>
                <path d="M7.025,207.1144 C3.147,207.1144 -7.10542736e-15,213.2604 -7.10542736e-15,220.8524 L-7.10542736e-15,39.0264 C-7.10542736e-15,31.4434 3.147,25.2884 7.025,25.2884 L8.057,25.2884 C8.999,25.2884 9.848,25.8524 10.21,26.7214 C10.771,28.0664 12.095,29.0104 13.638,29.0104 C15.188,29.0104 16.514,28.0664 17.075,26.7214 C17.437,25.8524 18.286,25.2884 19.228,25.2884 L133.999,25.2884 C136.585,25.2884 138.681,27.3854 138.681,29.9704 L138.681,202.4294 C138.681,204.9844 136.628,207.0674 134.074,207.1124 C134.025,207.1134 133.999,207.1144 133.999,207.1144 C130.121,207.1144 126.974,213.2604 126.974,220.8524 C126.974,228.4344 130.121,234.5914 133.999,234.5914 C136.585,234.5914 138.681,232.4944 138.681,229.9074 L138.681,203.2434" id="Stroke-17"></path>
                <line x1="13.2745" y1="39.2911" x2="13.2745" y2="196.0101" id="Stroke-19"></line>
                <path d="M126.9742,220.8526 C126.9742,213.2606 130.1202,207.1146 133.9982,207.1146 L19.2272,207.1146 C18.2862,207.1146 17.4372,207.6786 17.0752,208.5476 C16.5142,209.8926 15.1872,210.8366 13.6382,210.8366 C12.0952,210.8366 10.7702,209.8926 10.2102,208.5476 C9.8482,207.6786 8.9982,207.1146 8.0572,207.1146 L7.0252,207.1146 C3.1462,207.1146 0.0002,213.2606 0.0002,220.8526 C0.0002,228.4346 3.1462,234.5906 7.0252,234.5906 L9.1412,234.5906 C9.9212,234.5906 10.6822,234.1856 11.0112,233.4786 C11.4862,232.4566 12.5162,231.7476 13.7192,231.7476 C14.9212,231.7476 15.9522,232.4566 16.4272,233.4786 C16.7552,234.1856 17.5162,234.5906 18.2962,234.5906 L133.9982,234.5906 C130.1202,234.5906 126.9742,228.4346 126.9742,220.8526 Z" id="Stroke-21"></path>
                <line x1="127.6637" y1="214.0665" x2="20.9077" y2="213.9445" id="Stroke-23"></line>
                <line x1="128.023" y1="227.7345" x2="20.907" y2="227.7345" id="Stroke-25"></line>
                <line x1="126.9742" y1="220.8526" x2="18.5182" y2="220.8706" id="Stroke-27"></line>
                <line x1="61.732" y1="42.464" x2="87.498" y2="42.464" id="Stroke-29"></line>
                <line x1="55.0377" y1="49.0978" x2="94.1917" y2="49.0978" id="Stroke-31"></line>
                <line x1="61.732" y1="187.8214" x2="87.498" y2="187.8214" id="Stroke-33"></line>
            </g>
            <text id="Projet-?" font-family="Quicksand-Bold, Quicksand" font-size="21.9519" font-weight="bold" fill="#E65025">
                <tspan x="36.7478" y="120.047125">P</tspan>
                <tspan x="49.9847957" y="120.047125" letter-spacing="-0.4829418">r</tspan>
                <tspan x="58.5460367" y="120.047125">ojet ?</tspan>
            </text>
        </g>
    </g>
</svg>