<?xml version="1.0" encoding="UTF-8"?>
<svg width="300px" height="250px" viewBox="0 0 300 250" version="1.1" xmlns="http://www.w3.org/2000/svg" xmlns:xlink="http://www.w3.org/1999/xlink">
    <title>Illustrations / Python 2</title>
    <g id="Illustrations-/-Python-2" stroke="none" stroke-width="1" fill="none" fill-rule="evenodd">
        <path d="M131.6875,95.3473 C128.6395,95.3473 126.1675,92.8763 126.1675,89.8283 C126.1675,86.7813 128.6395,84.3093 131.6875,84.3093 C134.7355,84.3093 137.2065,86.7813 137.2065,89.8283 C137.2065,92.8763 134.7355,95.3473 131.6875,95.3473 M150.1015,73.7943 C126.3005,73.7943 117.3705,80.9383 117.3705,89.7473 L117.3705,103.6193 L149.7495,103.6193 L149.7495,108.4613 L105.9975,108.4313 C93.9205,108.4313 84.0465,118.3053 84.0465,130.3723 L84.0465,151.4993 C84.0465,163.5663 93.9205,173.4403 105.9975,173.4403 L114.0305,173.4403 L114.0305,154.7293 C114.0305,145.7893 121.1655,138.5253 130.0485,138.3033 C130.1875,138.2933 130.3265,138.2933 130.4645,138.2933 L147.4735,138.2933 L147.4735,138.3033 L165.4445,138.3033 C175.0495,138.3033 182.8335,130.5113 182.8335,120.9063 L182.8335,89.7473 C182.8335,80.9383 168.1835,73.7943 150.1015,73.7943" id="Fill-1" class="-fillPrimary"  fill-opacity="0.5" fill="#E65025"></path>
        <path d="M171.1768,187.361 C174.2248,187.361 176.6958,189.832 176.6958,192.881 C176.6958,195.928 174.2248,198.399 171.1768,198.399 C168.1278,198.399 165.6568,195.928 165.6568,192.881 C165.6568,189.832 168.1278,187.361 171.1768,187.361 M152.7628,208.915 C176.5638,208.915 185.4928,201.77 185.4928,192.961 L185.4928,179.09 L153.1148,179.09 L153.1148,174.247 L196.8658,174.277 C208.9428,174.277 218.8168,164.403 218.8168,152.337 L218.8168,131.21 C218.8168,119.142 208.9428,109.268 196.8658,109.268 L188.8338,109.268 L188.8338,127.98 C188.8338,136.92 177.7578,144.406 172.8158,144.406 C172.6768,144.415 172.5378,144.415 172.3998,144.415 L155.3908,144.415 L155.3908,144.406 L137.4188,144.406 C127.8138,144.406 120.0308,152.197 120.0308,161.803 L120.0308,192.961 C120.0308,201.77 134.6798,208.915 152.7628,208.915" id="Fill-3" class="-fillPrimary"  fill-opacity="0.5" fill="#E65025"></path>
        <path d="M281.959,47.861 C278.88,47.861 276.384,45.365 276.384,42.286 C276.384,39.208 278.88,36.712 281.959,36.712 C285.038,36.712 287.534,39.208 287.534,42.286 C287.534,45.365 285.038,47.861 281.959,47.861 M266.314,47.861 C263.235,47.861 260.739,45.365 260.739,42.286 C260.739,39.208 263.235,36.712 266.314,36.712 C269.394,36.712 271.89,39.208 271.89,42.286 C271.89,45.365 269.394,47.861 266.314,47.861 M250.67,47.861 C247.592,47.861 245.096,45.365 245.096,42.286 C245.096,39.208 247.592,36.712 250.67,36.712 C253.749,36.712 256.245,39.208 256.245,42.286 C256.245,45.365 253.749,47.861 250.67,47.861 M285.495,28 L14.726,28 C8.25,28 3,33.249 3,39.725 L3,51.581 C3,53.812 4.81,55.622 7.041,55.622 L293.18,55.622 C295.412,55.622 297.221,53.812 297.221,51.581 L297.221,39.725 C297.221,33.249 291.972,28 285.495,28" id="Fill-5" class="-fillPrimary"  fill-opacity="0.5" fill="#E65025"></path>
        <path d="M287.4014,222.7868 L12.8194,222.7868 C7.4194,222.7868 3.0004,218.3678 3.0004,212.9678 L3.0004,38.6648 C3.0004,33.2648 7.4194,28.8458 12.8194,28.8458 L287.4014,28.8458 C292.8014,28.8458 297.2204,33.2648 297.2204,38.6648 L297.2204,212.9678 C297.2204,218.3678 292.8014,222.7868 287.4014,222.7868 Z" id="Stroke-7" stroke="#4F4F51" stroke-width="4" stroke-linecap="round" stroke-linejoin="round"></path>
        <line x1="3" y1="55.6218" x2="297.221" y2="55.6218" id="Stroke-9" stroke="#4F4F51" stroke-width="4" stroke-linecap="round" stroke-linejoin="round"></line>
        <path d="M276.3838,42.2858 C276.3838,39.2068 278.8798,36.7118 281.9588,36.7118 C285.0378,36.7118 287.5338,39.2068 287.5338,42.2858 C287.5338,45.3648 285.0378,47.8608 281.9588,47.8608 C278.8798,47.8608 276.3838,45.3648 276.3838,42.2858 Z" id="Stroke-11" stroke="#4F4F51" stroke-width="4" stroke-linecap="round" stroke-linejoin="round"></path>
        <path d="M260.7393,42.2858 C260.7393,39.2068 263.2353,36.7118 266.3143,36.7118 C269.3933,36.7118 271.8893,39.2068 271.8893,42.2858 C271.8893,45.3648 269.3933,47.8608 266.3143,47.8608 C263.2353,47.8608 260.7393,45.3648 260.7393,42.2858 Z" id="Stroke-13" stroke="#4F4F51" stroke-width="4" stroke-linecap="round" stroke-linejoin="round"></path>
        <path d="M245.0957,42.2858 C245.0957,39.2068 247.5917,36.7118 250.6697,36.7118 C253.7487,36.7118 256.2447,39.2068 256.2447,42.2858 C256.2447,45.3648 253.7487,47.8608 250.6697,47.8608 C247.5917,47.8608 245.0957,45.3648 245.0957,42.2858 Z" id="Stroke-15" stroke="#4F4F51" stroke-width="4" stroke-linecap="round" stroke-linejoin="round"></path>
        <path d="M32.8369,79.5866 C32.9329,79.7866 32.9809,79.9986 32.9809,80.2226 C32.9809,80.4626 32.9329,80.6786 32.8369,80.8706 C32.7399,81.0626 32.5969,81.2146 32.4039,81.3256 L24.6049,85.8146 C24.1409,86.0866 23.7729,86.2226 23.4999,86.2226 C23.1809,86.2226 22.8799,86.0656 22.6009,85.7546 C22.3199,85.4416 22.1809,85.1186 22.1809,84.7816 C22.1809,84.4146 22.3569,84.1266 22.7079,83.9186 L29.0929,80.2226 L22.7329,76.4306 C22.3799,76.2376 22.2039,75.9266 22.2039,75.4946 C22.2039,75.1266 22.3369,74.7906 22.6009,74.4856 C22.8639,74.1826 23.1319,74.0296 23.4039,74.0296 C23.5649,74.0296 23.7479,74.0826 23.9559,74.1866 C24.1639,74.2906 24.3799,74.4066 24.6049,74.5336 L32.4039,79.1186 C32.5969,79.2306 32.7399,79.3866 32.8369,79.5866" id="Fill-17" fill="#4F4F51"></path>
        <path d="M35.1045,89.738 C34.8875,89.522 34.7805,89.255 34.7805,88.934 C34.7805,88.614 34.8875,88.346 35.1045,88.131 C35.3205,87.915 35.5955,87.806 35.9315,87.806 L48.1245,87.806 C48.4595,87.806 48.7365,87.915 48.9525,88.131 C49.1675,88.346 49.2765,88.623 49.2765,88.959 C49.2765,89.278 49.1675,89.543 48.9525,89.751 C48.7365,89.958 48.4595,90.062 48.1245,90.062 L35.9315,90.062 C35.5955,90.062 35.3205,89.955 35.1045,89.738" id="Fill-19" fill="#4F4F51"></path>
        <path d="M79.3506,92.1803 C79.4956,92.3653 79.5666,92.5603 79.5666,92.7693 C79.5666,93.0403 79.4706,93.2813 79.2786,93.4893 C79.0866,93.6973 78.8546,93.8003 78.5826,93.8003 C78.4226,93.8003 78.3026,93.7923 78.2226,93.7773 C76.5746,93.4413 75.4306,92.9013 74.7906,92.1573 C74.1506,91.4123 73.8306,90.4243 73.8306,89.1933 L73.8786,86.7443 C73.8786,85.8803 73.6866,85.2333 73.3026,84.8003 C72.9186,84.3683 72.3986,84.1373 71.7436,84.1053 L71.6466,84.1053 C71.3426,84.1053 71.0826,84.0003 70.8676,83.7923 C70.6506,83.5843 70.5426,83.3213 70.5426,83.0003 C70.5426,82.6813 70.6506,82.4163 70.8676,82.2083 C71.0826,82.0003 71.3426,81.8973 71.6466,81.8973 L71.7906,81.8973 C72.4306,81.8653 72.9386,81.6323 73.3146,81.2013 C73.6906,80.7693 73.8786,80.1203 73.8786,79.2563 L73.8306,76.8093 C73.8306,75.5763 74.1506,74.5883 74.7906,73.8443 C75.4306,73.1013 76.5746,72.5613 78.2226,72.2253 C78.2866,72.2083 78.3826,72.2013 78.5106,72.2013 C78.8466,72.2013 79.1066,72.3053 79.2906,72.5123 C79.4746,72.7213 79.5666,72.9773 79.5666,73.2813 C79.5666,73.4893 79.4906,73.6813 79.3386,73.8573 C79.1866,74.0333 78.9916,74.1603 78.7506,74.2413 C78.1106,74.4653 77.6306,74.7083 77.3106,74.9723 C76.9906,75.2373 76.7786,75.5403 76.6746,75.8843 C76.5706,76.2293 76.5186,76.6733 76.5186,77.2163 L76.5666,79.7123 C76.5666,80.5923 76.3546,81.2923 75.9306,81.8133 C75.5066,82.3323 74.9026,82.7293 74.1196,83.0003 C74.9026,83.2733 75.5066,83.6723 75.9306,84.2013 C76.3546,84.7293 76.5666,85.4243 76.5666,86.2883 L76.5186,88.7843 C76.5186,89.3283 76.5746,89.7693 76.6866,90.1053 C76.7986,90.4413 77.0106,90.7413 77.3226,91.0043 C77.6346,91.2693 78.1106,91.5213 78.7506,91.7603 C79.0066,91.8573 79.2066,91.9963 79.3506,92.1803" id="Fill-21" fill="#4F4F51"></path>
        <path d="M95.7061,82.1608 C95.9231,82.3688 96.0301,82.6328 96.0301,82.9528 C96.0301,83.2728 95.9231,83.5368 95.7061,83.7448 C95.4901,83.9528 95.2301,84.0568 94.9271,84.0568 L94.7821,84.0568 C94.1431,84.0898 93.6341,84.3208 93.2591,84.7528 C92.8831,85.1848 92.6941,85.8328 92.6941,86.6968 L92.7421,89.1448 C92.7421,90.3768 92.4221,91.3648 91.7821,92.1088 C91.1431,92.8528 89.9981,93.3928 88.3511,93.7288 C88.1901,93.7608 88.0551,93.7768 87.9421,93.7768 C87.6701,93.7768 87.4461,93.6568 87.2701,93.4168 C87.0941,93.1768 87.0071,92.9288 87.0071,92.6728 C87.0071,92.4648 87.0821,92.2728 87.2341,92.0968 C87.3871,91.9208 87.5821,91.7928 87.8221,91.7128 C88.4621,91.4888 88.9421,91.2448 89.2631,90.9808 C89.5821,90.7168 89.7941,90.4128 89.8981,90.0688 C90.0021,89.7238 90.0551,89.2808 90.0551,88.7368 L90.0071,86.2408 C90.0071,85.3608 90.2191,84.6608 90.6431,84.1408 C91.0661,83.6208 91.6701,83.2248 92.4541,82.9528 C91.6701,82.6818 91.0661,82.2808 90.6431,81.7528 C90.2191,81.2248 90.0071,80.5288 90.0071,79.6648 L90.0551,77.1688 C90.0551,76.6248 89.9981,76.1848 89.8871,75.8488 C89.7741,75.5128 89.5621,75.2128 89.2501,74.9488 C88.9381,74.6848 88.4621,74.4328 87.8221,74.1928 C87.5661,74.0968 87.3661,73.9568 87.2231,73.7728 C87.0781,73.5898 87.0071,73.3928 87.0071,73.1848 C87.0071,72.9128 87.1021,72.6728 87.2951,72.4648 C87.4861,72.2578 87.7181,72.1528 87.9901,72.1528 C88.1501,72.1528 88.2701,72.1608 88.3511,72.1768 C89.9981,72.5128 91.1431,73.0528 91.7821,73.7968 C92.4221,74.5408 92.7421,75.5288 92.7421,76.7608 L92.6941,79.2088 C92.6941,80.0728 92.8871,80.7208 93.2701,81.1528 C93.6541,81.5848 94.1741,81.8168 94.8301,81.8488 L94.9271,81.8488 C95.2301,81.8488 95.4901,81.9528 95.7061,82.1608" id="Fill-23" fill="#4F4F51"></path>
        <path d="M43.8535,161.1266 C44.1095,161.3756 44.2375,161.6906 44.2375,162.0746 C44.2375,162.4586 44.1095,162.7746 43.8535,163.0226 C43.5965,163.2716 43.2775,163.3956 42.8935,163.3956 L39.5335,163.3956 L39.5335,166.5386 C39.5335,166.9866 39.3845,167.3556 39.0885,167.6436 C38.7925,167.9316 38.4205,168.0746 37.9735,168.0746 C37.5255,168.0746 37.1535,167.9316 36.8575,167.6436 C36.5615,167.3556 36.4135,166.9866 36.4135,166.5386 L36.4135,163.3956 L33.1245,163.3956 C32.7415,163.3956 32.4205,163.2676 32.1655,163.0116 C31.9095,162.7556 31.7815,162.4356 31.7815,162.0516 C31.7815,161.6666 31.9095,161.3556 32.1655,161.1146 C32.4205,160.8746 32.7415,160.7546 33.1245,160.7546 L36.4135,160.7546 L36.4135,157.1796 C36.4135,156.7306 36.5615,156.3626 36.8575,156.0746 C37.1535,155.7866 37.5335,155.6436 37.9975,155.6436 C38.4455,155.6436 38.8135,155.7866 39.1015,156.0746 C39.3895,156.3626 39.5335,156.7306 39.5335,157.1796 L39.5335,160.7546 L42.8935,160.7546 C43.2775,160.7546 43.5965,160.8796 43.8535,161.1266" id="Fill-25" fill="#4F4F51"></path>
        <path d="M57.7256,161.1266 C57.9816,161.3756 58.1096,161.6906 58.1096,162.0746 C58.1096,162.4586 57.9816,162.7746 57.7256,163.0226 C57.4686,163.2716 57.1496,163.3956 56.7656,163.3956 L53.4056,163.3956 L53.4056,166.5386 C53.4056,166.9866 53.2566,167.3556 52.9606,167.6436 C52.6646,167.9316 52.2926,168.0746 51.8456,168.0746 C51.3976,168.0746 51.0256,167.9316 50.7296,167.6436 C50.4336,167.3556 50.2856,166.9866 50.2856,166.5386 L50.2856,163.3956 L46.9966,163.3956 C46.6136,163.3956 46.2926,163.2676 46.0376,163.0116 C45.7816,162.7556 45.6536,162.4356 45.6536,162.0516 C45.6536,161.6666 45.7816,161.3556 46.0376,161.1146 C46.2926,160.8746 46.6136,160.7546 46.9966,160.7546 L50.2856,160.7546 L50.2856,157.1796 C50.2856,156.7306 50.4336,156.3626 50.7296,156.0746 C51.0256,155.7866 51.4056,155.6436 51.8696,155.6436 C52.3176,155.6436 52.6856,155.7866 52.9736,156.0746 C53.2616,156.3626 53.4056,156.7306 53.4056,157.1796 L53.4056,160.7546 L56.7656,160.7546 C57.1496,160.7546 57.4686,160.8796 57.7256,161.1266" id="Fill-27" fill="#4F4F51"></path>
        <path d="M212.1221,196.651 L218.4101,196.651 L218.4101,196.483 C218.3471,195.811 218.0181,195.235 217.4271,194.755 C216.8341,194.275 216.1621,194.035 215.4101,194.035 C213.5541,194.035 212.4581,194.908 212.1221,196.651 M221.0261,198.691 C220.7381,198.931 220.4021,199.051 220.0181,199.051 L212.0991,199.051 C212.2901,199.996 212.7301,200.735 213.4181,201.271 C214.1061,201.807 214.8831,202.075 215.7461,202.075 C216.4021,202.075 216.9141,202.015 217.2821,201.895 C217.6501,201.775 217.9421,201.647 218.1581,201.511 C218.3741,201.376 218.5221,201.283 218.6021,201.235 C218.8911,201.091 219.1621,201.019 219.4181,201.019 C219.7541,201.019 220.0421,201.139 220.2821,201.38 C220.5221,201.619 220.6431,201.899 220.6431,202.219 C220.6431,202.651 220.4181,203.044 219.9711,203.395 C219.5221,203.763 218.9221,204.076 218.1701,204.332 C217.4181,204.587 216.6581,204.715 215.8911,204.715 C214.5461,204.715 213.3741,204.435 212.3741,203.876 C211.3741,203.315 210.6021,202.544 210.0591,201.559 C209.5151,200.575 209.2421,199.467 209.2421,198.235 C209.2421,196.859 209.5301,195.651 210.1061,194.611 C210.6831,193.571 211.4421,192.775 212.3871,192.223 C213.3301,191.671 214.3381,191.395 215.4101,191.395 C216.4671,191.395 217.4621,191.683 218.3981,192.259 C219.3341,192.836 220.0821,193.612 220.6431,194.588 C221.2021,195.563 221.4821,196.62 221.4821,197.755 C221.4661,198.139 221.3141,198.451 221.0261,198.691" id="Fill-29" fill="#4F4F51"></path>
        <path d="M226.5821,204.0553 C226.3021,204.3353 225.9541,204.4753 225.5381,204.4753 C225.1381,204.4753 224.8021,204.3353 224.5301,204.0553 C224.2581,203.7753 224.1221,203.4273 224.1221,203.0113 L224.1221,188.1793 C224.1221,187.7633 224.2621,187.4153 224.5421,187.1353 C224.8221,186.8553 225.1701,186.7153 225.5861,186.7153 C225.9861,186.7153 226.3221,186.8553 226.5951,187.1353 C226.8661,187.4153 227.0021,187.7633 227.0021,188.1793 L227.0021,203.0113 C227.0021,203.4273 226.8621,203.7753 226.5821,204.0553" id="Fill-31" fill="#4F4F51"></path>
        <path d="M229.4014,201.7634 C229.4014,201.3474 229.6094,200.9944 230.0254,200.7074 C230.2504,200.5634 230.4814,200.4914 230.7214,200.4914 C231.0574,200.4914 231.3784,200.6434 231.6814,200.9474 C232.1624,201.4434 232.6624,201.8114 233.1814,202.0514 C233.7014,202.2914 234.3304,202.4104 235.0654,202.4104 C236.3134,202.3634 236.9374,201.8914 236.9374,200.9944 C236.9374,200.5314 236.7254,200.1794 236.3014,199.9394 C235.8784,199.6994 235.2174,199.4594 234.3214,199.2194 C233.3934,198.9634 232.6374,198.7074 232.0534,198.4504 C231.4694,198.1964 230.9654,197.8074 230.5424,197.2864 C230.1174,196.7674 229.9054,196.0674 229.9054,195.1874 C229.9054,194.4194 230.1264,193.7514 230.5654,193.1834 C231.0054,192.6164 231.5824,192.1754 232.2944,191.8634 C233.0054,191.5514 233.7614,191.3954 234.5614,191.3954 C235.3784,191.3954 236.1934,191.5474 237.0094,191.8514 C237.8264,192.1554 238.4654,192.6034 238.9294,193.1954 C239.1374,193.4514 239.2424,193.7394 239.2424,194.0594 C239.2424,194.4274 239.0894,194.7314 238.7864,194.9714 C238.5614,195.1474 238.3054,195.2354 238.0174,195.2354 C237.6664,195.2354 237.3784,195.1234 237.1534,194.8994 C236.8664,194.5474 236.4944,194.2674 236.0384,194.0594 C235.5824,193.8514 235.0654,193.7474 234.4904,193.7474 C233.2734,193.7474 232.6664,194.1874 232.6664,195.0674 C232.6664,195.4194 232.7774,195.7024 233.0024,195.9194 C233.2254,196.1354 233.5094,196.3034 233.8534,196.4234 C234.1974,196.5434 234.6814,196.6914 235.3054,196.8674 C236.1704,197.1074 236.8894,197.3554 237.4654,197.6114 C238.0424,197.8674 238.5294,198.2594 238.9294,198.7864 C239.3294,199.3154 239.5294,200.0114 239.5294,200.8754 C239.5294,201.6594 239.2974,202.3434 238.8344,202.9274 C238.3694,203.5114 237.7734,203.9554 237.0464,204.2594 C236.3174,204.5634 235.5694,204.7154 234.8014,204.7154 C233.7464,204.7154 232.7614,204.5384 231.8494,204.1874 C230.9374,203.8354 230.1934,203.2674 229.6184,202.4834 C229.4734,202.2914 229.4014,202.0514 229.4014,201.7634" id="Fill-33" fill="#4F4F51"></path>
        <path d="M244.0899,196.651 L250.3779,196.651 L250.3779,196.483 C250.3149,195.811 249.9859,195.235 249.3949,194.755 C248.8019,194.275 248.1299,194.035 247.3779,194.035 C245.5219,194.035 244.4259,194.908 244.0899,196.651 M252.9939,198.691 C252.7059,198.931 252.3699,199.051 251.9859,199.051 L244.0669,199.051 C244.2579,199.996 244.6979,200.735 245.3859,201.271 C246.0739,201.807 246.8509,202.075 247.7139,202.075 C248.3699,202.075 248.8819,202.015 249.2499,201.895 C249.6179,201.775 249.9099,201.647 250.1259,201.511 C250.3419,201.376 250.4899,201.283 250.5699,201.235 C250.8589,201.091 251.1299,201.019 251.3859,201.019 C251.7219,201.019 252.0099,201.139 252.2499,201.38 C252.4899,201.619 252.6109,201.899 252.6109,202.219 C252.6109,202.651 252.3859,203.044 251.9389,203.395 C251.4899,203.763 250.8899,204.076 250.1379,204.332 C249.3859,204.587 248.6259,204.715 247.8589,204.715 C246.5139,204.715 245.3419,204.435 244.3419,203.876 C243.3419,203.315 242.5699,202.544 242.0269,201.559 C241.4829,200.575 241.2099,199.467 241.2099,198.235 C241.2099,196.859 241.4979,195.651 242.0739,194.611 C242.6509,193.571 243.4099,192.775 244.3549,192.223 C245.2979,191.671 246.3059,191.395 247.3779,191.395 C248.4349,191.395 249.4299,191.683 250.3659,192.259 C251.3019,192.836 252.0499,193.612 252.6109,194.588 C253.1699,195.563 253.4499,196.62 253.4499,197.755 C253.4339,198.139 253.2819,198.451 252.9939,198.691" id="Fill-35" fill="#4F4F51"></path>
        <path d="M250.794,122.653 C251.05,122.902 251.178,123.217 251.178,123.601 C251.178,123.985 251.05,124.301 250.794,124.549 C250.537,124.798 250.218,124.922 249.834,124.922 L246.474,124.922 L246.474,128.065 C246.474,128.513 246.325,128.882 246.029,129.17 C245.733,129.458 245.361,129.601 244.914,129.601 C244.466,129.601 244.094,129.458 243.798,129.17 C243.502,128.882 243.354,128.513 243.354,128.065 L243.354,124.922 L240.065,124.922 C239.682,124.922 239.361,124.794 239.106,124.538 C238.85,124.282 238.722,123.962 238.722,123.578 C238.722,123.193 238.85,122.882 239.106,122.641 C239.361,122.401 239.682,122.281 240.065,122.281 L243.354,122.281 L243.354,118.706 C243.354,118.257 243.502,117.889 243.798,117.601 C244.094,117.313 244.474,117.17 244.938,117.17 C245.386,117.17 245.754,117.313 246.042,117.601 C246.33,117.889 246.474,118.257 246.474,118.706 L246.474,122.281 L249.834,122.281 C250.218,122.281 250.537,122.406 250.794,122.653" id="Fill-37" fill="#4F4F51"></path>
        <path d="M253.2422,126.6618 C252.9702,126.3968 252.8342,126.0818 252.8342,125.7138 C252.8342,125.3458 252.9702,125.0378 253.2422,124.7898 C253.5132,124.5418 253.8492,124.4178 254.2502,124.4178 L263.8742,124.4178 C264.2732,124.4178 264.6092,124.5418 264.8822,124.7898 C265.1532,125.0378 265.2902,125.3458 265.2902,125.7138 C265.2902,126.0818 265.1532,126.3968 264.8822,126.6618 C264.6092,126.9258 264.2732,127.0578 263.8742,127.0578 L254.2502,127.0578 C253.8492,127.0578 253.5132,126.9258 253.2422,126.6618 M253.2422,122.0058 C252.9702,121.7408 252.8342,121.4258 252.8342,121.0578 C252.8342,120.6888 252.9702,120.3818 253.2422,120.1338 C253.5132,119.8858 253.8492,119.7618 254.2502,119.7618 L263.8742,119.7618 C264.2732,119.7618 264.6092,119.8858 264.8822,120.1338 C265.1532,120.3818 265.2902,120.6888 265.2902,121.0578 C265.2902,121.4258 265.1532,121.7408 264.8822,122.0058 C264.6092,122.2688 264.2732,122.4008 263.8742,122.4008 L254.2502,122.4008 C253.8492,122.4008 253.5132,122.2688 253.2422,122.0058" id="Fill-39" fill="#4F4F51"></path>
        <path d="M206.8213,91.6462 C207.0373,91.8632 207.1453,92.1382 207.1453,92.4742 C207.1453,92.7942 207.0373,93.0622 206.8213,93.2792 C206.6053,93.4952 206.3293,93.6022 205.9933,93.6022 L200.9293,93.6022 C200.5933,93.6022 200.3173,93.4952 200.1013,93.2792 C199.8853,93.0622 199.7773,92.7872 199.7773,92.4512 L199.7773,73.3942 C199.7773,73.0582 199.8853,72.7832 200.1013,72.5672 C200.3173,72.3502 200.5933,72.2432 200.9293,72.2432 L205.9933,72.2432 C206.3293,72.2432 206.6053,72.3502 206.8213,72.5672 C207.0373,72.7832 207.1453,73.0582 207.1453,73.3942 C207.1453,73.7142 207.0373,73.9832 206.8213,74.1992 C206.6053,74.4152 206.3293,74.5232 205.9933,74.5232 L202.5373,74.5232 L202.5373,91.3232 L205.9933,91.3232 C206.3293,91.3232 206.6053,91.4302 206.8213,91.6462" id="Fill-41" fill="#4F4F51"></path>
        <path d="M221.8701,72.5671 C222.0861,72.7831 222.1931,73.0581 222.1931,73.3941 L222.1931,92.4511 C222.1931,92.7871 222.0861,93.0621 221.8701,93.2791 C221.6531,93.4951 221.3781,93.6021 221.0421,93.6021 L215.9771,93.6021 C215.6411,93.6021 215.3651,93.4951 215.1491,93.2791 C214.9331,93.0621 214.8261,92.7871 214.8261,92.4511 C214.8261,92.1301 214.9331,91.8631 215.1491,91.6461 C215.3651,91.4301 215.6411,91.3231 215.9771,91.3231 L219.4331,91.3231 L219.4331,74.5231 L215.9771,74.5231 C215.6411,74.5231 215.3651,74.4151 215.1491,74.1991 C214.9331,73.9831 214.8261,73.7071 214.8261,73.3711 C214.8261,73.0501 214.9331,72.7831 215.1491,72.5671 C215.3651,72.3501 215.6411,72.2431 215.9771,72.2431 L221.0421,72.2431 C221.3781,72.2431 221.6531,72.3501 221.8701,72.5671" id="Fill-43" fill="#4F4F51"></path>
        <path d="M34.6533,129.6266 C34.6533,129.9946 34.5213,130.3306 34.2573,130.6346 C33.9933,130.9386 33.7253,131.0906 33.4533,131.0906 C33.2933,131.0906 33.1093,131.0386 32.9013,130.9346 C32.6933,130.8306 32.4773,130.7146 32.2533,130.5866 L24.4533,126.0026 C24.2613,125.8906 24.1173,125.7346 24.0213,125.5346 C23.9253,125.3346 23.8773,125.1226 23.8773,124.8976 C23.8773,124.6586 23.9253,124.4416 24.0213,124.2506 C24.1173,124.0586 24.2613,123.9066 24.4533,123.7946 L32.2533,119.3066 C32.7163,119.0346 33.0853,118.8976 33.3573,118.8976 C33.6763,118.8976 33.9773,119.0546 34.2573,119.3666 C34.5373,119.6786 34.6773,120.0026 34.6773,120.3386 C34.6773,120.7066 34.5013,120.9946 34.1493,121.2026 L27.7653,124.8976 L34.1253,128.6896 C34.4773,128.8826 34.6533,129.1936 34.6533,129.6266" id="Fill-45" fill="#4F4F51"></path>
        <path d="M37.0293,133.9586 C36.7573,133.7266 36.6213,133.4416 36.6213,133.1056 C36.6213,132.9146 36.6693,132.7226 36.7643,132.5306 L46.5083,112.5866 C46.6213,112.3626 46.7683,112.1876 46.9533,112.0586 C47.1363,111.9306 47.3413,111.8666 47.5653,111.8666 C47.8693,111.8666 48.1533,111.9826 48.4173,112.2146 C48.6803,112.4466 48.8123,112.7296 48.8123,113.0656 C48.8123,113.2586 48.7643,113.4506 48.6693,113.6426 L38.9493,133.5866 C38.8373,133.8106 38.6883,133.9856 38.5053,134.1146 C38.3213,134.2426 38.1173,134.3066 37.8923,134.3066 C37.5893,134.3066 37.3003,134.1896 37.0293,133.9586" id="Fill-47" fill="#4F4F51"></path>
        <path d="M61.3653,124.4547 C61.4613,124.6547 61.5093,124.8667 61.5093,125.0907 C61.5093,125.3307 61.4613,125.5467 61.3653,125.7387 C61.2683,125.9307 61.1253,126.0827 60.9323,126.1937 L53.1333,130.6827 C52.6693,130.9547 52.3013,131.0907 52.0283,131.0907 C51.7093,131.0907 51.4083,130.9337 51.1293,130.6227 C50.8483,130.3097 50.7093,129.9867 50.7093,129.6497 C50.7093,129.2827 50.8853,128.9947 51.2363,128.7867 L57.6213,125.0907 L51.2613,121.2987 C50.9083,121.1057 50.7323,120.7947 50.7323,120.3627 C50.7323,119.9947 50.8653,119.6587 51.1293,119.3537 C51.3923,119.0507 51.6603,118.8977 51.9323,118.8977 C52.0933,118.8977 52.2763,118.9507 52.4843,119.0547 C52.6923,119.1587 52.9083,119.2747 53.1333,119.4017 L60.9323,123.9867 C61.1253,124.0987 61.2683,124.2547 61.3653,124.4547" id="Fill-49" fill="#4F4F51"></path>
        <path d="M65.0723,187.7272 C64.8473,188.0392 64.7363,188.3792 64.7363,188.7482 L64.7363,189.8752 L66.9203,189.8752 C67.3033,189.8752 67.6243,189.9992 67.8803,190.2482 C68.1353,190.4962 68.2633,190.8112 68.2633,191.1952 C68.2633,191.5792 68.1353,191.8952 67.8803,192.1432 C67.6243,192.3912 67.3033,192.5152 66.9203,192.5152 L64.7363,192.5152 L64.7363,201.0112 C64.7363,201.4272 64.5993,201.7752 64.3283,202.0552 C64.0553,202.3352 63.7123,202.4752 63.2963,202.4752 C62.8803,202.4752 62.5363,202.3352 62.2633,202.0552 C61.9923,201.7752 61.8563,201.4272 61.8563,201.0112 L61.8563,192.5152 L60.5603,192.5152 C60.1763,192.5152 59.8553,192.3912 59.5993,192.1432 C59.3433,191.8952 59.2163,191.5792 59.2163,191.1952 C59.2163,190.8112 59.3433,190.4962 59.5993,190.2482 C59.8553,189.9992 60.1763,189.8752 60.5603,189.8752 L61.8563,189.8752 L61.8563,188.7712 C61.8563,187.5712 62.2673,186.5952 63.0923,185.8432 C63.9163,185.0912 65.1033,184.7152 66.6563,184.7152 C67.2483,184.7152 67.7633,184.8352 68.2043,185.0752 C68.6433,185.3152 68.8643,185.6832 68.8643,186.1792 C68.8643,186.5632 68.7523,186.8752 68.5283,187.1152 C68.3033,187.3552 68.0323,187.4752 67.7123,187.4752 C67.6323,187.4752 67.5483,187.4672 67.4603,187.4512 C67.3723,187.4352 67.2803,187.4192 67.1843,187.4032 C66.8003,187.3072 66.4793,187.2592 66.2233,187.2592 C65.6793,187.2592 65.2963,187.4152 65.0723,187.7272" id="Fill-51" fill="#4F4F51"></path>
        <path d="M79.0283,193.9675 C78.7003,193.3515 78.2593,192.8755 77.7083,192.5395 C77.1563,192.2025 76.5443,192.0345 75.8723,192.0345 C75.2003,192.0345 74.5883,192.2025 74.0363,192.5395 C73.4843,192.8755 73.0443,193.3515 72.7163,193.9675 C72.3873,194.5835 72.2233,195.2835 72.2233,196.0675 C72.2233,196.8515 72.3873,197.5475 72.7163,198.1545 C73.0443,198.7635 73.4843,199.2355 74.0363,199.5715 C74.5883,199.9065 75.2003,200.0745 75.8723,200.0745 C76.5443,200.0745 77.1563,199.9065 77.7083,199.5715 C78.2593,199.2355 78.7003,198.7635 79.0283,198.1545 C79.3553,197.5475 79.5193,196.8515 79.5193,196.0675 C79.5193,195.2835 79.3553,194.5835 79.0283,193.9675 M81.5363,199.5115 C80.9603,200.5285 80.1723,201.3155 79.1723,201.8755 C78.1723,202.4355 77.0723,202.7155 75.8723,202.7155 C74.6563,202.7155 73.5513,202.4355 72.5593,201.8755 C71.5673,201.3155 70.7843,200.5285 70.2083,199.5115 C69.6323,198.4955 69.3433,197.3475 69.3433,196.0675 C69.3433,194.7875 69.6323,193.6395 70.2083,192.6235 C70.7843,191.6075 71.5673,190.8155 72.5593,190.2475 C73.5513,189.6795 74.6563,189.3955 75.8723,189.3955 C77.0723,189.3955 78.1723,189.6795 79.1723,190.2475 C80.1723,190.8155 80.9603,191.6075 81.5363,192.6235 C82.1123,193.6395 82.4003,194.7875 82.4003,196.0675 C82.4003,197.3475 82.1123,198.4955 81.5363,199.5115" id="Fill-53" fill="#4F4F51"></path>
        <path d="M92.6846,189.8034 C93.0116,190.0754 93.1756,190.3954 93.1756,190.7634 C93.1756,191.2594 93.0476,191.6314 92.7916,191.8794 C92.5366,192.1274 92.2326,192.2514 91.8796,192.2514 C91.6406,192.2514 91.3686,192.1954 91.0646,192.0834 C91.0166,192.0674 90.9086,192.0344 90.7406,191.9874 C90.5726,191.9394 90.3926,191.9154 90.2006,191.9154 C89.7846,191.9154 89.3836,192.0434 88.9996,192.2994 C88.6166,192.5554 88.2996,192.9434 88.0516,193.4634 C87.8036,193.9834 87.6806,194.6034 87.6806,195.3234 L87.6806,201.0114 C87.6806,201.4274 87.5436,201.7754 87.2726,202.0554 C86.9996,202.3354 86.6566,202.4754 86.2406,202.4754 C85.8246,202.4754 85.4806,202.3354 85.2076,202.0554 C84.9356,201.7754 84.7996,201.4274 84.7996,201.0114 L84.7996,191.0994 C84.7996,190.6834 84.9356,190.3354 85.2076,190.0554 C85.4806,189.7754 85.8246,189.6354 86.2406,189.6354 C86.6566,189.6354 86.9996,189.7754 87.2726,190.0554 C87.5436,190.3354 87.6806,190.6834 87.6806,191.0994 L87.6806,191.4104 C88.0476,190.7554 88.5766,190.2554 89.2646,189.9104 C89.9526,189.5674 90.6886,189.3954 91.4726,189.3954 C91.9526,189.3954 92.3566,189.5314 92.6846,189.8034" id="Fill-55" fill="#4F4F51"></path>
        <path d="M247.4004,168.8444 C247.1284,169.1244 246.7844,169.2644 246.3684,169.2644 C245.9524,169.2644 245.6084,169.1244 245.3364,168.8444 C245.0634,168.5644 244.9274,168.2164 244.9274,167.8004 L244.9274,157.8884 C244.9274,157.4724 245.0634,157.1244 245.3364,156.8444 C245.6084,156.5644 245.9524,156.4244 246.3684,156.4244 C246.7844,156.4244 247.1284,156.5644 247.4004,156.8444 C247.6714,157.1244 247.8084,157.4724 247.8084,157.8884 L247.8084,167.8004 C247.8084,168.2164 247.6714,168.5644 247.4004,168.8444 M245.1924,154.6004 C244.9674,154.4244 244.8564,154.1124 244.8564,153.6644 L244.8564,153.2084 C244.8564,152.7604 244.9764,152.4484 245.2154,152.2724 C245.4564,152.0964 245.8394,152.0084 246.3684,152.0084 C246.9274,152.0084 247.3204,152.0964 247.5444,152.2724 C247.7674,152.4484 247.8794,152.7604 247.8794,153.2084 L247.8794,153.6644 C247.8794,154.1284 247.7634,154.4444 247.5324,154.6124 C247.2994,154.7804 246.9044,154.8644 246.3434,154.8644 C245.7994,154.8644 245.4164,154.7774 245.1924,154.6004" id="Fill-57" fill="#4F4F51"></path>
        <path d="M255.7764,154.5163 C255.5514,154.8283 255.4404,155.1683 255.4404,155.5373 L255.4404,156.6643 L257.6244,156.6643 C258.0074,156.6643 258.3284,156.7883 258.5844,157.0373 C258.8394,157.2853 258.9674,157.6003 258.9674,157.9843 C258.9674,158.3683 258.8394,158.6843 258.5844,158.9323 C258.3284,159.1803 258.0074,159.3043 257.6244,159.3043 L255.4404,159.3043 L255.4404,167.8003 C255.4404,168.2163 255.3034,168.5643 255.0324,168.8443 C254.7594,169.1243 254.4164,169.2643 254.0004,169.2643 C253.5844,169.2643 253.2404,169.1243 252.9674,168.8443 C252.6964,168.5643 252.5604,168.2163 252.5604,167.8003 L252.5604,159.3043 L251.2644,159.3043 C250.8804,159.3043 250.5594,159.1803 250.3034,158.9323 C250.0474,158.6843 249.9204,158.3683 249.9204,157.9843 C249.9204,157.6003 250.0474,157.2853 250.3034,157.0373 C250.5594,156.7883 250.8804,156.6643 251.2644,156.6643 L252.5604,156.6643 L252.5604,155.5603 C252.5604,154.3603 252.9714,153.3843 253.7964,152.6323 C254.6204,151.8803 255.8074,151.5043 257.3604,151.5043 C257.9524,151.5043 258.4674,151.6243 258.9084,151.8643 C259.3474,152.1043 259.5684,152.4723 259.5684,152.9683 C259.5684,153.3523 259.4564,153.6643 259.2324,153.9043 C259.0074,154.1443 258.7364,154.2643 258.4164,154.2643 C258.3364,154.2643 258.2524,154.2563 258.1644,154.2403 C258.0764,154.2243 257.9844,154.2083 257.8884,154.1923 C257.5044,154.0963 257.1834,154.0483 256.9274,154.0483 C256.3834,154.0483 256.0004,154.2043 255.7764,154.5163" id="Fill-59" fill="#4F4F51"></path>
        <path d="M251.0752,93.7585 C251.0752,94.1265 250.9432,94.4625 250.6792,94.7665 C250.4152,95.0705 250.1472,95.2225 249.8752,95.2225 C249.7152,95.2225 249.5312,95.1705 249.3232,95.0665 C249.1152,94.9625 248.8992,94.8465 248.6752,94.7185 L240.8752,90.1345 C240.6832,90.0225 240.5392,89.8665 240.4432,89.6665 C240.3472,89.4665 240.2992,89.2545 240.2992,89.0295 C240.2992,88.7905 240.3472,88.5735 240.4432,88.3825 C240.5392,88.1905 240.6832,88.0385 240.8752,87.9265 L248.6752,83.4385 C249.1382,83.1665 249.5072,83.0295 249.7792,83.0295 C250.0982,83.0295 250.3992,83.1865 250.6792,83.4985 C250.9592,83.8105 251.0992,84.1345 251.0992,84.4705 C251.0992,84.8385 250.9232,85.1265 250.5712,85.3345 L244.1872,89.0295 L250.5472,92.8215 C250.8992,93.0145 251.0752,93.3255 251.0752,93.7585" id="Fill-61" fill="#4F4F51"></path>
        <path d="M253.4512,98.0905 C253.1792,97.8585 253.0432,97.5735 253.0432,97.2375 C253.0432,97.0465 253.0912,96.8545 253.1862,96.6625 L262.9302,76.7185 C263.0432,76.4945 263.1902,76.3195 263.3752,76.1905 C263.5582,76.0625 263.7632,75.9985 263.9872,75.9985 C264.2912,75.9985 264.5752,76.1145 264.8392,76.3465 C265.1022,76.5785 265.2342,76.8615 265.2342,77.1975 C265.2342,77.3905 265.1862,77.5825 265.0912,77.7745 L255.3712,97.7185 C255.2592,97.9425 255.1102,98.1175 254.9272,98.2465 C254.7432,98.3745 254.5392,98.4385 254.3142,98.4385 C254.0112,98.4385 253.7222,98.3215 253.4512,98.0905" id="Fill-63" fill="#4F4F51"></path>
        <path d="M277.7871,88.5866 C277.8831,88.7866 277.9311,88.9986 277.9311,89.2226 C277.9311,89.4626 277.8831,89.6786 277.7871,89.8706 C277.6901,90.0626 277.5471,90.2146 277.3541,90.3256 L269.5551,94.8146 C269.0911,95.0866 268.7231,95.2226 268.4501,95.2226 C268.1311,95.2226 267.8301,95.0656 267.5511,94.7546 C267.2701,94.4416 267.1311,94.1186 267.1311,93.7816 C267.1311,93.4146 267.3071,93.1266 267.6581,92.9186 L274.0431,89.2226 L267.6831,85.4306 C267.3301,85.2376 267.1541,84.9266 267.1541,84.4946 C267.1541,84.1266 267.2871,83.7906 267.5511,83.4856 C267.8141,83.1826 268.0821,83.0296 268.3541,83.0296 C268.5151,83.0296 268.6981,83.0826 268.9061,83.1866 C269.1141,83.2906 269.3301,83.4066 269.5551,83.5336 L277.3541,88.1186 C277.5471,88.2306 277.6901,88.3866 277.7871,88.5866" id="Fill-65" fill="#4F4F51"></path>
    </g>
</svg>
