<?xml version="1.0" encoding="UTF-8"?>
<svg width="300px" height="250px" viewBox="0 0 300 250" version="1.1" xmlns="http://www.w3.org/2000/svg" xmlns:xlink="http://www.w3.org/1999/xlink">
    <title>Illustrations / Python</title>
    <g id="Illustrations-/-Python" stroke="none" stroke-width="1" fill="none" fill-rule="evenodd">
        <g id="Group-16" transform="translate(3.000000, 28.000000)">
            <g id="Group-15" stroke="#E65025" stroke-linecap="round" stroke-linejoin="round" stroke-width="3">
                <path d="M128.6865,66.5026 C125.6385,66.5026 123.1675,64.0316 123.1675,60.9836 C123.1675,57.9356 125.6385,55.4646 128.6865,55.4646 C131.7355,55.4646 134.2065,57.9356 134.2065,60.9836 C134.2065,64.0316 131.7355,66.5026 128.6865,66.5026 Z M147.1015,44.9486 C123.2995,44.9486 114.3705,52.0926 114.3705,60.9026 L114.3705,74.7746 L146.7485,74.7746 L146.7485,79.6166 L102.9975,79.5866 C90.9205,79.5866 81.0465,89.4606 81.0465,101.5276 L81.0465,122.6536 C81.0465,134.7216 90.9205,144.5956 102.9975,144.5956 L111.0295,144.5956 L111.0295,125.8836 C111.0295,116.9446 118.1645,109.6806 127.0475,109.4586 C127.1865,109.4486 127.3255,109.4486 127.4635,109.4486 L144.4725,109.4486 L144.4725,109.4586 L162.4445,109.4586 C172.0495,109.4586 179.8325,101.6666 179.8325,92.0606 L179.8325,60.9026 C179.8325,52.0926 165.1835,44.9486 147.1015,44.9486 Z" id="Stroke-1"></path>
                <path d="M168.1758,158.5162 C171.2238,158.5162 173.6958,160.9872 173.6958,164.0352 C173.6958,167.0832 171.2238,169.5542 168.1758,169.5542 C165.1278,169.5542 162.6568,167.0832 162.6568,164.0352 C162.6568,160.9872 165.1278,158.5162 168.1758,158.5162 Z M149.7618,180.0702 C173.5628,180.0702 182.4928,172.9252 182.4928,164.1162 L182.4928,150.2442 L150.1138,150.2442 L150.1138,145.4022 L193.8658,145.4322 C205.9428,145.4322 215.8168,135.5582 215.8168,123.4912 L215.8168,102.3642 C215.8168,90.2972 205.9428,80.4232 193.8658,80.4232 L185.8338,80.4232 L185.8338,99.1342 C185.8338,108.0742 174.7568,115.5602 169.8158,115.5602 C169.6758,115.5702 169.5368,115.5702 169.3988,115.5702 L152.3898,115.5702 L152.3898,115.5602 L134.4188,115.5602 C124.8138,115.5602 117.0298,123.3522 117.0298,132.9572 L117.0298,164.1162 C117.0298,172.9252 131.6798,180.0702 149.7618,180.0702 Z" id="Stroke-3"></path>
                <path d="M284.4013,193.941 L9.8193,193.941 C4.4183,193.941 0.0003,189.523 0.0003,184.123 L0.0003,9.819 C0.0003,4.419 4.4183,0 9.8193,0 L284.4013,0 C289.8013,0 294.2203,4.419 294.2203,9.819 L294.2203,184.123 C294.2203,189.523 289.8013,193.941 284.4013,193.941 Z" id="Stroke-5"></path>
                <line x1="-9.99200722e-15" y1="26.7765" x2="294.221" y2="26.7765" id="Stroke-7"></line>
                <path d="M273.3828,13.441 C273.3828,10.362 275.8788,7.866 278.9578,7.866 C282.0368,7.866 284.5328,10.362 284.5328,13.441 C284.5328,16.52 282.0368,19.016 278.9578,19.016 C275.8788,19.016 273.3828,16.52 273.3828,13.441 Z" id="Stroke-9"></path>
                <path d="M257.7392,13.441 C257.7392,10.362 260.2352,7.866 263.3142,7.866 C266.3922,7.866 268.8882,10.362 268.8882,13.441 C268.8882,16.52 266.3922,19.016 263.3142,19.016 C260.2352,19.016 257.7392,16.52 257.7392,13.441 Z" id="Stroke-11"></path>
                <path d="M242.0947,13.441 C242.0947,10.362 244.5907,7.866 247.6697,7.866 C250.7487,7.866 253.2447,10.362 253.2447,13.441 C253.2447,16.52 250.7487,19.016 247.6697,19.016 C244.5907,19.016 242.0947,16.52 242.0947,13.441 Z" id="Stroke-13"></path>
            </g>
            <text id="&gt;_" font-family="Quicksand-Bold, Quicksand" font-size="24" font-weight="bold" fill="#E65025">
                <tspan x="17.9792" y="51.3779">&gt;_</tspan>
            </text>
            <text id="{-}" font-family="Quicksand-Bold, Quicksand" font-size="24" font-weight="bold" fill="#E65025">
                <tspan x="67.2992" y="54.1139">{ }</tspan>
            </text>
            <text id="++" font-family="Quicksand-Bold, Quicksand" font-size="24" font-weight="bold" fill="#E65025">
                <tspan x="27.8192" y="134.3219">++</tspan>
            </text>
            <text id="else" font-family="Quicksand-Bold, Quicksand" font-size="24" font-weight="bold" fill="#E65025">
                <tspan x="205.3952" y="169.6499">else</tspan>
            </text>
            <text id="+=" font-family="Quicksand-Bold, Quicksand" font-size="24" font-weight="bold" fill="#E65025">
                <tspan x="234.7472" y="95.8499">+=</tspan>
            </text>
            <text id="[-]" font-family="Quicksand-Bold, Quicksand" font-size="24" font-weight="bold" fill="#E65025">
                <tspan x="194.8352" y="54.2099">[ ]</tspan>
            </text>
            <text id="&lt;/&gt;" font-family="Quicksand-Bold, Quicksand" font-size="24" font-weight="bold" fill="#E65025">
                <tspan x="20.2592" y="96.2579">&lt;/&gt;</tspan>
            </text>
            <text id="for" font-family="Quicksand-Bold, Quicksand" font-size="24" font-weight="bold" fill="#E65025">
                <tspan x="55.4672" y="167.6339">for</tspan>
            </text>
            <text id="if" font-family="Quicksand-Bold, Quicksand" font-size="24" font-weight="bold" fill="#E65025">
                <tspan x="240.5072" y="134.4179">if</tspan>
            </text>
            <text id="&lt;/&gt;" font-family="Quicksand-Bold, Quicksand" font-size="24" font-weight="bold" fill="#E65025">
                <tspan x="236.6672" y="60.3779">&lt;/&gt;</tspan>
            </text>
        </g>
    </g>
</svg>