<?xml version="1.0" encoding="UTF-8"?>
<svg width="300px" height="250px" viewBox="0 0 300 250" version="1.1" xmlns="http://www.w3.org/2000/svg" xmlns:xlink="http://www.w3.org/1999/xlink">
    <title>Illustrations / Vidéo 2</title>
    <g id="Illustrations-/-Vidéo-2" stroke="none" stroke-width="1" fill="none" fill-rule="evenodd">
        <path d="M291.26,23 L291.26,227.965 L280.38,227.965 L280.38,224.291 C280.38,221.609 278.203,219.422 275.51,219.422 L262.443,219.422 C259.75,219.422 257.573,221.609 257.573,224.291 L257.573,227.965 L246.294,227.965 L246.294,214.533 C246.294,209.184 241.957,204.847 236.608,204.847 L63.643,204.847 C58.292,204.847 53.955,209.184 53.955,214.533 L53.955,227.965 L42.579,227.965 L42.579,224.291 C42.579,221.613 40.388,219.422 37.71,219.422 L24.643,219.422 C21.953,219.422 19.774,221.603 19.774,224.291 L19.774,227.965 L9,227.965 L9,23 L19.774,23 L19.774,26.685 C19.774,29.368 21.948,31.543 24.632,31.543 L37.71,31.543 C40.388,31.543 42.579,29.353 42.579,26.674 L42.579,23 L53.955,23 L53.955,36.432 C53.955,41.782 58.292,46.119 63.643,46.119 L236.608,46.119 C241.957,46.119 246.294,41.782 246.294,36.432 L246.294,23 L257.573,23 L257.573,26.685 C257.573,29.367 259.75,31.543 262.443,31.543 L275.51,31.543 C278.203,31.543 280.38,29.367 280.38,26.685 L280.38,23 L291.26,23 Z" id="Stroke-1" stroke="#4F4F51" stroke-width="4" stroke-linecap="round" stroke-linejoin="round"></path>
        <path d="M177.1878,133.4931 L129.0398,157.2821 C123.9988,159.7721 118.0958,156.1041 118.0958,150.4831 L118.0958,100.4821 C118.0958,94.8601 123.9988,91.1931 129.0398,93.6831 L177.1878,117.4721 C183.8248,120.7511 183.8248,130.2151 177.1878,133.4931 M236.6098,61.3651 L63.6438,61.3651 C58.2938,61.3651 53.9578,65.7021 53.9578,71.0521 L53.9578,179.9191 C53.9578,185.2681 58.2938,189.6051 63.6438,189.6051 L236.6098,189.6051 C241.9588,189.6051 246.2958,185.2681 246.2958,179.9191 L246.2958,71.0521 C246.2958,65.7021 241.9588,61.3651 236.6098,61.3651" id="Fill-3" fill-opacity="0.5" fill="#E65025"></path>
        <path d="M37.7102,65.7041 L24.6352,65.7041 C21.9482,65.7041 19.7712,63.5261 19.7712,60.8401 L19.7712,53.4881 C19.7712,50.8021 21.9482,48.6241 24.6352,48.6241 L37.7102,48.6241 C40.3972,48.6241 42.5742,50.8021 42.5742,53.4881 L42.5742,60.8401 C42.5742,63.5261 40.3972,65.7041 37.7102,65.7041 Z" id="Stroke-5" stroke="#4F4F51" stroke-width="4" stroke-linecap="round" stroke-linejoin="round"></path>
        <path d="M37.7102,99.8652 L24.6352,99.8652 C21.9482,99.8652 19.7712,97.6872 19.7712,95.0012 L19.7712,87.6482 C19.7712,84.9632 21.9482,82.7852 24.6352,82.7852 L37.7102,82.7852 C40.3972,82.7852 42.5742,84.9632 42.5742,87.6482 L42.5742,95.0012 C42.5742,97.6872 40.3972,99.8652 37.7102,99.8652 Z" id="Stroke-7" stroke="#4F4F51" stroke-width="4" stroke-linecap="round" stroke-linejoin="round"></path>
        <path d="M37.7102,134.0254 L24.6352,134.0254 C21.9482,134.0254 19.7712,131.8474 19.7712,129.1614 L19.7712,121.8094 C19.7712,119.1234 21.9482,116.9454 24.6352,116.9454 L37.7102,116.9454 C40.3972,116.9454 42.5742,119.1234 42.5742,121.8094 L42.5742,129.1614 C42.5742,131.8474 40.3972,134.0254 37.7102,134.0254 Z" id="Stroke-9" stroke="#4F4F51" stroke-width="4" stroke-linecap="round" stroke-linejoin="round"></path>
        <path d="M37.7102,168.1865 L24.6352,168.1865 C21.9482,168.1865 19.7712,166.0085 19.7712,163.3225 L19.7712,155.9695 C19.7712,153.2835 21.9482,151.1055 24.6352,151.1055 L37.7102,151.1055 C40.3972,151.1055 42.5742,153.2835 42.5742,155.9695 L42.5742,163.3225 C42.5742,166.0085 40.3972,168.1865 37.7102,168.1865 Z" id="Stroke-11" stroke="#4F4F51" stroke-width="4" stroke-linecap="round" stroke-linejoin="round"></path>
        <path d="M37.7102,202.3467 L24.6352,202.3467 C21.9482,202.3467 19.7712,200.1687 19.7712,197.4827 L19.7712,190.1307 C19.7712,187.4447 21.9482,185.2667 24.6352,185.2667 L37.7102,185.2667 C40.3972,185.2667 42.5742,187.4447 42.5742,190.1307 L42.5742,197.4827 C42.5742,200.1687 40.3972,202.3467 37.7102,202.3467 Z" id="Stroke-13" stroke="#4F4F51" stroke-width="4" stroke-linecap="round" stroke-linejoin="round"></path>
        <path d="M275.5159,65.7041 L262.4399,65.7041 C259.7539,65.7041 257.5769,63.5261 257.5769,60.8401 L257.5769,53.4881 C257.5769,50.8021 259.7539,48.6241 262.4399,48.6241 L275.5159,48.6241 C278.2019,48.6241 280.3789,50.8021 280.3789,53.4881 L280.3789,60.8401 C280.3789,63.5261 278.2019,65.7041 275.5159,65.7041 Z" id="Stroke-15" stroke="#4F4F51" stroke-width="4" stroke-linecap="round" stroke-linejoin="round"></path>
        <path d="M275.5159,99.8652 L262.4399,99.8652 C259.7539,99.8652 257.5769,97.6872 257.5769,95.0012 L257.5769,87.6482 C257.5769,84.9632 259.7539,82.7852 262.4399,82.7852 L275.5159,82.7852 C278.2019,82.7852 280.3789,84.9632 280.3789,87.6482 L280.3789,95.0012 C280.3789,97.6872 278.2019,99.8652 275.5159,99.8652 Z" id="Stroke-17" stroke="#4F4F51" stroke-width="4" stroke-linecap="round" stroke-linejoin="round"></path>
        <path d="M275.5159,134.0254 L262.4399,134.0254 C259.7539,134.0254 257.5769,131.8474 257.5769,129.1614 L257.5769,121.8094 C257.5769,119.1234 259.7539,116.9454 262.4399,116.9454 L275.5159,116.9454 C278.2019,116.9454 280.3789,119.1234 280.3789,121.8094 L280.3789,129.1614 C280.3789,131.8474 278.2019,134.0254 275.5159,134.0254 Z" id="Stroke-19" stroke="#4F4F51" stroke-width="4" stroke-linecap="round" stroke-linejoin="round"></path>
        <path d="M275.5159,168.1865 L262.4399,168.1865 C259.7539,168.1865 257.5769,166.0085 257.5769,163.3225 L257.5769,155.9695 C257.5769,153.2835 259.7539,151.1055 262.4399,151.1055 L275.5159,151.1055 C278.2019,151.1055 280.3789,153.2835 280.3789,155.9695 L280.3789,163.3225 C280.3789,166.0085 278.2019,168.1865 275.5159,168.1865 Z" id="Stroke-21" stroke="#4F4F51" stroke-width="4" stroke-linecap="round" stroke-linejoin="round"></path>
        <path d="M275.5159,202.3467 L262.4399,202.3467 C259.7539,202.3467 257.5769,200.1687 257.5769,197.4827 L257.5769,190.1307 C257.5769,187.4447 259.7539,185.2667 262.4399,185.2667 L275.5159,185.2667 C278.2019,185.2667 280.3789,187.4447 280.3789,190.1307 L280.3789,197.4827 C280.3789,200.1687 278.2019,202.3467 275.5159,202.3467 Z" id="Stroke-23" stroke="#4F4F51" stroke-width="4" stroke-linecap="round" stroke-linejoin="round"></path>
        <path d="M129.0384,93.6836 L177.1874,117.4716 C183.8234,120.7506 183.8234,130.2146 177.1874,133.4936 L129.0384,157.2826 C123.9984,159.7726 118.0964,156.1056 118.0964,150.4836 L118.0964,100.4826 C118.0964,94.8606 123.9984,91.1936 129.0384,93.6836 Z" id="Stroke-25" stroke="#4F4F51" stroke-width="4" stroke-linecap="round" stroke-linejoin="round"></path>
    </g>
</svg>