<?xml version="1.0" encoding="UTF-8"?>
<svg width="300px" height="250px" viewBox="0 0 300 250" version="1.1" xmlns="http://www.w3.org/2000/svg" xmlns:xlink="http://www.w3.org/1999/xlink">
    <title>Illustrations / Vidéo</title>
    <g id="Illustrations-/-Vidéo" stroke="none" stroke-width="1" fill="none" fill-rule="evenodd" stroke-linecap="round" stroke-linejoin="round">
        <g id="Group-27" transform="translate(9.000000, 23.000000)" stroke="#E65025" stroke-width="3">
            <path d="M282.26,0 L282.26,204.965 L271.38,204.965 L271.38,201.291 C271.38,198.608 269.203,196.422 266.51,196.422 L253.443,196.422 C250.75,196.422 248.573,198.608 248.573,201.291 L248.573,204.965 L237.294,204.965 L237.294,191.533 C237.294,186.183 232.957,181.846 227.608,181.846 L54.643,181.846 C49.292,181.846 44.955,186.183 44.955,191.533 L44.955,204.965 L33.579,204.965 L33.579,201.291 C33.579,198.613 31.388,196.422 28.71,196.422 L15.643,196.422 C12.953,196.422 10.774,198.602 10.774,201.291 L10.774,204.965 L0,204.965 L0,0 L10.774,0 L10.774,3.685 C10.774,6.368 12.948,8.543 15.632,8.543 L28.71,8.543 C31.388,8.543 33.579,6.352 33.579,3.674 L33.579,0 L44.955,0 L44.955,13.432 C44.955,18.782 49.292,23.119 54.643,23.119 L227.608,23.119 C232.957,23.119 237.294,18.782 237.294,13.432 L237.294,0 L248.573,0 L248.573,3.685 C248.573,6.367 250.75,8.543 253.443,8.543 L266.51,8.543 C269.203,8.543 271.38,6.367 271.38,3.685 L271.38,0 L282.26,0 Z" id="Stroke-1"></path>
            <path d="M227.6097,166.6055 L54.6437,166.6055 C49.2947,166.6055 44.9577,162.2685 44.9577,156.9185 L44.9577,48.0515 C44.9577,42.7015 49.2947,38.3645 54.6437,38.3645 L227.6097,38.3645 C232.9597,38.3645 237.2967,42.7015 237.2967,48.0515 L237.2967,156.9185 C237.2967,162.2685 232.9597,166.6055 227.6097,166.6055 Z" id="Stroke-3"></path>
            <path d="M28.7102,42.7041 L15.6352,42.7041 C12.9482,42.7041 10.7712,40.5261 10.7712,37.8401 L10.7712,30.4881 C10.7712,27.8011 12.9482,25.6231 15.6352,25.6231 L28.7102,25.6231 C31.3972,25.6231 33.5742,27.8011 33.5742,30.4881 L33.5742,37.8401 C33.5742,40.5261 31.3972,42.7041 28.7102,42.7041 Z" id="Stroke-5"></path>
            <path d="M28.7102,76.8648 L15.6352,76.8648 C12.9482,76.8648 10.7712,74.6868 10.7712,72.0008 L10.7712,64.6488 C10.7712,61.9618 12.9482,59.7838 15.6352,59.7838 L28.7102,59.7838 C31.3972,59.7838 33.5742,61.9618 33.5742,64.6488 L33.5742,72.0008 C33.5742,74.6868 31.3972,76.8648 28.7102,76.8648 Z" id="Stroke-7"></path>
            <path d="M28.7102,111.0254 L15.6352,111.0254 C12.9482,111.0254 10.7712,108.8474 10.7712,106.1614 L10.7712,98.8094 C10.7712,96.1224 12.9482,93.9444 15.6352,93.9444 L28.7102,93.9444 C31.3972,93.9444 33.5742,96.1224 33.5742,98.8094 L33.5742,106.1614 C33.5742,108.8474 31.3972,111.0254 28.7102,111.0254 Z" id="Stroke-9"></path>
            <path d="M28.7102,145.1856 L15.6352,145.1856 C12.9482,145.1856 10.7712,143.0076 10.7712,140.3226 L10.7712,132.9696 C10.7712,130.2836 12.9482,128.1056 15.6352,128.1056 L28.7102,128.1056 C31.3972,128.1056 33.5742,130.2836 33.5742,132.9696 L33.5742,140.3226 C33.5742,143.0076 31.3972,145.1856 28.7102,145.1856 Z" id="Stroke-11"></path>
            <path d="M28.7102,179.3467 L15.6352,179.3467 C12.9482,179.3467 10.7712,177.1687 10.7712,174.4827 L10.7712,167.1297 C10.7712,164.4447 12.9482,162.2667 15.6352,162.2667 L28.7102,162.2667 C31.3972,162.2667 33.5742,164.4447 33.5742,167.1297 L33.5742,174.4827 C33.5742,177.1687 31.3972,179.3467 28.7102,179.3467 Z" id="Stroke-13"></path>
            <path d="M266.5159,42.7041 L253.4399,42.7041 C250.7539,42.7041 248.5769,40.5261 248.5769,37.8401 L248.5769,30.4881 C248.5769,27.8011 250.7539,25.6231 253.4399,25.6231 L266.5159,25.6231 C269.2019,25.6231 271.3789,27.8011 271.3789,30.4881 L271.3789,37.8401 C271.3789,40.5261 269.2019,42.7041 266.5159,42.7041 Z" id="Stroke-15"></path>
            <path d="M266.5159,76.8648 L253.4399,76.8648 C250.7539,76.8648 248.5769,74.6868 248.5769,72.0008 L248.5769,64.6488 C248.5769,61.9618 250.7539,59.7838 253.4399,59.7838 L266.5159,59.7838 C269.2019,59.7838 271.3789,61.9618 271.3789,64.6488 L271.3789,72.0008 C271.3789,74.6868 269.2019,76.8648 266.5159,76.8648 Z" id="Stroke-17"></path>
            <path d="M266.5159,111.0254 L253.4399,111.0254 C250.7539,111.0254 248.5769,108.8474 248.5769,106.1614 L248.5769,98.8094 C248.5769,96.1224 250.7539,93.9444 253.4399,93.9444 L266.5159,93.9444 C269.2019,93.9444 271.3789,96.1224 271.3789,98.8094 L271.3789,106.1614 C271.3789,108.8474 269.2019,111.0254 266.5159,111.0254 Z" id="Stroke-19"></path>
            <path d="M266.5159,145.1856 L253.4399,145.1856 C250.7539,145.1856 248.5769,143.0076 248.5769,140.3226 L248.5769,132.9696 C248.5769,130.2836 250.7539,128.1056 253.4399,128.1056 L266.5159,128.1056 C269.2019,128.1056 271.3789,130.2836 271.3789,132.9696 L271.3789,140.3226 C271.3789,143.0076 269.2019,145.1856 266.5159,145.1856 Z" id="Stroke-21"></path>
            <path d="M266.5159,179.3467 L253.4399,179.3467 C250.7539,179.3467 248.5769,177.1687 248.5769,174.4827 L248.5769,167.1297 C248.5769,164.4447 250.7539,162.2667 253.4399,162.2667 L266.5159,162.2667 C269.2019,162.2667 271.3789,164.4447 271.3789,167.1297 L271.3789,174.4827 C271.3789,177.1687 269.2019,179.3467 266.5159,179.3467 Z" id="Stroke-23"></path>
            <path d="M120.0384,70.6831 L168.1874,94.4721 C174.8234,97.7501 174.8234,107.2141 168.1874,110.4931 L120.0384,134.2821 C114.9984,136.7721 109.0964,133.1041 109.0964,127.4831 L109.0964,77.4821 C109.0964,71.8601 114.9984,68.1931 120.0384,70.6831 Z" id="Stroke-25"></path>
        </g>
    </g>
</svg>