<?xml version="1.0" encoding="UTF-8"?>
<svg width="300px" height="250px" viewBox="0 0 300 250" version="1.1" xmlns="http://www.w3.org/2000/svg" xmlns:xlink="http://www.w3.org/1999/xlink">
    <title>Illustrations / ZIP 2</title>
    <g id="Illustrations-/-ZIP-2" stroke="none" stroke-width="1" fill="none" fill-rule="evenodd">
        <g id="Group-76" transform="translate(27.999500, 17.000000)">
            <path d="M63.4407,12.2755 C63.4697,12.2755 63.4987,12.2835 63.5277,12.2845 L52.1377,1.8205 C52.1437,1.8805 52.1567,1.9385 52.1567,2.0005 L52.1567,12.3405 L63.4407,12.2755 Z" id="Fill-1" class="-fillPrimary" fill-opacity="0.5" fill="#E65025"></path>
            <path d="M63.887,16.212 C63.743,16.247 63.596,16.275 63.441,16.275 L52.091,16.275 C49.921,16.275 48.157,14.511 48.157,12.341 L48.157,3.75 L48.157,2 L48.157,0 L4.816,0 C2.156,0 0,2.155 0,4.815 L0,92.868 C0,95.527 2.156,97.683 4.816,97.683 L23.718,97.683 L23.718,64.656 L23.718,59.03 L23.718,35.744 C23.718,32.947 26.006,30.659 28.803,30.659 L64.441,30.659 L64.441,16.212 L63.887,16.212 Z" id="Fill-3" class="-fillPrimary" fill-opacity="0.5" fill="#E65025"></path>
            <path d="M108.9378,171.8497 L220.9148,171.8497 C225.4808,171.8497 229.2168,168.1137 229.2168,163.5467 L229.2168,59.0307 C229.2168,54.4637 225.4808,50.7277 220.9148,50.7277 L111.4648,50.7277 C109.0488,50.7277 106.8778,49.2497 105.9908,47.0017 L101.8888,36.6087 C100.4728,33.0187 97.0048,30.6597 93.1458,30.6597 L28.8028,30.6597 C26.0058,30.6597 23.7178,32.9477 23.7178,35.7447 L23.7178,59.0307 L23.7178,64.6567 L23.7178,163.5467 C23.7178,168.1137 27.4548,171.8497 32.0208,171.8497 L56.8058,171.8497" id="Stroke-6" stroke="#4F4F51" stroke-width="4" stroke-linecap="round" stroke-linejoin="round"></path>
            <line x1="192.6331" y1="50.7276" x2="192.6331" y2="146.0736" id="Stroke-8" stroke="#4F4F51" stroke-width="4" stroke-linecap="round" stroke-linejoin="round"></line>
            <line x1="191.8557" y1="58.7657" x2="185.6097" y2="58.7657" id="Stroke-10" stroke="#4F4F51" stroke-width="4" stroke-linecap="round" stroke-linejoin="round"></line>
            <line x1="191.8557" y1="67.0411" x2="185.6097" y2="67.0411" id="Stroke-12" stroke="#4F4F51" stroke-width="4" stroke-linecap="round" stroke-linejoin="round"></line>
            <line x1="191.8557" y1="75.3165" x2="185.6097" y2="75.3165" id="Stroke-14" stroke="#4F4F51" stroke-width="4" stroke-linecap="round" stroke-linejoin="round"></line>
            <line x1="191.8557" y1="83.5919" x2="185.6097" y2="83.5919" id="Stroke-16" stroke="#4F4F51" stroke-width="4" stroke-linecap="round" stroke-linejoin="round"></line>
            <line x1="191.8557" y1="91.8673" x2="185.6097" y2="91.8673" id="Stroke-18" stroke="#4F4F51" stroke-width="4" stroke-linecap="round" stroke-linejoin="round"></line>
            <line x1="191.8557" y1="100.1427" x2="185.6097" y2="100.1427" id="Stroke-20" stroke="#4F4F51" stroke-width="4" stroke-linecap="round" stroke-linejoin="round"></line>
            <line x1="191.8557" y1="108.418" x2="185.6097" y2="108.418" id="Stroke-22" stroke="#4F4F51" stroke-width="4" stroke-linecap="round" stroke-linejoin="round"></line>
            <line x1="191.8557" y1="116.6934" x2="185.6097" y2="116.6934" id="Stroke-24" stroke="#4F4F51" stroke-width="4" stroke-linecap="round" stroke-linejoin="round"></line>
            <line x1="191.8557" y1="124.9688" x2="185.6097" y2="124.9688" id="Stroke-26" stroke="#4F4F51" stroke-width="4" stroke-linecap="round" stroke-linejoin="round"></line>
            <line x1="191.8557" y1="133.2442" x2="185.6097" y2="133.2442" id="Stroke-28" stroke="#4F4F51" stroke-width="4" stroke-linecap="round" stroke-linejoin="round"></line>
            <line x1="191.8557" y1="141.5196" x2="185.6097" y2="141.5196" id="Stroke-30" stroke="#4F4F51" stroke-width="4" stroke-linecap="round" stroke-linejoin="round"></line>
            <line x1="199.7171" y1="63.3194" x2="193.4711" y2="63.3194" id="Stroke-32" stroke="#4F4F51" stroke-width="4" stroke-linecap="round" stroke-linejoin="round"></line>
            <line x1="199.7171" y1="71.5948" x2="193.4711" y2="71.5948" id="Stroke-34" stroke="#4F4F51" stroke-width="4" stroke-linecap="round" stroke-linejoin="round"></line>
            <line x1="199.7171" y1="79.8702" x2="193.4711" y2="79.8702" id="Stroke-36" stroke="#4F4F51" stroke-width="4" stroke-linecap="round" stroke-linejoin="round"></line>
            <line x1="199.7171" y1="88.1456" x2="193.4711" y2="88.1456" id="Stroke-38" stroke="#4F4F51" stroke-width="4" stroke-linecap="round" stroke-linejoin="round"></line>
            <line x1="199.7171" y1="96.421" x2="193.4711" y2="96.421" id="Stroke-40" stroke="#4F4F51" stroke-width="4" stroke-linecap="round" stroke-linejoin="round"></line>
            <line x1="199.7171" y1="104.6964" x2="193.4711" y2="104.6964" id="Stroke-42" stroke="#4F4F51" stroke-width="4" stroke-linecap="round" stroke-linejoin="round"></line>
            <line x1="199.7171" y1="112.9718" x2="193.4711" y2="112.9718" id="Stroke-44" stroke="#4F4F51" stroke-width="4" stroke-linecap="round" stroke-linejoin="round"></line>
            <line x1="199.7171" y1="121.2472" x2="193.4711" y2="121.2472" id="Stroke-46" stroke="#4F4F51" stroke-width="4" stroke-linecap="round" stroke-linejoin="round"></line>
            <line x1="199.7171" y1="129.5225" x2="193.4711" y2="129.5225" id="Stroke-48" stroke="#4F4F51" stroke-width="4" stroke-linecap="round" stroke-linejoin="round"></line>
            <line x1="199.7171" y1="137.7979" x2="193.4711" y2="137.7979" id="Stroke-50" stroke="#4F4F51" stroke-width="4" stroke-linecap="round" stroke-linejoin="round"></line>
            <line x1="199.7171" y1="146.0733" x2="193.4711" y2="146.0733" id="Stroke-52" stroke="#4F4F51" stroke-width="4" stroke-linecap="round" stroke-linejoin="round"></line>
            <path d="M187.2493,158.3741 C187.2493,155.4001 192.6333,146.0731 192.6333,146.0731 C192.6333,146.0731 198.0183,155.4001 198.0183,158.3741 C198.0183,161.3481 195.6073,163.7591 192.6333,163.7591 C189.6593,163.7591 187.2493,161.3481 187.2493,158.3741 Z" id="Stroke-54" stroke="#4F4F51" stroke-width="4" stroke-linecap="round" stroke-linejoin="round"></path>
            <path d="M191.638,157.796 C191.638,157.246 192.083,156.8 192.633,156.8 C193.184,156.8 193.629,157.246 193.629,157.796 C193.629,158.347 193.184,158.792 192.633,158.792 C192.083,158.792 191.638,158.347 191.638,157.796 Z" id="Stroke-56" stroke="#4F4F51" stroke-width="4" stroke-linecap="round" stroke-linejoin="round"></path>
            <path d="M61.845,182.2452 L61.845,211.3362 C61.845,214.2472 64.204,216.6062 67.116,216.6062 L98.628,216.6062 C101.539,216.6062 103.9,214.2472 103.9,211.3362 L103.9,182.2452 L111.047,182.2452 C113.451,182.2452 114.656,179.3392 112.955,177.6392 L88.735,153.4182 C85.496,150.1802 80.247,150.1802 77.01,153.4182 L52.789,177.6392 C51.089,179.3392 52.293,182.2452 54.698,182.2452 L61.845,182.2452 Z" id="Fill-58" class="-fillPrimary" fill-opacity="0.5" fill="#E65025"></path>
            <path d="M61.845,182.2452 L61.845,211.3362 C61.845,214.2472 64.204,216.6062 67.116,216.6062 L98.628,216.6062 C101.539,216.6062 103.9,214.2472 103.9,211.3362 L103.9,182.2452 L111.047,182.2452 C113.451,182.2452 114.656,179.3392 112.955,177.6392 L88.735,153.4182 C85.496,150.1802 80.247,150.1802 77.01,153.4182 L52.789,177.6392 C51.089,179.3392 52.293,182.2452 54.698,182.2452 L61.845,182.2452 Z" id="Stroke-60" stroke="#4F4F51" stroke-width="4" stroke-linecap="round" stroke-linejoin="round"></path>
            <path d="M138.6057,50.7276 L138.6057,16.9166 C138.6057,14.9696 140.1987,13.3766 142.1457,13.3766 L241.1287,13.3766 C243.0767,13.3766 244.6687,14.9696 244.6687,16.9166 L244.6687,79.7506 C244.6687,81.6986 243.0767,83.2906 241.1287,83.2906 L229.2167,83.2906" id="Stroke-62" stroke="#4F4F51" stroke-width="4" stroke-linecap="round" stroke-linejoin="round"></path>
            <line x1="138.6057" y1="23.0294" x2="244.6687" y2="23.0294" id="Stroke-64" stroke="#4F4F51" stroke-width="4" stroke-linecap="round" stroke-linejoin="round"></line>
            <path d="M237.1575,18.2218 C237.1575,17.1128 238.0575,16.2118 239.1675,16.2118 C240.2775,16.2118 241.1775,17.1128 241.1775,18.2218 C241.1775,19.3318 240.2775,20.2318 239.1675,20.2318 C238.0575,20.2318 237.1575,19.3318 237.1575,18.2218" id="Fill-66" class="-fillPrimary" fill-opacity="0.5" fill="#E65025"></path>
            <path d="M231.5178,18.2218 C231.5178,17.1128 232.4178,16.2118 233.5278,16.2118 C234.6378,16.2118 235.5378,17.1128 235.5378,18.2218 C235.5378,19.3318 234.6378,20.2318 233.5278,20.2318 C232.4178,20.2318 231.5178,19.3318 231.5178,18.2218" id="Fill-68" class="-fillPrimary" fill-opacity="0.5" fill="#E65025"></path>
            <path d="M225.8782,18.2218 C225.8782,17.1128 226.7782,16.2118 227.8882,16.2118 C228.9982,16.2118 229.8982,17.1128 229.8982,18.2218 C229.8982,19.3318 228.9982,20.2318 227.8882,20.2318 C226.7782,20.2318 225.8782,19.3318 225.8782,18.2218" id="Fill-70" class="-fillPrimary" fill-opacity="0.5" fill="#E65025"></path>
            <path d="M231.5227,30.1358 L151.9897,30.1358 C148.3197,30.1358 145.3437,33.1118 145.3437,36.7818 L145.3437,50.7278 L220.9147,50.7278 C225.4807,50.7278 229.2167,54.4638 229.2167,59.0308 L229.2167,75.7948 L231.5227,75.7948 C235.1927,75.7948 238.1677,72.8208 238.1677,69.1508 L238.1677,36.7818 C238.1677,33.1118 235.1927,30.1358 231.5227,30.1358" id="Fill-72" class="-fillPrimary" fill-opacity="0.5" fill="#E65025"></path>
            <path d="M108.9378,171.8497 L220.9148,171.8497 C225.4808,171.8497 229.2168,168.1137 229.2168,163.5467 L229.2168,59.0307 C229.2168,54.4637 225.4808,50.7277 220.9148,50.7277 L111.4648,50.7277 C109.0488,50.7277 106.8778,49.2497 105.9908,47.0017 L101.8888,36.6087 C100.4728,33.0187 97.0048,30.6597 93.1458,30.6597 L28.8028,30.6597 C26.0058,30.6597 23.7178,32.9477 23.7178,35.7447 L23.7178,59.0307 L23.7178,64.6567 L23.7178,163.5467 C23.7178,168.1137 27.4548,171.8497 32.0208,171.8497 L56.8058,171.8497" id="Stroke-74" stroke="#4F4F51" stroke-width="4" stroke-linecap="round" stroke-linejoin="round"></path>
        </g>
    </g>
</svg>
