<?xml version="1.0" encoding="UTF-8"?>
<svg width="300px" height="250px" viewBox="0 0 300 250" version="1.1" xmlns="http://www.w3.org/2000/svg" xmlns:xlink="http://www.w3.org/1999/xlink">
    <title>Illustrations / ZIP 2</title>
    <g id="Illustrations-/-ZIP-2" stroke="none" stroke-width="1" fill="none" fill-rule="evenodd">
        <path d="M91.4402,29.2755 C91.4692,29.2755 91.4982,29.2835 91.5272,29.2845 L80.1372,18.8205 C80.1432,18.8805 80.1562,18.9385 80.1562,19.0005 L80.1562,29.3405 L91.4402,29.2755 Z" id="Fill-1" class="-fillPrimary" fill-opacity="0.5" fill="#E65025"></path>
        <path d="M91.8865,33.212 C91.7425,33.247 91.5955,33.275 91.4405,33.275 L80.0905,33.275 C77.9205,33.275 76.1565,31.511 76.1565,29.341 L76.1565,20.75 L76.1565,19 L76.1565,17 L32.8155,17 C30.1555,17 27.9995,19.155 27.9995,21.815 L27.9995,109.868 C27.9995,112.527 30.1555,114.683 32.8155,114.683 L51.7175,114.683 L51.7175,81.656 L51.7175,76.03 L51.7175,52.744 C51.7175,49.947 54.0055,47.659 56.8025,47.659 L92.4405,47.659 L92.4405,33.212 L91.8865,33.212 Z" id="Fill-3" class="-fillPrimary" fill-opacity="0.5" fill="#E65025"></path>
        <path d="M136.9373,188.8497 L248.9143,188.8497 C253.4803,188.8497 257.2163,185.1137 257.2163,180.5467 L257.2163,76.0307 C257.2163,71.4637 253.4803,67.7277 248.9143,67.7277 L139.4643,67.7277 C137.0483,67.7277 134.8773,66.2497 133.9903,64.0017 L129.8883,53.6087 C128.4723,50.0187 125.0043,47.6597 121.1453,47.6597 L56.8023,47.6597 C54.0053,47.6597 51.7173,49.9477 51.7173,52.7447 L51.7173,76.0307 L51.7173,81.6567 L51.7173,180.5467 C51.7173,185.1137 55.4543,188.8497 60.0203,188.8497 L84.8053,188.8497" id="Stroke-6" stroke="#4F4F51" stroke-width="4" stroke-linecap="round" stroke-linejoin="round"></path>
        <line x1="220.6326" y1="67.7276" x2="220.6326" y2="163.0736" id="Stroke-8" stroke="#4F4F51" stroke-width="4" stroke-linecap="round" stroke-linejoin="round"></line>
        <line x1="219.8552" y1="75.7657" x2="213.6092" y2="75.7657" id="Stroke-10" stroke="#4F4F51" stroke-width="4" stroke-linecap="round" stroke-linejoin="round"></line>
        <line x1="219.8552" y1="84.0411" x2="213.6092" y2="84.0411" id="Stroke-12" stroke="#4F4F51" stroke-width="4" stroke-linecap="round" stroke-linejoin="round"></line>
        <line x1="219.8552" y1="92.3165" x2="213.6092" y2="92.3165" id="Stroke-14" stroke="#4F4F51" stroke-width="4" stroke-linecap="round" stroke-linejoin="round"></line>
        <line x1="219.8552" y1="100.5919" x2="213.6092" y2="100.5919" id="Stroke-16" stroke="#4F4F51" stroke-width="4" stroke-linecap="round" stroke-linejoin="round"></line>
        <line x1="219.8552" y1="108.8673" x2="213.6092" y2="108.8673" id="Stroke-18" stroke="#4F4F51" stroke-width="4" stroke-linecap="round" stroke-linejoin="round"></line>
        <line x1="219.8552" y1="117.1427" x2="213.6092" y2="117.1427" id="Stroke-20" stroke="#4F4F51" stroke-width="4" stroke-linecap="round" stroke-linejoin="round"></line>
        <line x1="219.8552" y1="125.418" x2="213.6092" y2="125.418" id="Stroke-22" stroke="#4F4F51" stroke-width="4" stroke-linecap="round" stroke-linejoin="round"></line>
        <line x1="219.8552" y1="133.6934" x2="213.6092" y2="133.6934" id="Stroke-24" stroke="#4F4F51" stroke-width="4" stroke-linecap="round" stroke-linejoin="round"></line>
        <line x1="219.8552" y1="141.9688" x2="213.6092" y2="141.9688" id="Stroke-26" stroke="#4F4F51" stroke-width="4" stroke-linecap="round" stroke-linejoin="round"></line>
        <line x1="219.8552" y1="150.2442" x2="213.6092" y2="150.2442" id="Stroke-28" stroke="#4F4F51" stroke-width="4" stroke-linecap="round" stroke-linejoin="round"></line>
        <line x1="219.8552" y1="158.5196" x2="213.6092" y2="158.5196" id="Stroke-30" stroke="#4F4F51" stroke-width="4" stroke-linecap="round" stroke-linejoin="round"></line>
        <line x1="227.7166" y1="80.3194" x2="221.4706" y2="80.3194" id="Stroke-32" stroke="#4F4F51" stroke-width="4" stroke-linecap="round" stroke-linejoin="round"></line>
        <line x1="227.7166" y1="88.5948" x2="221.4706" y2="88.5948" id="Stroke-34" stroke="#4F4F51" stroke-width="4" stroke-linecap="round" stroke-linejoin="round"></line>
        <line x1="227.7166" y1="96.8702" x2="221.4706" y2="96.8702" id="Stroke-36" stroke="#4F4F51" stroke-width="4" stroke-linecap="round" stroke-linejoin="round"></line>
        <line x1="227.7166" y1="105.1456" x2="221.4706" y2="105.1456" id="Stroke-38" stroke="#4F4F51" stroke-width="4" stroke-linecap="round" stroke-linejoin="round"></line>
        <line x1="227.7166" y1="113.421" x2="221.4706" y2="113.421" id="Stroke-40" stroke="#4F4F51" stroke-width="4" stroke-linecap="round" stroke-linejoin="round"></line>
        <line x1="227.7166" y1="121.6964" x2="221.4706" y2="121.6964" id="Stroke-42" stroke="#4F4F51" stroke-width="4" stroke-linecap="round" stroke-linejoin="round"></line>
        <line x1="227.7166" y1="129.9718" x2="221.4706" y2="129.9718" id="Stroke-44" stroke="#4F4F51" stroke-width="4" stroke-linecap="round" stroke-linejoin="round"></line>
        <line x1="227.7166" y1="138.2472" x2="221.4706" y2="138.2472" id="Stroke-46" stroke="#4F4F51" stroke-width="4" stroke-linecap="round" stroke-linejoin="round"></line>
        <line x1="227.7166" y1="146.5225" x2="221.4706" y2="146.5225" id="Stroke-48" stroke="#4F4F51" stroke-width="4" stroke-linecap="round" stroke-linejoin="round"></line>
        <line x1="227.7166" y1="154.7979" x2="221.4706" y2="154.7979" id="Stroke-50" stroke="#4F4F51" stroke-width="4" stroke-linecap="round" stroke-linejoin="round"></line>
        <line x1="227.7166" y1="163.0733" x2="221.4706" y2="163.0733" id="Stroke-52" stroke="#4F4F51" stroke-width="4" stroke-linecap="round" stroke-linejoin="round"></line>
        <path d="M215.2488,175.3741 C215.2488,172.4001 220.6328,163.0731 220.6328,163.0731 C220.6328,163.0731 226.0178,172.4001 226.0178,175.3741 C226.0178,178.3481 223.6068,180.7591 220.6328,180.7591 C217.6588,180.7591 215.2488,178.3481 215.2488,175.3741 Z" id="Stroke-54" stroke="#4F4F51" stroke-width="4" stroke-linecap="round" stroke-linejoin="round"></path>
        <path d="M219.6375,174.796 C219.6375,174.246 220.0825,173.8 220.6325,173.8 C221.1835,173.8 221.6285,174.246 221.6285,174.796 C221.6285,175.347 221.1835,175.792 220.6325,175.792 C220.0825,175.792 219.6375,175.347 219.6375,174.796 Z" id="Stroke-56" stroke="#4F4F51" stroke-width="4" stroke-linecap="round" stroke-linejoin="round"></path>
        <path d="M89.8445,199.2452 L89.8445,228.3362 C89.8445,231.2472 92.2035,233.6062 95.1155,233.6062 L126.6275,233.6062 C129.5385,233.6062 131.8995,231.2472 131.8995,228.3362 L131.8995,199.2452 L139.0465,199.2452 C141.4505,199.2452 142.6555,196.3392 140.9545,194.6392 L116.7345,170.4182 C113.4955,167.1802 108.2465,167.1802 105.0095,170.4182 L80.7885,194.6392 C79.0885,196.3392 80.2925,199.2452 82.6975,199.2452 L89.8445,199.2452 Z" id="Fill-58" class="-fillPrimary"  fill-opacity="0.5" fill="#E65025"></path>
        <path d="M89.8445,199.2452 L89.8445,228.3362 C89.8445,231.2472 92.2035,233.6062 95.1155,233.6062 L126.6275,233.6062 C129.5385,233.6062 131.8995,231.2472 131.8995,228.3362 L131.8995,199.2452 L139.0465,199.2452 C141.4505,199.2452 142.6555,196.3392 140.9545,194.6392 L116.7345,170.4182 C113.4955,167.1802 108.2465,167.1802 105.0095,170.4182 L80.7885,194.6392 C79.0885,196.3392 80.2925,199.2452 82.6975,199.2452 L89.8445,199.2452 Z" id="Stroke-60" stroke="#4F4F51" stroke-width="4" stroke-linecap="round" stroke-linejoin="round"></path>
        <path d="M166.6052,67.7276 L166.6052,33.9166 C166.6052,31.9696 168.1982,30.3766 170.1452,30.3766 L269.1282,30.3766 C271.0762,30.3766 272.6682,31.9696 272.6682,33.9166 L272.6682,96.7506 C272.6682,98.6986 271.0762,100.2906 269.1282,100.2906 L257.2162,100.2906" id="Stroke-62" stroke="#4F4F51" stroke-width="4" stroke-linecap="round" stroke-linejoin="round"></path>
        <line x1="166.6052" y1="40.0294" x2="272.6682" y2="40.0294" id="Stroke-64" stroke="#4F4F51" stroke-width="4" stroke-linecap="round" stroke-linejoin="round"></line>
        <path d="M265.157,35.2218 C265.157,34.1128 266.057,33.2118 267.167,33.2118 C268.277,33.2118 269.177,34.1128 269.177,35.2218 C269.177,36.3318 268.277,37.2318 267.167,37.2318 C266.057,37.2318 265.157,36.3318 265.157,35.2218" id="Fill-66" fill="#4F4F51"></path>
        <path d="M259.5173,35.2218 C259.5173,34.1128 260.4173,33.2118 261.5273,33.2118 C262.6373,33.2118 263.5373,34.1128 263.5373,35.2218 C263.5373,36.3318 262.6373,37.2318 261.5273,37.2318 C260.4173,37.2318 259.5173,36.3318 259.5173,35.2218" id="Fill-68" fill="#4F4F51"></path>
        <path d="M253.8777,35.2218 C253.8777,34.1128 254.7777,33.2118 255.8877,33.2118 C256.9977,33.2118 257.8977,34.1128 257.8977,35.2218 C257.8977,36.3318 256.9977,37.2318 255.8877,37.2318 C254.7777,37.2318 253.8777,36.3318 253.8777,35.2218" id="Fill-70" fill="#4F4F51"></path>
        <path d="M259.5222,47.1358 L179.9892,47.1358 C176.3192,47.1358 173.3432,50.1118 173.3432,53.7818 L173.3432,67.7278 L248.9142,67.7278 C253.4802,67.7278 257.2162,71.4638 257.2162,76.0308 L257.2162,92.7948 L259.5222,92.7948 C263.1922,92.7948 266.1672,89.8208 266.1672,86.1508 L266.1672,53.7818 C266.1672,50.1118 263.1922,47.1358 259.5222,47.1358" id="Fill-72" class="-fillPrimary"  fill-opacity="0.5" fill="#E65025"></path>
        <path d="M136.9373,188.8497 L248.9143,188.8497 C253.4803,188.8497 257.2163,185.1137 257.2163,180.5467 L257.2163,76.0307 C257.2163,71.4637 253.4803,67.7277 248.9143,67.7277 L139.4643,67.7277 C137.0483,67.7277 134.8773,66.2497 133.9903,64.0017 L129.8883,53.6087 C128.4723,50.0187 125.0043,47.6597 121.1453,47.6597 L56.8023,47.6597 C54.0053,47.6597 51.7173,49.9477 51.7173,52.7447 L51.7173,76.0307 L51.7173,81.6567 L51.7173,180.5467 C51.7173,185.1137 55.4543,188.8497 60.0203,188.8497 L84.8053,188.8497" id="Stroke-74" stroke="#4F4F51" stroke-width="4" stroke-linecap="round" stroke-linejoin="round"></path>
    </g>
</svg>
