<?xml version="1.0" encoding="UTF-8"?>
<svg width="300px" height="250px" viewBox="0 0 300 250" version="1.1" xmlns="http://www.w3.org/2000/svg" xmlns:xlink="http://www.w3.org/1999/xlink">
    <title>Illustrations / ZIP</title>
    <g id="Illustrations-/-ZIP" stroke="none" stroke-width="1" fill="none" fill-rule="evenodd">
        <g id="Group-69" transform="translate(28.000000, 17.000000)">
            <path d="M108.9377,171.8505 L220.9147,171.8505 C225.4807,171.8505 229.2167,168.1145 229.2167,163.5475 L229.2167,59.0305 C229.2167,54.4645 225.4807,50.7275 220.9147,50.7275 L111.4647,50.7275 C109.0487,50.7275 106.8777,49.2505 105.9907,47.0025 L101.8887,36.6095 C100.4727,33.0185 97.0047,30.6595 93.1457,30.6595 L28.8027,30.6595 C26.0057,30.6595 23.7177,32.9485 23.7177,35.7455 L23.7177,59.0305 L23.7177,64.6565 L23.7177,163.5475 C23.7177,168.1145 27.4547,171.8505 32.0207,171.8505 L56.8057,171.8505" id="Stroke-1" stroke="#E65025" stroke-width="3" stroke-linecap="round" stroke-linejoin="round"></path>
            <line x1="192.633" y1="50.7275" x2="192.633" y2="146.0735" id="Stroke-3" stroke="#E65025" stroke-width="3" stroke-linecap="round" stroke-linejoin="round"></line>
            <line x1="191.8557" y1="58.7661" x2="185.6097" y2="58.7661" id="Stroke-5" stroke="#E65025" stroke-width="3" stroke-linecap="round" stroke-linejoin="round"></line>
            <line x1="191.8557" y1="67.0414" x2="185.6097" y2="67.0414" id="Stroke-7" stroke="#E65025" stroke-width="3" stroke-linecap="round" stroke-linejoin="round"></line>
            <line x1="191.8557" y1="75.3168" x2="185.6097" y2="75.3168" id="Stroke-9" stroke="#E65025" stroke-width="3" stroke-linecap="round" stroke-linejoin="round"></line>
            <line x1="191.8557" y1="83.5922" x2="185.6097" y2="83.5922" id="Stroke-11" stroke="#E65025" stroke-width="3" stroke-linecap="round" stroke-linejoin="round"></line>
            <line x1="191.8557" y1="91.8676" x2="185.6097" y2="91.8676" id="Stroke-13" stroke="#E65025" stroke-width="3" stroke-linecap="round" stroke-linejoin="round"></line>
            <line x1="191.8557" y1="100.143" x2="185.6097" y2="100.143" id="Stroke-15" stroke="#E65025" stroke-width="3" stroke-linecap="round" stroke-linejoin="round"></line>
            <line x1="191.8557" y1="108.4189" x2="185.6097" y2="108.4189" id="Stroke-17" stroke="#E65025" stroke-width="3" stroke-linecap="round" stroke-linejoin="round"></line>
            <line x1="191.8557" y1="116.6943" x2="185.6097" y2="116.6943" id="Stroke-19" stroke="#E65025" stroke-width="3" stroke-linecap="round" stroke-linejoin="round"></line>
            <line x1="191.8557" y1="124.9697" x2="185.6097" y2="124.9697" id="Stroke-21" stroke="#E65025" stroke-width="3" stroke-linecap="round" stroke-linejoin="round"></line>
            <line x1="191.8557" y1="133.2451" x2="185.6097" y2="133.2451" id="Stroke-23" stroke="#E65025" stroke-width="3" stroke-linecap="round" stroke-linejoin="round"></line>
            <line x1="191.8557" y1="141.5204" x2="185.6097" y2="141.5204" id="Stroke-25" stroke="#E65025" stroke-width="3" stroke-linecap="round" stroke-linejoin="round"></line>
            <line x1="199.717" y1="63.3193" x2="193.471" y2="63.3193" id="Stroke-27" stroke="#E65025" stroke-width="3" stroke-linecap="round" stroke-linejoin="round"></line>
            <line x1="199.717" y1="71.5952" x2="193.471" y2="71.5952" id="Stroke-29" stroke="#E65025" stroke-width="3" stroke-linecap="round" stroke-linejoin="round"></line>
            <line x1="199.717" y1="79.8705" x2="193.471" y2="79.8705" id="Stroke-31" stroke="#E65025" stroke-width="3" stroke-linecap="round" stroke-linejoin="round"></line>
            <line x1="199.717" y1="88.1459" x2="193.471" y2="88.1459" id="Stroke-33" stroke="#E65025" stroke-width="3" stroke-linecap="round" stroke-linejoin="round"></line>
            <line x1="199.717" y1="96.4213" x2="193.471" y2="96.4213" id="Stroke-35" stroke="#E65025" stroke-width="3" stroke-linecap="round" stroke-linejoin="round"></line>
            <line x1="199.717" y1="104.6967" x2="193.471" y2="104.6967" id="Stroke-37" stroke="#E65025" stroke-width="3" stroke-linecap="round" stroke-linejoin="round"></line>
            <line x1="199.717" y1="112.9716" x2="193.471" y2="112.9716" id="Stroke-39" stroke="#E65025" stroke-width="3" stroke-linecap="round" stroke-linejoin="round"></line>
            <line x1="199.717" y1="121.247" x2="193.471" y2="121.247" id="Stroke-41" stroke="#E65025" stroke-width="3" stroke-linecap="round" stroke-linejoin="round"></line>
            <line x1="199.717" y1="129.5234" x2="193.471" y2="129.5234" id="Stroke-43" stroke="#E65025" stroke-width="3" stroke-linecap="round" stroke-linejoin="round"></line>
            <line x1="199.717" y1="137.7988" x2="193.471" y2="137.7988" id="Stroke-45" stroke="#E65025" stroke-width="3" stroke-linecap="round" stroke-linejoin="round"></line>
            <line x1="199.717" y1="146.0742" x2="193.471" y2="146.0742" id="Stroke-47" stroke="#E65025" stroke-width="3" stroke-linecap="round" stroke-linejoin="round"></line>
            <path d="M187.2492,158.3749 C187.2492,155.3999 192.6332,146.0729 192.6332,146.0729 C192.6332,146.0729 198.0182,155.3999 198.0182,158.3749 C198.0182,161.3489 195.6072,163.7589 192.6332,163.7589 C189.6592,163.7589 187.2492,161.3489 187.2492,158.3749 Z" id="Stroke-49" stroke="#E65025" stroke-width="3" stroke-linecap="round" stroke-linejoin="round"></path>
            <path d="M191.6379,157.7968 C191.6379,157.2468 192.0829,156.8008 192.6329,156.8008 C193.1839,156.8008 193.6289,157.2468 193.6289,157.7968 C193.6289,158.3468 193.1839,158.7928 192.6329,158.7928 C192.0829,158.7928 191.6379,158.3468 191.6379,157.7968 Z" id="Stroke-51" stroke="#E65025" stroke-width="3" stroke-linecap="round" stroke-linejoin="round"></path>
            <path d="M61.8449,182.246 L61.8449,211.336 C61.8449,214.247 64.2039,216.607 67.1159,216.607 L98.6279,216.607 C101.5389,216.607 103.8999,214.247 103.8999,211.336 L103.8999,182.246 L111.0469,182.246 C113.4509,182.246 114.6559,179.339 112.9549,177.639 L88.7349,153.418 C85.4959,150.181 80.2469,150.181 77.0099,153.418 L52.7889,177.639 C51.0889,179.339 52.2929,182.246 54.6979,182.246 L61.8449,182.246 Z" id="Stroke-53" stroke="#E65025" stroke-width="3" stroke-linecap="round" stroke-linejoin="round"></path>
            <path d="M138.6057,50.7285 L138.6057,16.9165 C138.6057,14.9705 140.1987,13.3775 142.1457,13.3775 L241.1287,13.3775 C243.0767,13.3775 244.6687,14.9705 244.6687,16.9165 L244.6687,79.7515 C244.6687,81.6985 243.0767,83.2915 241.1287,83.2915 L229.2167,83.2915" id="Stroke-55" stroke="#E65025" stroke-width="3" stroke-linecap="round" stroke-linejoin="round"></path>
            <line x1="138.6057" y1="23.0302" x2="244.6687" y2="23.0302" id="Stroke-57" stroke="#E65025" stroke-width="3" stroke-linecap="round" stroke-linejoin="round"></line>
            <path d="M239.1672,16.2128 C238.0582,16.2128 237.1572,17.1128 237.1572,18.2228 C237.1572,19.3328 238.0582,20.2328 239.1672,20.2328 C240.2772,20.2328 241.1772,19.3328 241.1772,18.2228 C241.1772,17.1128 240.2772,16.2128 239.1672,16.2128" id="Fill-59" fill="#E65025"></path>
            <path d="M233.5275,16.2128 C232.4185,16.2128 231.5175,17.1128 231.5175,18.2228 C231.5175,19.3328 232.4185,20.2328 233.5275,20.2328 C234.6375,20.2328 235.5375,19.3328 235.5375,18.2228 C235.5375,17.1128 234.6375,16.2128 233.5275,16.2128" id="Fill-61" fill="#E65025"></path>
            <path d="M227.8879,16.2128 C226.7789,16.2128 225.8779,17.1128 225.8779,18.2228 C225.8779,19.3328 226.7789,20.2328 227.8879,20.2328 C228.9979,20.2328 229.8979,19.3328 229.8979,18.2228 C229.8979,17.1128 228.9979,16.2128 227.8879,16.2128" id="Fill-63" fill="#E65025"></path>
            <path d="M23.718,97.683 L4.815,97.683 C2.156,97.683 0,95.528 0,92.869 L0,4.815 C0,2.156 2.156,0 4.815,0 L50.156,0 L64.441,13.123 L64.441,30.66" id="Stroke-65" stroke="#E65025" stroke-width="3" stroke-linecap="round" stroke-linejoin="round"></path>
            <path d="M50.1564,0.0004 L50.1564,12.3404 C50.1564,13.4094 51.0224,14.2754 52.0914,14.2754 L64.4404,14.2754" id="Stroke-67" stroke="#E65025" stroke-width="3" stroke-linecap="round" stroke-linejoin="round"></path>
        </g>
    </g>
</svg>